<svg width="21" height="21" viewBox="0 0 21 21" fill="none" xmlns="http://www.w3.org/2000/svg">
<path d="M10.2891 20.5C4.76606 20.5 0.289062 16.023 0.289062 10.5C0.289062 4.977 4.76606 0.5 10.2891 0.5C15.8121 0.5 20.2891 4.977 20.2891 10.5C20.2891 16.023 15.8121 20.5 10.2891 20.5ZM10.2891 18.5C12.4108 18.5 14.4456 17.6571 15.9459 16.1569C17.4462 14.6566 18.2891 12.6217 18.2891 10.5C18.2891 8.37827 17.4462 6.34344 15.9459 4.84315C14.4456 3.34285 12.4108 2.5 10.2891 2.5C8.16733 2.5 6.1325 3.34285 4.63221 4.84315C3.13192 6.34344 2.28906 8.37827 2.28906 10.5C2.28906 12.6217 3.13192 14.6566 4.63221 16.1569C6.1325 17.6571 8.16733 18.5 10.2891 18.5ZM10.2891 4.5C11.3499 4.5 12.3673 4.92143 13.1175 5.67157C13.8676 6.42172 14.2891 7.43913 14.2891 8.5V10.5C14.2891 11.5609 13.8676 12.5783 13.1175 13.3284C12.3673 14.0786 11.3499 14.5 10.2891 14.5C9.2282 14.5 8.21078 14.0786 7.46064 13.3284C6.71049 12.5783 6.28906 11.5609 6.28906 10.5V8.5C6.28906 7.43913 6.71049 6.42172 7.46064 5.67157C8.21078 4.92143 9.2282 4.5 10.2891 4.5ZM10.2891 6.5C9.75863 6.5 9.24992 6.71071 8.87485 7.08579C8.49978 7.46086 8.28906 7.96957 8.28906 8.5V10.5C8.28906 11.0304 8.49978 11.5391 8.87485 11.9142C9.24992 12.2893 9.75863 12.5 10.2891 12.5C10.8195 12.5 11.3282 12.2893 11.7033 11.9142C12.0783 11.5391 12.2891 11.0304 12.2891 10.5V8.5C12.2891 7.96957 12.0783 7.46086 11.7033 7.08579C11.3282 6.71071 10.8195 6.5 10.2891 6.5ZM6.19906 17.376C5.62305 17.0329 5.09225 16.619 4.61906 16.144C5.21304 15.446 5.97009 14.9053 6.82306 14.57C6.94601 14.5175 7.07822 14.4903 7.21189 14.4898C7.34556 14.4893 7.47797 14.5156 7.60129 14.5672C7.72461 14.6188 7.83634 14.6945 7.92988 14.79C8.02342 14.8855 8.09686 14.9988 8.14587 15.1231C8.19488 15.2475 8.21846 15.3804 8.21521 15.514C8.21197 15.6477 8.18197 15.7793 8.12698 15.9011C8.072 16.023 7.99314 16.1325 7.89508 16.2234C7.79702 16.3142 7.68174 16.3845 7.55606 16.43C7.02406 16.64 6.56306 16.968 6.19806 17.376H6.19906ZM14.3431 17.398C13.9559 16.9697 13.4727 16.6394 12.9331 16.434C12.8066 16.3901 12.6902 16.3213 12.5909 16.2316C12.4915 16.1419 12.4112 16.0332 12.3546 15.9119C12.298 15.7905 12.2664 15.6591 12.2616 15.5253C12.2567 15.3916 12.2788 15.2582 12.3265 15.1331C12.3742 15.008 12.4465 14.8938 12.5391 14.7972C12.6317 14.7006 12.7428 14.6235 12.8658 14.5706C12.9888 14.5177 13.1211 14.4901 13.255 14.4893C13.3888 14.4885 13.5215 14.5146 13.6451 14.566C14.5289 14.9021 15.3142 15.4547 15.9291 16.173C15.4536 16.6459 14.9208 17.0575 14.3431 17.398Z" fill="white"/>
</svg>
