<svg width="54" height="54" viewBox="0 0 54 54" fill="none" xmlns="http://www.w3.org/2000/svg">
<g id="Group 1171275903">
<path id="Ellipse 2641" d="M52.8518 27C52.8518 41.3646 41.2724 53 27.0001 53C12.7278 53 1.14844 41.3646 1.14844 27C1.14844 12.6354 12.7278 1 27.0001 1C41.2724 1 52.8518 12.6354 52.8518 27Z" fill="#1A1A1A" stroke="#E6E6E6" stroke-width="2"/>
<path id="add_a_photo" d="M17.377 38.75C16.7786 38.75 16.2576 38.5309 15.8139 38.0926C15.3703 37.6543 15.1484 37.1396 15.1484 36.5484V23.3387C15.1484 22.7475 15.3703 22.2328 15.8139 21.7945C16.2576 21.3562 16.7786 21.1371 17.377 21.1371H21.0913L23.3199 18.2016H32.2342V20.4032H24.4342L22.2056 23.3387H17.377V36.5484H36.6913V24.8065H38.9199V36.5484C38.9199 37.1396 38.7017 37.6543 38.2652 38.0926C37.8288 38.5309 37.3042 38.75 36.6913 38.75H17.377ZM36.6913 22.6048V20.4032H34.4627V18.2016H36.6913V16H38.9199V18.2016H41.1484V20.4032H38.9199V22.6048H36.6913ZM27.0342 35.0806C28.5199 35.0806 29.758 34.5812 30.7484 33.5823C31.7389 32.5834 32.2342 31.3705 32.2342 29.9435C32.2342 28.537 31.7389 27.3291 30.7484 26.3201C29.758 25.311 28.5199 24.8065 27.0342 24.8065C25.5484 24.8065 24.3103 25.311 23.3199 26.3201C22.3294 27.3291 21.8342 28.5421 21.8342 29.9588C21.8342 31.3756 22.3294 32.5834 23.3199 33.5823C24.3103 34.5812 25.5484 35.0806 27.0342 35.0806ZM27.0342 32.879C26.1675 32.879 25.4556 32.5923 24.8984 32.0189C24.3413 31.4454 24.0627 30.7435 24.0627 29.913C24.0627 29.0996 24.3413 28.4121 24.8984 27.8505C25.4556 27.2889 26.1675 27.0081 27.0342 27.0081C27.9008 27.0081 28.6127 27.2889 29.1699 27.8505C29.727 28.4121 30.0056 29.0996 30.0056 29.913C30.0056 30.7435 29.727 31.4454 29.1699 32.0189C28.6127 32.5923 27.9008 32.879 27.0342 32.879Z" fill="#CCCCCC"/>
</g>
</svg>
