<svg width="8" height="14" viewBox="0 0 8 14" fill="none" xmlns="http://www.w3.org/2000/svg">
<path d="M2.68579 7.07098L7.63579 2.12098C7.81795 1.93238 7.91874 1.67978 7.91647 1.41758C7.91419 1.15538 7.80902 0.904571 7.62361 0.719163C7.4382 0.533755 7.18739 0.428586 6.92519 0.426307C6.663 0.424029 6.41039 0.524823 6.22179 0.706981L0.564792 6.36398C0.377321 6.55151 0.272006 6.80582 0.272006 7.07098C0.272006 7.33615 0.377321 7.59045 0.564792 7.77798L6.22179 13.435C6.41039 13.6171 6.663 13.7179 6.92519 13.7157C7.18739 13.7134 7.4382 13.6082 7.62361 13.4228C7.80902 13.2374 7.91419 12.9866 7.91647 12.7244C7.91874 12.4622 7.81795 12.2096 7.63579 12.021L2.68579 7.07098Z" fill="#CCCCCC"/>
</svg>
