<svg width="25" height="25" viewBox="0 0 25 25" fill="none" xmlns="http://www.w3.org/2000/svg">
<g id="Icons/chevron-right">
<path id="Vector" d="M13.6033 12.571L8.65327 7.62098C8.47111 7.43238 8.37032 7.17978 8.3726 6.91758C8.37487 6.65538 8.48004 6.40457 8.66545 6.21916C8.85086 6.03375 9.10167 5.92859 9.36387 5.92631C9.62607 5.92403 9.87867 6.02482 10.0673 6.20698L15.7243 11.864C15.9117 12.0515 16.0171 12.3058 16.0171 12.571C16.0171 12.8361 15.9117 13.0905 15.7243 13.278L10.0673 18.935C9.87867 19.1171 9.62607 19.2179 9.36387 19.2157C9.10167 19.2134 8.85086 19.1082 8.66545 18.9228C8.48004 18.7374 8.37487 18.4866 8.3726 18.2244C8.37032 17.9622 8.47111 17.7096 8.65327 17.521L13.6033 12.571Z" fill="white"/>
</g>
</svg>
