<svg width="24" height="24" viewBox="0 0 24 24" fill="none" xmlns="http://www.w3.org/2000/svg">
<path d="M9.01256 21.0414C9.01256 21.0414 10.2464 21.7363 12.0028 21.7363C13.7592 21.7363 15.0236 21.0414 15.0236 21.0414M5.44055 12.8246L4.17693 14.5863C3.22773 15.9096 4.17354 17.752 5.80209 17.752H18.1603C19.7786 17.752 20.7269 15.9301 19.7985 14.6046L18.5455 12.8156C18.1923 12.3112 18.0028 11.7104 18.0028 11.0946V8.75195C18.0028 5.43824 15.3165 2.75195 12.0028 2.75195V2.75195C8.6891 2.75195 6.00281 5.43825 6.00281 8.75195V11.076C6.00281 11.7033 5.80617 12.3148 5.44055 12.8246Z" stroke="white" stroke-width="2" stroke-linecap="round"/>
<circle cx="22" cy="2" r="2" fill="white"/>
</svg>
