<svg width="18" height="22" viewBox="0 0 18 22" fill="none" xmlns="http://www.w3.org/2000/svg">
<path fill-rule="evenodd" clip-rule="evenodd" d="M0 4.06658C0 1.82067 1.82716 0 4.08106 0H13.9189C16.1728 0 18 1.82067 18 4.06658V20.4723C18 21.7145 16.5895 22.4355 15.577 21.711L9 17.005L2.42305 21.711C1.41052 22.4355 0 21.7145 0 20.4723V4.06658ZM4.08106 2.03329C2.95411 2.03329 2.04053 2.94363 2.04053 4.06658V19.4815L7.8098 15.3534C8.52107 14.8444 9.47893 14.8444 10.1902 15.3534L15.9595 19.4815V4.06658C15.9595 2.94363 15.0459 2.03329 13.9189 2.03329H4.08106Z" fill="#F3F3F3"/>
</svg>
