<svg width="15" height="18" viewBox="0 0 15 18" fill="none" xmlns="http://www.w3.org/2000/svg">
<path d="M2.86601 16.7671L2.26662 15.9666H2.26662L2.86601 16.7671ZM7.28571 13.4576L7.88511 12.6571L7.28571 12.2083L6.68632 12.6571L7.28571 13.4576ZM11.7054 16.7671L11.106 17.5676H11.106L11.7054 16.7671ZM13.5714 15.4748L12.5717 15.4512L12.5714 15.463V15.4748H13.5714ZM13.5714 4.46782H12.5714L12.5715 4.47768L13.5714 4.46782ZM2 4.27734C2 2.9797 2.99846 2 4.14286 2V0C1.81575 0 0 1.95493 0 4.27734H2ZM2 15.7688V4.27734H0V15.7688H2ZM2.26662 15.9666C2.22929 15.9946 2.20403 15.999 2.18889 15.9998C2.16954 16.0009 2.14261 15.9968 2.11231 15.9806C2.05492 15.9499 2 15.8853 2 15.7688H0C0 17.512 1.96188 18.6934 3.4654 17.5676L2.26662 15.9666ZM6.68632 12.6571L2.26662 15.9666L3.4654 17.5676L7.88511 14.258L6.68632 12.6571ZM12.3048 15.9667L7.88511 12.6571L6.68632 14.258L11.106 17.5676L12.3048 15.9667ZM12.5714 15.7688C12.5714 15.8853 12.5165 15.9499 12.4591 15.9806C12.4288 15.9968 12.4019 16.0009 12.3825 15.9998C12.3674 15.999 12.3421 15.9946 12.3048 15.9667L11.106 17.5676C12.6096 18.6934 14.5714 17.512 14.5714 15.7688H12.5714ZM12.5714 15.4748V15.7688H14.5714V15.4748H12.5714ZM12.5715 15.4653C12.5715 15.4607 12.5716 15.456 12.5717 15.4512L14.5711 15.4984C14.5714 15.4873 14.5715 15.4763 14.5715 15.4653H12.5715ZM12.5715 4.49046V15.4653H14.5715V4.49046H12.5715ZM12.5715 4.47768C12.5715 4.48193 12.5715 4.48619 12.5715 4.49046H14.5715C14.5715 4.47963 14.5715 4.46879 14.5714 4.45795L12.5715 4.47768ZM12.5714 4.27734V4.46782H14.5714V4.27734H12.5714ZM10.4286 2C11.573 2 12.5714 2.9797 12.5714 4.27734H14.5714C14.5714 1.95493 12.7557 0 10.4286 0V2ZM4.14286 2H10.4286V0H4.14286V2Z" fill="#196AFF"/>
</svg>
