<svg width="20" height="20" viewBox="0 0 20 20" fill="none" xmlns="http://www.w3.org/2000/svg">
<g id="Frame 1321318363">
<path id="Vector" d="M16 8.44444V6.88889C16 6.68261 15.9181 6.48478 15.7722 6.33892C15.6263 6.19306 15.4285 6.11111 15.2222 6.11111H14.4444V6.88889C14.4444 7.09517 14.3625 7.293 14.2166 7.43886C14.0708 7.58472 13.8729 7.66667 13.6667 7.66667C13.4604 7.66667 13.2626 7.58472 13.1167 7.43886C12.9708 7.293 12.8889 7.09517 12.8889 6.88889V6.11111H6.66667V6.88889C6.66667 7.09517 6.58472 7.293 6.43886 7.43886C6.293 7.58472 6.09517 7.66667 5.88889 7.66667C5.68261 7.66667 5.48478 7.58472 5.33892 7.43886C5.19306 7.293 5.11111 7.09517 5.11111 6.88889V6.11111H4.33333C4.12705 6.11111 3.92922 6.19306 3.78336 6.33892C3.6375 6.48478 3.55556 6.68261 3.55556 6.88889V8.44444H16ZM16 10H3.55556V14.6667C3.55556 14.8729 3.6375 15.0708 3.78336 15.2166C3.92922 15.3625 4.12705 15.4444 4.33333 15.4444H15.2222C15.4285 15.4444 15.6263 15.3625 15.7722 15.2166C15.9181 15.0708 16 14.8729 16 14.6667V10ZM14.4444 4.55556H15.2222C15.8411 4.55556 16.4346 4.80139 16.8721 5.23897C17.3097 5.67656 17.5556 6.27005 17.5556 6.88889V14.6667C17.5556 15.2855 17.3097 15.879 16.8721 16.3166C16.4346 16.7542 15.8411 17 15.2222 17H4.33333C3.71449 17 3.121 16.7542 2.68342 16.3166C2.24583 15.879 2 15.2855 2 14.6667V6.88889C2 6.27005 2.24583 5.67656 2.68342 5.23897C3.121 4.80139 3.71449 4.55556 4.33333 4.55556H5.11111V3.77778C5.11111 3.5715 5.19306 3.37367 5.33892 3.22781C5.48478 3.08194 5.68261 3 5.88889 3C6.09517 3 6.293 3.08194 6.43886 3.22781C6.58472 3.37367 6.66667 3.5715 6.66667 3.77778V4.55556H12.8889V3.77778C12.8889 3.5715 12.9708 3.37367 13.1167 3.22781C13.2626 3.08194 13.4604 3 13.6667 3C13.8729 3 14.0708 3.08194 14.2166 3.22781C14.3625 3.37367 14.4444 3.5715 14.4444 3.77778V4.55556Z" fill="#F3F3F3"/>
</g>
</svg>
