<svg width="20" height="20" viewBox="0 0 20 20" fill="none" xmlns="http://www.w3.org/2000/svg">
<path d="M4.16675 2.08331H15.8334C16.4965 2.08331 17.1323 2.34671 17.6012 2.81555C18.07 3.28439 18.3334 3.92027 18.3334 4.58331V11.25C18.3334 11.913 18.07 12.5489 17.6012 13.0177C17.1323 13.4866 16.4965 13.75 15.8334 13.75H10.0351L4.66508 17.7566C4.54115 17.8491 4.39395 17.9053 4.23993 17.9188C4.08591 17.9324 3.93114 17.9029 3.79295 17.8335C3.65476 17.7642 3.53859 17.6577 3.45743 17.5261C3.37628 17.3945 3.33334 17.2429 3.33341 17.0883V13.75C2.89139 13.75 2.46746 13.5744 2.1549 13.2618C1.84234 12.9493 1.66675 12.5253 1.66675 12.0833V4.58331C1.66675 3.92027 1.93014 3.28439 2.39898 2.81555C2.86782 2.34671 3.50371 2.08331 4.16675 2.08331V2.08331ZM9.48175 12.0833H15.8334C16.0544 12.0833 16.2664 11.9955 16.4227 11.8392C16.579 11.683 16.6667 11.471 16.6667 11.25V4.58331C16.6667 4.3623 16.579 4.15034 16.4227 3.99406C16.2664 3.83778 16.0544 3.74998 15.8334 3.74998H4.16675C3.94573 3.74998 3.73377 3.83778 3.57749 3.99406C3.42121 4.15034 3.33341 4.3623 3.33341 4.58331V11.25C3.33341 11.471 3.42121 11.683 3.57749 11.8392C3.73377 11.9955 3.94573 12.0833 4.16675 12.0833C4.38776 12.0833 4.59972 12.1711 4.756 12.3274C4.91228 12.4837 5.00008 12.6956 5.00008 12.9166V15.4275L9.48175 12.0833ZM12.5001 9.58331C12.0581 9.58331 11.6341 9.40772 11.3216 9.09516C11.009 8.7826 10.8334 8.35867 10.8334 7.91665C10.8334 7.47462 11.009 7.0507 11.3216 6.73814C11.6341 6.42557 12.0581 6.24998 12.5001 6.24998C12.9421 6.24998 13.366 6.42557 13.6786 6.73814C13.9912 7.0507 14.1667 7.47462 14.1667 7.91665C14.1667 8.35867 13.9912 8.7826 13.6786 9.09516C13.366 9.40772 12.9421 9.58331 12.5001 9.58331ZM7.50008 9.58331C7.05805 9.58331 6.63413 9.40772 6.32157 9.09516C6.00901 8.7826 5.83341 8.35867 5.83341 7.91665C5.83341 7.47462 6.00901 7.0507 6.32157 6.73814C6.63413 6.42557 7.05805 6.24998 7.50008 6.24998C7.94211 6.24998 8.36603 6.42557 8.67859 6.73814C8.99115 7.0507 9.16675 7.47462 9.16675 7.91665C9.16675 8.35867 8.99115 8.7826 8.67859 9.09516C8.36603 9.40772 7.94211 9.58331 7.50008 9.58331Z" fill="#E6E6E6" stroke="#1A1A1A" stroke-width="0.3"/>
</svg>
