<svg width="14" height="14" viewBox="0 0 14 14" fill="none" xmlns="http://www.w3.org/2000/svg">
<path d="M2.91663 1.45834H11.0833C11.5474 1.45834 11.9925 1.64272 12.3207 1.97091C12.6489 2.2991 12.8333 2.74421 12.8333 3.20834V7.87501C12.8333 8.33914 12.6489 8.78426 12.3207 9.11245C11.9925 9.44064 11.5474 9.62501 11.0833 9.62501H7.02446L3.26546 12.4297C3.17871 12.4944 3.07567 12.5337 2.96785 12.5432C2.86004 12.5527 2.7517 12.532 2.65497 12.4835C2.55823 12.4349 2.47692 12.3604 2.42011 12.2683C2.3633 12.1762 2.33324 12.0701 2.33329 11.9618V9.62501C2.02387 9.62501 1.72713 9.50209 1.50833 9.2833C1.28954 9.06451 1.16663 8.76776 1.16663 8.45834V3.20834C1.16663 2.74421 1.351 2.2991 1.67919 1.97091C2.00738 1.64272 2.4525 1.45834 2.91663 1.45834V1.45834ZM6.63713 8.45834H11.0833C11.238 8.45834 11.3864 8.39689 11.4958 8.28749C11.6052 8.17809 11.6666 8.02972 11.6666 7.87501V3.20834C11.6666 3.05363 11.6052 2.90526 11.4958 2.79586C11.3864 2.68647 11.238 2.62501 11.0833 2.62501H2.91663C2.76192 2.62501 2.61354 2.68647 2.50415 2.79586C2.39475 2.90526 2.33329 3.05363 2.33329 3.20834V7.87501C2.33329 8.02972 2.39475 8.17809 2.50415 8.28749C2.61354 8.39689 2.76192 8.45834 2.91663 8.45834C3.07134 8.45834 3.21971 8.5198 3.32911 8.6292C3.4385 8.73859 3.49996 8.88697 3.49996 9.04168V10.7993L6.63713 8.45834ZM8.74996 6.70834C8.44054 6.70834 8.14379 6.58543 7.925 6.36663C7.70621 6.14784 7.58329 5.8511 7.58329 5.54168C7.58329 5.23226 7.70621 4.93551 7.925 4.71672C8.14379 4.49793 8.44054 4.37501 8.74996 4.37501C9.05938 4.37501 9.35612 4.49793 9.57492 4.71672C9.79371 4.93551 9.91663 5.23226 9.91663 5.54168C9.91663 5.8511 9.79371 6.14784 9.57492 6.36663C9.35612 6.58543 9.05938 6.70834 8.74996 6.70834ZM5.24996 6.70834C4.94054 6.70834 4.64379 6.58543 4.425 6.36663C4.20621 6.14784 4.08329 5.8511 4.08329 5.54168C4.08329 5.23226 4.20621 4.93551 4.425 4.71672C4.64379 4.49793 4.94054 4.37501 5.24996 4.37501C5.55938 4.37501 5.85612 4.49793 6.07492 4.71672C6.29371 4.93551 6.41663 5.23226 6.41663 5.54168C6.41663 5.8511 6.29371 6.14784 6.07492 6.36663C5.85612 6.58543 5.55938 6.70834 5.24996 6.70834Z" fill="#808080"/>
</svg>
