<svg width="14" height="9" viewBox="0 0 14 9" fill="none" xmlns="http://www.w3.org/2000/svg">
<path id="control" d="M13.127 1.78857L6.43848 8.62646C6.20117 8.87256 5.9375 8.98682 5.62988 8.98682C5.32227 8.98682 5.04102 8.86377 4.8125 8.62646L0.586916 4.83154C0.393557 4.62939 0.288088 4.39209 0.288088 4.10205C0.288088 3.51318 0.74512 3.05615 1.3252 3.05615C1.60645 3.05615 1.87891 3.17041 2.08106 3.37256L5.62109 6.49072L11.6328 0.32959C11.835 0.127441 12.0986 0.0131835 12.3887 0.0131835C12.9688 0.0131836 13.4258 0.470215 13.4258 1.05908C13.4258 1.34033 13.3203 1.58643 13.127 1.78857Z" fill="#0059FF"/>
</svg>
