<svg width="14" height="14" viewBox="0 0 14 14" fill="none" xmlns="http://www.w3.org/2000/svg">
<g id="Icons/heart">
<path id="Vector" d="M3.28759 6.53825L6.99992 10.2506L10.7123 6.53825C11.0405 6.21004 11.2249 5.76488 11.2249 5.30071C11.2249 4.83654 11.0405 4.39139 10.7123 4.06317C10.5497 3.90065 10.3568 3.77174 10.1445 3.68378C9.93213 3.59583 9.70454 3.55056 9.47471 3.55056C9.01054 3.55056 8.56539 3.73495 8.23717 4.06317L6.99992 5.30042L5.76267 4.06375C5.43362 3.73994 4.98994 3.55927 4.52828 3.56109C4.06663 3.56292 3.62439 3.74709 3.29791 4.0735C2.97143 4.3999 2.78715 4.84209 2.78522 5.30375C2.78328 5.7654 2.96385 6.20912 3.28759 6.53825ZM6.5875 3.23775L6.99992 3.65017L7.41234 3.23775C7.68274 2.96497 8.00436 2.74828 8.35874 2.60013C8.71311 2.45197 9.09326 2.37528 9.47736 2.37444C9.86145 2.37359 10.2419 2.44863 10.597 2.59523C10.952 2.74182 11.2745 2.9571 11.5461 3.2287C11.8177 3.5003 12.033 3.82287 12.1796 4.17789C12.3262 4.53291 12.4012 4.91339 12.4004 5.29748C12.3996 5.68158 12.3229 6.06173 12.1747 6.4161C12.0266 6.77047 11.8099 7.0921 11.5371 7.3625L7.41292 11.4873C7.35874 11.5415 7.29441 11.5845 7.22359 11.6139C7.15278 11.6432 7.07687 11.6583 7.00021 11.6583C6.92355 11.6583 6.84764 11.6432 6.77683 11.6139C6.70601 11.5845 6.64168 11.5415 6.5875 11.4873L2.46275 7.36309C2.18626 7.09355 1.96604 6.7718 1.81486 6.41649C1.66368 6.06118 1.58457 5.67939 1.58209 5.29326C1.57962 4.90714 1.65384 4.52437 1.80045 4.16715C1.94706 3.80993 2.16314 3.48538 2.43616 3.21233C2.70917 2.93927 3.03369 2.72314 3.39089 2.57648C3.74809 2.42982 4.13085 2.35555 4.51697 2.35797C4.9031 2.36039 5.2849 2.43945 5.64023 2.59058C5.99556 2.7417 6.31734 2.96188 6.58692 3.23834L6.5875 3.23775Z" fill="#E6E6E6"/>
</g>
</svg>
