<svg width="14" height="14" viewBox="0 0 14 14" fill="none" xmlns="http://www.w3.org/2000/svg">
<path d="M3.28771 6.53804L7.00004 10.2504L10.7124 6.53804C11.0406 6.20982 11.225 5.76467 11.225 5.3005C11.225 4.83633 11.0406 4.39117 10.7124 4.06296C10.5499 3.90044 10.3569 3.77152 10.1446 3.68357C9.93225 3.59562 9.70467 3.55035 9.47483 3.55035C9.01066 3.55035 8.56551 3.73474 8.23729 4.06296L7.00004 5.30021L5.76279 4.06354C5.43374 3.73973 4.99006 3.55905 4.52841 3.56088C4.06675 3.5627 3.62451 3.74688 3.29803 4.07328C2.97155 4.39969 2.78727 4.84188 2.78534 5.30353C2.78341 5.76519 2.96397 6.20891 3.28771 6.53804ZM6.58762 3.23754L7.00004 3.64996L7.41246 3.23754C7.68286 2.96475 8.00449 2.74807 8.35886 2.59991C8.71323 2.45176 9.09338 2.37506 9.47748 2.37422C9.86157 2.37338 10.2421 2.44841 10.5971 2.59501C10.9521 2.74161 11.2747 2.95689 11.5463 3.22849C11.8179 3.50008 12.0331 3.82265 12.1797 4.17767C12.3263 4.53269 12.4014 4.91317 12.4005 5.29727C12.3997 5.68136 12.323 6.06151 12.1748 6.41589C12.0267 6.77026 11.81 7.09188 11.5372 7.36229L7.41304 11.487C7.35886 11.5413 7.29453 11.5843 7.22371 11.6137C7.1529 11.643 7.07699 11.6581 7.00033 11.6581C6.92367 11.6581 6.84777 11.643 6.77695 11.6137C6.70613 11.5843 6.6418 11.5413 6.58762 11.487L2.46287 7.36287C2.18638 7.09334 1.96616 6.77158 1.81498 6.41627C1.66381 6.06097 1.58469 5.67918 1.58221 5.29305C1.57974 4.90693 1.65396 4.52415 1.80057 4.16694C1.94718 3.80972 2.16326 3.48517 2.43628 3.21211C2.7093 2.93906 3.03382 2.72293 3.39101 2.57627C3.74821 2.42961 4.13097 2.35533 4.5171 2.35775C4.90322 2.36017 5.28502 2.43924 5.64035 2.59036C5.99568 2.74149 6.31747 2.96167 6.58704 3.23812L6.58762 3.23754Z" fill="#808080"/>
</svg>
