<svg width="18" height="16" viewBox="0 0 18 16" fill="none" xmlns="http://www.w3.org/2000/svg">
<path d="M10.017 2.25408L10.0166 2.25457L9.3536 2.97955L8.61563 3.78655L7.87767 2.97955L7.2147 2.25457L7.21359 2.25335C5.84547 0.752305 3.727 0.585103 2.34411 1.83536C0.650823 3.36927 0.551595 6.16967 2.07887 7.84524L8.59017 14.9802C8.59023 14.9803 8.59029 14.9803 8.59035 14.9804C8.6037 14.9949 8.61237 14.9989 8.61383 14.9996C8.61387 14.9996 8.61391 14.9996 8.61395 14.9996C8.61399 14.9996 8.61403 14.9996 8.61407 14.9996C8.61552 14.9989 8.6242 14.9949 8.63754 14.9804C8.63757 14.9804 8.63759 14.9803 8.63762 14.9803C8.63765 14.9803 8.63769 14.9802 8.63772 14.9802L15.1494 7.8448L15.1496 7.84459C16.6795 6.16909 16.5804 3.36907 14.887 1.83525L10.017 2.25408ZM10.017 2.25408C11.389 0.751765 13.5045 0.585473 14.887 1.83519L10.017 2.25408Z" stroke="#D3265C" stroke-width="2"/>
</svg>
