<svg width="16" height="8" viewBox="0 0 16 8" fill="none" xmlns="http://www.w3.org/2000/svg">
<path id="link" d="M7.2 7.22054C7.2 7.65103 6.85103 8 6.42054 8H4C2.89333 8 1.95 7.61 1.17 6.83C0.39 6.05 0 5.10667 0 4C0 2.89333 0.39 1.95 1.17 1.17C1.95 0.39 2.89333 0 4 0H6.42054C6.85103 0 7.2 0.348974 7.2 0.779456V0.820544C7.2 1.25103 6.85103 1.6 6.42054 1.6H4C3.33333 1.6 2.76667 1.83333 2.3 2.3C1.83333 2.76667 1.6 3.33333 1.6 4C1.6 4.66667 1.83333 5.23333 2.3 5.7C2.76667 6.16667 3.33333 6.4 4 6.4H6.42054C6.85103 6.4 7.2 6.74897 7.2 7.17946V7.22054ZM5.57946 4.8C5.14898 4.8 4.8 4.45103 4.8 4.02054V3.97946C4.8 3.54897 5.14897 3.2 5.57946 3.2H10.4205C10.851 3.2 11.2 3.54897 11.2 3.97946V4.02054C11.2 4.45103 10.851 4.8 10.4205 4.8H5.57946ZM9.57946 8C9.14898 8 8.8 7.65103 8.8 7.22054V7.17946C8.8 6.74897 9.14897 6.4 9.57946 6.4H12C12.6667 6.4 13.2333 6.16667 13.7 5.7C14.1667 5.23333 14.4 4.66667 14.4 4C14.4 3.33333 14.1667 2.76667 13.7 2.3C13.2333 1.83333 12.6667 1.6 12 1.6H9.57946C9.14898 1.6 8.8 1.25103 8.8 0.820545V0.779456C8.8 0.348975 9.14897 0 9.57946 0H12C13.1067 0 14.05 0.39 14.83 1.17C15.61 1.95 16 2.89333 16 4C16 5.10667 15.61 6.05 14.83 6.83C14.05 7.61 13.1067 8 12 8H9.57946Z" fill="#F3F3F3"/>
</svg>
