<svg width="9" height="13" viewBox="0 0 9 13" fill="none" xmlns="http://www.w3.org/2000/svg">
<path d="M7.20581 6.49984C7.51523 6.49984 7.81198 6.62275 8.03077 6.84155C8.24956 7.06034 8.37248 7.35708 8.37248 7.6665V11.1665C8.37248 11.4759 8.24956 11.7727 8.03077 11.9915C7.81198 12.2103 7.51523 12.3332 7.20581 12.3332H1.37248C1.06306 12.3332 0.766312 12.2103 0.547519 11.9915C0.328727 11.7727 0.205811 11.4759 0.205811 11.1665V7.6665C0.205811 7.35708 0.328727 7.06034 0.547519 6.84155C0.766312 6.62275 1.06306 6.49984 1.37248 6.49984V3.58317C1.37248 2.80962 1.67977 2.06776 2.22675 1.52078C2.77373 0.973795 3.5156 0.666504 4.28914 0.666504C5.06269 0.666504 5.80456 0.973795 6.35154 1.52078C6.89852 2.06776 7.20581 2.80962 7.20581 3.58317V6.49984ZM4.28914 10.5832C4.59856 10.5832 4.89531 10.4603 5.1141 10.2415C5.33289 10.0227 5.45581 9.72592 5.45581 9.4165C5.45581 9.10708 5.33289 8.81034 5.1141 8.59155C4.89531 8.37275 4.59856 8.24984 4.28914 8.24984C3.97972 8.24984 3.68298 8.37275 3.46419 8.59155C3.24539 8.81034 3.12248 9.10708 3.12248 9.4165C3.12248 9.72592 3.24539 10.0227 3.46419 10.2415C3.68298 10.4603 3.97972 10.5832 4.28914 10.5832V10.5832ZM6.03914 6.49984V3.58317C6.03914 3.35336 5.99388 3.12579 5.90593 2.91347C5.81799 2.70115 5.68908 2.50824 5.52658 2.34573C5.36408 2.18323 5.17116 2.05433 4.95884 1.96638C4.74652 1.87844 4.51896 1.83317 4.28914 1.83317C4.05933 1.83317 3.83177 1.87844 3.61945 1.96638C3.40713 2.05433 3.21421 2.18323 3.05171 2.34573C2.8892 2.50824 2.7603 2.70115 2.67235 2.91347C2.58441 3.12579 2.53914 3.35336 2.53914 3.58317V6.49984H6.03914Z" fill="#787878"/>
</svg>
