<svg width="15" height="19" viewBox="0 0 15 19" fill="none" xmlns="http://www.w3.org/2000/svg">
<path d="M6.93006 10.328H1.28906C1.02385 10.328 0.769492 10.2226 0.581956 10.0351C0.394419 9.84757 0.289063 9.59322 0.289062 9.328C0.289063 9.06278 0.394419 8.80843 0.581956 8.62089C0.769492 8.43336 1.02385 8.328 1.28906 8.328H6.93006L5.81006 7.208C5.62777 7.01953 5.52679 6.76699 5.52888 6.50479C5.53097 6.24259 5.63596 5.9917 5.82124 5.80616C6.00652 5.62062 6.25726 5.51528 6.51946 5.51281C6.78166 5.51035 7.03433 5.61097 7.22306 5.793L10.0521 8.62C10.1454 8.71267 10.2195 8.82289 10.27 8.94432C10.3206 9.06575 10.3466 9.19597 10.3466 9.3275C10.3466 9.45903 10.3206 9.58925 10.27 9.71068C10.2195 9.83211 10.1454 9.94233 10.0521 10.035L7.22306 12.863C7.03374 13.0408 6.78267 13.1379 6.52298 13.1339C6.2633 13.1299 6.01537 13.025 5.83166 12.8414C5.64794 12.6578 5.54286 12.41 5.53864 12.1503C5.53443 11.8906 5.63141 11.6395 5.80906 11.45L6.93006 10.328ZM13.2891 0.5C13.5543 0.5 13.8086 0.605357 13.9962 0.792893C14.1837 0.98043 14.2891 1.23478 14.2891 1.5V17.5C14.2891 17.7652 14.1837 18.0196 13.9962 18.2071C13.8086 18.3946 13.5543 18.5 13.2891 18.5C13.0238 18.5 12.7695 18.3946 12.582 18.2071C12.3944 18.0196 12.2891 17.7652 12.2891 17.5V1.5C12.2891 1.23478 12.3944 0.98043 12.582 0.792893C12.7695 0.605357 13.0238 0.5 13.2891 0.5V0.5Z" fill="white"/>
</svg>
