<svg width="20" height="20" viewBox="0 0 20 20" fill="none" xmlns="http://www.w3.org/2000/svg">
<path d="M10 6.66666C9.33696 6.66666 8.70107 6.40326 8.23223 5.93442C7.76339 5.46558 7.5 4.8297 7.5 4.16666C7.5 3.50362 7.76339 2.86773 8.23223 2.39889C8.70107 1.93005 9.33696 1.66666 10 1.66666C10.663 1.66666 11.2989 1.93005 11.7678 2.39889C12.2366 2.86773 12.5 3.50362 12.5 4.16666C12.5 4.8297 12.2366 5.46558 11.7678 5.93442C11.2989 6.40326 10.663 6.66666 10 6.66666ZM10 18.3333C9.33696 18.3333 8.70107 18.0699 8.23223 17.6011C7.76339 17.1322 7.5 16.4964 7.5 15.8333C7.5 15.1703 7.76339 14.5344 8.23223 14.0656C8.70107 13.5967 9.33696 13.3333 10 13.3333C10.663 13.3333 11.2989 13.5967 11.7678 14.0656C12.2366 14.5344 12.5 15.1703 12.5 15.8333C12.5 16.4964 12.2366 17.1322 11.7678 17.6011C11.2989 18.0699 10.663 18.3333 10 18.3333ZM10 12.5C9.33696 12.5 8.70107 12.2366 8.23223 11.7678C7.76339 11.2989 7.5 10.663 7.5 9.99999C7.5 9.33695 7.76339 8.70106 8.23223 8.23222C8.70107 7.76338 9.33696 7.49999 10 7.49999C10.663 7.49999 11.2989 7.76338 11.7678 8.23222C12.2366 8.70106 12.5 9.33695 12.5 9.99999C12.5 10.663 12.2366 11.2989 11.7678 11.7678C11.2989 12.2366 10.663 12.5 10 12.5Z" fill="white"/>
</svg>
