<svg width="16" height="12" viewBox="0 0 16 12" fill="none" xmlns="http://www.w3.org/2000/svg">
<g id="Group 1171275535">
<path id="Vector 4634" d="M2.64844 9.56006L3.14844 5.06006H11.6484L12.1484 9.56006C12.1484 10.0601 10.1484 11.0601 7.64844 11.0601C5.14844 11.0601 2.8151 10.0601 2.64844 9.56006Z" fill="#1A1A1A"/>
<path id="Vector 4634 (Stroke)" fill-rule="evenodd" clip-rule="evenodd" d="M2.50398 4.98789C2.54055 4.65871 2.81879 4.40967 3.15 4.40967H11.65C11.9812 4.40967 12.2594 4.65871 12.296 4.98789L12.796 9.48789C12.7987 9.51172 12.8 9.53569 12.8 9.55967C12.8 9.83244 12.6696 10.0439 12.5687 10.1713C12.4597 10.3089 12.3216 10.4287 12.1797 10.5314C11.8937 10.7385 11.5109 10.9346 11.0708 11.1038C10.1861 11.4441 8.98209 11.7097 7.65 11.7097C6.31917 11.7097 5.03986 11.4446 4.06526 11.1124C3.57842 10.9464 3.15096 10.758 2.82248 10.5664C2.6591 10.4711 2.50565 10.3666 2.37844 10.2536C2.26538 10.1531 2.10834 9.99017 2.03336 9.76522C2.00361 9.67599 1.99359 9.58137 2.00398 9.48789L2.50398 4.98789ZM3.73178 5.70967L3.32749 9.34823C3.36705 9.37602 3.41666 9.40803 3.47752 9.44352C3.71154 9.58004 4.05492 9.73541 4.48474 9.88194C5.34348 10.1747 6.48083 10.4097 7.65 10.4097C8.81791 10.4097 9.86394 10.1752 10.6042 9.89049C10.9766 9.74725 11.2501 9.59954 11.4172 9.47852C11.4427 9.46004 11.464 9.44347 11.4815 9.42898L11.0682 5.70967H3.73178ZM11.5497 9.36405C11.5496 9.36411 11.5496 9.36417 11.5495 9.36423L11.5497 9.36405ZM3.21592 9.25609C3.21605 9.25609 3.21758 9.25771 3.22012 9.26099C3.21706 9.25774 3.21579 9.2561 3.21592 9.25609Z" fill="#E6E6E6"/>
<path id="Vector 4633" d="M7.64844 7.05757L0.648438 4.05757L7.64844 0.940918L14.6484 4.05757L7.64844 7.05757Z" fill="#1A1A1A"/>
<path id="Vector 4633 (Stroke)" fill-rule="evenodd" clip-rule="evenodd" d="M7.38562 0.346724C7.55391 0.271795 7.74609 0.271795 7.91438 0.346724L14.9144 3.46338C15.1504 3.56847 15.3018 3.80337 15.3 4.06173C15.2982 4.32009 15.1435 4.55285 14.906 4.65462L7.90605 7.65462C7.74254 7.7247 7.55746 7.7247 7.39395 7.65462L0.393953 4.65462C0.156476 4.55285 0.0018237 4.32009 1.60128e-05 4.06173C-0.00179168 3.80337 0.149588 3.56847 0.385618 3.46338L7.38562 0.346724ZM2.27358 4.04582L7.65 6.35L13.0264 4.04582L7.65 1.65204L2.27358 4.04582Z" fill="#E6E6E6"/>
<path id="Ellipse 1712" d="M8.08398 3.80908C8.08398 4.18608 7.77837 4.4917 7.40137 4.4917C7.02437 4.4917 6.71875 4.18608 6.71875 3.80908C6.71875 3.43208 7.02437 3.12646 7.40137 3.12646C7.77837 3.12646 8.08398 3.43208 8.08398 3.80908Z" fill="#E6E6E6"/>
</g>
</svg>
