<svg width="21" height="21" viewBox="0 0 21 21" fill="none" xmlns="http://www.w3.org/2000/svg">
<path d="M7.4227 17.1578C7.4227 17.1578 8.39947 17.708 9.78998 17.708C11.1805 17.708 12.1814 17.1578 12.1814 17.1578M4.59487 10.6529L3.5945 12.0475C2.84305 13.0952 3.59181 14.5537 4.88108 14.5537H14.6647C15.9458 14.5537 16.6965 13.1114 15.9616 12.0621L14.9696 10.6458C14.69 10.2465 14.54 9.7708 14.54 9.28332V7.42871C14.54 4.80536 12.4133 2.67871 9.78998 2.67871V2.67871C7.16663 2.67871 5.03998 4.80536 5.03998 7.42871V9.2686C5.03998 9.76521 4.88431 10.2493 4.59487 10.6529Z" stroke="white" stroke-width="1.58333" stroke-linecap="round"/>
</svg>
