<svg width="14" height="14" viewBox="0 0 14 14" fill="none" xmlns="http://www.w3.org/2000/svg">
<path d="M9.91663 7.00002C10.226 7.00002 10.5228 7.12294 10.7416 7.34173C10.9604 7.56052 11.0833 7.85727 11.0833 8.16669V11.6667C11.0833 11.9761 10.9604 12.2729 10.7416 12.4916C10.5228 12.7104 10.226 12.8334 9.91663 12.8334H4.08329C3.77387 12.8334 3.47713 12.7104 3.25833 12.4916C3.03954 12.2729 2.91663 11.9761 2.91663 11.6667V8.16669C2.91663 7.85727 3.03954 7.56052 3.25833 7.34173C3.47713 7.12294 3.77387 7.00002 4.08329 7.00002V4.08335C4.08329 3.30981 4.39058 2.56794 4.93756 2.02096C5.48455 1.47398 6.22641 1.16669 6.99996 1.16669C7.77351 1.16669 8.51537 1.47398 9.06235 2.02096C9.60933 2.56794 9.91663 3.30981 9.91663 4.08335V7.00002ZM6.99996 11.0834C7.30938 11.0834 7.60612 10.9604 7.82492 10.7416C8.04371 10.5229 8.16663 10.2261 8.16663 9.91669C8.16663 9.60727 8.04371 9.31052 7.82492 9.09173C7.60612 8.87294 7.30938 8.75002 6.99996 8.75002C6.69054 8.75002 6.39379 8.87294 6.175 9.09173C5.95621 9.31052 5.83329 9.60727 5.83329 9.91669C5.83329 10.2261 5.95621 10.5229 6.175 10.7416C6.39379 10.9604 6.69054 11.0834 6.99996 11.0834ZM8.74996 7.00002V4.08335C8.74996 3.85354 8.70469 3.62598 8.61675 3.41366C8.5288 3.20134 8.3999 3.00842 8.2374 2.84592C8.07489 2.68341 7.88198 2.55451 7.66966 2.46656C7.45734 2.37862 7.22977 2.33335 6.99996 2.33335C6.77015 2.33335 6.54258 2.37862 6.33026 2.46656C6.11794 2.55451 5.92502 2.68341 5.76252 2.84592C5.60002 3.00842 5.47112 3.20134 5.38317 3.41366C5.29522 3.62598 5.24996 3.85354 5.24996 4.08335V7.00002H8.74996Z" fill="#787878"/>
</svg>
