<svg width="14" height="15" viewBox="0 0 14 15" fill="none" xmlns="http://www.w3.org/2000/svg">
<path id="Union" fill-rule="evenodd" clip-rule="evenodd" d="M10.4542 2.0317C10.9993 1.51733 11.8586 1.52962 12.3888 2.06531C12.927 2.60904 12.9225 3.48609 12.3787 4.02427L11.6359 4.75951L9.6689 2.79919L10.3946 2.08093C10.4153 2.06603 10.4352 2.04962 10.4542 2.0317ZM8.84831 3.6114L1.53651 10.8485L1.19148 13.2966L3.46941 12.8333L6.0071 10.3216L6.02508 10.3065C6.05405 10.2821 6.08235 10.2563 6.10989 10.2291L10.8153 5.57171L8.84831 3.6114ZM13.2094 1.25312C12.2592 0.29312 10.733 0.249912 9.73085 1.12918C9.69946 1.14991 9.66964 1.17401 9.64188 1.20148L0.680041 10.0717C0.529254 10.221 0.43157 10.4156 0.401961 10.6257L0.0117337 13.3944C-0.0817229 14.0575 0.509047 14.6135 1.16526 14.4801L3.75347 13.9538C3.93839 13.9162 4.10832 13.8254 4.24243 13.6927L6.78697 11.1741C6.83319 11.1345 6.87826 11.093 6.92208 11.0496L13.1909 4.84484C14.1878 3.85811 14.1961 2.25004 13.2094 1.25312Z" fill="#666666"/>
</svg>
