<svg width="24" height="24" viewBox="0 0 24 24" fill="none" xmlns="http://www.w3.org/2000/svg">
<path fill-rule="evenodd" clip-rule="evenodd" d="M17.9926 2.62577C18.9308 1.744 20.4101 1.76507 21.3228 2.68339C22.2492 3.61549 22.2414 5.11902 21.3055 6.0416L20.0202 7.30844L16.6342 3.9479L17.8899 2.71017C17.9256 2.68462 17.9599 2.65648 17.9926 2.62577ZM15.2216 5.34025L2.6416 17.7403L2.04766 21.937L5.96889 21.1429L10.3373 16.837L10.3682 16.8111C10.4181 16.7694 10.4668 16.7251 10.5142 16.6784L18.6077 8.70079L15.2216 5.34025ZM22.7353 1.29107C21.0996 -0.354652 18.4725 -0.428723 16.7474 1.07859C16.6933 1.11413 16.642 1.15544 16.5942 1.20253L1.16726 16.4087C0.907698 16.6646 0.739545 16.9981 0.688576 17.3583L0.0168363 22.1047C-0.14404 23.2414 0.872914 24.1946 2.00252 23.9658L6.45788 23.0636C6.7762 22.9991 7.06871 22.8436 7.29957 22.616L11.6798 18.2985C11.7593 18.2306 11.8369 18.1594 11.9123 18.0851L22.7036 7.44829C24.4197 5.75675 24.4339 3.00007 22.7353 1.29107Z" fill="white"/>
</svg>
