<svg width="21" height="21" viewBox="0 0 21 21" fill="none" xmlns="http://www.w3.org/2000/svg">
<path d="M10.2891 20.5C4.76606 20.5 0.289062 16.023 0.289062 10.5C0.289062 4.977 4.76606 0.5 10.2891 0.5C15.8121 0.5 20.2891 4.977 20.2891 10.5C20.2891 16.023 15.8121 20.5 10.2891 20.5ZM10.2891 18.5C12.4108 18.5 14.4456 17.6571 15.9459 16.1569C17.4462 14.6566 18.2891 12.6217 18.2891 10.5C18.2891 8.37827 17.4462 6.34344 15.9459 4.84315C14.4456 3.34285 12.4108 2.5 10.2891 2.5C8.16733 2.5 6.1325 3.34285 4.63221 4.84315C3.13192 6.34344 2.28906 8.37827 2.28906 10.5C2.28906 12.6217 3.13192 14.6566 4.63221 16.1569C6.1325 17.6571 8.16733 18.5 10.2891 18.5ZM10.2891 8.5C10.5543 8.5 10.8086 8.60536 10.9962 8.79289C11.1837 8.98043 11.2891 9.23478 11.2891 9.5V14.5C11.2891 14.7652 11.1837 15.0196 10.9962 15.2071C10.8086 15.3946 10.5543 15.5 10.2891 15.5C10.0238 15.5 9.76949 15.3946 9.58196 15.2071C9.39442 15.0196 9.28906 14.7652 9.28906 14.5V9.5C9.28906 9.23478 9.39442 8.98043 9.58196 8.79289C9.76949 8.60536 10.0238 8.5 10.2891 8.5ZM10.2891 7.5C10.0238 7.5 9.76949 7.39464 9.58196 7.20711C9.39442 7.01957 9.28906 6.76522 9.28906 6.5C9.28906 6.23478 9.39442 5.98043 9.58196 5.79289C9.76949 5.60536 10.0238 5.5 10.2891 5.5C10.5543 5.5 10.8086 5.60536 10.9962 5.79289C11.1837 5.98043 11.2891 6.23478 11.2891 6.5C11.2891 6.76522 11.1837 7.01957 10.9962 7.20711C10.8086 7.39464 10.5543 7.5 10.2891 7.5Z" fill="white"/>
</svg>
