<svg width="55" height="54" viewBox="0 0 55 54" fill="none" xmlns="http://www.w3.org/2000/svg">
<circle cx="26.8567" cy="26.8567" r="26.8567" fill="#D9D9D9"/>
<mask id="mask0_989_94772" style="mask-type:alpha" maskUnits="userSpaceOnUse" x="0" y="0" width="55" height="54">
<circle cx="27.2864" cy="26.8567" r="26.8567" fill="#D9D9D9"/>
</mask>
<g mask="url(#mask0_989_94772)">
<path d="M47.5274 44.0783C48.0842 45.0282 48.4756 46.111 48.2794 47.1944C47.5123 51.4308 43.8342 53.9171 39.4124 53.9171C34.4341 53.9171 30.3984 50.1545 30.3984 45.5132C30.3984 41.0864 35.7543 31.4705 39.9397 29.7404C40.329 29.5794 40.7591 29.5288 41.1763 29.5871C45.0061 30.1224 42.6914 35.8278 47.5274 44.0783Z" fill="#F4723A"/>
<path d="M36.0259 45.334C36.0676 45.3391 36.1059 45.3682 36.1197 45.4079C37.1934 48.4835 35.9263 50.6642 34.4587 51.1902C32.9807 51.72 30.984 49.9215 29.9989 47.1733C29.0193 44.4402 29.2244 38.293 30.3474 36.7524C30.36 36.7351 30.3805 36.7218 30.4011 36.716C31.7793 36.3313 28.1452 44.3608 36.0259 45.334Z" fill="#F4723A"/>
<path d="M36.6455 50.2523C36.6773 50.2468 36.712 50.2511 36.741 50.2652C38.7379 51.2281 39.4081 52.3937 39.1425 52.9518C38.8749 53.514 37.6038 54.173 35.8082 53.3184C34.0346 52.4744 30.0359 49.8914 29.9525 48.222C29.9505 48.1819 29.9669 48.1416 29.9997 48.1184C30.6592 47.6501 31.3894 51.1659 36.6455 50.2523Z" fill="#F4723A"/>
<path d="M42.953 50.0202C42.9304 50.0195 42.9067 50.0258 42.8877 50.0381C41.0193 51.2497 40.4899 52.4803 40.8172 52.9889C41.1462 53.5001 42.4763 53.9693 44.1485 52.8931C45.8054 51.8268 49.4688 48.7522 49.3336 47.1189C49.3312 47.0897 49.3147 47.062 49.2894 47.0472C48.5745 46.629 48.2904 50.2044 42.953 50.0202Z" fill="#F4723A"/>
<path d="M31.7384 33.8634C31.1581 34.6414 31.6282 36.5227 30.7178 36.1862C30.1942 35.9926 30.4327 35.083 30.7095 34.5984C30.9747 34.1341 31.3106 33.7621 31.6396 33.4891C32.1889 33.0333 32.4061 33.1602 31.9059 33.6693C31.8469 33.7294 31.7902 33.7939 31.7384 33.8634Z" fill="#F4723A"/>
<path d="M44.3384 44.9949C42.7441 45.7635 40.7729 46.7998 41.4863 48.4196C41.9554 49.4849 42.8829 50.2654 43.8259 50.6033C45.4989 51.203 47.4983 49.8948 48.2917 47.6813C49.1139 45.9294 49.4191 42.9323 49.1132 40.8063C48.8738 39.1431 47.9279 39.4726 47.4107 41.0714C46.9419 42.5204 46.0469 44.1713 44.3384 44.9949Z" fill="#F4723A"/>
<path d="M45.3062 45.9811C45.7872 46.8962 46.1439 47.9136 45.9361 48.9263C45.2896 52.0761 42.6896 53.9163 39.5804 53.9163C35.985 53.9163 33.0703 50.9784 33.0703 47.3544C33.0703 43.7303 36.7987 34.8867 40.3942 34.8867C43.762 34.8867 41.8201 39.3489 45.3062 45.9811Z" fill="#FFA113"/>
<path d="M42.6786 48.2868C43.1068 49.2171 43.5112 50.2448 43.1566 51.2057C42.599 52.7168 41.2069 53.5833 39.5777 53.5833C37.4573 53.5833 35.7384 51.8309 35.7384 49.6692C35.7384 47.5075 37.9372 42.2324 40.0576 42.2324C41.948 42.2324 41.0017 44.6434 42.6786 48.2868Z" fill="#FFE166"/>
<path d="M9.166 48.0497C8.64692 49.0207 8.21041 50.1135 8.54408 51.1627C9.2403 53.3519 11.3242 54.6179 13.7868 54.6179C16.8191 54.6179 19.2773 52.3261 19.2773 49.499C19.2773 46.8812 16.2026 41.2843 13.6904 39.9957C13.3156 39.8034 12.8769 39.7375 12.4701 39.8466C10.5571 40.36 11.5899 43.5158 9.166 48.0497Z" fill="#F4723A"/>
<path d="M15.8527 49.3894C15.8273 49.3925 15.804 49.4102 15.7955 49.4344C15.1415 51.3078 15.9133 52.6361 16.8073 52.9565C17.7076 53.2792 18.9238 52.1837 19.5238 50.5097C20.1205 48.845 19.9956 45.1006 19.3116 44.1621C19.3039 44.1516 19.2914 44.1435 19.2789 44.14C18.4394 43.9057 20.653 48.7966 15.8527 49.3894Z" fill="#F4723A"/>
<path d="M15.4949 52.3894C15.4631 52.384 15.4286 52.3883 15.3995 52.4024C14.1969 52.9873 13.7933 53.6921 13.9543 54.0304C14.1173 54.3728 14.8916 54.7742 15.9853 54.2537C17.057 53.7436 19.4626 52.1913 19.5505 51.1738C19.5539 51.1338 19.5385 51.0917 19.5026 51.0737C19.1064 50.8742 18.6239 52.9245 15.4949 52.3894Z" fill="#F4723A"/>
<path d="M11.6321 52.2443C11.6459 52.2438 11.6603 52.2476 11.6719 52.2551C12.81 52.9932 13.1324 53.7427 12.9331 54.0525C12.7327 54.3639 11.9225 54.6497 10.9039 53.9942C9.89465 53.3447 7.66324 51.4719 7.74559 50.477C7.74706 50.4592 7.75707 50.4424 7.77249 50.4333C8.20797 50.1786 8.38099 52.3564 11.6321 52.2443Z" fill="#F4723A"/>
<path d="M18.465 42.4027C18.8184 42.8766 18.5321 44.0225 19.0867 43.8175C19.4056 43.6997 19.2603 43.1456 19.0917 42.8504C18.9302 42.5676 18.7256 42.341 18.5252 42.1747C18.1906 41.8971 18.0582 41.9743 18.363 42.2845C18.3989 42.321 18.4334 42.3604 18.465 42.4027Z" fill="#F4723A"/>
<path d="M10.7883 49.1833C11.7594 49.6515 12.9601 50.2827 12.5256 51.2693C12.2398 51.9182 11.6749 52.3936 11.1005 52.5995C10.0814 52.9648 8.86357 52.1679 8.38031 50.8196C7.87951 49.7525 7.69356 47.9269 7.87993 46.6319C8.02573 45.6188 8.60189 45.8196 8.91695 46.7934C9.20251 47.6761 9.74765 48.6816 10.7883 49.1833Z" fill="#F4723A"/>
<path d="M10.4748 49.2289C10.037 50.1654 9.62708 51.202 9.98394 52.1722C10.5555 53.7261 11.9979 54.6176 13.6869 54.6176C15.877 54.6176 17.6523 52.8281 17.6523 50.6206C17.6523 48.4132 15.3813 43.0264 13.1912 43.0264C11.2353 43.0264 12.2196 45.4973 10.4748 49.2289Z" fill="#FFA113"/>
<path d="M12.0374 50.6238C11.6833 51.5848 11.1969 52.6766 11.7992 53.505C12.2242 54.0896 12.914 54.4146 13.6927 54.4146C14.9842 54.4146 16.0312 53.3471 16.0312 52.0304C16.0312 50.7137 14.6919 47.5005 13.4003 47.5005C12.3496 47.5005 12.7377 48.7235 12.0374 50.6238Z" fill="#FFE166"/>
<path d="M16.3665 42.8979C16.8853 43.1514 17.4364 43.0909 17.5974 42.7628L19.3464 39.1982C19.5074 38.87 19.2173 38.3986 18.6985 38.1451L11.7469 34.749C9.67163 33.7351 8.2706 34.3696 7.62664 35.6821C6.98267 36.9946 7.33962 38.4879 9.4149 39.5018L16.3665 42.8979Z" fill="#FFAE4E"/>
<path d="M45.0518 37.0753C45.5561 36.794 45.8209 36.3069 45.6434 35.9875L43.7147 32.5168C43.5372 32.1973 42.9845 32.1664 42.4803 32.4477L35.7239 36.2173C33.7069 37.3427 33.4283 38.8552 34.1384 40.1331C34.8485 41.411 36.2785 41.9703 38.2954 40.8449L45.0518 37.0753Z" fill="#FFAE4E"/>
<path d="M41.4531 40.6268C41.9364 40.4581 42.175 39.8851 41.986 39.3469L39.9335 33.5007C39.7445 32.9626 39.1996 32.6631 38.7164 32.8319L32.2416 35.0927C30.3086 35.7676 29.3543 38.0597 30.11 40.2122C30.8658 42.3647 33.0454 43.5626 34.9783 42.8876L41.4531 40.6268Z" fill="#4C8BFF"/>
<path d="M13.7636 43.1718C13.2599 43.0809 12.9344 42.5525 13.0365 41.9913L14.1463 35.8955C14.2484 35.3344 14.7396 34.9531 15.2433 35.0439L21.9927 36.2607C24.0076 36.624 25.3098 38.7379 24.9012 40.9824C24.4926 43.2268 22.5279 44.7518 20.513 44.3885L13.7636 43.1718Z" fill="#4C8BFF"/>
<path d="M36.6539 42.8564C36.4834 39.1763 35.4321 35.5291 32.318 35.6734L23.6722 36.074C20.5581 36.2183 19.3818 38.648 19.5523 42.3281L20.6633 53.1022C20.7399 53.7669 21.3168 54.2964 22.066 54.3895C26.7737 54.9749 30.8952 54.7839 35.5287 53.7657C36.2578 53.6055 37.0661 53.0021 37.0934 52.3409L36.6539 42.8564Z" fill="#4C8BFF"/>
<path d="M30.2429 33.0223C30.0375 31.6225 28.9514 30.6227 27.8169 30.7891L24.9411 31.2109C23.8067 31.3773 23.0534 32.647 23.2588 34.0468L23.6305 36.5813C23.8359 37.9811 24.922 38.9809 26.0565 38.8145L28.9323 38.3927C30.0667 38.2263 30.82 36.9566 30.6146 35.5569L30.2429 33.0223Z" fill="#FFAB48"/>
<path d="M13.1395 30.8093C13.4767 33.1081 15.6883 34.6873 18.0793 34.3366C20.4703 33.9858 22.1352 31.838 21.798 29.5392C21.4608 27.2405 19.2492 25.6613 16.8582 26.012C14.4672 26.3627 12.8023 28.5105 13.1395 30.8093Z" fill="#FF9C27"/>
<path d="M28.7412 27.192C29.0784 29.4908 31.29 31.07 33.681 30.7193C36.072 30.3686 37.7369 28.2208 37.3997 25.922C37.0625 23.6232 34.8509 22.044 32.4599 22.3947C30.0689 22.7454 28.404 24.8933 28.7412 27.192Z" fill="#ED8000"/>
<path d="M14.7603 28.1832C15.5383 33.487 21.0476 37.071 27.0657 36.1883C33.0838 35.3055 37.8028 29.4748 34.7647 26.0434C35.8577 20.1418 30.2665 16.0987 24.2484 16.9814C18.2303 17.8642 13.9823 22.8794 14.7603 28.1832Z" fill="#FFBA68"/>
<path d="M14.6904 28.2133C15.4723 33.5435 21.0978 37.1323 27.2554 36.2291C33.413 35.3259 38.2549 29.4516 35.1564 26.0097C36.2898 20.0736 30.5817 16.0235 24.4241 16.9267C18.2665 17.8299 13.9086 22.8831 14.6904 28.2133Z" fill="url(#paint0_linear_989_94772)"/>
<mask id="mask1_989_94772" style="mask-type:alpha" maskUnits="userSpaceOnUse" x="14" y="16" width="23" height="21">
<path d="M14.6867 28.1949C15.4685 33.5251 21.094 37.1139 27.2516 36.2107C33.4093 35.3075 38.2511 29.4332 35.1527 25.9913C36.286 20.0552 30.578 16.0051 24.4203 16.9083C18.2627 17.8115 13.9048 22.8647 14.6867 28.1949Z" fill="#FFBA68"/>
</mask>
<g mask="url(#mask1_989_94772)">
<path d="M15.7182 33.2061C16.0472 35.4488 18.2181 36.9875 20.5671 36.643C22.9161 36.2984 24.5536 34.2011 24.2247 31.9584C23.8957 29.7157 21.7248 28.1769 19.3758 28.5214C17.0268 28.866 15.3893 30.9634 15.7182 33.2061Z" fill="#FF9A24"/>
<path d="M31.6362 30.2066C31.9652 32.4493 34.1361 33.988 36.4851 33.6435C38.834 33.2989 40.4716 31.2015 40.1426 28.9588C39.8137 26.7161 37.6428 25.1774 35.2938 25.5219C32.9448 25.8665 31.3072 27.9639 31.6362 30.2066Z" fill="#FF9A24"/>
</g>
<path d="M27.7262 29.1411C27.7616 29.3822 27.9935 29.5478 28.2443 29.511C28.4951 29.4742 28.6697 29.2489 28.6343 29.0078C28.599 28.7667 28.367 28.6011 28.1162 28.6379C27.8655 28.6747 27.6908 28.8999 27.7262 29.1411Z" fill="black"/>
<path fill-rule="evenodd" clip-rule="evenodd" d="M29.5087 24.351C29.177 24.3228 28.9014 24.1739 28.7589 24.0542C28.6255 23.9423 28.4226 23.9559 28.3056 24.0846C28.1885 24.2134 28.2018 24.4085 28.3351 24.5204C28.5642 24.7128 28.9637 24.9251 29.4493 24.9664C29.9494 25.0089 30.5203 24.8675 31.0578 24.379C31.1871 24.2616 31.1933 24.0661 31.0718 23.9423C30.9503 23.8186 30.747 23.8135 30.6178 23.9309C30.2146 24.2972 29.8258 24.378 29.5087 24.351Z" fill="#905A09"/>
<path fill-rule="evenodd" clip-rule="evenodd" d="M23.2604 25.9272C22.9612 26.0734 22.6483 26.0872 22.4645 26.0578C22.2926 26.0302 22.1255 26.1461 22.0912 26.3167C22.0569 26.4872 22.1685 26.6478 22.3404 26.6754C22.6358 26.7228 23.0876 26.6998 23.5254 26.4858C23.9765 26.2653 24.3936 25.8508 24.6039 25.1555C24.6545 24.9884 24.5594 24.8174 24.3916 24.7737C24.2237 24.7299 24.0467 24.8299 23.9961 24.9971C23.8384 25.5184 23.5463 25.7875 23.2604 25.9272Z" fill="#905A09"/>
<path fill-rule="evenodd" clip-rule="evenodd" d="M23.1624 36.5068C22.8011 36.8438 22.7816 37.4099 23.1186 37.7712L23.4672 38.1447C24.5278 39.2812 26.057 39.8592 27.6041 39.7082C29.0927 39.5629 30.4378 38.7582 31.2697 37.5152L31.6392 36.9632C31.914 36.5526 31.8039 35.997 31.3933 35.7222C30.9827 35.4473 30.4271 35.5574 30.1523 35.968L29.7828 36.52C29.2489 37.3177 28.3856 37.8342 27.4303 37.9274C26.4374 38.0243 25.456 37.6534 24.7754 36.924L24.4268 36.5505C24.0897 36.1892 23.5236 36.1697 23.1624 36.5068Z" fill="#337AFF"/>
<path fill-rule="evenodd" clip-rule="evenodd" d="M35.1563 39.9255C35.041 39.9649 34.9796 40.0904 35.019 40.2056C35.6432 42.0301 35.7424 44.2518 35.7424 46.4578C35.7424 46.5796 35.8412 46.6783 35.963 46.6783C36.0848 46.6783 36.1836 46.5796 36.1836 46.4577C36.1836 44.252 36.0868 41.9638 35.4364 40.0628C35.397 39.9476 35.2716 39.8861 35.1563 39.9255Z" fill="#337AFF"/>
<path fill-rule="evenodd" clip-rule="evenodd" d="M23.203 40.6549C23.0846 40.6261 22.9653 40.6988 22.9366 40.8172C22.8594 41.1352 22.7959 41.4413 22.7337 41.7406C22.6028 42.3705 22.478 42.9711 22.2458 43.5927C21.9101 44.491 21.3518 45.4151 20.2236 46.4326C20.1331 46.5142 20.1259 46.6537 20.2075 46.7442C20.2891 46.8347 20.4286 46.8419 20.519 46.7603C21.6982 45.6967 22.2978 44.7138 22.659 43.7471C22.9032 43.0937 23.0396 42.4384 23.1744 41.791C23.2351 41.4992 23.2955 41.209 23.3653 40.9212C23.3941 40.8028 23.3214 40.6836 23.203 40.6549Z" fill="#337AFF"/>
<path fill-rule="evenodd" clip-rule="evenodd" d="M30.3962 26.0735C30.4613 26.219 30.367 26.3942 30.1856 26.4648C30.0871 26.5032 29.9338 26.5834 29.8167 26.686C29.7004 26.7881 29.6579 26.8761 29.6661 26.9544C29.6828 27.1131 29.5408 27.267 29.3488 27.2981C29.1568 27.3293 28.9876 27.2258 28.9709 27.0671C28.9372 26.7473 29.1357 26.4826 29.3377 26.3053C29.5389 26.1288 29.7812 26.0033 29.9499 25.9377C30.1312 25.8671 30.331 25.9279 30.3962 26.0735Z" fill="black"/>
<path fill-rule="evenodd" clip-rule="evenodd" d="M30.765 27.1019C30.6893 27.2581 30.4893 27.3385 30.3184 27.2816C30.2255 27.2507 30.0645 27.2189 29.9084 27.2276C29.7532 27.2362 29.6558 27.2796 29.5982 27.3469C29.4814 27.4833 29.2683 27.5171 29.1224 27.4222C28.9764 27.3274 28.9527 27.1399 29.0696 27.0035C29.3049 26.7286 29.6424 26.6419 29.9119 26.627C30.1804 26.6121 30.4338 26.6633 30.5927 26.7162C30.7636 26.7731 30.8408 26.9458 30.765 27.1019Z" fill="black"/>
<path fill-rule="evenodd" clip-rule="evenodd" d="M23.4929 27.8065C23.5097 27.9651 23.6791 28.0693 23.8714 28.0393C23.976 28.023 24.1488 28.0154 24.3016 28.0454C24.4534 28.0753 24.5344 28.1301 24.5665 28.2019C24.6318 28.3476 24.8319 28.4094 25.0136 28.3399C25.1952 28.2704 25.2896 28.096 25.2244 27.9504C25.093 27.6569 24.7884 27.5276 24.5248 27.4757C24.2621 27.424 23.9895 27.4371 23.8108 27.4651C23.6185 27.4951 23.4762 27.648 23.4929 27.8065Z" fill="black"/>
<path fill-rule="evenodd" clip-rule="evenodd" d="M23.6902 28.8812C23.8341 28.9782 24.0474 28.9474 24.1666 28.8124C24.2315 28.739 24.3547 28.6307 24.4941 28.5598C24.6326 28.4893 24.7387 28.478 24.8223 28.5072C24.9918 28.5666 25.193 28.4889 25.2717 28.3336C25.3503 28.1783 25.2766 28.0043 25.1071 27.9449C24.7656 27.8253 24.4302 27.9198 24.1896 28.0422C23.95 28.1641 23.7565 28.3356 23.6456 28.4611C23.5264 28.5961 23.5463 28.7842 23.6902 28.8812Z" fill="black"/>
<path fill-rule="evenodd" clip-rule="evenodd" d="M30.527 30.6428C30.4911 30.7576 30.3706 30.8198 30.2579 30.7819L29.7795 30.6208C29.4566 30.5121 29.1034 30.5859 28.8515 30.8147C28.5075 31.127 28.0315 31.2412 27.5833 31.1188C27.255 31.0292 26.9068 31.1237 26.6683 31.3671L26.3151 31.7276C26.2318 31.8125 26.0962 31.8117 26.0122 31.7257C25.9281 31.6397 25.9274 31.5012 26.0107 31.4162L26.3639 31.0557C26.7094 30.7031 27.214 30.5662 27.6897 30.6961C27.999 30.7805 28.3275 30.7017 28.5649 30.4861C28.9299 30.1547 29.4417 30.0478 29.9095 30.2053L30.3879 30.3663C30.5006 30.4043 30.5629 30.5281 30.527 30.6428Z" fill="#A75A00"/>
<path d="M20.0034 13.6206L24.847 12.1981L27.8087 17.7895L20.0589 20.0655L20.0034 13.6206Z" fill="#F3F3F3"/>
<path d="M26.7519 5.94874C26.8593 6.31368 26.6502 6.69651 26.2848 6.80381C25.9194 6.91112 25.5361 6.70227 25.4287 6.33733C25.3213 5.97239 25.5304 5.58956 25.8958 5.48225C26.2611 5.37495 26.6444 5.5838 26.7519 5.94874Z" fill="white"/>
<path d="M18.2306 15.7504C18.1729 15.7708 18.1142 15.7898 18.0546 15.8072C16.3881 16.2967 14.667 15.4362 14.2105 13.8853C13.8034 12.5027 14.5387 11.0382 15.8837 10.3899C15.4052 8.51021 16.6087 6.54046 18.6234 5.94874C19.9338 5.56391 21.2715 5.85471 22.2162 6.61104C22.4436 6.36597 22.7433 6.17461 23.0949 6.07136C24.0752 5.78346 25.0876 6.28963 25.3562 7.20193C25.3634 7.22652 25.37 7.25117 25.376 7.27584C26.888 7.1576 28.2997 8.02996 28.7164 9.44556C29.167 10.976 28.2956 12.6013 26.7465 13.2348L26.7519 13.2531L18.2321 15.7552L18.2306 15.7504Z" fill="white"/>
<path d="M27.7431 11.8958C27.641 11.781 27.6514 11.6052 27.7664 11.5032L28.2554 11.0694C28.3704 10.9674 28.5464 10.9779 28.6485 11.0927L29.0828 11.5811C29.1849 11.696 29.1745 11.8717 29.0595 11.9737L28.5705 12.4075C28.4555 12.5095 28.2795 12.4991 28.1774 12.3843L27.7431 11.8958Z" fill="#FF570F"/>
<path d="M13.6201 12.9378C13.693 12.8025 13.8619 12.7519 13.9973 12.8247L15.1308 13.4342C15.2662 13.507 15.3169 13.6757 15.244 13.8109L14.6337 14.943C14.5608 15.0783 14.392 15.1289 14.2566 15.0561L13.1231 14.4466C12.9877 14.3738 12.937 14.2051 13.0099 14.0699L13.6201 12.9378Z" fill="#FFC266"/>
<path d="M21.6028 7.43072C21.7557 7.44704 21.8664 7.58409 21.8501 7.73683L21.7853 8.34238C21.7689 8.49511 21.6317 8.6057 21.4788 8.58937L20.8725 8.52466C20.7196 8.50834 20.6089 8.37129 20.6252 8.21856L20.69 7.613C20.7064 7.46027 20.8436 7.34969 20.9965 7.36601L21.6028 7.43072Z" fill="white"/>
<path fill-rule="evenodd" clip-rule="evenodd" d="M18.032 17.2939C19.1042 17.8522 20.3928 18.5232 20.4954 18.261C21.1572 16.5699 21.3778 15.9694 21.4881 15.6691C21.5858 15.403 21.5969 15.3728 21.7517 15.0281C21.7875 14.9486 21.8844 14.9167 21.9599 14.9604C23.512 15.859 26.2653 17.4079 26.3778 17.0846C26.966 15.3934 27.1621 14.7929 27.2601 14.4927C27.3449 14.233 27.3564 14.1979 27.4847 13.8761C27.52 13.7877 27.6282 13.7546 27.706 13.8094C28.9213 14.6654 31.0836 16.1337 31.0836 15.9081C31.0836 15.8364 31.1656 15.5351 31.2921 15.1133C33.1977 15.6298 37.0678 17.5556 37.0367 19.1263C37.0121 20.3689 36.3377 20.7066 35.9282 20.9116C35.7893 20.9811 35.6809 21.0354 35.6386 21.1046C37.4759 21.4272 37.9151 23.7282 36.326 24.7061C35.1548 25.4268 33.5205 23.4832 32.0452 21.7286C30.6769 20.1014 29.4454 18.6368 28.847 19.6114C27.1675 22.3471 21.8895 27.2228 16.3142 29.2032C11.7178 30.8359 11.5663 21.726 15.0027 18.4911C14.0537 18.8763 12.2907 18.519 13.6785 15.6889C14.6518 13.7042 14.9049 14.6315 15.2261 15.8083C15.4774 16.7291 15.7704 17.8026 16.4826 17.7537C16.7669 17.4511 17.0445 17.1758 17.3156 16.9253C17.5289 17.032 17.7742 17.1597 18.032 17.2939Z" fill="black"/>
<path d="M40.5542 26.2007C40.1424 25.7959 39.6005 25.6787 39.3439 25.9389L36.5554 28.7656C36.2987 29.0258 36.4245 29.5648 36.8362 29.9697L42.3534 35.3936C44.0004 37.0129 45.5303 36.855 46.557 35.8143C47.5837 34.7735 47.7183 33.244 46.0713 31.6247L40.5542 26.2007Z" fill="#FFAE4E"/>
<path d="M16.2767 30.6754C16.551 30.1673 16.513 29.6142 16.1917 29.44L12.7011 27.5476C12.3797 27.3734 11.8969 27.6441 11.6226 28.1522L7.94676 34.96C6.84941 36.9924 7.4265 38.418 8.71171 39.1148C9.99692 39.8116 11.5036 39.5156 12.6009 37.4832L16.2767 30.6754Z" fill="#FFAE4E"/>
<path fill-rule="evenodd" clip-rule="evenodd" d="M18.456 21.1782C18.9487 21.4436 19.1352 22.0594 18.8726 22.5536L18.5359 23.1872C18.8415 22.9451 19.2735 22.8935 19.6394 23.0906C20.1321 23.3559 20.3187 23.9717 20.0561 24.4659L19.349 25.7964C19.4449 25.8156 19.5398 25.8492 19.6305 25.898C20.1232 26.1634 20.3098 26.7792 20.0472 27.2734L18.6107 29.9764C18.5531 30.0849 18.4786 30.1785 18.3923 30.2557C17.4307 31.9429 15.2989 32.5623 13.5774 31.6351C12.0841 30.8308 11.381 29.1221 11.7827 27.5465L10.9966 25.0586C10.8005 24.4381 11.1594 23.8506 11.7981 23.7464C12.3804 23.6514 12.9943 23.9909 13.2468 24.5217L14.7777 21.6409C15.0444 21.1391 15.6662 20.9507 16.1665 21.2202C16.5795 21.4426 16.7806 21.9074 16.6884 22.3451L17.0883 21.5926C17.3509 21.0984 17.9632 20.9129 18.456 21.1782Z" fill="#FFBA68"/>
<path fill-rule="evenodd" clip-rule="evenodd" d="M31.9547 19.7562C31.558 20.151 31.5547 20.7944 31.9473 21.1932L32.4507 21.7046C32.0887 21.5596 31.66 21.6333 31.3654 21.9265C30.9688 22.3213 30.9655 22.9647 31.3581 23.3636L32.4151 24.4373C32.3286 24.483 32.2473 24.5423 32.1742 24.615C31.7776 25.0098 31.7743 25.6532 32.1669 26.052L34.3143 28.2335C34.4005 28.321 34.4985 28.3895 34.6033 28.4389C36.0059 29.7819 38.2258 29.768 39.6116 28.3886C40.8137 27.192 41.0005 25.3538 40.1664 23.958L40.2107 21.3492C40.2217 20.6986 39.7103 20.2378 39.0683 20.32C38.4831 20.3949 37.9914 20.8952 37.9008 21.4761L35.6122 19.1512C35.2135 18.7462 34.5638 18.7429 34.1611 19.1438C33.8286 19.4747 33.7683 19.9775 33.9815 20.3708L33.3837 19.7635C32.9911 19.3646 32.3513 19.3614 31.9547 19.7562Z" fill="#FFBA68"/>
</g>
<defs>
<linearGradient id="paint0_linear_989_94772" x1="23.7644" y1="17.0235" x2="23.7644" y2="30.0261" gradientUnits="userSpaceOnUse">
<stop stop-color="#FF6868"/>
<stop offset="1" stop-color="#FFBA68"/>
</linearGradient>
</defs>
</svg>
