<svg width="54" height="54" viewBox="0 0 54 54" fill="none" xmlns="http://www.w3.org/2000/svg">
<circle cx="26.8567" cy="26.8567" r="26.8567" fill="#D9D9D9"/>
<path d="M20.1465 35.3605C20.1465 38.8391 17.6513 41.6591 14.5733 41.6591C11.4952 41.6591 9 38.8391 9 35.3605C9 31.8819 11.4952 29.0619 14.5733 29.0619C17.6513 29.0619 20.1465 31.8819 20.1465 35.3605Z" fill="#FF9C27"/>
<path d="M42.9004 35.3606C42.9004 38.8393 40.4052 41.6593 37.3272 41.6593C34.2491 41.6593 31.7539 38.8393 31.7539 35.3606C31.7539 31.882 34.2491 29.062 37.3272 29.062C40.4052 29.062 42.9004 31.882 42.9004 35.3606Z" fill="#FF9C27"/>
<path d="M39.9783 31.7067C39.9783 39.7329 33.6976 46.2395 25.9501 46.2395C18.2025 46.2395 11.9219 39.7329 11.9219 31.7067C11.9219 23.6804 18.2025 17.1738 25.9501 17.1738C33.6976 17.1738 39.9783 23.6804 39.9783 31.7067Z" fill="#FFBA68"/>
<mask id="mask0_989_94489" style="mask-type:alpha" maskUnits="userSpaceOnUse" x="11" y="17" width="29" height="30">
<path d="M39.9861 31.7067C39.9861 39.7329 33.7055 46.2395 25.9579 46.2395C18.2103 46.2395 11.9297 39.7329 11.9297 31.7067C11.9297 23.6804 18.2103 17.1738 25.9579 17.1738C33.7055 17.1738 39.9861 23.6804 39.9861 31.7067Z" fill="#FFAB49"/>
</mask>
<g mask="url(#mask0_989_94489)">
<path d="M21.2788 39.1719C21.2788 42.5656 18.8274 45.3169 15.8035 45.3169C12.7795 45.3169 10.3281 42.5656 10.3281 39.1719C10.3281 35.7781 12.7795 33.0269 15.8035 33.0269C18.8274 33.0269 21.2788 35.7781 21.2788 39.1719Z" fill="#FF9A24"/>
<path d="M41.5796 39.1719C41.5796 42.5656 39.1282 45.3169 36.1043 45.3169C33.0803 45.3169 30.6289 42.5656 30.6289 39.1719C30.6289 35.7781 33.0803 33.0269 36.1042 33.0269C39.1282 33.0269 41.5796 35.7781 41.5796 39.1719Z" fill="#FF9A24"/>
<ellipse cx="21.8668" cy="33.6898" rx="1.75353" ry="1.98175" fill="black"/>
<ellipse cx="21.8695" cy="33.6898" rx="0.584509" ry="0.660584" fill="white"/>
<ellipse cx="30.0426" cy="33.6888" rx="1.75353" ry="1.98175" fill="black"/>
<ellipse cx="30.0453" cy="33.6888" rx="0.584509" ry="0.660584" fill="white"/>
</g>
<path d="M26.5323 36.3276C26.5323 36.6924 26.2706 36.9882 25.9478 36.9882C25.625 36.9882 25.3633 36.6924 25.3633 36.3276C25.3633 35.9627 25.625 35.667 25.9478 35.667C26.2706 35.667 26.5323 35.9627 26.5323 36.3276Z" fill="black"/>
<path fill-rule="evenodd" clip-rule="evenodd" d="M23.1467 31.6396C21.8917 30.5693 20.5234 31.1861 19.9918 31.6396C19.8629 31.7495 19.6796 31.7205 19.5824 31.5749C19.4852 31.4293 19.5108 31.2222 19.6397 31.1123C20.277 30.5687 21.9481 29.7898 23.4988 31.1123C23.6276 31.2222 23.6533 31.4293 23.556 31.5749C23.4588 31.7205 23.2756 31.7495 23.1467 31.6396Z" fill="black"/>
<path fill-rule="evenodd" clip-rule="evenodd" d="M31.9084 31.6396C30.6535 30.5693 29.2852 31.1861 28.7535 31.6396C28.6246 31.7495 28.4414 31.7205 28.3441 31.5749C28.2469 31.4293 28.2725 31.2222 28.4014 31.1123C29.0387 30.5687 30.7098 29.7898 32.2605 31.1123C32.3894 31.2222 32.415 31.4293 32.3178 31.5749C32.2205 31.7205 32.0373 31.7495 31.9084 31.6396Z" fill="black"/>
<path d="M28.8711 38.3121L28.2993 39.0875C28.0995 39.3586 27.6943 39.3586 27.4945 39.0875L27.3252 38.8579C27.1253 38.5869 26.7201 38.5869 26.5203 38.8579L26.351 39.0875C26.1511 39.3586 25.746 39.3586 25.5461 39.0875L25.3768 38.8579C25.177 38.5869 24.7718 38.5869 24.5719 38.8579L24.4026 39.0875C24.2028 39.3586 23.7976 39.3586 23.5978 39.0875L23.026 38.3121" stroke="#F68600" stroke-width="1.4" stroke-linecap="round"/>
<path d="M39.7874 9.24906C35.0515 5.3596 28.9536 10.8557 29.7176 15.2714C29.7273 15.3273 29.754 15.3776 29.792 15.4149L36.3179 21.8138C36.3453 21.8407 36.3676 21.8766 36.3816 21.9145C40.6161 33.416 48.0085 28.5329 51.8895 23.873C52.0674 23.6594 51.8293 23.3251 51.5906 23.4405C47.7123 25.3155 44.9907 23.2941 43.7148 19.9538C42.326 16.318 42.622 11.5771 39.7874 9.24906Z" fill="black"/>
<path fill-rule="evenodd" clip-rule="evenodd" d="M40.5731 27.2474C40.5731 29.2632 40.0785 31.174 39.1936 32.8852C38.783 32.0911 38.2884 31.3401 37.7201 30.6415L31.0819 31.216L30.1731 25.8078C28.8391 25.4436 27.4248 25.2478 25.9602 25.2478C24.4012 25.2478 22.8993 25.4696 21.4905 25.8803L20.5939 31.2158L14.1844 30.6611C13.6228 31.3541 13.1337 32.0984 12.727 32.8849C11.8422 31.1738 11.3477 29.2631 11.3477 27.2474C11.3477 19.916 17.89 13.9727 25.9604 13.9727C34.0307 13.9727 40.5731 19.916 40.5731 27.2474Z" fill="black"/>
<path fill-rule="evenodd" clip-rule="evenodd" d="M36.5558 24.6233C28.1952 17.5132 19.3489 21.415 16.1598 24.3032C15.2298 25.1454 13.8922 24.9462 13.1723 23.8582C12.4523 22.7702 12.6226 21.2054 13.5526 20.3631C17.6971 16.6097 28.6771 11.763 39.06 20.5929C40.0114 21.402 40.222 22.96 39.5304 24.073C38.8389 25.1859 37.5071 25.4323 36.5558 24.6233Z" fill="#FFC266"/>
<path d="M13.8172 19.3694C15.1756 22.0468 17.203 21.2582 19.4489 19.7827C21.6947 18.3071 23.3086 16.7033 21.9502 14.0259C20.5918 11.3485 16.1774 7.43234 13.9316 8.9079C11.6857 10.3835 12.4588 16.6919 13.8172 19.3694Z" fill="#FFC266"/>
<path d="M15.6156 18.7921C16.4146 20.3422 17.6072 19.8857 18.9283 19.0314C20.2494 18.1772 21.1988 17.2487 20.3997 15.6986C19.6006 14.1485 17.004 11.8812 15.6829 12.7355C14.3618 13.5898 14.8165 17.2421 15.6156 18.7921Z" fill="#FFA113"/>
<path d="M38.675 19.3694C37.3166 22.0468 35.2892 21.2582 33.0433 19.7827C30.7974 18.3071 29.1836 16.7033 30.542 14.0259C31.9004 11.3485 36.3148 7.43234 38.5606 8.9079C40.8065 10.3835 40.0334 16.6919 38.675 19.3694Z" fill="#FFC266"/>
<path d="M36.8766 18.7921C36.0775 20.3422 34.8849 19.8857 33.5638 19.0314C32.2427 18.1772 31.2934 17.2487 32.0925 15.6986C32.8915 14.1485 35.4882 11.8812 36.8093 12.7355C38.1304 13.5898 37.6757 17.2421 36.8766 18.7921Z" fill="#FFA113"/>
</svg>
