<svg width="54" height="54" viewBox="0 0 54 54" fill="none" xmlns="http://www.w3.org/2000/svg">
<circle cx="26.8567" cy="26.8567" r="26.8567" fill="#D9D9D9"/>
<mask id="mask0_989_94677" style="mask-type:alpha" maskUnits="userSpaceOnUse" x="0" y="0" width="54" height="54">
<circle cx="26.8567" cy="26.8567" r="26.8567" fill="#D9D9D9"/>
</mask>
<g mask="url(#mask0_989_94677)">
<path d="M12.5819 37.5191C13.0177 37.9187 13.578 38.021 13.8333 37.7476L16.6068 34.7771C16.8621 34.5037 16.7157 33.9581 16.2798 33.5585L10.4394 28.2041C8.69586 26.6057 7.12956 26.8153 6.1084 27.909C5.08724 29.0027 4.99791 30.5663 6.74145 32.1648L12.5819 37.5191Z" fill="#FFAE4E"/>
<path d="M38.9711 53.5719C39.315 54.0518 39.8422 54.2662 40.1486 54.0506L43.4776 51.709C43.7841 51.4935 43.7537 50.9297 43.4098 50.4497L38.8021 44.0187C37.4265 42.0988 35.8502 41.9846 34.6245 42.8467C33.3988 43.7089 32.9877 45.221 34.3633 47.1408L38.9711 53.5719Z" fill="#FFAE4E"/>
<path d="M10.7241 37.9799C10.3393 37.624 10.3519 36.991 10.7521 36.5661L15.101 31.95C15.5013 31.5251 16.1377 31.4692 16.5225 31.8251L21.6782 36.5944C23.2173 38.0181 23.167 40.5501 21.5658 42.2497C19.9646 43.9493 17.4189 44.1729 15.8797 42.7492L10.7241 37.9799Z" fill="#4C8BFF"/>
<path d="M33.1465 49.1132C33.441 49.5458 34.0729 49.6318 34.5579 49.3052L39.8273 45.7577C40.3123 45.4311 40.4667 44.8157 40.1722 44.3832L36.2263 38.5871C35.0483 36.8568 32.5206 36.513 30.5805 37.8192C28.6404 39.1253 28.0226 41.5869 29.2005 43.3172L33.1465 49.1132Z" fill="#4C8BFF"/>
<path d="M17.6172 42.0023C17.6172 38.5379 19.4371 36.3066 22.535 36.3066H31.1357C34.2336 36.3066 36.0535 38.5379 36.0535 42.0023L35.3173 52.1715C35.2718 52.7992 34.7234 53.3217 33.9841 53.4418C29.3378 54.1966 24.5452 54.1941 19.8989 53.4393C19.1678 53.3205 18.6188 52.8084 18.5614 52.1884L17.6172 42.0023Z" fill="#4C8BFF"/>
<path d="M23.1289 33.8514C23.1289 32.3815 24.1005 31.1899 25.2991 31.1899H28.3374C29.536 31.1899 30.5076 32.3815 30.5076 33.8514V36.5129C30.5076 37.9827 29.536 39.1743 28.3374 39.1743H25.2991C24.1005 39.1743 23.1289 37.9827 23.1289 36.5129V33.8514Z" fill="#FFAB48"/>
<path d="M22.5023 28.9517C22.5023 31.3697 20.5421 33.3298 18.1242 33.3298C15.7062 33.3298 13.7461 31.3697 13.7461 28.9517C13.7461 26.5338 15.7062 24.5737 18.1242 24.5737C20.5421 24.5737 22.5023 26.5338 22.5023 28.9517Z" fill="#FF9C27"/>
<path d="M40.0765 29.0334C40.0765 31.4513 38.1163 33.4114 35.6984 33.4114C33.2804 33.4114 31.3203 31.4513 31.3203 29.0334C31.3203 26.6154 33.2804 24.6553 35.6984 24.6553C38.1163 24.6553 40.0765 26.6154 40.0765 29.0334Z" fill="#FF9C27"/>
<path d="M37.7814 26.4934C37.7814 32.0722 32.8477 36.5947 26.7618 36.5947C20.6758 36.5947 15.7422 32.0722 15.7422 26.4934C15.7422 20.9146 20.6758 16.3921 26.7618 16.3921C32.8477 16.3921 37.7814 20.9146 37.7814 26.4934Z" fill="#FFBA68"/>
<mask id="mask1_989_94677" style="mask-type:alpha" maskUnits="userSpaceOnUse" x="15" y="16" width="23" height="21">
<path d="M37.7697 26.4914C37.7697 32.0702 32.836 36.5927 26.7501 36.5927C20.6641 36.5927 15.7305 32.0702 15.7305 26.4914C15.7305 20.9126 20.6641 16.3901 26.7501 16.3901C32.836 16.3901 37.7697 20.9126 37.7697 26.4914Z" fill="#FFAB49"/>
</mask>
<g mask="url(#mask1_989_94677)">
<path d="M22.9617 31.681C22.9617 34.0399 21.036 35.9523 18.6605 35.9523C16.2851 35.9523 14.3594 34.0399 14.3594 31.681C14.3594 29.322 16.2851 27.4097 18.6605 27.4097C21.036 27.4097 22.9617 29.322 22.9617 31.681Z" fill="#FF9A24"/>
<path d="M38.9969 31.681C38.9969 34.0399 37.0712 35.9523 34.6957 35.9523C32.3202 35.9523 30.3945 34.0399 30.3945 31.681C30.3945 29.322 32.3202 27.4097 34.6957 27.4097C37.0712 27.4097 38.9969 29.322 38.9969 31.681Z" fill="#FF9A24"/>
</g>
<path d="M27.2231 29.7058C27.2231 29.9594 27.0175 30.165 26.7639 30.165C26.5103 30.165 26.3047 29.9594 26.3047 29.7058C26.3047 29.4522 26.5103 29.2466 26.7639 29.2466C27.0175 29.2466 27.2231 29.4522 27.2231 29.7058Z" fill="black"/>
<path d="M24.4618 27.9137C24.4618 28.3963 24.0506 28.7876 23.5434 28.7876C23.0362 28.7876 22.625 28.3963 22.625 27.9137C22.625 27.431 23.0362 27.0397 23.5434 27.0397C24.0506 27.0397 24.4618 27.431 24.4618 27.9137Z" fill="black"/>
<path fill-rule="evenodd" clip-rule="evenodd" d="M24.013 26.6646C24.1029 26.824 24.04 27.0227 23.8724 27.1083C23.7813 27.1548 23.6432 27.25 23.545 27.3689C23.4474 27.487 23.4206 27.5866 23.4424 27.6734C23.4866 27.8495 23.3725 28.0263 23.1875 28.0684C23.0025 28.1105 22.8167 28.0019 22.7725 27.8259C22.6834 27.4712 22.8341 27.1688 23.0036 26.9637C23.1724 26.7594 23.3909 26.6103 23.5467 26.5307C23.7143 26.4451 23.9231 26.5051 24.013 26.6646Z" fill="black"/>
<path d="M25.3739 32.1784C25.2611 32.0764 25.1632 31.9635 25.0816 31.8424C24.7766 31.3901 25.2213 30.9056 25.7526 30.9056L27.8114 30.9056C28.3427 30.9056 28.7874 31.3901 28.4825 31.8424C28.4008 31.9635 28.303 32.0764 28.1902 32.1784C27.8167 32.5159 27.3102 32.7056 26.782 32.7056C26.2539 32.7056 25.7474 32.5159 25.3739 32.1784Z" fill="#E16037"/>
<path fill-rule="evenodd" clip-rule="evenodd" d="M23.1261 25.4496C22.7964 25.4988 22.5297 25.67 22.3942 25.8029C22.2675 25.9272 22.064 25.9253 21.9396 25.7986C21.8153 25.6718 21.8173 25.4683 21.944 25.344C22.1617 25.1304 22.5485 24.8858 23.0312 24.8137C23.5284 24.7395 24.1067 24.8522 24.6719 25.3274C24.8078 25.4417 24.8253 25.6445 24.711 25.7803C24.5968 25.9162 24.394 25.9337 24.2582 25.8195C23.8343 25.4631 23.4413 25.4025 23.1261 25.4496Z" fill="#905A09"/>
<path fill-rule="evenodd" clip-rule="evenodd" d="M30.0128 25.4497C29.6831 25.4989 29.4164 25.6701 29.2809 25.803C29.1542 25.9274 28.9507 25.9254 28.8264 25.7987C28.702 25.672 28.704 25.4684 28.8307 25.3441C29.0485 25.1305 29.4352 24.8859 29.9179 24.8139C30.4151 24.7396 30.9934 24.8523 31.5586 25.3276C31.6945 25.4418 31.712 25.6446 31.5978 25.7804C31.4835 25.9163 31.2808 25.9338 31.1449 25.8196C30.7211 25.4632 30.328 25.4026 30.0128 25.4497Z" fill="#905A09"/>
<path fill-rule="evenodd" clip-rule="evenodd" d="M31.1111 36.3971C31.5112 36.7035 31.5872 37.2762 31.2807 37.6763L30.9639 38.0901C29.9998 39.3489 28.5047 40.0872 26.9191 40.0872C25.3936 40.0872 23.9483 39.4035 22.9806 38.2242L22.5508 37.7003C22.2312 37.3107 22.2879 36.7358 22.6775 36.4161C23.0671 36.0964 23.642 36.1531 23.9617 36.5427L24.3915 37.0665C25.0125 37.8234 25.9401 38.2622 26.9191 38.2622C27.9367 38.2622 28.8963 37.7884 29.5149 36.9805L29.8318 36.5667C30.1382 36.1666 30.711 36.0907 31.1111 36.3971Z" fill="#337AFF"/>
<path d="M24.082 20H30.082V26H24.082V20Z" fill="black"/>
<path d="M16.8164 18.8569L23.3384 19.3563L22.0858 25.9517L15.5638 25.4523L16.8164 18.8569Z" fill="black"/>
<path d="M36.4414 18.8569L29.9194 19.3563L31.172 25.9517L37.694 25.4523L36.4414 18.8569Z" fill="black"/>
<path fill-rule="evenodd" clip-rule="evenodd" d="M37.902 27C38.659 25.7333 39.082 24.3188 39.082 22.8267C39.082 17.3995 33.4856 13 26.582 13C19.6785 13 14.082 17.3995 14.082 22.8267C14.082 24.3187 14.505 25.7331 15.2619 26.9998C17.2581 23.6593 21.5764 21.3465 26.5819 21.3465C31.5875 21.3465 35.9059 23.6594 37.902 27Z" fill="black"/>
<path d="M31.082 13C31.082 15.7614 29.0673 18 26.582 18C24.0967 18 22.082 15.7614 22.082 13C22.082 10.2386 24.0967 8 26.582 8C29.0673 8 31.082 10.2386 31.082 13Z" fill="black"/>
<path fill-rule="evenodd" clip-rule="evenodd" d="M19.5163 38.702C19.6164 38.7757 19.6379 38.9165 19.5642 39.0166C18.9774 39.8141 18.6685 40.3873 18.4778 40.9314C18.2909 41.4643 18.2136 41.9784 18.1087 42.6761C18.1058 42.6957 18.1028 42.7154 18.0998 42.7353C18.0814 42.8581 17.9668 42.9428 17.8439 42.9243C17.721 42.9058 17.6364 42.7912 17.6549 42.6683C17.6588 42.642 17.6627 42.6159 17.6666 42.59C17.769 41.9087 17.8519 41.3563 18.0531 40.7825C18.2633 40.183 18.5984 39.5699 19.2018 38.7499C19.2754 38.6498 19.4162 38.6284 19.5163 38.702Z" fill="#337AFF"/>
<path fill-rule="evenodd" clip-rule="evenodd" d="M35.8863 40.6765C35.7629 40.6916 35.6752 40.8038 35.6903 40.9271C35.929 42.8795 35.5603 45.1176 35.0958 47.3193C35.0702 47.4408 35.1479 47.5602 35.2695 47.5859C35.3911 47.6115 35.5105 47.5337 35.5361 47.4121C36.0006 45.2107 36.3857 42.9067 36.1369 40.8725C36.1219 40.7491 36.0096 40.6614 35.8863 40.6765Z" fill="#337AFF"/>
<path fill-rule="evenodd" clip-rule="evenodd" d="M3.50599 19.92C3.03136 20.3275 2.9794 21.0398 3.38993 21.5109L4.17663 22.4137C3.76964 22.1523 3.22215 22.1761 2.83706 22.5067C2.42 22.8648 2.33434 23.4618 2.60793 23.9158C2.33694 23.9073 2.06211 23.996 1.84087 24.186C1.46026 24.5127 1.35565 25.0385 1.54823 25.4731C1.31915 25.4913 1.09365 25.5795 0.906503 25.7402C0.439096 26.1415 0.387924 26.8429 0.792209 27.3068L3.00348 29.8444C3.09221 29.9463 3.19551 30.0282 3.30765 30.0898C4.75804 31.658 7.21162 31.8066 8.84461 30.4046C10.2613 29.1883 10.6035 27.1973 9.78499 25.6135L10.0267 22.7718C10.087 22.063 9.55604 21.5227 8.84072 21.5649C8.1886 21.6034 7.60842 22.1128 7.4653 22.7395L5.10873 20.0352C4.69819 19.5641 3.98062 19.5125 3.50599 19.92Z" fill="#FFBA68"/>
<path fill-rule="evenodd" clip-rule="evenodd" d="M4.21132 22.5878C4.27848 22.5301 4.38002 22.5374 4.43811 22.6041L6.17238 24.5943C6.26587 24.7016 6.36203 24.8439 6.38192 25.0196C6.40259 25.2021 6.38303 25.4303 6.26171 25.6414C6.13811 25.8564 5.91864 26.0364 5.57263 26.1331C5.48716 26.157 5.39836 26.1075 5.37429 26.0227C5.35022 25.9379 5.4 25.8497 5.48547 25.8258C5.76077 25.7489 5.90581 25.6165 5.98242 25.4832C6.06131 25.346 6.07764 25.19 6.06237 25.0552C6.05316 24.9739 6.0061 24.8914 5.92917 24.8031L4.1949 22.8129C4.13681 22.7462 4.14416 22.6454 4.21132 22.5878Z" fill="#FF9C27"/>
<path fill-rule="evenodd" clip-rule="evenodd" d="M1.84276 25.76C1.90992 25.7023 2.01145 25.7096 2.06954 25.7763L3.51087 27.4303C3.62427 27.5604 3.72778 27.7245 3.75745 27.9197C3.78867 28.1252 3.78242 28.3643 3.66704 28.574C3.54772 28.7908 3.32701 28.9488 2.98728 29.0144C2.90011 29.0312 2.81571 28.9747 2.79875 28.8882C2.78179 28.8017 2.8387 28.7179 2.92587 28.701C3.19157 28.6497 3.32032 28.5382 3.38484 28.421C3.4533 28.2966 3.46527 28.137 3.43948 27.9673C3.42231 27.8543 3.35967 27.7447 3.26766 27.6391L1.82634 25.9851C1.76825 25.9184 1.7756 25.8176 1.84276 25.76Z" fill="#FF9C27"/>
<path fill-rule="evenodd" clip-rule="evenodd" d="M7.53748 23.9129C7.6253 23.926 7.68583 24.0073 7.67267 24.0944L7.46969 25.4392L7.42469 25.4778C7.17904 25.6887 6.85687 26.0769 6.69561 26.5453C6.53668 27.0068 6.53404 27.5424 6.91338 28.0783C6.96443 28.1504 6.94692 28.25 6.87427 28.3006C6.80161 28.3513 6.70133 28.3339 6.65028 28.2618C6.20141 27.6277 6.20544 26.9819 6.39133 26.4421C6.5651 25.9374 6.89772 25.5221 7.16913 25.2763L7.35465 24.0471C7.36781 23.96 7.44967 23.8999 7.53748 23.9129Z" fill="#FF9C27"/>
<path fill-rule="evenodd" clip-rule="evenodd" d="M2.80804 23.9875C2.8752 23.9298 2.97674 23.9371 3.03483 24.0038L4.89281 26.136C4.99464 26.2528 5.08953 26.402 5.11503 26.5814C5.14277 26.7766 5.13766 27.0246 5.02427 27.2351C4.9039 27.4587 4.67624 27.6127 4.32237 27.6315C4.2337 27.6362 4.15797 27.5687 4.15322 27.4807C4.14847 27.3927 4.2165 27.3175 4.30517 27.3128C4.56093 27.2992 4.67973 27.1979 4.74068 27.0847C4.80862 26.9585 4.81972 26.7885 4.79662 26.626C4.78313 26.5311 4.73035 26.4374 4.64961 26.3448L2.79162 24.2126C2.73353 24.1459 2.74088 24.0451 2.80804 23.9875Z" fill="#FF9C27"/>
<path fill-rule="evenodd" clip-rule="evenodd" d="M30.6427 27.3932C30.6511 27.5556 30.4969 27.6875 30.2983 27.6878C30.1904 27.688 30.0151 27.7078 29.8659 27.7623C29.7177 27.8165 29.6448 27.8846 29.6238 27.9621C29.5813 28.1192 29.3894 28.2133 29.1954 28.1721C29.0013 28.131 28.8785 27.9703 28.9211 27.8131C29.0068 27.4966 29.2931 27.3179 29.5506 27.2238C29.807 27.13 30.0837 27.0999 30.2683 27.0996C30.4668 27.0993 30.6344 27.2308 30.6427 27.3932Z" fill="black"/>
<path fill-rule="evenodd" clip-rule="evenodd" d="M30.6147 28.5073C30.4852 28.6279 30.2653 28.6307 30.1237 28.5136C30.0467 28.45 29.9054 28.3605 29.7536 28.3112C29.6029 28.2622 29.4942 28.2676 29.4146 28.3104C29.2532 28.3971 29.0382 28.3507 28.9343 28.2068C28.8304 28.0628 28.877 27.8758 29.0383 27.789C29.3635 27.6142 29.7164 27.6562 29.9782 27.7412C30.239 27.826 30.4612 27.9681 30.5929 28.0769C30.7345 28.194 30.7443 28.3867 30.6147 28.5073Z" fill="black"/>
<path fill-rule="evenodd" clip-rule="evenodd" d="M50.0074 54.2695C49.8088 54.8046 49.213 55.0799 48.6768 54.8842L47.9892 54.6333C48.2769 54.908 48.3899 55.3371 48.2423 55.7345C48.0437 56.2697 47.4479 56.5449 46.9117 56.3492L45.4679 55.8225C45.4621 55.9221 45.4415 56.0226 45.4049 56.1212C45.2063 56.6563 44.6105 56.9316 44.0743 56.7359L41.1411 55.6657C41.0235 55.6228 40.9184 55.5607 40.8282 55.4844C38.9883 54.7507 38.0622 52.6845 38.7562 50.8147C39.3582 49.1928 40.9853 48.2418 42.6337 48.4255L45.0362 47.2807C45.6354 46.9952 46.2795 47.275 46.4748 47.9056C46.6528 48.4804 46.3964 49.1484 45.8957 49.4783L49.0217 50.6189C49.5662 50.8175 49.8441 51.4192 49.6424 51.9626C49.4759 52.4111 49.0348 52.6798 48.5796 52.6483L49.3961 52.9462C49.9324 53.1419 50.2061 53.7343 50.0074 54.2695Z" fill="#FFBA68"/>
<path fill-rule="evenodd" clip-rule="evenodd" d="M45.0845 55.3112C45.112 55.2371 45.0741 55.155 44.9998 55.1278L43.0793 54.427C42.934 54.374 42.7641 54.3406 42.591 54.3767C42.4007 54.4164 42.1929 54.4994 42.0463 54.6667C41.8947 54.8398 41.8271 55.0818 41.8804 55.3977C41.8935 55.4755 41.9675 55.5278 42.0456 55.5144C42.1237 55.501 42.1765 55.4271 42.1634 55.3492C42.1214 55.1001 42.1783 54.95 42.2622 54.8542C42.3511 54.7527 42.4899 54.6897 42.6487 54.6566C42.75 54.6354 42.8623 54.6527 42.9797 54.6955L44.9002 55.3964C44.9745 55.4235 45.057 55.3854 45.0845 55.3112Z" fill="#FF9C27"/>
<path fill-rule="evenodd" clip-rule="evenodd" d="M44.8388 49.8046C44.8004 49.7358 44.7131 49.7113 44.6439 49.7499L43.538 50.3667L43.5196 50.4163C43.415 50.6981 43.1803 51.1045 42.823 51.3984C42.4707 51.6882 42.0024 51.8676 41.4098 51.7167C41.3332 51.6972 41.2549 51.7433 41.235 51.8197C41.2151 51.8961 41.2611 51.9739 41.3377 51.9934C42.0347 52.1709 42.5952 51.9554 43.0049 51.6183C43.3889 51.3025 43.6431 50.8789 43.769 50.5646L44.7831 49.999C44.8523 49.9604 44.8773 49.8733 44.8388 49.8046Z" fill="#FF9C27"/>
<path fill-rule="evenodd" clip-rule="evenodd" d="M47.2192 54.1953C47.1956 54.2595 47.1246 54.2925 47.0604 54.2689L44.8913 53.4744C44.8271 53.4509 44.7941 53.3799 44.8176 53.3157C44.8411 53.2515 44.9122 53.2185 44.9764 53.242L47.1455 54.0365C47.2097 54.06 47.2427 54.1311 47.2192 54.1953Z" fill="#FF9C27"/>
<path fill-rule="evenodd" clip-rule="evenodd" d="M47.8051 52.4668C47.7816 52.531 47.7105 52.5639 47.6463 52.5404L45.0124 51.5757C44.9482 51.5522 44.9152 51.4811 44.9388 51.4169C44.9623 51.3527 45.0333 51.3198 45.0975 51.3433L47.7315 52.308C47.7956 52.3315 47.8286 52.4026 47.8051 52.4668Z" fill="#FF9C27"/>
<path fill-rule="evenodd" clip-rule="evenodd" d="M44.9132 52.1915C44.9918 51.4449 44.8714 50.7349 44.7375 50.3134C44.7168 50.2483 44.7528 50.1787 44.818 50.158C44.8831 50.1373 44.9527 50.1734 44.9734 50.2385C45.1163 50.6884 45.242 51.4327 45.1593 52.2174C45.0766 53.003 44.7835 53.8406 44.0764 54.4569C44.0249 54.5018 43.9467 54.4964 43.9018 54.4449C43.8569 54.3934 43.8623 54.3152 43.9138 54.2703C44.5592 53.7077 44.8347 52.9372 44.9132 52.1915Z" fill="#FF9C27"/>
</g>
</svg>
