<svg width="54" height="54" viewBox="0 0 54 54" fill="none" xmlns="http://www.w3.org/2000/svg">
<circle cx="26.8567" cy="26.8567" r="26.8567" fill="#D9D9D9"/>
<path d="M20.6483 26.5548C20.6483 29.9245 18.0407 32.6563 14.8241 32.6563C11.6076 32.6563 9 29.9245 9 26.5548C9 23.185 11.6076 20.4533 14.8241 20.4533C18.0407 20.4533 20.6483 23.185 20.6483 26.5548Z" fill="#FF9C27"/>
<path d="M44.4295 26.555C44.4295 29.9248 41.822 32.6565 38.6054 32.6565C35.3888 32.6565 32.7813 29.9248 32.7813 26.555C32.7813 23.1853 35.3888 20.4536 38.6054 20.4536C41.822 20.4536 44.4295 23.1853 44.4295 26.555Z" fill="#FF9C27"/>
<path d="M41.3741 23.0159C41.3741 30.7909 34.8107 37.0938 26.7144 37.0938C18.6181 37.0938 12.0547 30.7909 12.0547 23.0159C12.0547 15.2408 18.6181 8.93793 26.7144 8.93793C34.8107 8.93793 41.3741 15.2408 41.3741 23.0159Z" fill="#FFBA68"/>
<mask id="mask0_989_94466" style="mask-type:alpha" maskUnits="userSpaceOnUse" x="12" y="8" width="30" height="30">
<path d="M41.3702 23.0125C41.3702 30.7875 34.8068 37.0904 26.7105 37.0904C18.6142 37.0904 12.0508 30.7875 12.0508 23.0125C12.0508 15.2374 18.6142 8.93451 26.7105 8.93451C34.8068 8.93451 41.3702 15.2374 41.3702 23.0125Z" fill="#FFAB49"/>
</mask>
<g mask="url(#mask0_989_94466)">
<path d="M21.6429 30.2451C21.6429 33.5326 19.0811 36.1977 15.921 36.1977C12.761 36.1977 10.1992 33.5326 10.1992 30.2451C10.1992 26.9575 12.761 24.2924 15.921 24.2924C19.0811 24.2924 21.6429 26.9575 21.6429 30.2451Z" fill="#FF9A24"/>
<path d="M42.9749 30.2451C42.9749 33.5326 40.4132 36.1977 37.2531 36.1977C34.093 36.1977 31.5313 33.5326 31.5313 30.2451C31.5313 26.9575 34.093 24.2924 37.2531 24.2924C40.4132 24.2924 42.9749 26.9575 42.9749 30.2451Z" fill="#FF9A24"/>
</g>
<path d="M27.3272 27.4924C27.3272 27.8459 27.0537 28.1324 26.7163 28.1324C26.379 28.1324 26.1055 27.8459 26.1055 27.4924C26.1055 27.139 26.379 26.8525 26.7163 26.8525C27.0537 26.8525 27.3272 27.139 27.3272 27.4924Z" fill="black"/>
<path fill-rule="evenodd" clip-rule="evenodd" d="M21.8872 28.986C22.0105 28.775 22.2737 28.7087 22.4752 28.8379L23.3299 29.3862C23.9069 29.7562 24.628 29.778 25.2244 29.4433C26.0386 28.9863 27.0171 28.9863 27.8314 29.4433C28.4277 29.778 29.1488 29.7562 29.7258 29.3862L30.5806 28.8379C30.782 28.7087 31.0452 28.775 31.1685 28.986C31.2919 29.197 31.2285 29.4728 31.0271 29.602L30.1723 30.1502C29.3363 30.6865 28.2916 30.718 27.4275 30.233C26.8655 29.9176 26.1902 29.9176 25.6282 30.233C24.7642 30.718 23.7194 30.6865 22.8834 30.1502L22.0286 29.602C21.8272 29.4728 21.7639 29.197 21.8872 28.986Z" fill="#A75A00"/>
<path d="M30.3896 28.3852L27.8544 27.4427C27.5372 27.3248 27.2387 27.6193 27.3322 27.958L28.0794 30.6654C28.1595 30.993 28.3194 31.3073 28.5593 31.5741C29.2862 32.3824 30.4727 32.4482 31.2093 31.7211C31.946 30.994 31.9539 29.7493 31.227 28.9411C30.987 28.6743 30.697 28.4884 30.3896 28.3852Z" fill="white"/>
<path d="M19.3828 24.8037C20.1846 24.974 22.1622 25.1102 23.6588 24.2929" stroke="#905A09" stroke-width="1.4" stroke-linecap="round"/>
<path d="M34.043 24.8037C33.2412 24.974 31.2636 25.1102 29.767 24.2929" stroke="#905A09" stroke-width="1.4" stroke-linecap="round"/>
<path d="M11.7908 36.7703C13.965 35.8593 14.2045 33.3605 14.0157 31.8442C13.9894 31.6332 14.1968 31.4608 14.3812 31.5499L21.7351 35.1056C21.8177 35.1455 21.8725 35.2344 21.8765 35.3295C22.3615 46.9138 14.9335 48.2989 11.4243 47.5396C11.1809 47.4869 11.1995 47.1418 11.4348 47.0579C13.9742 46.1525 14.0713 43.6458 11.7908 42.8494C9.04214 41.8896 8.73673 38.0501 11.7908 36.7703Z" fill="black"/>
<path d="M41.0959 36.7703C38.9217 35.8593 38.6822 33.3605 38.8711 31.8442C38.8973 31.6332 38.6899 31.4608 38.5055 31.5499L31.1516 35.1056C31.0691 35.1455 31.0142 35.2344 31.0102 35.3295C30.5252 46.9138 37.9532 48.2989 41.4624 47.5396C41.7058 47.4869 41.6873 47.1418 41.4519 47.0579C38.9125 46.1525 38.8154 43.6458 41.0959 42.8494C43.8446 41.8896 44.15 38.0501 41.0959 36.7703Z" fill="black"/>
<path fill-rule="evenodd" clip-rule="evenodd" d="M41.6338 23.5897C42.2556 22.2174 42.5949 20.7353 42.5949 19.1893C42.5949 12.1119 35.4845 6.37451 26.7135 6.37451C17.9424 6.37451 10.832 12.1119 10.832 19.1893C10.832 20.8392 11.2185 22.4164 11.9223 23.8649L11.5224 24.6002C11.2439 25.1122 11.7294 25.7036 12.2858 25.5459C24.9753 21.9509 28.4224 18.5064 29.1865 16.8177C29.2525 17.0559 29.3524 17.3362 29.4971 17.6612C32.452 24.3005 40.9886 25.9608 41.6453 25.2968C41.7991 25.1413 41.7728 24.494 41.6338 23.5897Z" fill="black"/>
</svg>
