<svg width="54" height="54" viewBox="0 0 54 54" fill="none" xmlns="http://www.w3.org/2000/svg">
<ellipse cx="27" cy="26.8567" rx="27" ry="26.8567" fill="#E0EAFD"/>
<mask id="mask0_989_94613" style="mask-type:alpha" maskUnits="userSpaceOnUse" x="0" y="3" width="54" height="51">
<ellipse cx="26.8356" cy="28.5" rx="26.4997" ry="25.5" fill="#D9D9D9"/>
</mask>
<g mask="url(#mask0_989_94613)">
<path fill-rule="evenodd" clip-rule="evenodd" d="M73.2524 43.7236H-9.30701C-9.11394 21.2 9.29366 3.00049 31.9727 3.00049C54.6518 3.00049 73.0594 21.2 73.2524 43.7236Z" fill="#E0EAFD"/>
<ellipse cx="11.0792" cy="36.2318" rx="4.48157" ry="1.9755" fill="white"/>
<path d="M48.5579 21.7744C48.6014 21.6611 48.7679 21.6611 48.8115 21.7744L49.7587 24.2376C49.7724 24.2732 49.8015 24.3013 49.8385 24.3144L52.3983 25.2259C52.516 25.2678 52.516 25.428 52.3983 25.4699L49.8385 26.3814C49.8015 26.3945 49.7724 26.4226 49.7587 26.4582L48.8115 28.9214C48.7679 29.0347 48.6014 29.0347 48.5579 28.9214L47.6107 26.4582C47.597 26.4226 47.5678 26.3945 47.5308 26.3814L44.9711 25.4699C44.8534 25.428 44.8534 25.2678 44.9711 25.2259L47.5308 24.3144C47.5678 24.3013 47.597 24.2732 47.6107 24.2376L48.5579 21.7744Z" fill="#FFCC4A"/>
<path d="M33.8334 45.5896C34.2684 46.0115 35.0696 46.0194 35.6228 45.6073L41.6328 41.1303C42.186 40.7182 42.2818 40.0421 41.8468 39.6201L36.018 33.9671C34.2779 32.2794 31.0734 32.2477 28.8606 33.8961C26.6478 35.5445 26.2646 38.2489 28.0046 39.9365L33.8334 45.5896Z" fill="#4C8BFF"/>
<path d="M18.9235 45.4735C18.571 45.9477 17.7811 46.0612 17.1591 45.727L10.4021 42.0969C9.78018 41.7627 9.5617 41.1075 9.91416 40.6333L14.6367 34.2803C16.0466 32.3837 19.2063 31.9297 21.6941 33.2663C24.182 34.6029 25.0559 37.2239 23.646 39.1205L18.9235 45.4735Z" fill="#4C8BFF"/>
<path d="M36.8398 37.5691C36.8398 34.8546 35.7023 32.1343 31.6785 32.1343H20.5071C16.4833 32.1343 14.8214 33.8826 14.8214 36.5971L15.6101 44.5651C15.6691 45.057 16.3814 45.4664 17.3418 45.5605C23.3768 46.1519 28.7022 46.1519 34.7372 45.5605C35.6869 45.4675 36.7652 45.0509 36.8398 44.5651V37.5691Z" fill="#4C8BFF"/>
<path d="M31.2781 31.1971C31.7847 29.7263 31.1911 28.2137 29.9523 27.8187L26.8122 26.8172C25.5734 26.4221 24.1585 27.2942 23.652 28.765L22.7347 31.4281C22.2282 32.8989 22.8217 34.4115 24.0605 34.8066L27.2006 35.808C28.4394 36.2031 29.8543 35.3311 30.3609 33.8603L31.2781 31.1971Z" fill="#FFAB48"/>
<path d="M14.672 20.549C13.8401 22.9644 15.2822 25.5974 17.893 26.4301C20.5037 27.2627 23.2946 25.9796 24.1265 23.5642C24.9584 21.1488 23.5163 18.5157 20.9056 17.6831C18.2948 16.8505 15.5039 18.1336 14.672 20.549Z" fill="#FF9C27"/>
<path d="M32.3908 24.6808C31.5588 27.0962 33.0009 29.7293 35.6117 30.5619C38.2225 31.3945 41.0134 30.1114 41.8453 27.696C42.6772 25.2806 41.2351 22.6476 38.6243 21.8149C36.0135 20.9823 33.2227 22.2654 32.3908 24.6808Z" fill="#ED8000"/>
<path d="M17.6671 18.7764C15.7477 24.3493 19.5189 30.566 26.0902 32.6618C32.6615 34.7575 40.4405 31.3723 39.1045 26.5202C43.2321 21.2824 39.6123 14.5762 33.041 12.4804C26.4697 10.3847 19.5865 13.2035 17.6671 18.7764Z" fill="#FFBA68"/>
<path d="M17.5879 18.7715C15.6589 24.3721 19.5458 30.6507 26.2695 32.795C32.9931 34.9393 40.9192 31.5718 39.5273 26.6798C43.7136 21.4281 39.9785 14.6575 33.2549 12.5132C26.5312 10.3689 19.5169 13.1708 17.5879 18.7715Z" fill="#FFBA68"/>
<mask id="mask1_989_94613" style="mask-type:alpha" maskUnits="userSpaceOnUse" x="17" y="11" width="25" height="23">
<path d="M17.5801 18.7719C15.6511 24.3726 19.538 30.6511 26.2617 32.7955C32.9853 34.9398 40.9114 31.5723 39.5195 26.6803C43.7058 21.4286 39.9707 14.658 33.2471 12.5137C26.5234 10.3694 19.509 13.1713 17.5801 18.7719Z" fill="#FFBA68"/>
</mask>
<g mask="url(#mask1_989_94613)">
<path d="M16.0741 24.1647C15.2624 26.5212 16.6838 29.0946 19.2487 29.9126C21.8136 30.7306 24.5509 29.4835 25.3625 27.127C26.1741 24.7705 24.7527 22.197 22.1878 21.379C19.6229 20.561 16.8857 21.8082 16.0741 24.1647Z" fill="#FF9A24"/>
<path d="M33.8006 29.0602C32.989 31.4167 34.4103 33.9901 36.9753 34.8081C39.5402 35.6262 42.2774 34.379 43.089 32.0225C43.9006 29.666 42.4793 27.0925 39.9144 26.2745C37.3495 25.4565 34.6122 26.7037 33.8006 29.0602Z" fill="#FF9A24"/>
</g>
<path d="M30.3628 26.089C30.2756 26.3421 30.4268 26.6181 30.7005 26.7054C30.9741 26.7927 31.2666 26.6582 31.3538 26.405C31.441 26.1518 31.2899 25.8758 31.0162 25.7886C30.7426 25.7013 30.45 25.8358 30.3628 26.089Z" fill="black"/>
<path d="M35.0214 25.2774C34.8553 25.7596 34.2767 26.0089 33.729 25.8342C33.1814 25.6595 32.872 25.1271 33.0381 24.6449C33.2042 24.1627 33.7828 23.9134 34.3304 24.0881C34.8781 24.2627 35.1874 24.7952 35.0214 25.2774Z" fill="black"/>
<path fill-rule="evenodd" clip-rule="evenodd" d="M34.9666 23.8751C35.0088 24.0654 34.8725 24.2422 34.6621 24.2699C34.5477 24.285 34.3659 24.3326 34.2189 24.4175C34.0729 24.5019 34.0096 24.5921 34.0033 24.6864C33.9905 24.8775 33.8064 25.0148 33.5922 24.9932C33.378 24.9715 33.2147 24.7991 33.2275 24.608C33.2534 24.223 33.5202 23.9728 33.7737 23.8263C34.0263 23.6803 34.3135 23.6066 34.5091 23.5808C34.7196 23.553 34.9244 23.6848 34.9666 23.8751Z" fill="black"/>
<path d="M28.4432 23.689C28.2772 24.1712 27.6986 24.4205 27.1509 24.2458C26.6033 24.0712 26.2939 23.5387 26.46 23.0565C26.6261 22.5743 27.2047 22.325 27.7523 22.4997C28.3 22.6743 28.6093 23.2068 28.4432 23.689Z" fill="black"/>
<path fill-rule="evenodd" clip-rule="evenodd" d="M28.3885 22.2867C28.4307 22.477 28.2943 22.6538 28.0839 22.6815C27.9696 22.6966 27.7877 22.7442 27.6408 22.8291C27.4948 22.9135 27.4315 23.0038 27.4252 23.098C27.4124 23.2891 27.2283 23.4265 27.0141 23.4048C26.7999 23.3831 26.6366 23.2107 26.6494 23.0196C26.6752 22.6346 26.942 22.3844 27.1956 22.2379C27.4482 22.092 27.7354 22.0182 27.931 21.9924C28.1414 21.9646 28.3462 22.0964 28.3885 22.2867Z" fill="black"/>
<path fill-rule="evenodd" clip-rule="evenodd" d="M31.9692 28.5862C30.0165 28.602 28.091 28.0634 26.4482 27.0418C26.2718 26.9322 26.222 26.7287 26.3369 26.5873C26.4519 26.446 26.6881 26.4204 26.8645 26.53C28.3626 27.4616 30.1186 27.9528 31.8992 27.9384C32.1089 27.9367 32.2945 28.0804 32.3138 28.2592C32.3331 28.4381 32.1788 28.5845 31.9692 28.5862Z" fill="#A75A00"/>
<path fill-rule="evenodd" clip-rule="evenodd" d="M34.9444 22.6365C35.2835 22.7992 35.5126 23.0621 35.6131 23.2415C35.7072 23.4093 35.9276 23.4775 36.1054 23.3937C36.2833 23.3099 36.3512 23.1059 36.2571 22.9381C36.0955 22.6498 35.7621 22.2722 35.2657 22.034C34.7544 21.7887 34.0911 21.7021 33.3174 21.9822C33.1313 22.0495 33.0427 22.2461 33.1193 22.4211C33.1959 22.5962 33.4088 22.6835 33.5948 22.6162C34.1751 22.4061 34.6203 22.4809 34.9444 22.6365Z" fill="#905A09"/>
<path fill-rule="evenodd" clip-rule="evenodd" d="M27.7218 20.5852C28.0609 20.7479 28.2899 21.0108 28.3905 21.1902C28.4845 21.3581 28.705 21.4262 28.8828 21.3424C29.0606 21.2586 29.1285 21.0547 29.0345 20.8868C28.8729 20.5985 28.5394 20.221 28.043 19.9828C27.5317 19.7374 26.8685 19.6508 26.0947 19.9309C25.9087 19.9983 25.82 20.1948 25.8966 20.3699C25.9732 20.5449 26.1861 20.6323 26.3722 20.5649C26.9524 20.3549 27.3976 20.4297 27.7218 20.5852Z" fill="#905A09"/>
<path fill-rule="evenodd" clip-rule="evenodd" d="M21.5771 32.3565C21.1084 32.6554 20.9802 33.2634 21.2908 33.7144L21.612 34.1809C22.5893 35.6001 24.1975 36.5006 25.9626 36.6168C27.6609 36.7287 29.3219 36.1023 30.489 34.9099L31.0074 34.3803C31.3929 33.9864 31.3736 33.3663 30.9643 32.9953C30.5549 32.6242 29.9105 32.6428 29.525 33.0367L29.0066 33.5663C28.2576 34.3316 27.1916 34.7336 26.1016 34.6618C24.9688 34.5872 23.9367 34.0093 23.3095 33.0985L22.9883 32.632C22.6777 32.1809 22.0459 32.0576 21.5771 32.3565Z" fill="#337AFF"/>
<path fill-rule="evenodd" clip-rule="evenodd" d="M36.4324 36.8993C36.3012 36.9425 36.2312 37.0798 36.2761 37.2061C36.9865 39.2043 37.0994 41.6375 37.0994 44.0536C37.0994 44.187 37.2118 44.2952 37.3505 44.2951C37.4892 44.2951 37.6016 44.187 37.6016 44.0536C37.6015 41.6377 37.4913 39.1317 36.7512 37.0497C36.7063 36.9234 36.5635 36.8561 36.4324 36.8993Z" fill="#337AFF"/>
<path fill-rule="evenodd" clip-rule="evenodd" d="M22.8333 37.6968C22.6986 37.6654 22.5629 37.745 22.5302 37.8746C22.4424 38.223 22.37 38.5581 22.2992 38.886C22.1503 39.5758 22.0083 40.2336 21.7439 40.9144C21.3618 41.8982 20.7265 42.9103 19.4423 44.0248C19.3393 44.1141 19.3312 44.2669 19.424 44.366C19.5169 44.4651 19.6756 44.473 19.7786 44.3836C21.1207 43.2188 21.8031 42.1423 22.2143 41.0835C22.4922 40.3679 22.6474 39.6502 22.8008 38.9412C22.8699 38.6216 22.9387 38.3037 23.0181 37.9886C23.0508 37.8589 22.9681 37.7283 22.8333 37.6968Z" fill="#337AFF"/>
<path d="M37.9518 10.8686C33.9365 11.2 32.6062 6.65269 24.7547 9.41786C23.0476 8.72897 26.5304 3.40955 22.9582 6.0183C20.1006 8.10531 21.7109 9.32201 22.8727 9.41173C17.7248 10.8875 13.2232 19.8769 18.7319 20.5396C25.414 21.3434 33.2733 19.1676 36.3795 17.3164C38.6792 15.9458 38.3759 26.2294 41.3816 25.9801C43.4974 25.8046 44.2267 23.3369 42.5231 22.1176C42.8324 21.9325 44.072 22.4815 44.956 20.8692C45.84 19.2569 42.474 15.1007 40.8806 13.8854C41.4196 12.0614 42.1982 10.518 37.9518 10.8686Z" fill="black"/>
<path d="M29.1943 41.8563C30.0147 41.6071 30.5787 41.0954 30.4542 40.7135L29.1009 36.5644C28.9764 36.1824 28.2104 36.0749 27.39 36.3241L16.3981 39.6635C13.1167 40.6604 12.1307 42.321 12.6289 43.8487C13.1272 45.3764 14.9209 46.1926 18.2024 45.1957L29.1943 41.8563Z" fill="#FFAE4E"/>
<path d="M24.137 41.91C24.8855 41.6826 25.4156 41.2633 25.321 40.9735L24.2941 37.8249C24.1996 37.5351 23.5163 37.4844 22.7678 37.7118L12.7395 40.7585C9.74567 41.668 8.78414 42.993 9.16224 44.1523C9.54033 45.3116 11.1149 45.8661 14.1087 44.9566L24.137 41.91Z" fill="#FFAE4E"/>
<path fill-rule="evenodd" clip-rule="evenodd" d="M30.5182 45.3653C30.5229 45.2814 30.4561 45.2096 30.3689 45.2051C30.2034 45.1964 29.9325 45.2112 29.6388 45.2804C29.3451 45.3495 29.0173 45.4756 28.7487 45.6975C28.6824 45.7522 28.6748 45.8483 28.7317 45.9121C28.7886 45.9758 28.8884 45.9832 28.9547 45.9284C29.1734 45.7478 29.4501 45.6381 29.7139 45.576C29.9777 45.5138 30.2174 45.5019 30.3517 45.5089C30.4389 45.5135 30.5134 45.4492 30.5182 45.3653Z" fill="#FF9C27"/>
<path fill-rule="evenodd" clip-rule="evenodd" d="M29.6217 43.4744C29.6172 43.3905 29.5428 43.3259 29.4556 43.3303C29.29 43.3385 29.0223 43.3808 28.7378 43.4795C28.4534 43.5781 28.1414 43.7369 27.8986 43.9849C27.8387 44.0461 27.8417 44.1424 27.9053 44.2C27.9688 44.2576 28.0689 44.2547 28.1288 44.1936C28.3265 43.9917 28.5895 43.8544 28.8451 43.7658C29.1005 43.6772 29.3376 43.6409 29.4719 43.6342C29.5591 43.6299 29.6262 43.5583 29.6217 43.4744Z" fill="#FF9C27"/>
<path fill-rule="evenodd" clip-rule="evenodd" d="M28.2055 41.7933C28.195 41.7099 28.1162 41.6504 28.0295 41.6605C27.865 41.6796 27.6009 41.7394 27.324 41.8566C27.0473 41.9737 26.7473 42.1527 26.5227 42.4161C26.4673 42.481 26.4772 42.5769 26.5447 42.6302C26.6122 42.6835 26.7118 42.6741 26.7672 42.6091C26.9501 42.3947 27.2027 42.2404 27.4514 42.1351C27.6999 42.0299 27.9339 41.9781 28.0674 41.9626C28.1541 41.9526 28.2159 41.8768 28.2055 41.7933Z" fill="#FF9C27"/>
<path d="M-9.3125 42.1836H70.4469C73.7959 42.1836 76.5108 44.8985 76.5108 48.2475H-9.3125V42.1836Z" fill="#4C8BFF"/>
<rect x="6.58984" y="34.7642" width="8.93118" height="10.0941" rx="2.18389" fill="white"/>
<path fill-rule="evenodd" clip-rule="evenodd" d="M5.32771 37.7264C5.99487 37.2964 6.82284 37.249 7.4636 37.249V38.5375C6.83599 38.5375 6.37628 38.6013 6.07284 38.7969C5.83126 38.9526 5.55769 39.2819 5.55769 40.1732C5.55769 40.5602 5.74819 40.7901 6.09924 40.9751C6.48769 41.1799 6.98772 41.2757 7.42782 41.3509L7.19377 42.6195C6.77541 42.548 6.06415 42.4257 5.45594 42.1051C4.81031 41.7647 4.21875 41.1619 4.21875 40.1732C4.21875 39.007 4.59869 38.1963 5.32771 37.7264Z" fill="white"/>
<path d="M27.2902 44.6985L27.9801 46.1677L21.7703 44.4237L15.4062 42.1943H25.9217L27.2902 44.3829V44.6985Z" fill="black" fill-opacity="0.19"/>
<path d="M9.87412 31.309C11.0537 30.6105 10.6006 29.6959 10.0923 29.1823C10.034 29.1234 10.0827 29.015 10.1645 29.0286C11.1701 29.1952 11.5141 29.5167 11.6598 29.6568C11.6632 29.66 11.6662 29.6635 11.6689 29.6673C12.4549 30.7436 11.3414 31.7289 10.9419 32.0881C10.6062 32.3899 10.7527 32.9672 10.971 33.3818C11.0141 33.4636 10.8979 33.5989 10.8178 33.5528C9.832 32.9846 8.70274 32.0026 9.87412 31.309Z" fill="white"/>
<ellipse cx="11.0501" cy="35.7813" rx="3.38606" ry="0.884771" fill="#706250"/>
<path d="M21.9609 43.6418L39.4137 43.3208L33.3058 45.867H27.1271L21.9613 44.4576L21.9609 43.6418Z" fill="#79777A"/>
<path fill-rule="evenodd" clip-rule="evenodd" d="M31.8569 36.7992L33.5513 37.7133C33.9577 37.9326 34.2262 38.3792 34.2347 38.8504C34.2398 39.1249 34.1556 39.3839 33.9967 39.5831L33.9179 39.6819C33.9103 39.6914 33.9027 39.7008 33.8949 39.71L34.9373 41.4474C35.2575 41.9811 35.0674 42.6635 34.5128 42.9717C34.1762 43.1587 33.7828 43.1648 33.4538 43.0215C33.5778 43.5163 33.3298 44.0437 32.8331 44.2707C32.3377 44.4971 31.7581 44.3502 31.4374 43.9477C31.4336 44.3236 31.2292 44.688 30.8663 44.8896C30.4215 45.1367 29.8758 45.0631 29.5182 44.7435C29.4238 44.9501 29.2627 45.1307 29.044 45.2523C28.4978 45.5557 27.7994 45.3756 27.4841 44.85L25.7593 41.9753C25.6901 41.8599 25.6451 41.7375 25.6227 41.6135C24.5849 39.7591 25.2616 37.4346 27.1699 36.3745C28.7076 35.5201 30.5843 35.7428 31.8569 36.7992Z" fill="#FFBA68"/>
<path d="M29.582 32.8958C29.713 32.2619 30.2713 31.8071 30.9187 31.8071L51.3606 31.8073C52.197 31.8073 52.8366 32.5527 52.7097 33.3794L50.9246 45.0071C50.8224 45.6732 50.2494 46.1649 49.5755 46.1649H28.5157C27.6508 46.1649 27.004 45.3707 27.179 44.5238L29.582 32.8958Z" fill="#BABFC7"/>
<rect x="9.625" y="46.8701" width="36.1652" height="7.12976" fill="#4C8BFF"/>
<ellipse cx="11.048" cy="43.365" rx="4.48157" ry="2.05443" fill="white"/>
<path d="M38.2895 38.9402L38.3828 38.0339L41.4862 39.9599L41.3939 40.8569L38.2895 38.9402Z" fill="url(#paint0_linear_989_94613)"/>
<path d="M41.5557 39.2524L41.649 38.3461L40.1081 37.2841L38.3794 38.0344L38.2861 38.9407L40.0148 38.1903L41.5557 39.2524Z" fill="white"/>
<path d="M41.4884 39.9476L41.3951 40.8539L39.6888 41.3985L38.1255 40.5423L38.2188 39.636L39.7821 40.4922L41.4884 39.9476Z" fill="white"/>
</g>
<defs>
<linearGradient id="paint0_linear_989_94613" x1="40.0176" y1="38.1898" x2="39.7781" y2="40.7029" gradientUnits="userSpaceOnUse">
<stop stop-color="white"/>
<stop offset="1" stop-color="white" stop-opacity="0"/>
</linearGradient>
</defs>
</svg>
