<svg width="54" height="54" viewBox="0 0 54 54" fill="none" xmlns="http://www.w3.org/2000/svg">
<circle cx="27" cy="27" r="27" fill="#D9D9D9"/>
<path d="M21.8897 31.878C21.8897 34.8075 19.5149 37.1823 16.5855 37.1823C13.656 37.1823 11.2813 34.8075 11.2813 31.878C11.2813 28.9486 13.656 26.5738 16.5855 26.5738C19.5149 26.5738 21.8897 28.9486 21.8897 31.878Z" fill="#FF9C27"/>
<path d="M43.546 31.878C43.546 34.8074 41.1712 37.1822 38.2417 37.1822C35.3123 37.1822 32.9375 34.8074 32.9375 31.878C32.9375 28.9485 35.3123 26.5737 38.2417 26.5737C41.1712 26.5737 43.546 28.9485 43.546 31.878Z" fill="#FF9C27"/>
<path d="M40.7646 28.801C40.7646 35.5601 34.7871 41.0394 27.4136 41.0394C20.04 41.0394 14.0625 35.5601 14.0625 28.801C14.0625 22.0419 20.04 16.5625 27.4136 16.5625C34.7871 16.5625 40.7646 22.0419 40.7646 28.801Z" fill="#FFBA68"/>
<path d="M27.972 32.6935C27.972 33.0007 27.7229 33.2498 27.4157 33.2498C27.1084 33.2498 26.8594 33.0007 26.8594 32.6935C26.8594 32.3863 27.1084 32.1372 27.4157 32.1372C27.7229 32.1372 27.972 32.3863 27.972 32.6935Z" fill="black"/>
<path fill-rule="evenodd" clip-rule="evenodd" d="M23.3964 27.9274C22.997 27.9871 22.6739 28.1945 22.5098 28.3555C22.3562 28.5061 22.1097 28.5037 21.9591 28.3502C21.8085 28.1967 21.8108 27.9502 21.9644 27.7995C22.2282 27.5408 22.6967 27.2444 23.2815 27.1571C23.8838 27.0672 24.5844 27.2037 25.2691 27.7795C25.4338 27.9179 25.455 28.1635 25.3166 28.3281C25.1782 28.4927 24.9325 28.514 24.7679 28.3756C24.2545 27.9438 23.7783 27.8704 23.3964 27.9274Z" fill="#905A09"/>
<path fill-rule="evenodd" clip-rule="evenodd" d="M30.8537 27.9276C30.4543 27.9872 30.1312 28.1947 29.967 28.3557C29.8135 28.5063 29.567 28.5039 29.4164 28.3504C29.2658 28.1969 29.2681 27.9503 29.4216 27.7997C29.6854 27.5409 30.154 27.2446 30.7387 27.1573C31.3411 27.0674 32.0417 27.2039 32.7264 27.7797C32.891 27.9181 32.9123 28.1637 32.7739 28.3283C32.6354 28.4929 32.3898 28.5142 32.2252 28.3757C31.7117 27.944 31.2356 27.8706 30.8537 27.9276Z" fill="#905A09"/>
<mask id="mask0_989_94351" style="mask-type:alpha" maskUnits="userSpaceOnUse" x="14" y="16" width="27" height="26">
<path d="M40.7607 28.801C40.7607 35.5601 34.7832 41.0394 27.4097 41.0394C20.0361 41.0394 14.0586 35.5601 14.0586 28.801C14.0586 22.0419 20.0361 16.5625 27.4097 16.5625C34.7832 16.5625 40.7607 22.0419 40.7607 28.801Z" fill="#FFAB49"/>
</mask>
<g mask="url(#mask0_989_94351)">
<path d="M22.9572 35.0879C22.9572 37.9459 20.6242 40.2628 17.7462 40.2628C14.8682 40.2628 12.5352 37.9459 12.5352 35.0879C12.5352 32.2299 14.8682 29.9131 17.7462 29.9131C20.6242 29.9131 22.9572 32.2299 22.9572 35.0879Z" fill="#FF9A24"/>
<path d="M42.2815 35.0879C42.2815 37.9459 39.9484 40.2628 37.0704 40.2628C34.1924 40.2628 31.8594 37.9459 31.8594 35.0879C31.8594 32.2299 34.1924 29.9131 37.0704 29.9131C39.9484 29.9131 42.2815 32.2299 42.2815 35.0879Z" fill="#FF9A24"/>
<path d="M23.4439 28.8529C23.4694 28.784 23.5669 28.784 23.5924 28.8529L24.1467 30.3511C24.1547 30.3728 24.1718 30.3898 24.1935 30.3979L25.6916 30.9522C25.7605 30.9777 25.7605 31.0752 25.6916 31.1007L24.1935 31.655C24.1718 31.663 24.1547 31.6801 24.1467 31.7018L23.5924 33.2C23.5669 33.2688 23.4694 33.2688 23.4439 33.2L22.8896 31.7018C22.8815 31.6801 22.8645 31.663 22.8428 31.655L21.3446 31.1007C21.2757 31.0752 21.2757 30.9777 21.3446 30.9522L22.8428 30.3979C22.8645 30.3898 22.8815 30.3728 22.8896 30.3511L23.4439 28.8529Z" fill="#FFED4A"/>
<path d="M31.2291 28.8529C31.2546 28.784 31.352 28.784 31.3775 28.8529L31.9319 30.3511C31.9399 30.3728 31.957 30.3898 31.9786 30.3979L33.4768 30.9522C33.5457 30.9777 33.5457 31.0752 33.4768 31.1007L31.9786 31.655C31.957 31.663 31.9399 31.6801 31.9319 31.7018L31.3775 33.2C31.352 33.2688 31.2546 33.2688 31.2291 33.2L30.6747 31.7018C30.6667 31.6801 30.6496 31.663 30.628 31.655L29.1298 31.1007C29.0609 31.0752 29.0609 30.9777 29.1298 30.9522L30.628 30.3979C30.6496 30.3898 30.6667 30.3728 30.6747 30.3511L31.2291 28.8529Z" fill="#FFED4A"/>
<path d="M25.0518 36.561C24.8405 36.3145 24.6605 36.0383 24.5147 35.7408C24.0285 34.749 24.9697 33.8075 26.0742 33.8075L28.7498 33.8075C29.8543 33.8075 30.7955 34.749 30.3093 35.7408C30.1635 36.0383 29.9835 36.3145 29.7721 36.561C29.1462 37.2913 28.2972 37.7015 27.412 37.7015C26.5268 37.7015 25.6778 37.2913 25.0518 36.561Z" fill="#E16037"/>
</g>
<path d="M23.4553 15.8411C16.3454 8.82089 5.87232 23.1061 13.2168 29.004C13.2168 29.004 15.2075 31.0515 19.758 29.004C24.3085 26.9565 25.7304 20.8137 25.7304 20.8137C25.7304 20.8137 28.9616 28.5681 36.9236 28.4901C39.4058 28.4658 41.486 26.5394 41.7767 24.0742C43.2053 11.959 27.3343 6.22327 23.4553 15.8411Z" fill="black"/>
</svg>
