<svg width="54" height="54" viewBox="0 0 54 54" fill="none" xmlns="http://www.w3.org/2000/svg">
<circle cx="26.8567" cy="26.8567" r="26.8567" fill="#D9D9D9"/>
<path d="M21.9202 34.6626C21.9202 37.7449 19.4215 40.2436 16.3391 40.2436C13.2568 40.2436 10.7581 37.7449 10.7581 34.6626C10.7581 31.5802 13.2568 29.0815 16.3391 29.0815C19.4215 29.0815 21.9202 31.5802 21.9202 34.6626Z" fill="#FF9C27"/>
<path d="M44.7051 34.6626C44.7051 37.745 42.2064 40.2437 39.124 40.2437C36.0417 40.2437 33.543 37.745 33.543 34.6626C33.543 31.5803 36.0417 29.0815 39.124 29.0815C42.2064 29.0815 44.7051 31.5803 44.7051 34.6626Z" fill="#FF9C27"/>
<path d="M41.7794 31.4246C41.7794 38.5365 35.4899 44.3018 27.7315 44.3018C19.973 44.3018 13.6836 38.5365 13.6836 31.4246C13.6836 24.3127 19.973 18.5474 27.7315 18.5474C35.4899 18.5474 41.7794 24.3127 41.7794 31.4246Z" fill="#FFBA68"/>
<mask id="mask0_989_94527" style="mask-type:alpha" maskUnits="userSpaceOnUse" x="13" y="18" width="29" height="27">
<path d="M41.7794 31.4246C41.7794 38.5365 35.4899 44.3018 27.7315 44.3018C19.973 44.3018 13.6836 38.5365 13.6836 31.4246C13.6836 24.3127 19.973 18.5474 27.7315 18.5474C35.4899 18.5474 41.7794 24.3127 41.7794 31.4246Z" fill="#FFAB49"/>
</mask>
<g mask="url(#mask0_989_94527)">
<path d="M23.0442 38.04C23.0442 41.0471 20.5893 43.4849 17.5612 43.4849C14.533 43.4849 12.0781 41.0471 12.0781 38.04C12.0781 35.0328 14.533 32.595 17.5612 32.595C20.5893 32.595 23.0442 35.0328 23.0442 38.04Z" fill="#FF9A24"/>
<path d="M43.3799 38.04C43.3799 41.0471 40.925 43.4849 37.8968 43.4849C34.8687 43.4849 32.4138 41.0471 32.4138 38.04C32.4138 35.0328 34.8687 32.595 37.8968 32.595C40.925 32.595 43.3799 35.0328 43.3799 38.04Z" fill="#FF9A24"/>
</g>
<path d="M28.3191 35.5199C28.3191 35.8432 28.057 36.1052 27.7338 36.1052C27.4105 36.1052 27.1484 35.8432 27.1484 35.5199C27.1484 35.1966 27.4105 34.9346 27.7338 34.9346C28.057 34.9346 28.3191 35.1966 28.3191 35.5199Z" fill="black"/>
<path d="M30.3437 33.9079C30.2001 33.7355 30.0729 33.5469 29.9633 33.3459C29.4351 32.3758 30.382 31.4246 31.4866 31.4246L33.3398 31.4246C34.4444 31.4246 35.3913 32.3758 34.8631 33.3459C34.7535 33.5469 34.6263 33.7355 34.4826 33.9079C33.9338 34.5665 33.1894 34.9365 32.4132 34.9365C31.637 34.9365 30.8926 34.5665 30.3437 33.9079Z" fill="white"/>
<path d="M20.9805 33.9079C20.8368 33.7355 20.7096 33.5469 20.6001 33.3459C20.0718 32.3758 21.0187 31.4246 22.1233 31.4246L23.9766 31.4246C25.0811 31.4246 26.0281 32.3758 25.4998 33.3459C25.3903 33.5469 25.2631 33.7355 25.1194 33.9079C24.5705 34.5665 23.8261 34.9365 23.0499 34.9365C22.2737 34.9365 21.5293 34.5665 20.9805 33.9079Z" fill="white"/>
<path fill-rule="evenodd" clip-rule="evenodd" d="M23.2869 38.6601C23.4051 38.8531 23.6573 38.9138 23.8503 38.7956L24.6694 38.2941C25.2223 37.9556 25.9132 37.9357 26.4846 38.2419C27.2649 38.6598 28.2024 38.6598 28.9827 38.2419C29.5541 37.9357 30.2451 37.9556 30.7979 38.2941L31.617 38.7956C31.81 38.9138 32.0622 38.8531 32.1804 38.6601C32.2986 38.4671 32.2379 38.2149 32.0449 38.0967L31.2258 37.5953C30.4248 37.1048 29.4237 37.076 28.5957 37.5195C28.0572 37.808 27.4101 37.808 26.8716 37.5195C26.0436 37.076 25.0426 37.1048 24.2415 37.5953L23.4224 38.0967C23.2294 38.2149 23.1688 38.4671 23.2869 38.6601Z" fill="#A75A00"/>
<path d="M24.2202 32.596C24.2202 33.2425 23.6961 33.7666 23.0496 33.7666C22.403 33.7666 21.8789 33.2425 21.8789 32.596C21.8789 31.9494 22.403 31.4253 23.0496 31.4253C23.6961 31.4253 24.2202 31.9494 24.2202 32.596Z" fill="black"/>
<path d="M33.5835 32.596C33.5835 33.2425 33.0594 33.7666 32.4128 33.7666C31.7663 33.7666 31.2422 33.2425 31.2422 32.596C31.2422 31.9494 31.7663 31.4253 32.4128 31.4253C33.0594 31.4253 33.5835 31.9494 33.5835 32.596Z" fill="black"/>
<path fill-rule="evenodd" clip-rule="evenodd" d="M20.418 29.6695C20.418 29.1846 20.8111 28.7915 21.296 28.7915H24.8079C25.2928 28.7915 25.6859 29.1846 25.6859 29.6695C25.6859 30.1544 25.2928 30.5475 24.8079 30.5475H21.296C20.8111 30.5475 20.418 30.1544 20.418 29.6695Z" fill="#905A09"/>
<path fill-rule="evenodd" clip-rule="evenodd" d="M29.7852 29.6695C29.7852 29.1846 30.1782 28.7915 30.6631 28.7915H34.1751C34.66 28.7915 35.0531 29.1846 35.0531 29.6695C35.0531 30.1544 34.66 30.5475 34.1751 30.5475H30.6631C30.1782 30.5475 29.7852 30.1544 29.7852 29.6695Z" fill="#905A09"/>
<path fill-rule="evenodd" clip-rule="evenodd" d="M20.5716 27.6726C20.5955 27.8743 20.6077 28.0792 20.6077 28.2869C20.6077 31.3132 18.0092 33.7666 14.8038 33.7666C11.5985 33.7666 9 31.3132 9 28.2869C9 26.7583 9.6629 25.376 10.7321 24.382C10.2997 23.6152 10.0547 22.74 10.0547 21.8107C10.0547 18.7843 12.6532 16.331 15.8585 16.331C15.8895 16.331 15.9203 16.3312 15.9511 16.3317C16.4473 13.781 18.8142 11.8482 21.6593 11.8482C22.2145 11.8482 22.7515 11.9218 23.2599 12.0592C24.3173 11.0085 25.8116 10.3535 27.4679 10.3535C29.1879 10.3535 30.7332 11.0599 31.796 12.1822C32.4195 11.9661 33.0932 11.8481 33.796 11.8481C36.6693 11.8481 39.0549 13.8193 39.5184 16.4076C42.2609 16.8443 44.3499 19.0972 44.3499 21.8107C44.3499 22.506 44.2127 23.1711 43.9625 23.7831C45.4714 24.7726 46.4593 26.4208 46.4593 28.2867C46.4593 31.3131 43.8608 33.7664 40.6554 33.7664C37.45 33.7664 34.8516 31.3131 34.8516 28.2867C34.8516 28.0791 34.8638 27.8742 34.8876 27.6726C34.0875 28.0654 33.1782 28.2874 32.214 28.2874C30.4077 28.2874 28.7941 27.5083 27.7296 26.2866C26.6652 27.5083 25.0516 28.2874 23.2453 28.2874C22.2811 28.2874 21.3718 28.0654 20.5716 27.6726Z" fill="black"/>
<path fill-rule="evenodd" clip-rule="evenodd" d="M35.3389 12.9873C35.8238 12.9873 36.2169 13.3804 36.2169 13.8653V19.7186C36.2169 20.2035 35.8238 20.5966 35.3389 20.5966C34.854 20.5966 34.4609 20.2035 34.4609 19.7186V13.8653C34.4609 13.3804 34.854 12.9873 35.3389 12.9873Z" fill="black"/>
<path fill-rule="evenodd" clip-rule="evenodd" d="M34.7748 14.2977C32.9043 14.7654 30.4132 15.0359 27.7267 15.0359C25.0402 15.0359 22.5491 14.7654 20.6786 14.2977C19.7568 14.0673 18.8863 13.765 18.2039 13.3616C17.6391 13.0278 16.6055 12.266 16.6055 10.9386C16.6055 9.61122 17.6391 8.84944 18.2039 8.51559C18.8863 8.11227 19.7568 7.80994 20.6786 7.57949C22.5491 7.11185 25.0402 6.84131 27.7267 6.84131C30.4132 6.84131 32.9043 7.11185 34.7748 7.57949C35.6966 7.80994 36.5671 8.11227 37.2495 8.51559C37.8143 8.84944 38.848 9.61122 38.848 10.9386C38.848 12.266 37.8143 13.0278 37.2495 13.3616C36.5671 13.765 35.6966 14.0673 34.7748 14.2977ZM27.7267 13.2799C32.899 13.2799 37.092 12.2317 37.092 10.9386C37.092 9.64554 32.899 8.5973 27.7267 8.5973C22.5544 8.5973 18.3615 9.64554 18.3615 10.9386C18.3615 12.2317 22.5544 13.2799 27.7267 13.2799Z" fill="#FFC266"/>
</svg>
