<svg width="54" height="54" viewBox="0 0 54 54" fill="none" xmlns="http://www.w3.org/2000/svg">
<circle cx="26.8567" cy="26.8567" r="26.8567" fill="#D9D9D9"/>
<mask id="mask0_989_94980" style="mask-type:alpha" maskUnits="userSpaceOnUse" x="0" y="0" width="54" height="54">
<circle cx="27.0247" cy="26.8567" r="26.8567" fill="#D9D9D9"/>
</mask>
<g mask="url(#mask0_989_94980)">
<path d="M22.0022 42.0663C22.3332 41.5859 22.3553 41.0261 22.0516 40.8161L18.7517 38.534C18.448 38.324 17.9334 38.5432 17.6023 39.0236L13.1667 45.4611C11.8425 47.3829 12.2666 48.878 13.4815 49.7183C14.6965 50.5585 16.2423 50.4256 17.5665 48.5038L22.0022 42.0663Z" fill="#FFAE4E"/>
<path d="M31.2504 41.6077C31.0474 41.0607 31.1633 40.5127 31.5093 40.3836L35.2683 38.981C35.6143 38.8519 36.0593 39.1907 36.2624 39.7377L38.9827 47.0668C39.7949 49.2548 39.0169 50.6001 37.6329 51.1165C36.2489 51.6329 34.7829 51.1248 33.9708 48.9368L31.2504 41.6077Z" fill="#FFAE4E"/>
<path d="M20.1594 47.6015C19.8188 47.9908 19.1916 47.9981 18.7586 47.6179L14.0537 43.4874C13.6206 43.1072 13.5456 42.4834 13.8861 42.0941L18.4492 36.8786C19.8114 35.3216 22.32 35.2923 24.0523 36.8131C25.7846 38.3339 26.0846 40.829 24.7224 42.386L20.1594 47.6015Z" fill="#4C8BFF"/>
<path d="M31.8324 47.4937C32.1084 47.9311 32.7267 48.0359 33.2136 47.7276L38.5033 44.3784C38.9902 44.0701 39.1613 43.4656 38.8853 43.0281L35.1883 37.1668C34.0846 35.4171 31.611 34.9982 29.6634 36.2314C27.7158 37.4645 27.0317 39.8826 28.1354 41.6324L31.8324 47.4937Z" fill="#4C8BFF"/>
<path d="M17.8125 42.6353C17.8125 38.9128 18.703 35.1823 21.853 35.1823H30.5986C33.7486 35.1823 35.0496 37.5798 35.0496 41.3023L34.4321 52.2292C34.3859 52.9037 33.8283 53.4652 33.0765 53.5942C28.352 54.4053 24.183 54.4053 19.4585 53.5942C18.7151 53.4666 17.8709 52.8954 17.8125 52.2292V42.6353Z" fill="#4C8BFF"/>
<path d="M22.5742 32.754C22.5742 31.3244 23.5134 30.1655 24.672 30.1655H27.609C28.7676 30.1655 29.7068 31.3244 29.7068 32.754V35.3424C29.7068 36.7719 28.7676 37.9308 27.609 37.9308H24.672C23.5134 37.9308 22.5742 36.7719 22.5742 35.3424V32.754Z" fill="#FFAB48"/>
<path d="M39.6549 28.0631C39.6549 30.4108 37.6754 32.3139 35.2336 32.3139C32.7917 32.3139 30.8123 30.4108 30.8123 28.0631C30.8123 25.7155 32.7917 23.8123 35.2336 23.8123C37.6754 23.8123 39.6549 25.7155 39.6549 28.0631Z" fill="#FF9C27"/>
<path d="M23.5301 26.7339C23.5301 29.0816 21.5507 30.9847 19.1088 30.9847C16.667 30.9847 14.6875 29.0816 14.6875 26.7339C14.6875 24.3863 16.667 22.4832 19.1088 22.4832C21.5507 22.4832 23.5301 24.3863 23.5301 26.7339Z" fill="#ED8000"/>
<path d="M37.6507 25.6763C37.6507 31.0929 32.6684 35.4839 26.5223 35.4839C20.3762 35.4839 14.8033 30.3466 17.3375 26.4705C15.3793 20.7307 20.3762 15.8687 26.5223 15.8687C32.6684 15.8687 37.6507 20.2597 37.6507 25.6763Z" fill="#FFBA68"/>
<path d="M37.726 25.6953C37.726 31.1388 32.6281 35.5517 26.3396 35.5517C20.051 35.5517 14.349 30.3889 16.9419 26.4935C14.9383 20.7251 20.051 15.8389 26.3396 15.8389C32.6281 15.8389 37.726 20.2517 37.726 25.6953Z" fill="#FFBA68"/>
<mask id="mask1_989_94980" style="mask-type:alpha" maskUnits="userSpaceOnUse" x="16" y="15" width="22" height="21">
<path d="M37.7338 25.6948C37.7338 31.1384 32.6359 35.5512 26.3474 35.5512C20.0588 35.5512 14.3568 30.3884 16.9497 26.493C14.9461 20.7246 20.0588 15.8384 26.3474 15.8384C32.6359 15.8384 37.7338 20.2513 37.7338 25.6948Z" fill="#FFBA68"/>
</mask>
<g mask="url(#mask1_989_94980)">
<path d="M37.4373 30.838C37.4373 33.1284 35.4926 34.9852 33.0937 34.9852C30.6947 34.9852 28.75 33.1284 28.75 30.838C28.75 28.5476 30.6947 26.6909 33.0937 26.6909C35.4926 26.6909 37.4373 28.5476 37.4373 30.838Z" fill="#FF9A24"/>
<path d="M21.0818 30.174C21.0818 32.4644 19.1371 34.3211 16.7382 34.3211C14.3393 34.3211 12.3945 32.4644 12.3945 30.174C12.3945 27.8836 14.3393 26.0269 16.7382 26.0269C19.1371 26.0269 21.0818 27.8836 21.0818 30.174Z" fill="#FF9A24"/>
</g>
<path d="M24.8298 28.5337C24.8298 28.78 24.6222 28.9796 24.3661 28.9796C24.11 28.9796 23.9023 28.78 23.9023 28.5337C23.9023 28.2875 24.11 28.0879 24.3661 28.0879C24.6222 28.0879 24.8298 28.2875 24.8298 28.5337Z" fill="black"/>
<path fill-rule="evenodd" clip-rule="evenodd" d="M21.6709 24.5235C21.3374 24.5677 21.0663 24.731 20.9281 24.8586C20.7989 24.9779 20.5934 24.9739 20.4692 24.8495C20.3449 24.7251 20.349 24.5275 20.4783 24.4082C20.7004 24.2032 21.0935 23.9699 21.5816 23.9051C22.0845 23.8384 22.6673 23.9541 23.2331 24.4216C23.3692 24.534 23.3848 24.731 23.268 24.8617C23.1512 24.9924 22.9463 25.0072 22.8102 24.8948C22.3859 24.5442 21.9897 24.4812 21.6709 24.5235Z" fill="#905A09"/>
<path fill-rule="evenodd" clip-rule="evenodd" d="M28.3469 25.0319C28.0116 25.0591 27.7326 25.2084 27.5881 25.3288C27.4529 25.4414 27.2479 25.4268 27.1302 25.2963C27.0124 25.1657 27.0266 24.9686 27.1618 24.856C27.394 24.6626 27.7985 24.4496 28.2893 24.4099C28.7949 24.3689 29.3711 24.5141 29.9124 25.0099C30.0425 25.129 30.048 25.3266 29.9247 25.4512C29.8014 25.5757 29.596 25.5801 29.4659 25.4609C29.06 25.0892 28.6675 25.006 28.3469 25.0319Z" fill="#905A09"/>
<path fill-rule="evenodd" clip-rule="evenodd" d="M30.3688 35.368C30.7652 35.6715 30.8405 36.2389 30.5369 36.6353L30.223 37.0451C29.268 38.2922 27.7868 39.0235 26.2161 39.0235C24.7049 39.0235 23.2731 38.3463 22.3145 37.1779L21.8888 36.659C21.5721 36.2731 21.6282 35.7035 22.0142 35.3868C22.4001 35.0701 22.9697 35.1263 23.2864 35.5122L23.7122 36.0312C24.3274 36.781 25.2462 37.2156 26.2161 37.2156C27.2242 37.2156 28.1748 36.7463 28.7876 35.9459L29.1016 35.536C29.4051 35.1397 29.9725 35.0644 30.3688 35.368Z" fill="#337AFF"/>
<path d="M18.7117 39.7939C18.0678 41.6762 17.9688 43.9546 17.9688 46.1836" stroke="#337AFF" stroke-width="1.5" stroke-linecap="round"/>
<path d="M30.9092 40.537C31.3782 42.4703 31.3863 44.2212 33.7179 46.3241" stroke="#337AFF" stroke-width="1.5" stroke-linecap="round"/>
<path d="M18.866 42.6208C19.2011 42.4513 19.6082 42.5809 19.7755 42.9101L21.5924 46.4872C21.7596 46.8165 21.6236 47.2208 21.2886 47.3902L16.7996 49.6607C15.4595 50.3385 14.3496 49.5579 13.6806 48.2409C13.0116 46.9238 13.0369 45.5691 14.377 44.8913L18.866 42.6208Z" fill="#FFAE4E"/>
<path d="M23.5602 31.093C23.4484 30.992 23.3515 30.8801 23.2706 30.7601C22.9685 30.3121 23.4091 29.8321 23.9354 29.8321L25.9749 29.8321C26.5012 29.8321 26.9418 30.3121 26.6397 30.7601C26.5588 30.8801 26.4618 30.992 26.3501 31.093C25.9801 31.4274 25.4783 31.6152 24.9551 31.6152C24.4319 31.6152 23.9301 31.4274 23.5602 31.093Z" fill="#E16037"/>
<path fill-rule="evenodd" clip-rule="evenodd" d="M18.0309 41.7104L18.766 40.1504C18.9423 39.7762 19.3365 39.5094 19.7696 39.4711C20.0219 39.4488 20.2655 39.5064 20.4588 39.6341L20.5547 39.6975C20.5639 39.7036 20.573 39.7098 20.582 39.7161L22.1155 38.6798C22.5866 38.3614 23.2266 38.4852 23.5449 38.9563C23.7381 39.2422 23.7685 39.5903 23.6572 39.8909C24.1048 39.7489 24.6057 39.9341 24.8458 40.3593C25.0851 40.7832 24.9863 41.306 24.636 41.6162C24.9822 41.5952 25.3303 41.7524 25.5386 42.0607C25.7939 42.4384 25.7604 42.9265 25.4887 43.264C25.6848 43.3341 25.8611 43.465 25.9866 43.6508C26.3001 44.1147 26.1781 44.745 25.7142 45.0585L23.1767 46.7732C23.0749 46.842 22.9651 46.8898 22.8523 46.9177C21.2108 47.9576 19.0292 47.5097 17.9339 45.8889C17.0513 44.5828 17.1385 42.9062 18.0309 41.7104Z" fill="#FFBA68"/>
<path fill-rule="evenodd" clip-rule="evenodd" d="M25.4718 43.5309C25.476 43.4534 25.4167 43.3873 25.3393 43.383C25.1923 43.375 24.9519 43.3887 24.6911 43.4525C24.4304 43.5163 24.1394 43.6327 23.9009 43.8374C23.842 43.8879 23.8353 43.9765 23.8858 44.0353C23.9363 44.0942 24.0249 44.1009 24.0837 44.0504C24.2779 43.8838 24.5235 43.7826 24.7578 43.7252C24.992 43.6679 25.2048 43.6569 25.324 43.6634C25.4014 43.6676 25.4676 43.6083 25.4718 43.5309Z" fill="#FF9C27"/>
<path fill-rule="evenodd" clip-rule="evenodd" d="M24.67 41.7851C24.666 41.7077 24.6 41.6482 24.5226 41.6522C24.3756 41.6597 24.1379 41.6987 23.8853 41.7898C23.6329 41.8808 23.3558 42.0273 23.1403 42.2561C23.0871 42.3125 23.0898 42.4014 23.1462 42.4545C23.2027 42.5077 23.2915 42.5051 23.3447 42.4486C23.5202 42.2624 23.7537 42.1357 23.9806 42.0539C24.2073 41.9722 24.4178 41.9387 24.5371 41.9326C24.6145 41.9286 24.674 41.8626 24.67 41.7851Z" fill="#FF9C27"/>
<path fill-rule="evenodd" clip-rule="evenodd" d="M23.4149 40.2353C23.4056 40.1583 23.3357 40.1034 23.2587 40.1127C23.1126 40.1303 22.8781 40.1855 22.6324 40.2936C22.3867 40.4017 22.1203 40.5668 21.921 40.8098C21.8718 40.8697 21.8805 40.9582 21.9405 41.0074C22.0004 41.0565 22.0889 41.0478 22.138 40.9879C22.3004 40.79 22.5247 40.6477 22.7454 40.5506C22.9661 40.4535 23.1738 40.4057 23.2923 40.3914C23.3693 40.3822 23.4242 40.3122 23.4149 40.2353Z" fill="#FF9C27"/>
<path d="M29.4291 47.2674C29.0907 46.9927 29.0047 46.5373 29.2369 46.2501L31.7601 43.1307C31.9923 42.8436 32.4549 42.8335 32.7933 43.1082L37.3275 46.7885C38.6811 47.8872 38.5013 49.2836 37.5723 50.4321C36.6433 51.5806 35.3169 52.0463 33.9633 50.9477L29.4291 47.2674Z" fill="#FFAE4E"/>
<path fill-rule="evenodd" clip-rule="evenodd" d="M31.947 41.9431L31.2915 40.348C31.1342 39.9654 30.754 39.679 30.3234 39.6189C30.0725 39.584 29.8263 39.6292 29.6268 39.7471L29.5278 39.8055C29.5183 39.8111 29.5089 39.8169 29.4996 39.8227L28.0203 38.7104C27.5658 38.3688 26.9204 38.4602 26.5787 38.9146C26.3714 39.1904 26.3235 39.5365 26.4195 39.8424C25.9797 39.678 25.47 39.8378 25.2089 40.2503C24.9484 40.6616 25.0208 41.1887 25.3551 41.5162C25.0103 41.4777 24.6548 41.6172 24.4312 41.9146C24.1572 42.279 24.166 42.7682 24.4204 43.1189C24.2211 43.1791 24.0384 43.3009 23.9036 43.4801C23.5672 43.9277 23.6572 44.5633 24.1047 44.8997L26.5526 46.7401C26.6508 46.814 26.7581 46.8673 26.8693 46.9008C28.4563 48.022 30.6578 47.6847 31.8334 46.1211C32.7807 44.8611 32.778 43.1823 31.947 41.9431Z" fill="#FFBA68"/>
<path fill-rule="evenodd" clip-rule="evenodd" d="M24.7237 43.3864C24.7234 43.3089 24.786 43.2458 24.8635 43.2455C25.0106 43.2449 25.2501 43.2706 25.5074 43.3475C25.7645 43.4243 26.0493 43.5552 26.2772 43.7717C26.3334 43.8251 26.3357 43.9139 26.2823 43.9701C26.2289 44.0264 26.14 44.0287 26.0838 43.9753C25.8983 43.799 25.6581 43.6856 25.427 43.6165C25.196 43.5475 24.984 43.5257 24.8646 43.5262C24.7871 43.5265 24.724 43.4639 24.7237 43.3864Z" fill="#FF9C27"/>
<path fill-rule="evenodd" clip-rule="evenodd" d="M25.6111 41.6831C25.6189 41.606 25.6879 41.5498 25.765 41.5577C25.9114 41.5727 26.1468 41.6236 26.3945 41.7273C26.6421 41.8309 26.9114 41.9912 27.1151 42.2305C27.1653 42.2896 27.1582 42.3782 27.0992 42.4284C27.0401 42.4787 26.9515 42.4716 26.9013 42.4125C26.7354 42.2177 26.5086 42.0794 26.2861 41.9863C26.0637 41.8932 25.8552 41.8492 25.7364 41.837C25.6593 41.8292 25.6032 41.7602 25.6111 41.6831Z" fill="#FF9C27"/>
<path fill-rule="evenodd" clip-rule="evenodd" d="M26.9444 40.1988C26.9575 40.1224 27.0301 40.0711 27.1065 40.0843C27.2516 40.1092 27.4829 40.1761 27.723 40.2965C27.9629 40.4168 28.2206 40.5952 28.4074 40.8479C28.4535 40.9102 28.4404 40.9981 28.378 41.0442C28.3157 41.0903 28.2278 41.0771 28.1817 41.0148C28.0295 40.809 27.8127 40.6556 27.5971 40.5475C27.3816 40.4394 27.1766 40.3812 27.0589 40.361C26.9825 40.3478 26.9312 40.2752 26.9444 40.1988Z" fill="#FF9C27"/>
<path d="M21.6221 25.1186C21.6425 25.0633 21.7206 25.0633 21.7411 25.1186L22.1853 26.3191C22.1917 26.3365 22.2054 26.3502 22.2228 26.3566L23.4233 26.8008C23.4785 26.8213 23.4785 26.8993 23.4233 26.9198L22.2228 27.364C22.2054 27.3704 22.1917 27.3841 22.1853 27.4015L21.7411 28.602C21.7206 28.6572 21.6425 28.6572 21.6221 28.602L21.1779 27.4015C21.1714 27.3841 21.1578 27.3704 21.1404 27.364L19.9398 26.9198C19.8846 26.8993 19.8846 26.8213 19.9398 26.8008L21.1404 26.3566C21.1578 26.3502 21.1714 26.3365 21.1779 26.3191L21.6221 25.1186Z" fill="#FFED4A"/>
<path d="M27.8643 25.4154C27.8847 25.3602 27.9628 25.3602 27.9832 25.4154L28.4275 26.616C28.4339 26.6333 28.4476 26.647 28.465 26.6535L29.6655 27.0977C29.7207 27.1181 29.7207 27.1962 29.6655 27.2166L28.465 27.6609C28.4476 27.6673 28.4339 27.681 28.4275 27.6984L27.9832 28.8989C27.9628 28.9541 27.8847 28.9541 27.8643 28.8989L27.4201 27.6984C27.4136 27.681 27.3999 27.6673 27.3826 27.6609L26.182 27.2166C26.1268 27.1962 26.1268 27.1181 26.182 27.0977L27.3826 26.6535C27.3999 26.647 27.4136 26.6333 27.4201 26.616L27.8643 25.4154Z" fill="#FFED4A"/>
</g>
<path d="M25.0092 15.8972C25.0483 16.0928 25.2987 15.8959 25.2412 15.7547C25.2121 15.6833 25.0672 15.6597 25.0025 15.6586C24.7991 15.6552 24.7728 15.6703 24.8898 15.8376" stroke="black" stroke-width="3" stroke-linecap="round"/>
<path d="M25.1016 15.7779V15.748" stroke="black" stroke-width="3" stroke-linecap="round"/>
<path d="M25.8167 15.2406C25.7134 15.344 25.7708 15.8337 25.9526 15.6665C26.0354 15.5904 26.1421 15.459 26.1448 15.3401C26.1477 15.214 26.0653 15.2406 25.9659 15.2406" stroke="black" stroke-width="3" stroke-linecap="round"/>
<circle cx="16.988" cy="17.5349" r="4.53491" fill="black"/>
<circle cx="36.7341" cy="17.5349" r="4.53491" fill="black"/>
<path fill-rule="evenodd" clip-rule="evenodd" d="M37.0574 25.9834C37.7439 24.8087 38.1276 23.4969 38.1276 22.1131C38.1276 17.0801 33.0518 13 26.7904 13C20.529 13 15.4531 17.0801 15.4531 22.1131C15.4531 23.4969 15.8368 24.8086 16.5233 25.9832C18.3338 22.8853 22.2504 20.7404 26.7903 20.7404C31.3302 20.7404 35.2469 22.8854 37.0574 25.9834Z" fill="white"/>
<path d="M23.0574 16.6655C23.0056 16.6785 23.0224 16.7142 23.0117 16.7569" stroke="black" stroke-width="2" stroke-linecap="round"/>
<path d="M29.7266 16.7572C29.7266 16.8647 29.7266 16.5562 29.7266 16.8486" stroke="black" stroke-width="2" stroke-linecap="round"/>
<path d="M26.2969 17.1118H26.611" stroke="black" stroke-linecap="round"/>
</svg>
