<svg width="54" height="54" viewBox="0 0 54 54" fill="none" xmlns="http://www.w3.org/2000/svg">
<circle cx="26.8567" cy="26.8567" r="26.8567" fill="#D9D9D9"/>
<path d="M20.9692 34.2305C20.9692 37.1614 18.5932 39.5374 15.6623 39.5374C12.7314 39.5374 10.3555 37.1614 10.3555 34.2305C10.3555 31.2996 12.7314 28.9236 15.6623 28.9236C18.5932 28.9236 20.9692 31.2996 20.9692 34.2305Z" fill="#FF9C27"/>
<path d="M42.6372 34.2307C42.6372 37.1616 40.2612 39.5376 37.3303 39.5376C34.3994 39.5376 32.0234 37.1616 32.0234 34.2307C32.0234 31.2998 34.3994 28.9238 37.3303 28.9238C40.2612 28.9238 42.6372 31.2998 42.6372 34.2307Z" fill="#FF9C27"/>
<path d="M39.856 31.1523C39.856 37.9148 33.8756 43.3969 26.4983 43.3969C19.1211 43.3969 13.1406 37.9148 13.1406 31.1523C13.1406 24.3898 19.1211 18.9077 26.4983 18.9077C33.8756 18.9077 39.856 24.3898 39.856 31.1523Z" fill="#FFBA68"/>
<mask id="mask0_989_94431" style="mask-type:alpha" maskUnits="userSpaceOnUse" x="13" y="18" width="27" height="26">
<path d="M39.8521 31.1498C39.8521 37.9123 33.8717 43.3944 26.4944 43.3944C19.1172 43.3944 13.1367 37.9123 13.1367 31.1498C13.1367 24.3874 19.1172 18.9053 26.4944 18.9053C33.8717 18.9053 39.8521 24.3874 39.8521 31.1498Z" fill="#FFAB49"/>
</mask>
<g mask="url(#mask0_989_94431)">
<path d="M21.8843 37.4401C21.8843 40.2996 19.5501 42.6176 16.6707 42.6176C13.7913 42.6176 11.457 40.2996 11.457 37.4401C11.457 34.5807 13.7913 32.2627 16.6707 32.2627C19.5501 32.2627 21.8843 34.5807 21.8843 37.4401Z" fill="#FF9A24"/>
<path d="M41.3179 37.4401C41.3179 40.2996 38.9837 42.6176 36.1043 42.6176C33.2249 42.6176 30.8906 40.2996 30.8906 37.4401C30.8906 34.5807 33.2249 32.2627 36.1043 32.2627C38.9837 32.2627 41.3179 34.5807 41.3179 37.4401Z" fill="#FF9A24"/>
</g>
<path d="M27.0545 35.0458C27.0545 35.3532 26.8054 35.6024 26.498 35.6024C26.1906 35.6024 25.9414 35.3532 25.9414 35.0458C25.9414 34.7384 26.1906 34.4893 26.498 34.4893C26.8054 34.4893 27.0545 34.7384 27.0545 35.0458Z" fill="black"/>
<path fill-rule="evenodd" clip-rule="evenodd" d="M20.9406 31.9786C21.0003 31.7812 21.2236 31.6654 21.4392 31.7201L23.9172 32.3484C24.3711 32.4635 24.3846 33.0483 23.9365 33.1809L21.4556 33.9148C21.2427 33.9778 21.0143 33.8708 20.9455 33.6758C20.8767 33.4808 20.9936 33.2717 21.2065 33.2087L22.6219 32.7899L21.2229 32.4352C21.0073 32.3805 20.8809 32.1761 20.9406 31.9786Z" fill="black"/>
<path fill-rule="evenodd" clip-rule="evenodd" d="M32.2469 31.9786C32.1872 31.7812 31.9639 31.6654 31.7483 31.7201L29.2703 32.3484C28.8164 32.4635 28.8029 33.0483 29.251 33.1809L31.7319 33.9148C31.9448 33.9778 32.1732 33.8708 32.242 33.6758C32.3108 33.4808 32.1939 33.2717 31.981 33.2087L30.5656 32.7899L31.9646 32.4352C32.1802 32.3805 32.3066 32.1761 32.2469 31.9786Z" fill="black"/>
<rect x="22.0469" y="36.7153" width="8.90514" height="2.78286" rx="1.39143" fill="white"/>
<path d="M22.0469 38.1066L30.952 38.1066" stroke="#FF9A24"/>
<path d="M24.1251 36.7153L24.1251 39.4982" stroke="#FF9A24"/>
<path d="M26.5 36.7153L26.5 39.4982" stroke="#FF9A24"/>
<path d="M28.875 36.7153L28.875 39.4982" stroke="#FF9A24"/>
<path fill-rule="evenodd" clip-rule="evenodd" d="M22.6003 30.0301C23.0022 30.072 23.3671 29.9517 23.5663 29.8367C23.7526 29.7291 23.9909 29.7929 24.0985 29.9792C24.2061 30.1656 24.1423 30.4038 23.9559 30.5115C23.6358 30.6963 23.1078 30.8665 22.5195 30.8051C21.9135 30.7419 21.2687 30.4348 20.749 29.706C20.6241 29.5309 20.6648 29.2876 20.84 29.1626C21.0152 29.0377 21.2585 29.0784 21.3834 29.2536C21.7731 29.8001 22.2161 29.99 22.6003 30.0301Z" fill="#905A09"/>
<path fill-rule="evenodd" clip-rule="evenodd" d="M30.4934 30.0301C30.0915 30.072 29.7267 29.9517 29.5275 29.8367C29.3411 29.7291 29.1029 29.7929 28.9953 29.9792C28.8877 30.1656 28.9515 30.4038 29.1378 30.5115C29.458 30.6963 29.9859 30.8665 30.5742 30.8051C31.1803 30.7419 31.825 30.4348 32.3447 29.706C32.4697 29.5309 32.4289 29.2876 32.2537 29.1626C32.0786 29.0377 31.8353 29.0784 31.7103 29.2536C31.3206 29.8001 30.8776 29.99 30.4934 30.0301Z" fill="#905A09"/>
<path d="M8.3981 22.1548C6.69625 24.5422 3.89042 32.5731 6.27786 34.2749C8.66529 35.9768 15.3419 30.7052 17.0438 28.3177C18.7456 25.9303 18.1898 22.6153 15.8024 20.9134C13.415 19.2116 10.0999 19.7673 8.3981 22.1548Z" fill="black"/>
<path d="M45.4093 22.115C47.1112 24.5025 49.917 32.5333 47.5295 34.2352C45.1421 35.937 38.4655 30.6654 36.7636 28.278C35.0618 25.8905 35.6176 22.5755 38.005 20.8737C40.3924 19.1718 43.7075 19.7276 45.4093 22.115Z" fill="black"/>
<path fill-rule="evenodd" clip-rule="evenodd" d="M13.5187 29.6609L13.1519 30.3046C12.8981 30.7498 13.3405 31.2642 13.8475 31.1271C25.41 28.0003 28.5509 25.0044 29.2472 23.5356C29.3073 23.7427 29.3984 23.9865 29.5302 24.2692C32.2227 30.0439 40.0011 31.4879 40.5994 30.9105C40.7392 30.7756 40.7157 30.2156 40.5901 29.4327C41.1588 28.2372 41.4692 26.9457 41.4692 25.5984C41.4692 19.4427 34.9903 14.4525 26.9983 14.4525C19.0062 14.4525 12.5273 19.4427 12.5273 25.5984C12.5273 27.0319 12.8787 28.4022 13.5187 29.6609Z" fill="black"/>
<path d="M16.2995 10.8357C20.3379 15.1099 23.1648 16.2769 23.1648 16.2769C22.6264 17.8315 20.661 20.5521 17.1072 18.9975C12.665 17.0542 12.7572 7.0865 16.2995 10.8357Z" fill="#9D1515"/>
<path d="M37.263 10.8357C33.2246 15.1099 30.3977 16.2769 30.3977 16.2769C30.9361 17.8315 32.9015 20.5521 36.4553 18.9975C40.8975 17.0542 40.8053 7.0865 37.263 10.8357Z" fill="#9D1515"/>
<path fill-rule="evenodd" clip-rule="evenodd" d="M36.6043 22.9556C28.6433 16.9651 20.2199 20.2525 17.1832 22.6859C16.2976 23.3955 15.024 23.2277 14.3385 22.311C13.6529 21.3943 13.8151 20.0759 14.7006 19.3662C18.647 16.2038 29.1023 12.1203 38.9889 19.5599C39.8948 20.2415 40.0953 21.5543 39.4368 22.492C38.7783 23.4297 37.5102 23.6373 36.6043 22.9556Z" fill="#4E0303"/>
</svg>
