<svg width="44" height="44" viewBox="0 0 44 44" fill="none" xmlns="http://www.w3.org/2000/svg">
<path fill-rule="evenodd" clip-rule="evenodd" d="M5.6984 16.128C5.48498 15.9761 5.43526 15.6801 5.58737 15.467C6.27342 14.5057 6.361 13.8807 6.27569 13.5123C6.24751 13.3906 6.19649 13.2807 6.12593 13.183C5.89347 13.4198 5.62215 13.6047 5.32257 13.7001C4.79122 13.8694 4.23789 13.7325 3.81212 13.2563C3.60888 13.029 3.44503 12.7076 3.56125 12.3551C3.66915 12.0279 3.96059 11.8639 4.18401 11.7862C4.64834 11.6249 5.29977 11.6561 5.86339 11.8693C5.86693 11.8706 5.87046 11.872 5.87399 11.8733C6.1796 11.1849 6.23529 10.2602 5.75368 9.43709C5.62144 9.21109 5.69768 8.92085 5.92395 8.78882C6.15023 8.65679 6.44086 8.73297 6.57309 8.95897C7.26084 10.1344 7.14395 11.4414 6.68345 12.3816C6.92277 12.6161 7.11229 12.9185 7.20036 13.2988C7.37387 14.0482 7.118 14.9554 6.36026 16.0172C6.20815 16.2303 5.91183 16.2799 5.6984 16.128ZM5.26429 12.6776C4.98804 12.6166 4.72731 12.6217 4.55657 12.6637C4.72625 12.8331 4.88127 12.8458 5.03408 12.7971C5.10578 12.7743 5.18378 12.7346 5.26429 12.6776ZM4.4666 12.5519C4.46679 12.5519 4.46772 12.5537 4.46884 12.5572C4.46697 12.5536 4.46641 12.5519 4.4666 12.5519ZM4.42877 12.7119C4.42669 12.7139 4.42541 12.7148 4.42529 12.7147C4.42517 12.7147 4.42622 12.7137 4.42877 12.7119Z" fill="#5991FF"/>
<path fill-rule="evenodd" clip-rule="evenodd" d="M8.79287 14.1633C8.79505 13.9014 9.00912 13.691 9.27103 13.6934L9.80132 13.6983C10.1886 13.7018 10.5049 13.3902 10.5072 13.0029C10.5121 12.1854 11.1154 11.4954 11.9249 11.3816L12.558 11.2926C12.8173 11.2561 13.0573 11.4368 13.0939 11.6962C13.1306 11.9556 12.9501 12.1954 12.6908 12.2318L12.0577 12.3208C11.7139 12.3692 11.4577 12.6622 11.4557 13.0094C11.4502 13.9214 10.7054 14.655 9.79344 14.6467L9.26314 14.6418C9.00124 14.6394 8.79069 14.4252 8.79287 14.1633Z" fill="#F97F7F"/>
<path d="M11.1479 5.22685C11.3019 5.52077 11.1885 5.88386 10.8946 6.03785C10.6007 6.19183 10.2376 6.0784 10.0836 5.78448L9.60561 4.87217C9.45163 4.57826 9.56506 4.21516 9.85898 4.06118C10.1529 3.90719 10.516 4.02063 10.67 4.31454L11.1479 5.22685Z" fill="#5991FF"/>
<path d="M8.4906 16.2916C8.5589 16.4794 8.46203 16.687 8.27424 16.7552C8.08645 16.8235 7.87886 16.7267 7.81057 16.5389L7.59859 15.956C7.5303 15.7682 7.62717 15.5606 7.81496 15.4923C8.00274 15.424 8.21034 15.5209 8.27863 15.7087L8.4906 16.2916Z" fill="#FFC266"/>
<path d="M13.5294 9.37527C13.7165 9.30514 13.925 9.39997 13.9951 9.58708C14.0653 9.77419 13.9705 9.98272 13.7833 10.0529L13.2026 10.2705C13.0155 10.3407 12.8069 10.2458 12.7368 10.0587C12.6667 9.87163 12.7615 9.66309 12.9486 9.59296L13.5294 9.37527Z" fill="#FFC266"/>
<path d="M6.22962 6.39666C6.27809 6.2028 6.47453 6.08495 6.66838 6.13341C6.86224 6.18188 6.98009 6.37832 6.93163 6.57217L6.78118 7.17389C6.73272 7.36774 6.53628 7.4856 6.34242 7.43713C6.14857 7.38866 6.03071 7.19222 6.07918 6.99837L6.22962 6.39666Z" fill="#F97F7F"/>
<path d="M17.9409 32.0982C18.1766 31.7267 18.6231 31.587 18.9383 31.7861L22.3619 33.9498C22.677 34.1489 22.7414 34.6116 22.5058 34.9831L19.348 39.9609C18.4053 41.447 16.9841 41.4306 15.7236 40.634C14.4631 39.8374 13.8405 38.5621 14.7832 37.0761L17.9409 32.0982Z" fill="#FFAE4E"/>
<path d="M34.4653 32.8123C34.2604 32.2601 34.3774 31.7069 34.7267 31.5765L38.5211 30.1608C38.8704 30.0304 39.3197 30.3724 39.5246 30.9246L42.2707 38.3229C43.0905 40.5316 42.3052 41.8896 40.9081 42.4109C39.511 42.9322 38.0312 42.4193 37.2114 40.2106L34.4653 32.8123Z" fill="#FFAE4E"/>
<path d="M22.9667 37.6628C22.6229 38.0557 21.9898 38.0631 21.5527 37.6793L16.8033 33.5098C16.3661 33.126 16.2904 32.4963 16.6342 32.1034L21.2404 26.8386C22.6154 25.2668 25.1478 25.2372 26.8964 26.7724C28.6451 28.3076 28.9479 30.8263 27.5729 32.398L22.9667 37.6628Z" fill="#4C8BFF"/>
<path d="M34.7501 37.5547C35.0286 37.9963 35.6528 38.102 36.1443 37.7908L41.484 34.41C41.9755 34.0988 42.1482 33.4885 41.8696 33.0469L38.1376 27.1302C37.0235 25.3639 34.5266 24.9411 32.5606 26.1859C30.5946 27.4307 29.904 29.8717 31.0181 31.638L34.7501 37.5547Z" fill="#4C8BFF"/>
<path d="M20.5981 32.6492C20.5981 28.8915 21.4971 25.1257 24.6769 25.1257H33.5051C36.6848 25.1257 37.9981 27.5459 37.9981 31.3036L37.3748 42.3338C37.3282 43.0147 36.7653 43.5815 36.0064 43.7117C31.2373 44.5304 27.0288 44.5304 22.2597 43.7117C21.5093 43.5829 20.6571 43.0063 20.5981 42.3338V32.6492Z" fill="#4C8BFF"/>
<path d="M25.3989 22.6747C25.3989 21.2316 26.347 20.0618 27.5166 20.0618H30.4813C31.6508 20.0618 32.5989 21.2316 32.5989 22.6747V25.2875C32.5989 26.7306 31.6508 27.9004 30.4813 27.9004H27.5166C26.347 27.9004 25.3989 26.7306 25.3989 25.2875V22.6747Z" fill="#FFAB48"/>
<path fill-rule="evenodd" clip-rule="evenodd" d="M33.2639 25.3138C33.664 25.6202 33.74 26.193 33.4336 26.5931L33.1167 27.0069C32.1527 28.2657 30.6575 29.0039 29.072 29.0039C27.5464 29.0039 26.1011 28.3203 25.1335 27.1409L24.7037 26.6171C24.384 26.2275 24.4407 25.6525 24.8303 25.3328C25.2199 25.0132 25.7949 25.0699 26.1145 25.4595L26.5443 25.9833C27.1654 26.7402 28.0929 27.1789 29.072 27.1789C30.0895 27.1789 31.0491 26.7051 31.6678 25.8972L31.9846 25.4835C32.2911 25.0834 32.8638 25.0074 33.2639 25.3138Z" fill="#337AFF"/>
<path fill-rule="evenodd" clip-rule="evenodd" d="M21.5678 29.5691C21.6854 29.6093 21.7481 29.7372 21.7079 29.8548C21.0712 31.7158 20.97 33.9818 20.97 36.2319C20.97 36.3562 20.8693 36.4569 20.745 36.4569C20.6208 36.4569 20.52 36.3562 20.52 36.2319C20.52 33.982 20.6188 31.6481 21.2821 29.7091C21.3224 29.5915 21.4503 29.5288 21.5678 29.5691Z" fill="#337AFF"/>
<path fill-rule="evenodd" clip-rule="evenodd" d="M33.758 30.3126C33.8788 30.2833 34.0004 30.3575 34.0297 30.4782C34.1084 30.8026 34.1732 31.1147 34.2367 31.4201C34.3701 32.0626 34.4974 32.6751 34.7343 33.3092C35.0767 34.2255 35.6461 35.168 36.797 36.206C36.8893 36.2892 36.8966 36.4315 36.8134 36.5237C36.7301 36.616 36.5879 36.6234 36.4956 36.5401C35.2928 35.4553 34.6813 34.4528 34.3128 33.4667C34.0638 32.8002 33.9246 32.1319 33.7872 31.4715C33.7252 31.1738 33.6636 30.8778 33.5924 30.5843C33.5631 30.4635 33.6372 30.3419 33.758 30.3126Z" fill="#337AFF"/>
<path d="M33.309 38.8231C32.9401 38.5833 32.8054 38.1353 33.0081 37.8224L35.2097 34.4231C35.4124 34.1102 35.8757 34.0509 36.2446 34.2907L41.1869 37.5038C42.6624 38.463 42.6302 39.8839 41.8195 41.1355C41.0089 42.387 39.7268 42.9954 38.2514 42.0362L33.309 38.8231Z" fill="#FFAE4E"/>
<path d="M42.3156 15.7287C42.7221 18.0634 41.083 20.2989 38.6547 20.7217C36.2263 21.1445 33.9282 19.5946 33.5217 17.2598C33.1152 14.9251 34.7542 12.6897 37.1826 12.2669C39.611 11.8441 41.9091 13.394 42.3156 15.7287Z" fill="#FF9C27"/>
<path d="M26.0539 17.1999C26.4604 19.5346 24.8213 21.77 22.3929 22.1928C19.9646 22.6157 17.6664 21.0657 17.26 18.731C16.8535 16.3963 18.4925 14.1609 20.9209 13.7381C23.3493 13.3153 25.6474 14.8652 26.0539 17.1999Z" fill="#ED8000"/>
<path d="M39.9098 13.7018C40.8477 19.0886 36.6531 24.3181 30.5409 25.3823C24.4287 26.4465 17.997 22.3025 19.846 18.0089C16.9048 12.6398 21.0323 6.93933 27.1445 5.87513C33.2567 4.81094 38.9719 8.31506 39.9098 13.7018Z" fill="#FFBA68"/>
<path d="M39.9869 13.7078C40.9295 19.1214 36.6238 24.3926 30.3699 25.4815C24.116 26.5703 17.5514 22.4233 19.4556 18.1004C16.4642 12.7107 20.7027 6.96612 26.9566 5.87726C33.2105 4.78839 39.0444 8.29425 39.9869 13.7078Z" fill="#FFBA68"/>
<mask id="mask0_1371_37522" style="mask-type:alpha" maskUnits="userSpaceOnUse" x="18" y="5" width="23" height="21">
<path d="M39.9908 13.7083C40.9334 19.1219 36.6277 24.3931 30.3738 25.482C24.1199 26.5708 17.5553 22.4238 19.4595 18.1009C16.4681 12.7112 20.7066 6.96661 26.9605 5.87775C33.2144 4.78888 39.0483 8.29474 39.9908 13.7083Z" fill="#FFBA68"/>
</mask>
<path d="M27.6529 18.7641C27.6955 19.0091 27.5235 19.2437 27.2687 19.2881C27.0139 19.3325 26.7727 19.1698 26.7301 18.9248C26.6874 18.6798 26.8594 18.4452 27.1142 18.4009C27.3691 18.3565 27.6102 18.5191 27.6529 18.7641Z" fill="black"/>
<path d="M25.4827 17.0814C25.5638 17.5474 25.2166 17.9972 24.7072 18.0859C24.1979 18.1746 23.7191 17.8686 23.638 17.4025C23.5568 16.9365 23.904 16.4867 24.4134 16.3981C24.9228 16.3094 25.4015 16.6153 25.4827 17.0814Z" fill="black"/>
<path fill-rule="evenodd" clip-rule="evenodd" d="M24.822 15.9537C24.9391 16.092 24.9093 16.2949 24.7553 16.4068C24.6717 16.4677 24.549 16.5837 24.4704 16.7157C24.3922 16.8467 24.382 16.9477 24.4185 17.0277C24.4925 17.1899 24.4076 17.3806 24.2289 17.4536C24.0502 17.5266 23.8453 17.4542 23.7713 17.292C23.6222 16.9651 23.7228 16.6468 23.8585 16.4191C23.9937 16.1923 24.1881 16.0101 24.3312 15.906C24.4851 15.7941 24.7049 15.8154 24.822 15.9537Z" fill="black"/>
<path d="M31.5256 16.4827C31.6068 16.9488 31.2596 17.3985 30.7502 17.4872C30.2408 17.5759 29.7621 17.27 29.6809 16.8039C29.5998 16.3378 29.947 15.8881 30.4564 15.7994C30.9657 15.7107 31.4445 16.0167 31.5256 16.4827Z" fill="black"/>
<path fill-rule="evenodd" clip-rule="evenodd" d="M30.8649 15.3551C30.9821 15.4934 30.9522 15.6962 30.7983 15.8082C30.7146 15.869 30.592 15.9851 30.5133 16.117C30.4352 16.2481 30.425 16.349 30.4615 16.429C30.5355 16.5913 30.4506 16.782 30.2719 16.855C30.0932 16.928 29.8883 16.8556 29.8143 16.6934C29.6652 16.3665 29.7657 16.0481 29.9015 15.8205C30.0367 15.5936 30.231 15.4115 30.3741 15.3074C30.5281 15.1955 30.7478 15.2168 30.8649 15.3551Z" fill="black"/>
<path fill-rule="evenodd" clip-rule="evenodd" d="M30.9796 20.062C29.4144 20.8446 27.6439 21.1529 25.9033 20.9458C25.7164 20.9236 25.593 20.773 25.6276 20.6095C25.6623 20.4459 25.8419 20.3314 26.0288 20.3537C27.6161 20.5425 29.2306 20.2614 30.658 19.5477C30.8261 19.4636 31.0343 19.5106 31.1231 19.6526C31.2119 19.7947 31.1476 19.9779 30.9796 20.062Z" fill="#A75A00"/>
<path fill-rule="evenodd" clip-rule="evenodd" d="M23.8005 14.9237C23.4765 15.0255 23.2352 15.2349 23.1199 15.3857C23.012 15.5267 22.8069 15.5582 22.6619 15.456C22.5168 15.3539 22.4866 15.1567 22.5945 15.0156C22.7799 14.7733 23.1304 14.4732 23.6047 14.3243C24.0932 14.1709 24.6929 14.185 25.3365 14.5519C25.4913 14.6401 25.5409 14.8334 25.4474 14.9836C25.3539 15.1338 25.1526 15.184 24.9979 15.0958C24.5152 14.8206 24.1103 14.8265 23.8005 14.9237Z" fill="#905A09"/>
<path fill-rule="evenodd" clip-rule="evenodd" d="M30.5309 14.2738C30.2022 14.3589 29.9505 14.5557 29.8276 14.7004C29.7127 14.8358 29.5063 14.8568 29.3666 14.7474C29.2269 14.6379 29.2069 14.4395 29.3218 14.3041C29.5193 14.0715 29.8847 13.7897 30.3659 13.6652C30.8616 13.5369 31.4598 13.5815 32.0839 13.9808C32.2339 14.0768 32.2736 14.2724 32.1726 14.4176C32.0715 14.5628 31.868 14.6027 31.718 14.5067C31.25 14.2073 30.8452 14.1925 30.5309 14.2738Z" fill="#905A09"/>
<path d="M22.983 3.75389C26.4969 4.58859 28.2992 0.575067 34.8801 4.15746C36.4877 3.74791 34.1293 -1.61142 36.9383 1.26268C39.1855 3.56196 37.5914 4.47046 36.5492 4.39993C40.9103 6.43806 43.669 15.3124 38.6951 15.1966C32.6618 15.0562 32.9768 6.78005 31.6948 8.83763C30.4128 10.8952 20.5024 17.8482 17.8723 17.2223C16.0208 16.7817 15.7124 14.4123 17.3896 13.5137C17.1408 13.3023 15.9668 13.6447 15.404 12.0429C14.8413 10.4411 18.3945 7.05626 19.9735 6.14682C19.7456 4.39554 19.2669 2.87116 22.983 3.75389Z" fill="black"/>
<path d="M11.1138 31.9131C10.9088 31.3609 11.0258 30.8077 11.3751 30.6774L15.1696 29.2616C15.5188 29.1313 15.9681 29.4732 16.1731 30.0254L18.9192 37.4238C19.739 39.6324 18.9536 40.9905 17.5565 41.5117C16.1594 42.033 14.6796 41.5201 13.8599 39.3115L11.1138 31.9131Z" fill="#FFAE4E"/>
<path fill-rule="evenodd" clip-rule="evenodd" d="M5.45106 25.465C5.3056 26.017 5.63451 26.5849 6.18569 26.7334L6.89237 26.9238C6.4991 26.983 6.15977 27.2689 6.05174 27.6788C5.90628 28.2308 6.23519 28.7987 6.78637 28.9473L8.27028 29.3471C8.21774 29.432 8.17672 29.526 8.14993 29.6277C8.00448 30.1797 8.33338 30.7476 8.88456 30.8961L11.8993 31.7085C12.0202 31.7411 12.1419 31.7508 12.2595 31.7402C14.1865 32.1988 16.1329 31.0418 16.6411 29.1132C17.0819 27.4402 16.2983 25.7262 14.8445 24.928L13.5382 22.6094C13.2123 22.0311 12.5246 21.8893 12.0021 22.2927C11.5257 22.6604 11.351 23.3543 11.5708 23.9122L8.35783 23.0464C7.79813 22.8956 7.22466 23.2277 7.07696 23.7882C6.95505 24.2509 7.16127 24.7245 7.5517 24.9606L6.71244 24.7345C6.16125 24.5859 5.59652 24.913 5.45106 25.465Z" fill="#FFBA68"/>
<path fill-rule="evenodd" clip-rule="evenodd" d="M8.87803 29.1496C8.89819 29.0731 8.97645 29.0278 9.05282 29.0483L11.0268 29.5801C11.1762 29.6204 11.3344 29.6908 11.4552 29.82C11.5879 29.962 11.7102 30.1494 11.7337 30.3706C11.7581 30.5994 11.6742 30.8362 11.4489 31.064C11.3934 31.1201 11.3028 31.1202 11.2466 31.0643C11.1904 31.0084 11.1898 30.9176 11.2453 30.8615C11.423 30.6818 11.4628 30.5264 11.4493 30.3998C11.435 30.2655 11.3577 30.1342 11.2469 30.0157C11.1763 29.9401 11.0745 29.8896 10.9538 29.8571L8.97981 29.3253C8.90344 29.3048 8.85787 29.2261 8.87803 29.1496Z" fill="#FF9C27"/>
<path fill-rule="evenodd" clip-rule="evenodd" d="M12.2474 24.7872C12.3185 24.753 12.4039 24.7832 12.4383 24.8546L12.9879 25.9954L12.9744 26.0466C12.8978 26.3373 12.856 26.8046 12.9791 27.2506C13.1004 27.6904 13.3802 28.1065 13.9518 28.3241C14.0257 28.3522 14.0631 28.4349 14.0354 28.5089C14.0077 28.5828 13.9254 28.62 13.8515 28.5919C13.1793 28.336 12.8449 27.8372 12.7037 27.3258C12.5715 26.8465 12.6073 26.3539 12.6851 26.0243L12.1811 24.9782C12.1467 24.9068 12.1764 24.8213 12.2474 24.7872Z" fill="#FF9C27"/>
<path fill-rule="evenodd" clip-rule="evenodd" d="M7.77313 27.0089C7.75542 27.0749 7.79459 27.1428 7.8606 27.1605L10.0918 27.7588C10.1578 27.7765 10.2257 27.7373 10.2434 27.6713C10.2611 27.6053 10.222 27.5374 10.1559 27.5197L7.92471 26.9215C7.85869 26.9038 7.79083 26.9429 7.77313 27.0089Z" fill="#FF9C27"/>
<path fill-rule="evenodd" clip-rule="evenodd" d="M8.29266 25.2584C8.27496 25.3245 8.31412 25.3923 8.38014 25.41L11.0895 26.1365C11.1555 26.1542 11.2234 26.115 11.2411 26.049C11.2588 25.983 11.2196 25.9151 11.1536 25.8974L8.44424 25.171C8.37822 25.1533 8.31036 25.1924 8.29266 25.2584Z" fill="#FF9C27"/>
<path fill-rule="evenodd" clip-rule="evenodd" d="M10.8119 26.6959C11.1772 26.04 11.6842 25.5286 12.0362 25.2609C12.0906 25.2196 12.1012 25.1419 12.0598 25.0875C12.0184 25.0331 11.9408 25.0226 11.8864 25.0639C11.5107 25.3496 10.9796 25.8861 10.5957 26.5754C10.2113 27.2655 9.96909 28.1192 10.1928 29.0302C10.2091 29.0965 10.2761 29.1371 10.3425 29.1208C10.4089 29.1045 10.4495 29.0375 10.4332 28.9711C10.229 28.1396 10.4471 27.3509 10.8119 26.6959Z" fill="#FF9C27"/>
<path fill-rule="evenodd" clip-rule="evenodd" d="M38.7888 34.602C38.8026 35.0827 38.4664 35.4921 38.0111 35.5858C38.1763 35.7549 38.2808 35.9842 38.2881 36.2392C38.3007 36.6779 38.0218 37.0572 37.6269 37.1913C37.7501 37.3494 37.8258 37.5468 37.832 37.7624C37.8475 38.3011 37.4233 38.7504 36.8846 38.7658L33.9382 38.8505C33.82 38.8539 33.7061 38.8361 33.6001 38.8005C31.7298 38.7989 30.188 37.3098 30.1339 35.4277C30.1093 34.5718 30.3135 33.8097 30.733 33.2178C31.4149 32.2555 32.3806 31.3699 32.5357 30.2007L32.5684 29.954L-nan -nanL32.5684 29.954C32.7216 29.3692 32.9807 28.6853 33.5798 28.6046C33.8158 28.5728 34.0456 28.6466 34.2288 28.872C34.6229 29.357 34.4452 30.3868 34.2288 31.036C34.0124 31.6851 35.8413 31.7668 35.8413 31.7668L37.5345 31.7181C38.0815 31.7024 38.5377 32.1331 38.5534 32.6802C38.5664 33.1349 38.271 33.5269 37.8567 33.6552C38.3632 33.6771 38.774 34.0873 38.7888 34.602Z" fill="#FFBA68"/>
<path fill-rule="evenodd" clip-rule="evenodd" d="M37.9187 33.7664C37.9166 33.6918 37.8544 33.633 37.7798 33.6352L35.4627 33.7017C35.3424 33.7052 35.1998 33.7272 35.0788 33.814C34.9481 33.9078 34.8106 34.0549 34.7443 34.2576C34.6767 34.464 34.6883 34.7122 34.8301 34.9931C34.8637 35.0597 34.9449 35.0865 35.0116 35.0529C35.0782 35.0193 35.1049 34.938 35.0713 34.8714C34.9576 34.646 34.9585 34.4719 35.0011 34.3417C35.045 34.2076 35.1387 34.1037 35.2364 34.0336C35.2932 33.9927 35.3719 33.9747 35.4705 33.9719L37.7875 33.9053C37.8621 33.9032 37.9209 33.841 37.9187 33.7664Z" fill="#FF9C27"/>
<path fill-rule="evenodd" clip-rule="evenodd" d="M37.1218 31.9101C37.1197 31.8355 37.0575 31.7768 36.9829 31.779L34.9003 31.8388C34.7702 31.8425 34.6118 31.868 34.4859 31.974C34.3691 32.0724 34.2526 32.2201 34.1993 32.4176C34.1454 32.6173 34.1595 32.8555 34.2844 33.1261C34.3157 33.1939 34.396 33.2235 34.4637 33.1922C34.5315 33.1609 34.5611 33.0806 34.5298 33.0129C34.4281 32.7927 34.4247 32.6194 34.4602 32.488C34.4962 32.3544 34.5759 32.2515 34.6599 32.1808C34.7162 32.1334 34.8 32.112 34.908 32.1089L36.9906 32.0491C37.0652 32.0469 37.124 31.9847 37.1218 31.9101Z" fill="#FF9C27"/>
<path fill-rule="evenodd" clip-rule="evenodd" d="M37.2596 37.1724C37.2574 37.0978 37.1952 37.0391 37.1206 37.0412L35.1926 37.0966C35.0467 37.1008 34.8862 37.1308 34.7475 37.2228C34.5951 37.324 34.4427 37.4691 34.3736 37.6669C34.3021 37.8715 34.3286 38.1071 34.4868 38.3655C34.5258 38.4291 34.609 38.4491 34.6726 38.4101C34.7363 38.3711 34.7563 38.2879 34.7173 38.2243C34.5924 38.0206 34.5892 37.8692 34.6287 37.756C34.6706 37.636 34.7698 37.5324 34.897 37.448C34.9781 37.3941 35.0825 37.3701 35.2004 37.3667L37.1284 37.3113C37.203 37.3092 37.2617 37.247 37.2596 37.1724Z" fill="#FF9C27"/>
<path fill-rule="evenodd" clip-rule="evenodd" d="M34.2166 32.8357C34.1586 32.7888 34.0735 32.7978 34.0266 32.8558L33.2764 33.783L33.2778 33.833C33.2859 34.1168 33.2242 34.5553 33.0154 34.9379C32.8094 35.3152 32.4628 35.636 31.8903 35.7105C31.8163 35.7201 31.7641 35.7879 31.7738 35.8619C31.7834 35.9359 31.8512 35.9881 31.9252 35.9784C32.5984 35.8909 33.013 35.5062 33.2526 35.0674C33.477 34.6562 33.5497 34.1958 33.5487 33.876L34.2367 33.0258C34.2836 32.9677 34.2746 32.8827 34.2166 32.8357Z" fill="#FF9C27"/>
<path fill-rule="evenodd" clip-rule="evenodd" d="M37.8426 35.5C37.8405 35.4254 37.7783 35.3667 37.7037 35.3688L35.2213 35.4401C35.0904 35.4439 34.944 35.4706 34.8175 35.5563C34.6743 35.6535 34.5155 35.8032 34.4448 36.0003C34.3697 36.2092 34.4025 36.4468 34.5993 36.686C34.6467 36.7437 34.7318 36.752 34.7894 36.7046C34.8471 36.6572 34.8554 36.572 34.808 36.5144C34.6642 36.3396 34.66 36.2005 34.6991 36.0916C34.7425 35.9708 34.8489 35.8615 34.9692 35.78C35.0368 35.7341 35.1256 35.7132 35.2291 35.7102L37.7114 35.6389C37.786 35.6368 37.8448 35.5746 37.8426 35.5Z" fill="#FF9C27"/>
<path d="M4.54784 22.0114C4.50227 21.8933 4.36959 21.8345 4.2515 21.8801C4.1334 21.9257 4.0746 22.0584 4.12017 22.1765L4.61521 23.4595C4.66078 23.5776 4.79345 23.6364 4.91155 23.5908C5.02965 23.5452 5.08845 23.4126 5.04288 23.2945L4.54784 22.0114Z" fill="#C4C4C4"/>
<path d="M5.29007 23.9359C5.24448 23.8177 5.11173 23.7589 4.99357 23.8045C4.87541 23.8501 4.81659 23.9828 4.86218 24.101L5.10983 24.7428C5.15542 24.861 5.28816 24.9198 5.40632 24.8742C5.52448 24.8286 5.58331 24.6959 5.53772 24.5777L5.29007 23.9359Z" fill="#C4C4C4"/>
<path d="M11.0932 19.2403C10.8198 18.5317 10.0237 18.1789 9.31513 18.4523L5.03842 20.1025C4.32983 20.3759 3.97705 21.1719 4.25045 21.8805L7.71573 30.8616C7.98914 31.5702 8.7852 31.923 9.49379 31.6496L13.7705 29.9994C14.4791 29.726 14.8319 28.93 14.5585 28.2214L11.0932 19.2403Z" fill="#EAEAEA"/>
<path d="M10.8629 20.0231C10.6325 19.4261 9.99224 19.1171 9.43274 19.333L6.05588 20.636C5.49638 20.8518 5.22955 21.5108 5.4599 22.1078L8.3795 29.6746C8.60985 30.2716 9.25014 30.5806 9.80964 30.3647L13.1865 29.0618C13.746 28.8459 14.0128 28.1869 13.7825 27.5899L10.8629 20.0231Z" fill="#595959"/>
<path d="M9.89869 24.9824C9.93324 25.1031 9.86337 25.229 9.74264 25.2636C9.62191 25.2981 9.49603 25.2283 9.46148 25.1075C9.42693 24.9868 9.4968 24.8609 9.61753 24.8264C9.73826 24.7918 9.86414 24.8617 9.89869 24.9824Z" fill="white"/>
<path fill-rule="evenodd" clip-rule="evenodd" d="M8.13112 24.7049C8.00967 24.7602 7.9259 24.8554 7.8884 24.9215C7.85333 24.9833 7.77481 25.0049 7.71302 24.9699C7.65123 24.9348 7.62957 24.8563 7.66465 24.7945C7.72491 24.6883 7.8468 24.5516 8.02459 24.4707C8.20773 24.3874 8.44267 24.3671 8.71248 24.4878C8.77734 24.5168 8.80641 24.5928 8.77741 24.6577C8.74841 24.7226 8.67232 24.7516 8.60746 24.7226C8.40513 24.6322 8.24723 24.6521 8.13112 24.7049Z" fill="white"/>
<path fill-rule="evenodd" clip-rule="evenodd" d="M10.5803 23.8885C10.4589 23.9438 10.3751 24.039 10.3376 24.1051C10.3025 24.1669 10.224 24.1885 10.1622 24.1535C10.1004 24.1184 10.0788 24.0399 10.1139 23.9781C10.1741 23.8719 10.296 23.7352 10.4738 23.6543C10.657 23.571 10.8919 23.5507 11.1617 23.6714C11.2266 23.7004 11.2556 23.7764 11.2266 23.8413C11.1976 23.9062 11.1215 23.9352 11.0567 23.9062C10.8544 23.8158 10.6965 23.8357 10.5803 23.8885Z" fill="white"/>
<path fill-rule="evenodd" clip-rule="evenodd" d="M10.1096 25.9161C10.2536 25.8353 10.347 25.7092 10.3863 25.6238C10.4232 25.544 10.5177 25.5091 10.5975 25.546C10.6774 25.5828 10.7122 25.6773 10.6754 25.7572C10.6122 25.8943 10.4761 26.0755 10.2653 26.1937C10.0482 26.3155 9.76069 26.365 9.41551 26.2443C9.33253 26.2153 9.28877 26.1245 9.31778 26.0416C9.34678 25.9586 9.43757 25.9148 9.52055 25.9438C9.77939 26.0343 9.97199 25.9933 10.1096 25.9161Z" fill="white"/>
</svg>
