<svg width="54" height="54" viewBox="0 0 54 54" fill="none" xmlns="http://www.w3.org/2000/svg">
<circle cx="26.8567" cy="26.8567" r="26.8567" fill="#D9D9D9"/>
<path d="M20.9941 34.5338C20.9941 37.984 18.1972 40.7809 14.7471 40.7809C11.2969 40.7809 8.5 37.984 8.5 34.5338C8.5 31.0837 11.2969 28.2867 14.7471 28.2867C18.1972 28.2867 20.9941 31.0837 20.9941 34.5338Z" fill="#FF9C27"/>
<path d="M46.4981 34.5337C46.4981 37.9839 43.7011 40.7808 40.251 40.7808C36.8008 40.7808 34.0039 37.9839 34.0039 34.5337C34.0039 31.0835 36.8008 28.2866 40.251 28.2866C43.7011 28.2866 46.4981 31.0835 46.4981 34.5337Z" fill="#FF9C27"/>
<path d="M43.222 30.91C43.222 38.8706 36.182 45.3239 27.4977 45.3239C18.8134 45.3239 11.7734 38.8706 11.7734 30.91C11.7734 22.9494 18.8134 16.4961 27.4977 16.4961C36.182 16.4961 43.222 22.9494 43.222 30.91Z" fill="#FFBA68"/>
<mask id="mask0_989_95197" style="mask-type:alpha" maskUnits="userSpaceOnUse" x="11" y="16" width="33" height="30">
<path d="M43.2298 30.9076C43.2298 38.8681 36.1898 45.3215 27.5055 45.3215C18.8212 45.3215 11.7813 38.8681 11.7813 30.9076C11.7813 22.947 18.8212 16.4937 27.5055 16.4937C36.1898 16.4937 43.2298 22.947 43.2298 30.9076Z" fill="#FFAB49"/>
</mask>
<g mask="url(#mask0_989_95197)">
<path d="M22.0793 38.313C22.0793 41.679 19.3316 44.4077 15.942 44.4077C12.5525 44.4077 9.80469 41.679 9.80469 38.313C9.80469 34.947 12.5525 32.2183 15.942 32.2183C19.3316 32.2183 22.0793 34.947 22.0793 38.313Z" fill="#FF9A24"/>
<path d="M44.9543 38.3125C44.9543 41.6785 42.2066 44.4072 38.817 44.4072C35.4275 44.4072 32.6797 41.6785 32.6797 38.3125C32.6797 34.9465 35.4275 32.2178 38.817 32.2178C42.2066 32.2178 44.9543 34.9465 44.9543 38.3125Z" fill="#FF9A24"/>
<path fill-rule="evenodd" clip-rule="evenodd" d="M29.2166 39.665C29.4218 39.2911 29.465 38.8443 29.3439 38.4225C29.2228 38.0007 28.9447 37.6295 28.5643 37.3933C28.1828 37.1565 27.7286 37.0749 27.3024 37.1751C27.0559 37.2331 26.9127 37.4775 26.9826 37.7209C27.0525 37.9644 27.309 38.1147 27.5556 38.0567C27.729 38.0159 27.9211 38.0472 28.0904 38.1523C28.2607 38.258 28.3928 38.4298 28.451 38.6325C28.5093 38.8353 28.4863 39.0435 28.3944 39.2109C28.303 39.3773 28.1521 39.4892 27.9786 39.53C27.7321 39.588 27.5889 39.8323 27.6588 40.0758C27.7287 40.3192 27.9852 40.4696 28.2318 40.4116C28.6579 40.3114 29.0107 40.0399 29.2166 39.665Z" fill="#A75A00"/>
</g>
<path d="M28.1541 35.494C28.1541 35.8559 27.8608 36.1492 27.4989 36.1492C27.1371 36.1492 26.8438 35.8559 26.8438 35.494C26.8438 35.1322 27.1371 34.8389 27.4989 34.8389C27.8608 34.8389 28.1541 35.1322 28.1541 35.494Z" fill="black"/>
<path d="M25.5383 32.8732C25.5383 34.3205 24.365 35.4939 22.9176 35.4939C21.4702 35.4939 20.2969 34.3205 20.2969 32.8732C20.2969 31.4258 21.4702 30.2524 22.9176 30.2524C24.365 30.2524 25.5383 31.4258 25.5383 32.8732Z" fill="white"/>
<path d="M24.2262 32.8729C24.2262 33.5965 23.6395 34.1832 22.9158 34.1832C22.1921 34.1832 21.6055 33.5965 21.6055 32.8729C21.6055 32.1492 22.1921 31.5625 22.9158 31.5625C23.6395 31.5625 24.2262 32.1492 24.2262 32.8729Z" fill="black"/>
<path d="M34.71 32.8731C34.71 34.3205 33.5367 35.4938 32.0893 35.4938C30.642 35.4938 29.4686 34.3205 29.4686 32.8731C29.4686 31.4257 30.642 30.2524 32.0893 30.2524C33.5367 30.2524 34.71 31.4257 34.71 32.8731Z" fill="white"/>
<path d="M33.3979 32.8728C33.3979 33.5965 32.8113 34.1831 32.0876 34.1831C31.3639 34.1831 30.7772 33.5965 30.7772 32.8728C30.7772 32.1491 31.3639 31.5624 32.0876 31.5624C32.8113 31.5624 33.3979 32.1491 33.3979 32.8728Z" fill="black"/>
<path fill-rule="evenodd" clip-rule="evenodd" d="M24.5666 29.1732C24.51 29.4201 24.2641 29.5744 24.0172 29.5179L20.1324 28.6282C19.8855 28.5717 19.7312 28.3257 19.7878 28.0788C19.8443 27.8319 20.0903 27.6776 20.3372 27.7341L24.2219 28.6238C24.4688 28.6803 24.6231 28.9263 24.5666 29.1732Z" fill="#905A09"/>
<path fill-rule="evenodd" clip-rule="evenodd" d="M30.1951 29.1732C30.2517 29.4201 30.4977 29.5744 30.7446 29.5179L34.6293 28.6282C34.8762 28.5717 35.0305 28.3257 34.974 28.0788C34.9174 27.8319 34.6714 27.6776 34.4245 27.7341L30.5398 28.6238C30.2929 28.6803 30.1386 28.9263 30.1951 29.1732Z" fill="#905A09"/>
<path fill-rule="evenodd" clip-rule="evenodd" d="M33.8296 12.5135C33.8634 12.2473 33.8808 11.976 33.8808 11.7006C33.8808 8.19628 31.0603 5.35547 27.581 5.35547C24.1018 5.35547 21.2812 8.19628 21.2812 11.7006C21.2812 11.9583 21.2965 12.2124 21.3261 12.4621C15.3404 14.4216 11.1211 19.1451 11.1211 24.6607C11.1211 26.6598 11.6754 28.5549 12.6672 30.252C13.1231 29.4718 13.6716 28.7335 14.3011 28.0461L21.4862 28.5963L22.4912 23.3045C22.762 23.2347 23.0358 23.1704 23.3125 23.1117V28.6108H31.8172V23.1395C31.9556 23.1698 32.0933 23.2016 32.2302 23.2347L33.2484 28.5962L40.6821 28.027C41.3191 28.7199 41.8735 29.4648 42.3337 30.2523C43.3256 28.5551 43.8799 26.6599 43.8799 24.6607C43.8799 19.1927 39.7332 14.5033 33.8296 12.5135Z" fill="#815E05"/>
</svg>
