<svg width="54" height="54" viewBox="0 0 54 54" fill="none" xmlns="http://www.w3.org/2000/svg">
<circle cx="27" cy="27" r="27" fill="#D9D9D9"/>
<path d="M21.3164 31.3914C21.3164 34.3308 18.9335 36.7137 15.9941 36.7137C13.0547 36.7137 10.6719 34.3308 10.6719 31.3914C10.6719 28.452 13.0547 26.0692 15.9941 26.0692C18.9335 26.0692 21.3164 28.452 21.3164 31.3914Z" fill="#FF9C27"/>
<path d="M43.0469 31.3916C43.0469 34.331 40.664 36.7139 37.7246 36.7139C34.7852 36.7139 32.4023 34.331 32.4023 31.3916C32.4023 28.4522 34.7852 26.0693 37.7246 26.0693C40.664 26.0693 43.0469 28.4522 43.0469 31.3916Z" fill="#FF9C27"/>
<path d="M40.2578 28.304C40.2578 35.0861 34.26 40.5841 26.8613 40.5841C19.4626 40.5841 13.4648 35.0861 13.4648 28.304C13.4648 21.5219 19.4626 16.0239 26.8613 16.0239C34.26 16.0239 40.2578 21.5219 40.2578 28.304Z" fill="#FFBA68"/>
<mask id="mask0_989_94371" style="mask-type:alpha" maskUnits="userSpaceOnUse" x="13" y="16" width="28" height="25">
<path d="M40.2538 28.304C40.2538 35.0861 34.256 40.5841 26.8574 40.5841C19.4587 40.5841 13.4609 35.0861 13.4609 28.304C13.4609 21.5219 19.4587 16.0239 26.8574 16.0239C34.256 16.0239 40.2538 21.5219 40.2538 28.304Z" fill="#FFAB49"/>
</mask>
<g mask="url(#mask0_989_94371)">
<path d="M22.395 34.6129C22.395 37.4806 20.054 39.8053 17.1663 39.8053C14.2785 39.8053 11.9375 37.4806 11.9375 34.6129C11.9375 31.7452 14.2785 29.4204 17.1663 29.4204C20.054 29.4204 22.395 31.7452 22.395 34.6129Z" fill="#FF9A24"/>
<path d="M41.7817 34.6129C41.7817 37.4806 39.4408 39.8053 36.553 39.8053C33.6652 39.8053 31.3242 37.4806 31.3242 34.6129C31.3242 31.7452 33.6652 29.4204 36.553 29.4204C39.4408 29.4204 41.7817 31.7452 41.7817 34.6129Z" fill="#FF9A24"/>
</g>
<path fill-rule="evenodd" clip-rule="evenodd" d="M23.7884 34.6028C25.7893 35.2261 27.9324 35.2261 29.9333 34.6028C30.1481 34.5359 30.2617 34.3256 30.187 34.1332C30.1123 33.9408 29.8775 33.8391 29.6627 33.906C27.838 34.4744 25.8836 34.4744 24.059 33.906C23.8441 33.8391 23.6094 33.9408 23.5347 34.1332C23.46 34.3256 23.5735 34.5359 23.7884 34.6028Z" fill="#A75A00"/>
<path d="M20.5035 31.9162C19.4686 30.8721 18.4454 28.1461 19.4627 27.0833C20.4801 26.0206 23.1529 27.0234 24.1878 28.0676C25.2227 29.1117 25.2369 30.8197 24.2195 31.8825C23.2021 32.9452 21.5384 32.9604 20.5035 31.9162Z" fill="black"/>
<path d="M33.0043 31.9162C34.0392 30.8721 35.0625 28.1461 34.0451 27.0833C33.0277 26.0206 30.355 27.0234 29.32 28.0676C28.2851 29.1117 28.2709 30.8197 29.2883 31.8825C30.3057 32.9452 31.9694 32.9604 33.0043 31.9162Z" fill="black"/>
<path d="M24.0695 29.4205C24.0695 29.7288 23.8196 29.9787 23.5113 29.9787C23.203 29.9787 22.9531 29.7288 22.9531 29.4205C22.9531 29.1122 23.203 28.8623 23.5113 28.8623C23.8196 28.8623 24.0695 29.1122 24.0695 29.4205Z" fill="white"/>
<path d="M30.7648 29.4205C30.7648 29.7288 30.5149 29.9787 30.2066 29.9787C29.8983 29.9787 29.6484 29.7288 29.6484 29.4205C29.6484 29.1122 29.8983 28.8623 30.2066 28.8623C30.5149 28.8623 30.7648 29.1122 30.7648 29.4205Z" fill="white"/>
<path d="M22.4577 33.9391C23.8728 32.2208 25.2139 31.9957 26.2755 32.3581C27.804 32.8797 28.0632 34.9117 27.148 36.2423C24.8515 39.5811 20.6122 39.0619 17.6435 37.9151C17.1989 37.7434 17.3326 37.0881 17.7981 36.9857C19.1129 36.6965 20.8133 35.9358 22.4577 33.9391Z" fill="black"/>
<path d="M31.8197 33.9391C30.4046 32.2208 29.0634 31.9957 28.0018 32.3581C26.4734 32.8797 26.2141 34.9117 27.1294 36.2423C29.4258 39.5811 33.6651 39.0619 36.6338 37.9151C37.0784 37.7434 36.9447 37.0881 36.4793 36.9857C35.1645 36.6965 33.464 35.9358 31.8197 33.9391Z" fill="black"/>
<path fill-rule="evenodd" clip-rule="evenodd" d="M30.4016 22.6273C29.3733 19.1762 24.0826 17.6526 20.4217 22.8826C20.0613 23.3974 19.7175 23.9009 19.3853 24.3874C18.1864 26.1431 17.1385 27.6779 16.0046 28.7303C15.9903 28.7637 15.9763 28.7975 15.9625 28.8316C15.4198 30.1801 15.6225 31.6785 15.9104 33.1033C16.0742 33.9141 15.3272 34.5272 14.6958 33.9928C13.8209 33.2526 12.9677 32.0382 12.6961 30.2095C11.7133 30.2201 10.5988 29.9102 9.28066 29.2004C8.84545 28.966 8.96057 28.2883 9.32479 27.9542C9.8954 27.4306 10.1365 26.5917 10.4947 25.3454C10.934 23.8168 11.5495 21.6753 13.1653 18.7516C18.993 8.20626 30.3394 9.52608 33.486 16.1263C33.5147 16.1864 33.5894 16.2094 33.6477 16.1775C37.6897 13.9647 45.8464 20.9413 42.2168 28.3258C42.4764 28.6865 42.7974 29.1594 43.1116 29.633C43.569 30.3223 43.1082 31.1716 42.3218 30.9147C41.8932 30.7747 41.44 30.5654 40.9906 30.2661C40.71 32.0632 39.8653 33.2603 38.9996 33.9928C38.3681 34.5272 37.6211 33.9141 37.7849 33.1033C37.9625 32.2244 38.1563 31.3408 38.2835 30.959C38.4722 30.3931 37.9566 29.8506 37.6328 29.3497C37.1382 28.5848 36.819 27.6906 36.6836 26.7631C35.7386 20.2915 31.7935 21.3539 30.6281 22.6745C30.5629 22.7485 30.4298 22.7218 30.4016 22.6273Z" fill="black"/>
</svg>
