<svg width="54" height="54" viewBox="0 0 54 54" fill="none" xmlns="http://www.w3.org/2000/svg">
<mask id="mask0_989_94725" style="mask-type:alpha" maskUnits="userSpaceOnUse" x="0" y="0" width="54" height="54">
<circle cx="26.8567" cy="26.8567" r="26.8567" fill="#D9D9D9"/>
</mask>
<g mask="url(#mask0_989_94725)">
<circle cx="26.8567" cy="26.8567" r="26.8567" fill="#D9D9D9"/>
<path d="M12.1872 50.6683C12.0795 51.297 12.3147 51.8625 12.7126 51.9314L17.0347 52.6794C17.4326 52.7483 17.8424 52.2944 17.9501 51.6657L19.3934 43.2413C19.8242 40.7263 18.7166 39.4378 17.1252 39.1624C15.5339 38.887 14.0613 39.7289 13.6304 42.2439L12.1872 50.6683Z" fill="#FFAE4E"/>
<path d="M32.5465 41.1391C32.3245 40.5411 32.4512 39.9419 32.8295 39.8007L36.9392 38.2673C37.3175 38.1262 37.8041 38.4966 38.026 39.0946L41.0002 47.1075C41.8881 49.4997 41.0376 50.9705 39.5244 51.5351C38.0113 52.0997 36.4085 51.5442 35.5207 49.1521L32.5465 41.1391Z" fill="#FFAE4E"/>
<path d="M19.1154 46.3931C18.7431 46.8187 18.0574 46.8267 17.584 46.411L12.4401 41.8951C11.9666 41.4794 11.8846 40.7974 12.2569 40.3719L17.2457 34.6697C18.735 32.9674 21.4777 32.9354 23.3716 34.5981C25.2656 36.2608 25.5936 38.9887 24.1042 40.691L19.1154 46.3931Z" fill="#4C8BFF"/>
<path d="M31.8755 46.2758C32.1772 46.754 32.8533 46.8685 33.3856 46.5314L39.1689 42.8698C39.7012 42.5327 39.8882 41.8718 39.5865 41.3935L35.5445 34.9853C34.3378 33.0723 31.6335 32.6144 29.5042 33.9626C27.3748 35.3107 26.6269 37.9545 27.8335 39.8676L31.8755 46.2758Z" fill="#4C8BFF"/>
<path d="M16.5507 40.9636C16.5507 36.8937 17.5243 32.8151 20.9682 32.8151H30.5298C33.9737 32.8151 35.3961 35.4363 35.3961 39.5061L34.721 51.4526C34.6705 52.1901 34.0608 52.8039 33.2389 52.945C28.0736 53.8317 23.5156 53.8317 18.3503 52.945C17.5375 52.8055 16.6145 52.181 16.5507 51.4526V40.9636Z" fill="#4C8BFF"/>
<path d="M21.746 30.1605C21.746 28.5976 22.7728 27.3306 24.0395 27.3306H27.2505C28.5172 27.3306 29.5441 28.5976 29.5441 30.1605V32.9905C29.5441 34.5534 28.5172 35.8204 27.2505 35.8204H24.0395C22.7728 35.8204 21.746 34.5534 21.746 32.9905V30.1605Z" fill="#FFAB48"/>
<path d="M40.4137 25.0332C40.4137 27.5999 38.2495 29.6806 35.5798 29.6806C32.9102 29.6806 30.746 27.5999 30.746 25.0332C30.746 22.4665 32.9102 20.3857 35.5798 20.3857C38.2495 20.3857 40.4137 22.4665 40.4137 25.0332Z" fill="#FF9C27"/>
<path d="M22.7848 23.5805C22.7848 26.1472 20.6206 28.2279 17.9509 28.2279C15.2813 28.2279 13.1171 26.1472 13.1171 23.5805C13.1171 21.0138 15.2813 18.933 17.9509 18.933C20.6206 18.933 22.7848 21.0138 22.7848 23.5805Z" fill="#ED8000"/>
<path d="M38.2216 22.4237C38.2216 28.3457 32.7744 33.1464 26.0548 33.1464C19.3353 33.1464 13.2424 27.5298 16.013 23.2921C13.8721 17.0166 19.3353 11.701 26.0548 11.701C32.7744 11.701 38.2216 16.5017 38.2216 22.4237Z" fill="#FFBA68"/>
<path d="M38.3031 22.4445C38.3031 28.396 32.7295 33.2206 25.8543 33.2206C18.979 33.2206 12.7449 27.5761 15.5797 23.3172C13.3892 17.0106 18.979 11.6685 25.8543 11.6685C32.7295 11.6685 38.3031 16.4931 38.3031 22.4445Z" fill="url(#paint0_linear_989_94725)"/>
<mask id="mask1_989_94725" style="mask-type:alpha" maskUnits="userSpaceOnUse" x="14" y="11" width="25" height="23">
<path d="M38.307 22.4714C38.307 28.4229 32.7334 33.2475 25.8581 33.2475C18.9829 33.2475 12.7487 27.6029 15.5836 23.3441C13.3931 17.0374 18.9829 11.6953 25.8581 11.6953C32.7334 11.6953 38.307 16.5199 38.307 22.4714Z" fill="#FFBA68"/>
</mask>
<g mask="url(#mask1_989_94725)">
<path d="M37.9821 28.0678C37.9821 30.5719 35.856 32.6018 33.2332 32.6018C30.6104 32.6018 28.4843 30.5719 28.4843 28.0678C28.4843 25.5637 30.6104 23.5337 33.2332 23.5337C35.856 23.5337 37.9821 25.5637 37.9821 28.0678Z" fill="#FF9A24"/>
<path d="M20.0994 27.3413C20.0994 29.8454 17.9733 31.8753 15.3505 31.8753C12.7277 31.8753 10.6016 29.8454 10.6016 27.3413C10.6016 24.8372 12.7277 22.8072 15.3505 22.8072C17.9733 22.8072 20.0994 24.8372 20.0994 27.3413Z" fill="#FF9A24"/>
</g>
<path d="M24.2053 25.5485C24.2053 25.8177 23.9783 26.0359 23.6983 26.0359C23.4183 26.0359 23.1913 25.8177 23.1913 25.5485C23.1913 25.2793 23.4183 25.061 23.6983 25.061C23.9783 25.061 24.2053 25.2793 24.2053 25.5485Z" fill="black"/>
<path d="M22.1958 23.3483C22.1958 23.8607 21.7418 24.2761 21.1818 24.2761C20.6218 24.2761 20.1678 23.8607 20.1678 23.3483C20.1678 22.8359 20.6218 22.4205 21.1818 22.4205C21.7418 22.4205 22.1958 22.8359 22.1958 23.3483Z" fill="black"/>
<path fill-rule="evenodd" clip-rule="evenodd" d="M21.7004 22.0224C21.7996 22.1917 21.7301 22.4026 21.5451 22.4934C21.4445 22.5428 21.2921 22.6439 21.1836 22.77C21.0759 22.8954 21.0462 23.0011 21.0703 23.0933C21.1191 23.2802 20.9931 23.4679 20.7889 23.5126C20.5847 23.5573 20.3795 23.442 20.3307 23.2551C20.2323 22.8786 20.3987 22.5576 20.5858 22.3399C20.7723 22.123 21.0135 21.9647 21.1855 21.8803C21.3706 21.7894 21.6011 21.853 21.7004 22.0224Z" fill="black"/>
<path d="M28.7583 23.8327C28.7583 24.3451 28.3043 24.7604 27.7443 24.7604C27.1843 24.7604 26.7303 24.3451 26.7303 23.8327C26.7303 23.3203 27.1843 22.9049 27.7443 22.9049C28.3043 22.9049 28.7583 23.3203 28.7583 23.8327Z" fill="black"/>
<path fill-rule="evenodd" clip-rule="evenodd" d="M28.2629 22.5067C28.3621 22.676 28.2926 22.8869 28.1076 22.9778C28.007 23.0272 27.8546 23.1282 27.7461 23.2544C27.6384 23.3798 27.6087 23.4855 27.6328 23.5777C27.6816 23.7646 27.5556 23.9523 27.3514 23.997C27.1472 24.0416 26.942 23.9264 26.8932 23.7395C26.7948 23.363 26.9612 23.042 27.1483 22.8243C27.3348 22.6074 27.576 22.4491 27.748 22.3647C27.9331 22.2738 28.1636 22.3374 28.2629 22.5067Z" fill="black"/>
<path fill-rule="evenodd" clip-rule="evenodd" d="M21.9314 27.4362C23.7255 26.8248 25.6705 26.7526 27.5083 27.229C27.7056 27.2802 27.816 27.4598 27.755 27.6302C27.6939 27.8006 27.4844 27.8973 27.2871 27.8461C25.6112 27.4117 23.8375 27.4776 22.2014 28.0351C22.0088 28.1007 21.7922 28.0199 21.7176 27.8545C21.6431 27.6891 21.7388 27.5018 21.9314 27.4362Z" fill="#A75A00"/>
<path fill-rule="evenodd" clip-rule="evenodd" d="M21.5179 20.7929C21.8174 21.0063 22.156 21.078 22.3616 21.0791C22.5539 21.0801 22.7151 21.2367 22.7217 21.4287C22.7282 21.6208 22.5775 21.7757 22.3852 21.7746C22.0547 21.7729 21.5665 21.6661 21.128 21.3537C20.6763 21.0319 20.2967 20.5048 20.1932 19.709C20.1683 19.5177 20.3028 19.3486 20.4936 19.3312C20.6845 19.3139 20.8593 19.4549 20.8842 19.6462C20.9619 20.2429 21.2315 20.5889 21.5179 20.7929Z" fill="#905A09"/>
<path fill-rule="evenodd" clip-rule="evenodd" d="M28.4894 20.8235C28.801 20.6281 28.9964 20.3425 29.0759 20.1529C29.1503 19.9755 29.3565 19.8863 29.5365 19.9536C29.7166 20.0208 29.8022 20.2192 29.7278 20.3966C29.6001 20.7013 29.3151 21.1119 28.859 21.3979C28.3892 21.6926 27.757 21.8423 26.982 21.6343C26.7957 21.5843 26.6907 21.3954 26.7475 21.2124C26.8043 21.0294 27.0013 20.9216 27.1877 20.9716C27.7688 21.1276 28.1916 21.0104 28.4894 20.8235Z" fill="#905A09"/>
<path d="M22.0204 8.66488C25.6147 10.2083 28.2834 6.26066 34.6399 11.3057C36.4313 11.1674 34.9105 5.01076 37.3738 8.59933C39.3445 11.4702 37.4747 12.1434 36.3758 11.8745C40.6505 14.8595 41.9454 24.8411 36.6597 23.7935C30.2481 22.5227 32.1217 13.7505 30.3716 15.7078C28.6215 17.6651 16.7552 23.2429 14.065 22.0864C12.1713 21.2723 12.2825 18.6869 14.239 18.0396C14.0128 17.7679 12.6964 17.9151 12.3936 16.1014C12.0908 14.2877 16.5109 11.3361 18.3646 10.6591C18.4468 8.7481 18.2192 7.03263 22.0204 8.66488Z" fill="black"/>
<path fill-rule="evenodd" clip-rule="evenodd" d="M30.2691 33.0186C30.7024 33.3505 30.7847 33.9708 30.4528 34.4042L30.1096 34.8523C29.0655 36.2157 27.4462 37.0153 25.7289 37.0153C24.0766 37.0153 22.5113 36.2748 21.4632 34.9975L20.9977 34.4302C20.6515 34.0082 20.7129 33.3855 21.1349 33.0393C21.5568 32.693 22.1796 32.7544 22.5258 33.1764L22.9913 33.7437C23.6639 34.5635 24.6685 35.0387 25.7289 35.0387C26.831 35.0387 27.8703 34.5255 28.5403 33.6505L28.8835 33.2024C29.2154 32.7691 29.8357 32.6868 30.2691 33.0186Z" fill="#337AFF"/>
<path fill-rule="evenodd" clip-rule="evenodd" d="M17.6036 37.627C17.731 37.6705 17.7989 37.8091 17.7553 37.9364C17.0658 39.952 16.9562 42.4063 16.9561 44.8433C16.9561 44.9779 16.847 45.087 16.7124 45.087C16.5779 45.087 16.4687 44.9779 16.4688 44.8433C16.4688 42.4065 16.5757 39.8787 17.2942 37.7786C17.3377 37.6513 17.4763 37.5834 17.6036 37.627Z" fill="#337AFF"/>
<path fill-rule="evenodd" clip-rule="evenodd" d="M30.804 38.4332C30.9348 38.4014 31.0666 38.4817 31.0983 38.6125C31.1835 38.9639 31.2538 39.3019 31.3225 39.6327C31.4671 40.3285 31.6049 40.9919 31.8615 41.6787C32.2323 42.671 32.849 43.6919 34.0955 44.8161C34.1954 44.9062 34.2034 45.0603 34.1132 45.1602C34.0231 45.2602 33.869 45.2681 33.7691 45.178C32.4664 44.0031 31.804 42.9172 31.405 41.8493C31.1352 41.1274 30.9845 40.4035 30.8356 39.6883C30.7685 39.3659 30.7018 39.0453 30.6247 38.7274C30.5929 38.5966 30.6733 38.4649 30.804 38.4332Z" fill="#337AFF"/>
<path d="M31.4406 48.9504C31.0268 48.714 30.8533 48.238 31.0529 47.887L33.2218 44.0743C33.4215 43.7234 33.9188 43.6305 34.3325 43.8668L39.8767 47.0332C41.5318 47.9785 41.5854 49.5169 40.7869 50.9207C39.9883 52.3245 38.6399 53.0621 36.9848 52.1168L31.4406 48.9504Z" fill="#FFAE4E"/>
<path fill-rule="evenodd" clip-rule="evenodd" d="M34.7159 43.1525L34.1288 41.3608C33.988 40.931 33.5963 40.5883 33.1315 40.4884C32.8608 40.4301 32.5887 40.4598 32.3618 40.5723L32.2492 40.6281C32.2384 40.6335 32.2276 40.639 32.217 40.6446L30.693 39.3135C30.2248 38.9045 29.5138 38.9526 29.1048 39.4208C28.8567 39.7049 28.7768 40.0784 28.857 40.4196C28.3905 40.2051 27.8221 40.3386 27.5043 40.7674C27.1874 41.1951 27.2241 41.7757 27.5624 42.1595C27.1896 42.0899 26.7907 42.2136 26.5232 42.52C26.1952 42.8954 26.1657 43.4294 26.415 43.8323C26.1928 43.8819 25.9839 44.0002 25.8227 44.1848C25.42 44.6458 25.4673 45.3461 25.9283 45.7488L28.4501 47.9514C28.5513 48.0398 28.6641 48.1065 28.7826 48.1519C30.4233 49.5015 32.8507 49.3098 34.2577 47.699C35.3914 46.4009 35.5229 44.5702 34.7159 43.1525Z" fill="#FFBA68"/>
<path fill-rule="evenodd" clip-rule="evenodd" d="M26.3979 44.1244C26.4038 44.0398 26.4771 43.976 26.5617 43.9819C26.7222 43.993 26.9812 44.0402 27.2556 44.1446C27.5298 44.249 27.8298 44.4145 28.061 44.6688C28.118 44.7315 28.1134 44.8286 28.0507 44.8856C27.988 44.9426 27.8909 44.938 27.8339 44.8753C27.6457 44.6683 27.3928 44.5253 27.1464 44.4315C26.9001 44.3378 26.6706 44.2971 26.5404 44.2881C26.4559 44.2822 26.3921 44.2089 26.3979 44.1244Z" fill="#FF9C27"/>
<path fill-rule="evenodd" clip-rule="evenodd" d="M27.5045 42.3387C27.5192 42.2552 27.5989 42.1995 27.6824 42.2143C27.8408 42.2423 28.0934 42.3167 28.3552 42.4496C28.6168 42.5824 28.8976 42.7787 29.1006 43.0559C29.1507 43.1243 29.1358 43.2204 29.0674 43.2705C28.999 43.3205 28.903 43.3057 28.8529 43.2373C28.6877 43.0115 28.4514 42.8426 28.2162 42.7233C27.9812 42.604 27.7574 42.5393 27.6289 42.5166C27.5454 42.5018 27.4897 42.4221 27.5045 42.3387Z" fill="#FF9C27"/>
<path fill-rule="evenodd" clip-rule="evenodd" d="M29.0724 40.8258C29.0928 40.7435 29.1761 40.6934 29.2583 40.7139C29.4145 40.7527 29.6614 40.8442 29.9135 40.9946C30.1654 41.145 30.4322 41.3601 30.6157 41.6506C30.661 41.7223 30.6396 41.8171 30.5679 41.8623C30.4963 41.9076 30.4015 41.8862 30.3562 41.8146C30.2067 41.578 29.9826 41.3934 29.7561 41.2582C29.5298 41.1232 29.3109 41.0433 29.1843 41.0118C29.102 40.9913 29.0519 40.9081 29.0724 40.8258Z" fill="#FF9C27"/>
</g>
<defs>
<linearGradient id="paint0_linear_989_94725" x1="26.5909" y1="11.6685" x2="26.5909" y2="26.4798" gradientUnits="userSpaceOnUse">
<stop stop-color="#F01D00"/>
<stop offset="1" stop-color="#FFBA68"/>
</linearGradient>
</defs>
</svg>
