<svg width="54" height="54" viewBox="0 0 54 54" fill="none" xmlns="http://www.w3.org/2000/svg">
<circle cx="27" cy="27" r="27" fill="#D9D9D9"/>
<path d="M14.3637 37.148C16.2049 36.4109 16.4078 34.389 16.2479 33.1621C16.2256 32.9914 16.4013 32.8518 16.5575 32.924L22.7854 35.8011C22.8553 35.8334 22.9017 35.9052 22.9051 35.9822C23.3158 45.3555 17.0252 46.4763 14.0533 45.8619C13.8471 45.8192 13.8628 45.5401 14.0622 45.4722C16.2127 44.7395 16.295 42.7113 14.3637 42.0669C12.0358 41.2902 11.7772 38.1836 14.3637 37.148Z" fill="black"/>
<path d="M39.1832 37.148C37.3419 36.4109 37.1391 34.389 37.299 33.1621C37.3213 32.9914 37.1456 32.8518 36.9894 32.924L30.7615 35.8011C30.6916 35.8334 30.6452 35.9052 30.6418 35.9822C30.231 45.3555 36.5217 46.4763 39.4936 45.8619C39.6998 45.8192 39.684 45.5401 39.4847 45.4722C37.3342 44.7395 37.2519 42.7113 39.1832 42.0669C41.511 41.2902 41.7697 38.1836 39.1832 37.148Z" fill="black"/>
<path d="M21.8648 29.3996C21.8648 32.1262 19.6565 34.3366 16.9324 34.3366C14.2083 34.3366 12 32.1262 12 29.3996C12 26.673 14.2083 24.4626 16.9324 24.4626C19.6565 24.4626 21.8648 26.673 21.8648 29.3996Z" fill="#FF9C27"/>
<path d="M42.0015 29.3996C42.0015 32.1262 39.7932 34.3366 37.0691 34.3366C34.345 34.3366 32.1367 32.1262 32.1367 29.3996C32.1367 26.673 34.345 24.4626 37.0691 24.4626C39.7932 24.4626 42.0015 26.673 42.0015 29.3996Z" fill="#FF9C27"/>
<path d="M39.4201 26.5351C39.4201 32.8262 33.8617 37.9262 27.005 37.9262C20.1483 37.9262 14.5898 32.8262 14.5898 26.5351C14.5898 20.244 20.1483 15.144 27.005 15.144C33.8617 15.144 39.4201 20.244 39.4201 26.5351Z" fill="#FFBA68"/>
<mask id="mask0_989_94395" style="mask-type:alpha" maskUnits="userSpaceOnUse" x="14" y="15" width="26" height="23">
<path d="M39.4162 26.533C39.4162 32.8241 33.8578 37.9241 27.0011 37.9241C20.1444 37.9241 14.5859 32.8241 14.5859 26.533C14.5859 20.2419 20.1444 15.142 27.0011 15.142C33.8578 15.142 39.4162 20.2419 39.4162 26.533Z" fill="#FFAB49"/>
</mask>
<g mask="url(#mask0_989_94395)">
<path d="M22.7188 32.3851C22.7188 35.0452 20.5493 37.2017 17.8731 37.2017C15.1969 37.2017 13.0273 35.0452 13.0273 32.3851C13.0273 29.725 15.1969 27.5686 17.8731 27.5686C20.5493 27.5686 22.7188 29.725 22.7188 32.3851Z" fill="#FF9A24"/>
<path d="M40.7813 32.3851C40.7813 35.0452 38.6118 37.2017 35.9356 37.2017C33.2594 37.2017 31.0898 35.0452 31.0898 32.3851C31.0898 29.725 33.2594 27.5686 35.9356 27.5686C38.6118 27.5686 40.7813 29.725 40.7813 32.3851Z" fill="#FF9A24"/>
</g>
<path d="M27.5229 30.1574C27.5229 30.4434 27.2913 30.6752 27.0056 30.6752C26.7199 30.6752 26.4883 30.4434 26.4883 30.1574C26.4883 29.8715 26.7199 29.6396 27.0056 29.6396C27.2913 29.6396 27.5229 29.8715 27.5229 30.1574Z" fill="black"/>
<path fill-rule="evenodd" clip-rule="evenodd" d="M23.3563 24.7211C23.4992 24.7211 23.615 24.837 23.615 24.98V25.7049C23.615 25.8479 23.4992 25.9638 23.3563 25.9638C23.2135 25.9638 23.0977 25.8479 23.0977 25.7049V24.98C23.0977 24.837 23.2135 24.7211 23.3563 24.7211Z" fill="#905A09"/>
<path fill-rule="evenodd" clip-rule="evenodd" d="M25.0162 25.5247C25.1365 25.6017 25.1716 25.7618 25.0946 25.8823L24.6818 26.5281C24.6048 26.6485 24.4448 26.6836 24.3245 26.6066C24.2042 26.5295 24.1691 26.3694 24.2461 26.249L24.6589 25.6032C24.7359 25.4828 24.8958 25.4476 25.0162 25.5247Z" fill="#905A09"/>
<path fill-rule="evenodd" clip-rule="evenodd" d="M21.8666 25.5247C21.7463 25.6017 21.7112 25.7618 21.7882 25.8823L22.201 26.5281C22.278 26.6485 22.438 26.6836 22.5583 26.6066C22.6786 26.5295 22.7137 26.3694 22.6368 26.249L22.2239 25.6032C22.1469 25.4828 21.987 25.4476 21.8666 25.5247Z" fill="#905A09"/>
<path d="M21.832 27.0513C21.832 26.1934 22.5268 25.498 23.3839 25.498C24.241 25.498 24.9358 26.1934 24.9358 27.0513V28.6046C24.9358 29.4625 24.241 30.158 23.3839 30.158C22.5268 30.158 21.832 29.4625 21.832 28.6046V27.0513Z" fill="#B67310"/>
<path fill-rule="evenodd" clip-rule="evenodd" d="M24.7809 26.4668C23.6702 25.6279 22.4592 26.1114 21.9887 26.4668C21.8747 26.5529 21.7125 26.5302 21.6264 26.4161C21.5404 26.3019 21.5631 26.1396 21.6771 26.0535C22.2411 25.6274 23.7201 25.0169 25.0925 26.0535C25.2065 26.1396 25.2292 26.3019 25.1431 26.4161C25.0571 26.5302 24.8949 26.5529 24.7809 26.4668Z" fill="#905A09"/>
<path fill-rule="evenodd" clip-rule="evenodd" d="M30.7157 24.7211C30.8585 24.7211 30.9743 24.837 30.9743 24.98V25.7049C30.9743 25.8479 30.8585 25.9638 30.7157 25.9638C30.5728 25.9638 30.457 25.8479 30.457 25.7049V24.98C30.457 24.837 30.5728 24.7211 30.7157 24.7211Z" fill="#905A09"/>
<path fill-rule="evenodd" clip-rule="evenodd" d="M32.3755 25.5247C32.4959 25.6017 32.531 25.7618 32.454 25.8823L32.0412 26.5281C31.9642 26.6485 31.8042 26.6836 31.6839 26.6066C31.5636 26.5295 31.5284 26.3694 31.6054 26.249L32.0183 25.6032C32.0953 25.4828 32.2552 25.4476 32.3755 25.5247Z" fill="#905A09"/>
<path fill-rule="evenodd" clip-rule="evenodd" d="M29.226 25.5247C29.1057 25.6017 29.0706 25.7618 29.1476 25.8823L29.5604 26.5281C29.6374 26.6485 29.7974 26.6836 29.9177 26.6066C30.038 26.5295 30.0731 26.3694 29.9961 26.249L29.5833 25.6032C29.5063 25.4828 29.3463 25.4476 29.226 25.5247Z" fill="#905A09"/>
<path d="M29.1914 27.0513C29.1914 26.1934 29.8862 25.498 30.7433 25.498C31.6004 25.498 32.2952 26.1934 32.2952 27.0513V28.6046C32.2952 29.4625 31.6004 30.158 30.7433 30.158C29.8862 30.158 29.1914 29.4625 29.1914 28.6046V27.0513Z" fill="#B67310"/>
<path fill-rule="evenodd" clip-rule="evenodd" d="M32.1402 26.4668C31.0296 25.6279 29.8186 26.1114 29.3481 26.4668C29.234 26.5529 29.0718 26.5302 28.9858 26.4161C28.8998 26.3019 28.9224 26.1396 29.0365 26.0535C29.6005 25.6274 31.0795 25.0169 32.4518 26.0535C32.5659 26.1396 32.5885 26.3019 32.5025 26.4161C32.4165 26.5302 32.2543 26.5529 32.1402 26.4668Z" fill="#905A09"/>
<path fill-rule="evenodd" clip-rule="evenodd" d="M22.9051 23.5664C22.5336 23.5109 22.2332 23.3179 22.0805 23.168C21.9378 23.0278 21.7085 23.03 21.5685 23.1729C21.4284 23.3158 21.4306 23.5453 21.5734 23.6855C21.8187 23.9263 22.2544 24.2021 22.7981 24.2834C23.3582 24.3671 24.0098 24.24 24.6465 23.7041C24.7995 23.5753 24.8193 23.3467 24.6906 23.1935C24.5619 23.0403 24.3335 23.0205 24.1804 23.1493C23.7029 23.5512 23.2602 23.6195 22.9051 23.5664Z" fill="#905A09"/>
<path fill-rule="evenodd" clip-rule="evenodd" d="M30.6668 23.8048C30.2953 23.8603 29.9949 24.0533 29.8423 24.2032C29.6995 24.3434 29.4702 24.3412 29.3302 24.1983C29.1901 24.0554 29.1923 23.8259 29.3351 23.6857C29.5804 23.4449 30.0161 23.1691 30.5599 23.0878C31.12 23.0041 31.7715 23.1312 32.4082 23.6671C32.5613 23.7959 32.581 24.0245 32.4523 24.1777C32.3236 24.3309 32.0952 24.3507 31.9421 24.2219C31.4646 23.82 31.0219 23.7517 30.6668 23.8048Z" fill="#905A09"/>
<ellipse cx="23.0639" cy="27.2501" rx="0.716258" ry="0.71692" fill="white"/>
<ellipse cx="30.3022" cy="27.2501" rx="0.716258" ry="0.71692" fill="white"/>
<ellipse cx="23.8972" cy="28.3259" rx="0.358129" ry="0.35846" fill="white"/>
<ellipse cx="31.1433" cy="28.3259" rx="0.358129" ry="0.35846" fill="white"/>
<path fill-rule="evenodd" clip-rule="evenodd" d="M22.9187 31.3776C23.0272 31.1959 23.2588 31.1388 23.436 31.2501L24.1881 31.7222C24.6957 32.0409 25.3301 32.0596 25.8548 31.7714C26.5712 31.3779 27.4321 31.3779 28.1485 31.7714C28.6732 32.0596 29.3076 32.0409 29.8153 31.7222L30.5673 31.2501C30.7445 31.1388 30.9761 31.1959 31.0846 31.3776C31.1931 31.5593 31.1374 31.7968 30.9602 31.908L30.2081 32.3801C29.4726 32.8419 28.5534 32.869 27.7932 32.4514C27.2987 32.1798 26.7046 32.1798 26.2101 32.4514C25.4499 32.869 24.5307 32.8419 23.7952 32.3801L23.0431 31.908C22.8659 31.7968 22.8102 31.5593 22.9187 31.3776Z" fill="#A75A00"/>
<path fill-rule="evenodd" clip-rule="evenodd" d="M39.6429 24.924C40.1679 23.8152 40.4543 22.6178 40.4543 21.3689C40.4543 15.6423 34.4326 11 27.0045 11C19.5764 11 13.5547 15.6423 13.5547 21.3689C13.5547 22.7052 13.8826 23.9824 14.4797 25.1554L14.1428 25.7471C13.9069 26.1613 14.3181 26.6398 14.7893 26.5123C25.5359 23.6034 28.4552 20.8163 29.1023 19.4499C29.1582 19.6426 29.2428 19.8694 29.3653 20.1324C31.8679 25.5046 39.0974 26.8479 39.6535 26.3107C39.7841 26.1846 39.7614 25.6586 39.6429 24.924Z" fill="black"/>
</svg>
