<svg width="56" height="56" viewBox="0 0 56 56" fill="none" xmlns="http://www.w3.org/2000/svg">
<rect x="0.467773" y="0.213379" width="55" height="55" rx="27.5" fill="#2F364D"/>
<path d="M31.6825 44.6987C31.8679 44.5936 32.0795 44.7871 31.9913 44.9811L31.6431 45.7471C31.6036 45.8338 31.6245 45.9361 31.6949 46.0004L32.3157 46.5683C32.473 46.7121 32.3543 46.9732 32.1426 46.9492L31.3065 46.8548C31.2118 46.8441 31.121 46.8956 31.0815 46.9823L30.7333 47.7483C30.6451 47.9423 30.3602 47.9101 30.3175 47.7013L30.149 46.877C30.1299 46.7836 30.0529 46.7132 29.9581 46.7025L29.1221 46.608C28.9103 46.5841 28.8529 46.3031 29.0383 46.198L29.7702 45.783C29.8531 45.736 29.8963 45.6409 29.8772 45.5476L29.7087 44.7232C29.666 44.5144 29.9154 44.373 30.0727 44.5168L30.6936 45.0847C30.7639 45.149 30.8676 45.1607 30.9506 45.1137L31.6825 44.6987Z" fill="#FFDA79"/>
<path d="M19.0858 3.49252C19.0519 3.341 19.2317 3.23469 19.3482 3.33737L19.8079 3.74276C19.86 3.78868 19.9357 3.79584 19.9955 3.76051L20.5231 3.44855C20.6567 3.36954 20.8134 3.5077 20.7517 3.65017L20.5082 4.21267C20.4807 4.27639 20.4972 4.35062 20.5493 4.39654L21.009 4.80192C21.1255 4.90461 21.0425 5.09631 20.8879 5.08168L20.2777 5.02394C20.2086 5.0174 20.1431 5.05611 20.1156 5.11983L19.8721 5.68232C19.8104 5.8248 19.6024 5.80512 19.5686 5.6536L19.4349 5.05542C19.4198 4.98766 19.3628 4.93735 19.2936 4.93081L18.6834 4.87306C18.5289 4.85844 18.4833 4.65457 18.617 4.57555L19.1446 4.2636C19.2043 4.22827 19.2346 4.15846 19.2194 4.0907L19.0858 3.49252Z" fill="#FFDA79"/>
<path d="M51.4703 30.0427C51.5743 29.936 51.7541 30.0247 51.7326 30.1722L51.648 30.7542C51.6384 30.8201 51.6724 30.8848 51.7321 30.9142L52.2595 31.1746C52.3931 31.2405 52.3643 31.4389 52.2174 31.4641L51.6377 31.5635C51.5721 31.5747 51.5211 31.627 51.5115 31.6929L51.4269 32.275C51.4055 32.4224 51.2079 32.4563 51.1386 32.3244L50.8649 31.8038C50.8339 31.7448 50.7685 31.7125 50.7028 31.7237L50.1231 31.8231C49.9762 31.8483 49.883 31.6709 49.987 31.5642L50.3976 31.143C50.4441 31.0953 50.4546 31.0231 50.4236 30.9641L50.1499 30.4435C50.0806 30.3116 50.2205 30.1681 50.3541 30.234L50.8815 30.4944C50.9413 30.5239 51.0132 30.5115 51.0597 30.4638L51.4703 30.0427Z" fill="#FFDA79"/>
<path d="M25.732 12.6623C25.836 12.5556 26.0158 12.6443 25.9943 12.7918L25.9097 13.3738C25.9001 13.4398 25.9341 13.5044 25.9938 13.5339L26.5213 13.7942C26.6548 13.8602 26.626 14.0585 26.4792 14.0837L25.8994 14.1831C25.8338 14.1944 25.7828 14.2466 25.7732 14.3125L25.6886 14.8946C25.6672 15.042 25.4696 15.0759 25.4003 14.944L25.1266 14.4234C25.0956 14.3644 25.0302 14.3321 24.9645 14.3434L24.3848 14.4428C24.238 14.4679 24.1447 14.2905 24.2487 14.1838L24.6593 13.7627C24.7058 13.715 24.7163 13.6427 24.6853 13.5838L24.4116 13.0631C24.3423 12.9312 24.4822 12.7877 24.6158 12.8537L25.1432 13.114C25.203 13.1435 25.2749 13.1312 25.3214 13.0835L25.732 12.6623Z" fill="#FFDA79"/>
<path d="M37.1734 2.7624C37.2774 2.65572 37.4572 2.74445 37.4357 2.89188L37.3511 3.47394C37.3415 3.53987 37.3755 3.60448 37.4352 3.63397L37.9627 3.89432C38.0963 3.96026 38.0674 4.15863 37.9206 4.18381L37.3409 4.28319C37.2752 4.29445 37.2242 4.34671 37.2146 4.41265L37.13 4.9947C37.1086 5.14214 36.911 5.17601 36.8417 5.04413L36.568 4.5235C36.537 4.46452 36.4716 4.43221 36.4059 4.44347L35.8262 4.54286C35.6794 4.56803 35.5861 4.39059 35.6901 4.28392L36.1007 3.86276C36.1472 3.81506 36.1577 3.74283 36.1267 3.68385L35.853 3.16321C35.7837 3.03134 35.9236 2.88781 36.0572 2.95375L36.5847 3.2141C36.6444 3.24359 36.7163 3.23126 36.7628 3.18355L37.1734 2.7624Z" fill="#FFDA79"/>
<path d="M49.5597 21.38C49.6084 21.33 49.6927 21.3716 49.6827 21.4407L49.643 21.7136C49.6385 21.7445 49.6544 21.7748 49.6824 21.7886L49.9297 21.9107C49.9923 21.9416 49.9788 22.0346 49.9099 22.0464L49.6382 22.093C49.6074 22.0982 49.5835 22.1227 49.579 22.1536L49.5393 22.4265C49.5293 22.4956 49.4367 22.5115 49.4042 22.4497L49.2759 22.2056C49.2614 22.178 49.2307 22.1628 49.1999 22.1681L48.9281 22.2147C48.8593 22.2265 48.8156 22.1433 48.8643 22.0933L49.0568 21.8959C49.0786 21.8735 49.0835 21.8396 49.069 21.812L48.9407 21.5679C48.9082 21.5061 48.9738 21.4388 49.0364 21.4697L49.2837 21.5918C49.3117 21.6056 49.3454 21.5998 49.3672 21.5775L49.5597 21.38Z" fill="#FFDA79"/>
<path d="M40.3175 47.7804C40.3663 47.7304 40.4505 47.772 40.4405 47.8411L40.4008 48.114C40.3963 48.1449 40.4122 48.1752 40.4402 48.189L40.6875 48.3111C40.7501 48.342 40.7366 48.435 40.6677 48.4468L40.396 48.4933C40.3652 48.4986 40.3413 48.5231 40.3368 48.554L40.2972 48.8269C40.2871 48.896 40.1945 48.9119 40.162 48.8501L40.0337 48.606C40.0192 48.5784 39.9885 48.5632 39.9577 48.5685L39.6859 48.6151C39.6171 48.6269 39.5734 48.5437 39.6221 48.4937L39.8146 48.2963C39.8364 48.2739 39.8413 48.24 39.8268 48.2124L39.6985 47.9683C39.666 47.9065 39.7316 47.8392 39.7942 47.8701L40.0415 47.9922C40.0695 48.006 40.1032 48.0002 40.125 47.9779L40.3175 47.7804Z" fill="#FFDA79"/>
<path d="M38.9972 12.36C39.0459 12.31 39.1302 12.3516 39.1202 12.4207L39.0805 12.6936C39.076 12.7245 39.0919 12.7548 39.1199 12.7686L39.3672 12.8906C39.4298 12.9216 39.4163 13.0145 39.3474 13.0263L39.0757 13.0729C39.0449 13.0782 39.021 13.1027 39.0165 13.1336L38.9768 13.4065C38.9668 13.4756 38.8742 13.4915 38.8417 13.4297L38.7134 13.1856C38.6989 13.1579 38.6682 13.1428 38.6374 13.1481L38.3656 13.1947C38.2968 13.2065 38.2531 13.1233 38.3018 13.0733L38.4943 12.8758C38.5161 12.8535 38.521 12.8196 38.5065 12.792L38.3782 12.5479C38.3457 12.4861 38.4113 12.4188 38.4739 12.4497L38.7212 12.5718C38.7492 12.5856 38.7829 12.5798 38.8047 12.5574L38.9972 12.36Z" fill="#FFDA79"/>
<path d="M40.9777 10.82C41.0264 10.77 41.1107 10.8116 41.1006 10.8807L41.061 11.1535C41.0565 11.1844 41.0724 11.2147 41.1004 11.2286L41.3476 11.3506C41.4103 11.3815 41.3967 11.4745 41.3279 11.4863L41.0561 11.5329C41.0254 11.5382 41.0015 11.5627 40.997 11.5936L40.9573 11.8664C40.9473 11.9356 40.8546 11.9514 40.8221 11.8896L40.6939 11.6456C40.6793 11.6179 40.6486 11.6028 40.6179 11.608L40.3461 11.6546C40.2773 11.6664 40.2335 11.5832 40.2823 11.5332L40.4748 11.3358C40.4966 11.3134 40.5015 11.2796 40.487 11.2519L40.3587 11.0079C40.3262 10.9461 40.3918 10.8788 40.4544 10.9097L40.7016 11.0317C40.7297 11.0456 40.7634 11.0398 40.7852 11.0174L40.9777 10.82Z" fill="#FFDA79"/>
<path d="M14.3566 9.27994C14.4053 9.22993 14.4896 9.27152 14.4795 9.34064L14.4399 9.6135C14.4354 9.64441 14.4513 9.67469 14.4793 9.68852L14.7265 9.81056C14.7892 9.84148 14.7756 9.93447 14.7068 9.94627L14.435 9.99286C14.4043 9.99814 14.3804 10.0226 14.3759 10.0535L14.3362 10.3264C14.3262 10.3955 14.2335 10.4114 14.2011 10.3496L14.0728 10.1055C14.0582 10.0779 14.0276 10.0627 13.9968 10.068L13.725 10.1146C13.6562 10.1264 13.6124 10.0432 13.6612 9.9932L13.8537 9.79577C13.8755 9.77341 13.8804 9.73955 13.8659 9.7119L13.7376 9.46783C13.7051 9.40601 13.7707 9.33873 13.8333 9.36964L14.0806 9.49169C14.1086 9.50551 14.1423 9.49973 14.1641 9.47737L14.3566 9.27994Z" fill="#FFDA79"/>
<path d="M52.2637 16.5324C52.3513 16.4426 52.5026 16.5173 52.4846 16.6414L52.4133 17.1316C52.4052 17.1871 52.4338 17.2415 52.4841 17.2663L52.9283 17.4856C53.0408 17.5411 53.0165 17.7082 52.8928 17.7294L52.4047 17.813C52.3494 17.8225 52.3065 17.8665 52.2984 17.9221L52.2271 18.4122C52.2091 18.5363 52.0427 18.5649 51.9843 18.4538L51.7539 18.0154C51.7278 17.9657 51.6727 17.9385 51.6174 17.948L51.1292 18.0317C51.0055 18.0529 50.927 17.9035 51.0146 17.8137L51.3603 17.459C51.3995 17.4188 51.4083 17.358 51.3822 17.3083L51.1518 16.8699C51.0934 16.7589 51.2112 16.638 51.3237 16.6935L51.7679 16.9128C51.8182 16.9376 51.8788 16.9272 51.9179 16.887L52.2637 16.5324Z" fill="#FFDA79"/>
<path d="M17.9434 46.0124C18.0309 45.9226 18.1823 45.9973 18.1643 46.1214L18.093 46.6116C18.0849 46.6671 18.1135 46.7215 18.1638 46.7463L18.608 46.9656C18.7205 47.0211 18.6962 47.1881 18.5725 47.2093L18.0844 47.293C18.0291 47.3025 17.9861 47.3465 17.9781 47.402L17.9068 47.8922C17.8888 48.0163 17.7224 48.0449 17.664 47.9338L17.4336 47.4954C17.4075 47.4457 17.3524 47.4185 17.2971 47.428L16.8089 47.5117C16.6852 47.5329 16.6067 47.3835 16.6943 47.2936L17.04 46.939C17.0792 46.8988 17.088 46.838 17.0619 46.7883L16.8315 46.3499C16.7731 46.2389 16.8909 46.118 17.0034 46.1735L17.4476 46.3928C17.4979 46.4176 17.5585 46.4072 17.5976 46.367L17.9434 46.0124Z" fill="#FFDA79"/>
<path d="M12.8175 47.34C12.8663 47.29 12.9505 47.3316 12.9405 47.4007L12.9008 47.6736C12.8963 47.7045 12.9122 47.7348 12.9402 47.7486L13.1875 47.8706C13.2501 47.9015 13.2366 47.9945 13.1677 48.0063L12.896 48.0529C12.8652 48.0582 12.8413 48.0827 12.8368 48.1136L12.7972 48.3865C12.7871 48.4556 12.6945 48.4715 12.662 48.4096L12.5337 48.1656C12.5192 48.1379 12.4885 48.1228 12.4577 48.1281L12.1859 48.1746C12.1171 48.1864 12.0734 48.1033 12.1221 48.0533L12.3146 47.8558C12.3364 47.8335 12.3413 47.7996 12.3268 47.772L12.1985 47.5279C12.166 47.4661 12.2316 47.3988 12.2942 47.4297L12.5415 47.5517C12.5695 47.5656 12.6032 47.5598 12.625 47.5374L12.8175 47.34Z" fill="#FFDA79"/>
<path d="M6.4386 14.7799C6.48735 14.7299 6.57161 14.7715 6.56156 14.8406L6.52189 15.1135C6.5174 15.1444 6.53332 15.1747 6.56133 15.1885L6.80857 15.3106C6.8712 15.3415 6.85768 15.4345 6.78884 15.4463L6.51708 15.4929C6.4863 15.4981 6.46241 15.5226 6.45792 15.5535L6.41825 15.8264C6.4082 15.8955 6.31558 15.9114 6.28309 15.8496L6.1548 15.6055C6.14026 15.5779 6.10958 15.5627 6.0788 15.568L5.80704 15.6146C5.7382 15.6264 5.69448 15.5432 5.74323 15.4932L5.93571 15.2958C5.95751 15.2734 5.96243 15.2395 5.9479 15.2119L5.81961 14.9678C5.78712 14.906 5.85271 14.8387 5.91534 14.8696L6.16259 14.9917C6.19059 15.0055 6.22432 14.9997 6.24612 14.9774L6.4386 14.7799Z" fill="#FFDA79"/>
<path fill-rule="evenodd" clip-rule="evenodd" d="M40.9592 46.0949C40.8558 46.0859 40.7515 46.0601 40.6503 46.0159L34.2412 43.216C32.3279 42.3802 32.1624 40.5429 32.958 38.7133C33.7535 36.8837 35.2089 35.7545 37.1222 36.5903L41.322 38.425L43.8082 35.0897C44.1422 34.6416 44.7003 34.4917 45.0547 34.7549L48.9047 37.6146C49.259 37.8778 49.2755 38.4545 48.9415 38.9026L44.4655 44.9072C43.4206 46.3089 42.144 46.5569 40.9592 46.0949Z" fill="#E8E8E8"/>
<path fill-rule="evenodd" clip-rule="evenodd" d="M9.52768 41.2845C9.24661 41.6249 9.36767 42.19 9.79807 42.5466L15.565 47.3248C17.015 48.5263 18.4076 48.3614 19.4826 47.4659L24.6504 45.295C26.5754 44.4863 26.7618 42.6537 25.986 40.8156C25.2101 38.9775 23.7658 37.83 21.8409 38.6386L17.3704 40.5166L13.8694 37.6158C13.439 37.2591 12.8623 37.246 12.5812 37.5864L9.52768 41.2845Z" fill="#E8E8E8"/>
<path d="M20.6142 44.8164C20.3616 41.2136 20.9594 37.5434 23.9697 37.3323L32.3273 36.7463C35.3376 36.5352 36.7436 38.7684 36.9962 42.3712L37.1477 52.9881C37.1493 53.6439 36.6545 54.2247 35.9448 54.4C31.4849 55.5015 27.5008 55.7808 22.9309 55.3125C22.2118 55.2388 21.3663 54.7425 21.2652 54.1017L20.6142 44.8164Z" fill="#FAFAFA"/>
<path d="M24.4928 34.9643C24.397 33.5982 25.2169 32.4278 26.3241 32.3502L29.1308 32.1534C30.238 32.0757 31.2132 33.1203 31.309 34.4864L31.4824 36.96C31.5782 38.3261 30.7583 39.4966 29.6511 39.5742L26.8444 39.771C25.7372 39.8486 24.762 38.8041 24.6662 37.4379L24.4928 34.9643Z" fill="#FFAB48"/>
<path d="M40.4783 31.0974C40.3103 33.3401 38.2831 35.0166 35.9504 34.8418C33.6177 34.6671 31.8628 32.7074 32.0308 30.4646C32.1988 28.2219 34.226 26.5454 36.5587 26.7202C38.8914 26.8949 40.6463 28.8546 40.4783 31.0974Z" fill="#FF9C27"/>
<path d="M25.1658 28.6745C24.9978 30.9172 22.9706 32.5937 20.6379 32.419C18.3052 32.2443 16.5503 30.2845 16.7183 28.0418C16.8863 25.7991 18.9135 24.1226 21.2462 24.2973C23.5789 24.472 25.3338 26.4318 25.1658 28.6745Z" fill="#ED8000"/>
<path d="M38.731 28.6738C38.3434 33.8483 33.2695 37.6866 27.3981 37.2469C21.5267 36.8071 16.5704 31.5007 19.2687 27.9791C17.8087 22.3556 22.9302 18.0684 28.8016 18.5082C34.673 18.9479 39.1186 23.4992 38.731 28.6738Z" fill="#FFBA68"/>
<path d="M38.8006 28.6975C38.4111 33.8978 33.2253 37.7487 27.2178 37.2988C21.2102 36.8488 16.1324 31.5087 18.8882 27.9729C17.3869 22.3189 22.6207 18.0169 28.6283 18.4668C34.6358 18.9168 39.1901 23.4972 38.8006 28.6975Z" fill="#FFBA68"/>
<mask id="mask0_1371_37587" style="mask-type:alpha" maskUnits="userSpaceOnUse" x="18" y="18" width="21" height="20">
<path d="M38.7967 28.6966C38.4072 33.8969 33.2214 37.7478 27.2138 37.2978C21.2063 36.8478 16.1285 31.5077 18.8843 27.9719C17.383 22.3179 22.6168 18.0159 28.6244 18.4659C34.6319 18.9158 39.1862 23.4963 38.7967 28.6966Z" fill="#FFBA68"/>
</mask>
<g mask="url(#mask0_1371_37587)">
<path fill-rule="evenodd" clip-rule="evenodd" d="M29.772 31.5683C28.3222 32.3785 26.6572 32.7478 24.998 32.6273C24.8199 32.6144 24.6963 32.477 24.7221 32.3205C24.7478 32.164 24.9131 32.0476 25.0912 32.0605C26.6043 32.1704 28.1226 31.8336 29.4447 31.0948C29.6003 31.0078 29.7998 31.0433 29.8902 31.174C29.9805 31.3048 29.9276 31.4813 29.772 31.5683Z" fill="#A75A00"/>
<path d="M38.1459 33.5893C37.982 35.7773 35.9914 37.4119 33.6996 37.2402C31.4079 37.0686 29.6829 35.1557 29.8468 32.9677C30.0107 30.7796 32.0014 29.145 34.2931 29.3167C36.5848 29.4883 38.3098 31.4012 38.1459 33.5893Z" fill="#FF9A24"/>
<path d="M22.5639 31.7841C22.4 33.9721 20.4093 35.6067 18.1176 35.4351C15.8259 35.2634 14.1009 33.3505 14.2648 31.1625C14.4287 28.9744 16.4193 27.3398 18.7111 27.5115C21.0028 27.6831 22.7278 29.596 22.5639 31.7841Z" fill="#FF9A24"/>
</g>
<path d="M26.2789 30.4869C26.2613 30.7221 26.0487 30.898 25.804 30.8796C25.5593 30.8613 25.3753 30.6558 25.3929 30.4205C25.4105 30.1853 25.6231 30.0095 25.8678 30.0278C26.1125 30.0461 26.2965 30.2517 26.2789 30.4869Z" fill="black"/>
<path d="M24.6683 28.4331C24.6348 28.8808 24.2109 29.214 23.7216 29.1774C23.2323 29.1407 22.8628 28.7481 22.8963 28.3004C22.9299 27.8526 23.3537 27.5194 23.8431 27.5561C24.3324 27.5927 24.7019 27.9854 24.6683 28.4331Z" fill="black"/>
<path fill-rule="evenodd" clip-rule="evenodd" d="M24.3222 27.2421C24.3979 27.3965 24.3233 27.5762 24.1557 27.6435C24.0646 27.6801 23.9248 27.7584 23.8217 27.8616C23.7194 27.964 23.6866 28.0545 23.7016 28.1366C23.732 28.3031 23.6096 28.4589 23.4282 28.4846C23.2469 28.5102 23.0751 28.3961 23.0447 28.2296C22.9834 27.8942 23.1498 27.6246 23.3276 27.4466C23.5046 27.2693 23.7258 27.1468 23.8816 27.0842C24.0493 27.017 24.2465 27.0876 24.3222 27.2421Z" fill="black"/>
<path d="M30.3715 29.2856C30.3379 29.7333 29.9141 30.0666 29.4247 30.0299C28.9354 29.9933 28.5659 29.6006 28.5995 29.1529C28.633 28.7052 29.0569 28.372 29.5462 28.4086C30.0355 28.4453 30.405 28.8379 30.3715 29.2856Z" fill="black"/>
<path fill-rule="evenodd" clip-rule="evenodd" d="M30.0253 28.0946C30.101 28.249 30.0264 28.4288 29.8588 28.496C29.7677 28.5326 29.6279 28.611 29.5249 28.7141C29.4225 28.8166 29.3897 28.907 29.4047 28.9892C29.4351 29.1556 29.3128 29.3114 29.1314 29.3371C28.95 29.3628 28.7783 29.2486 28.7478 29.0821C28.6865 28.7467 28.8529 28.4771 29.0307 28.2991C29.2078 28.1218 29.4289 27.9993 29.5848 27.9368C29.7524 27.8695 29.9496 27.9402 30.0253 28.0946Z" fill="black"/>
<path fill-rule="evenodd" clip-rule="evenodd" d="M23.6323 26.0604C23.3106 26.0787 23.0399 26.2154 22.8988 26.3274C22.7668 26.4321 22.5707 26.4135 22.461 26.2858C22.3512 26.1581 22.3692 25.9697 22.5013 25.8649C22.7281 25.6849 23.1203 25.4902 23.5913 25.4633C24.0765 25.4355 24.625 25.5877 25.1321 26.0748C25.254 26.1919 25.2548 26.3813 25.1338 26.4978C25.0129 26.6142 24.8161 26.6137 24.6942 26.4966C24.3139 26.1314 23.9399 26.0428 23.6323 26.0604Z" fill="#905A09"/>
<path fill-rule="evenodd" clip-rule="evenodd" d="M29.9772 27.0234C29.6549 27.0254 29.3776 27.1481 29.231 27.2527C29.0938 27.3506 28.899 27.322 28.7959 27.1889C28.6927 27.0557 28.7204 26.8684 28.8576 26.7706C29.0933 26.6024 29.4949 26.4279 29.9667 26.425C30.4526 26.4221 30.9927 26.602 31.4742 27.1143C31.59 27.2375 31.5811 27.4266 31.4544 27.5368C31.3277 27.647 31.1312 27.6364 31.0154 27.5133C30.6543 27.1291 30.2853 27.0215 29.9772 27.0234Z" fill="#905A09"/>
<path d="M25.2718 16.024C28.2116 17.5683 30.7144 14.3798 35.7678 19.0817C37.2899 19.079 35.3713 15.3916 38.101 17.904C40.1049 19.7483 38.1102 19.9766 37.1986 19.6772C40.6226 22.4921 41.0895 31.0707 36.6896 29.8397C31.3525 28.3466 33.4866 21.0008 31.885 22.5543C30.2834 24.1079 19.9074 28.0934 17.7073 26.9364C16.1585 26.122 16.4149 23.9286 18.1085 23.5033C17.9345 23.2575 16.8131 23.2983 16.6712 21.7352C16.5293 20.1722 20.4492 17.9438 22.0579 17.4866C22.2474 15.8654 22.1629 14.3907 25.2718 16.024Z" fill="black"/>
<path d="M21.5465 37.2188C21.5674 36.4019 22.2722 35.7716 23.0863 35.8416L28.4124 36.3001L33.9202 36.1152C34.7297 36.088 35.3951 36.748 35.3744 37.5578C35.3583 38.1919 34.9199 38.7369 34.3039 38.8886L29.8826 39.9772C28.7318 40.2606 27.5249 40.2178 26.3971 39.8537L22.5288 38.6049C21.9303 38.4117 21.5305 37.8475 21.5465 37.2188Z" fill="#D7D7D7"/>
<path d="M23.5017 43.6118C23.5498 42.3978 24.5731 41.4526 25.7871 41.5008L31.9423 41.745C33.1564 41.7931 34.1015 42.8164 34.0534 44.0304L33.8964 47.9873C33.8482 49.2014 32.825 50.1465 31.6109 50.0984L25.4558 49.8542C24.2417 49.806 23.2965 48.7828 23.3447 47.5687L23.5017 43.6118Z" fill="#D7D7D7"/>
<path d="M24.741 45.5327C24.7627 44.9863 25.2232 44.561 25.7695 44.5827L27.5281 44.6525C28.0744 44.6741 28.4998 45.1346 28.4781 45.6809C28.4564 46.2273 27.996 46.6526 27.4496 46.6309L25.691 46.5611C25.1447 46.5395 24.7194 46.079 24.741 45.5327Z" fill="#BBBBBB"/>
<path d="M24.741 45.5327C24.7627 44.9863 25.2232 44.561 25.7695 44.5827C26.3158 44.6044 26.7411 45.0648 26.7195 45.6112C26.6978 46.1575 26.2373 46.5828 25.691 46.5611C25.1447 46.5395 24.7194 46.079 24.741 45.5327Z" fill="#7E7E7E"/>
<path fill-rule="evenodd" clip-rule="evenodd" d="M30.5499 41.8113C30.6666 41.7775 30.7886 41.8447 30.8224 41.9614C30.8389 42.0183 30.845 42.0963 30.8484 42.1677C30.8521 42.247 30.8534 42.3456 30.8528 42.4581C30.8516 42.6837 30.8427 42.9745 30.8293 43.2971C30.8023 43.9429 30.7565 44.7242 30.7141 45.3832C30.6853 45.8325 30.4836 46.2518 30.1537 46.5566L29.7007 46.9749C29.4436 47.2125 29.2913 47.5425 29.2774 47.8923L29.2068 49.673C29.2019 49.7944 29.0996 49.8889 28.9782 49.8841C28.8568 49.8793 28.7623 49.7769 28.7671 49.6555L28.8378 47.8748C28.8563 47.4084 29.0593 46.9684 29.4022 46.6517L29.8551 46.2333C30.1029 46.0045 30.2535 45.6905 30.275 45.355C30.3173 44.6972 30.3629 43.9197 30.3896 43.2788C30.403 42.958 30.4116 42.6734 30.4128 42.4557C30.4134 42.3467 30.4121 42.2568 30.4089 42.1886C30.4073 42.1544 30.4052 42.1277 30.403 42.1078C30.401 42.0899 30.3994 42.0828 30.3995 42.0828C30.3995 42.0828 30.3996 42.0831 30.3998 42.0839C30.366 41.9672 30.4332 41.8451 30.5499 41.8113Z" fill="#B1B1B1"/>
<ellipse cx="28.0704" cy="27.8203" rx="11.478" ry="8.8478" transform="rotate(2.19926 28.0704 27.8203)" fill="white" fill-opacity="0.4"/>
<path fill-rule="evenodd" clip-rule="evenodd" d="M25.9675 22.2309C25.9965 22.5333 25.7748 22.8019 25.4725 22.8309C24.5829 22.9161 23.5022 23.3046 22.5593 23.8174C22.092 24.0716 21.6725 24.3489 21.3392 24.6208C20.9984 24.8988 20.7787 25.1461 20.6743 25.3328C20.526 25.5979 20.1909 25.6926 19.9258 25.5443C19.6607 25.396 19.566 25.0609 19.7143 24.7958C19.916 24.4352 20.2559 24.0848 20.6439 23.7684C21.0394 23.4458 21.5179 23.1317 22.0337 22.8511C23.0571 22.2944 24.2832 21.8398 25.3676 21.7359C25.6699 21.7069 25.9385 21.9285 25.9675 22.2309Z" fill="white"/>
<rect x="17.9404" y="31.9863" width="3.56369" height="8.36" rx="1.78185" transform="rotate(177.576 17.9404 31.9863)" fill="#E5E5E5"/>
<path fill-rule="evenodd" clip-rule="evenodd" d="M28.5291 38.382C35.9777 38.668 42.2275 33.3909 42.4885 26.5953C42.7495 19.7997 36.9228 14.0589 29.4742 13.7728C22.0256 13.4868 15.7757 18.7638 15.5148 25.5594C15.2538 32.3551 21.0805 38.0959 28.5291 38.382ZM20.2567 23.1712C23.882 20.7141 29.8553 19.0388 36.531 23.881C38.1266 25.0383 38.8705 26.9996 38.7948 28.9693C38.7142 31.0684 37.7084 33.0722 35.8869 34.1185C31.9903 36.3568 26.5143 38.0208 20.4257 33.7307C18.6141 32.4542 17.809 30.2283 17.8941 28.0138C17.967 26.1142 18.6831 24.2378 20.2567 23.1712Z" fill="#FAFAFA"/>
<path d="M18.6741 26.1594C18.7327 25.9236 18.9714 25.78 19.2073 25.8386L19.4208 25.8917C19.6566 25.9504 19.8002 26.1891 19.7415 26.4249L19.6884 26.6384C19.6298 26.8742 19.3911 27.0179 19.1553 26.9592L18.9418 26.9061C18.7059 26.8474 18.5623 26.6087 18.621 26.3729L18.6741 26.1594Z" fill="white"/>
<path fill-rule="evenodd" clip-rule="evenodd" d="M42.8404 19.3888C42.3707 19.2625 42.0107 18.85 41.9748 18.3375C41.9294 17.6911 42.4167 17.1303 43.0632 17.085C43.7096 17.0396 44.2704 17.5269 44.3157 18.1733C44.3598 18.8023 43.8996 19.3502 43.2792 19.4211L42.8541 25.1443L42.4153 25.1117L42.8404 19.3888Z" fill="#ACACAC"/>
<rect x="37.6826" y="23.5188" width="5.94" height="9.46" rx="2.97" transform="rotate(2.19926 37.6826 23.5188)" fill="#E5E5E5"/>
<rect x="38.7959" y="23.5596" width="4.84" height="8.36" rx="2.42" transform="rotate(2.19926 38.7959 23.5596)" fill="#FAFAFA"/>
<path d="M4.86813 26.9395C7.29256 26.9841 8.5373 30.0231 6.86737 30.33C5.19743 30.6369 8.15032 26.0096 9.95977 30.2518" stroke="#5991FF" stroke-width="0.88" stroke-linecap="round"/>
<path fill-rule="evenodd" clip-rule="evenodd" d="M10.0721 27.2567C9.86571 27.1284 9.80253 26.8572 9.93099 26.6509L10.1911 26.2333C10.381 25.9282 10.2871 25.5271 9.98145 25.3382C9.33625 24.9393 9.08127 24.1281 9.38228 23.4319L9.6177 22.8874C9.71413 22.6644 9.97321 22.5616 10.1964 22.6579C10.4195 22.7542 10.5222 23.013 10.4258 23.2361L10.1904 23.7805C10.0626 24.0762 10.1708 24.4207 10.4448 24.5901C11.1646 25.035 11.3858 25.9795 10.9385 26.6978L10.6784 27.1155C10.5499 27.3218 10.2785 27.385 10.0721 27.2567Z" fill="#F97F7F"/>
<rect x="3.57324" y="20.4185" width="1.11485" height="2.07044" rx="0.557425" transform="rotate(25.979 3.57324 20.4185)" fill="#5991FF"/>
<rect x="11.9443" y="28.5879" width="0.671028" height="1.2462" rx="0.335514" transform="rotate(101.402 11.9443 28.5879)" fill="#FFC266"/>
<rect x="8.63574" y="20.8589" width="0.671028" height="1.2462" rx="0.335514" transform="rotate(10.8393 8.63574 20.8589)" fill="#FFC266"/>
<rect x="2.44824" y="25.2939" width="0.671028" height="1.2462" rx="0.335514" transform="rotate(-44.5764 2.44824 25.2939)" fill="#F97F7F"/>
<path fill-rule="evenodd" clip-rule="evenodd" d="M6.31911 38.5661C6.30404 39.0906 6.67092 39.5374 7.16773 39.6396C6.98751 39.8242 6.87349 40.0744 6.8655 40.3526C6.85175 40.8313 7.15611 41.2453 7.58704 41.3916C7.45262 41.5641 7.36997 41.7795 7.36321 42.0148C7.34633 42.6027 7.80917 43.0929 8.397 43.1098L11.6122 43.2021C11.7412 43.2058 11.8655 43.1864 11.9812 43.1476C14.022 43.1459 15.7045 41.5209 15.7635 39.4671C15.7903 38.5331 15.5675 37.7015 15.1098 37.0557C14.3656 36.0056 13.3119 35.0392 13.1426 33.7633L13.1069 33.4941L-nan -nanL13.1069 33.4941C12.9398 32.856 12.657 32.1096 12.0032 32.0216C11.7457 31.9869 11.495 32.0674 11.295 32.3135C10.865 32.8426 11.0589 33.9664 11.295 34.6748C11.5312 35.3832 9.53553 35.4723 9.53553 35.4723L7.68786 35.4192C7.09095 35.402 6.59316 35.872 6.57602 36.4689C6.56176 36.9652 6.88416 37.3929 7.33626 37.5329C6.78356 37.5569 6.33524 38.0044 6.31911 38.5661Z" fill="#FAFAFA"/>
<path fill-rule="evenodd" clip-rule="evenodd" d="M7.26366 37.6548C7.266 37.5734 7.33388 37.5093 7.41528 37.5117L9.9437 37.5843C10.075 37.5881 10.2306 37.6121 10.3626 37.7068C10.5052 37.8092 10.6553 37.9697 10.7277 38.1908C10.8014 38.4161 10.7888 38.6869 10.6341 38.9935C10.5974 39.0662 10.5087 39.0954 10.436 39.0587C10.3633 39.022 10.3341 38.9333 10.3708 38.8606C10.4949 38.6147 10.4939 38.4247 10.4474 38.2826C10.3995 38.1363 10.2973 38.0229 10.1907 37.9464C10.1286 37.9019 10.0428 37.8821 9.93524 37.8791L7.40681 37.8064C7.32541 37.8041 7.26132 37.7362 7.26366 37.6548Z" fill="#E5E5E5"/>
<path fill-rule="evenodd" clip-rule="evenodd" d="M8.13868 35.6288C8.14102 35.5474 8.2089 35.4834 8.2903 35.4857L10.5629 35.551C10.7048 35.555 10.8776 35.5829 11.0151 35.6986C11.1425 35.8059 11.2697 35.967 11.3278 36.1826C11.3866 36.4005 11.3712 36.6605 11.2349 36.9558C11.2008 37.0297 11.1132 37.062 11.0392 37.0278C10.9653 36.9937 10.933 36.9061 10.9672 36.8322C11.0781 36.5919 11.0818 36.4028 11.0431 36.2594C11.0038 36.1137 10.9168 36.0013 10.8252 35.9242C10.7637 35.8725 10.6723 35.8491 10.5544 35.8457L8.28183 35.7805C8.20044 35.7781 8.13635 35.7102 8.13868 35.6288Z" fill="#E5E5E5"/>
<path fill-rule="evenodd" clip-rule="evenodd" d="M7.98524 41.3706C7.98758 41.2892 8.05546 41.2251 8.13685 41.2275L10.2407 41.2879C10.3999 41.2925 10.5751 41.3252 10.7264 41.4257C10.8927 41.536 11.0591 41.6944 11.1345 41.9102C11.2124 42.1335 11.1836 42.3906 11.0109 42.6725C10.9683 42.742 10.8776 42.7638 10.8081 42.7212C10.7387 42.6787 10.7169 42.5879 10.7594 42.5185C10.8956 42.2962 10.8992 42.131 10.8561 42.0075C10.8103 41.8765 10.7021 41.7635 10.5633 41.6713C10.4748 41.6126 10.3609 41.5864 10.2323 41.5827L8.12839 41.5222C8.04699 41.5199 7.9829 41.452 7.98524 41.3706Z" fill="#E5E5E5"/>
<path fill-rule="evenodd" clip-rule="evenodd" d="M11.307 36.6391C11.3703 36.5879 11.4631 36.5977 11.5144 36.661L12.333 37.6728L12.3314 37.7273C12.3225 38.037 12.3899 38.5155 12.6178 38.933C12.8425 39.3447 13.2208 39.6948 13.8455 39.776C13.9262 39.7865 13.9832 39.8605 13.9727 39.9413C13.9622 40.022 13.8882 40.079 13.8074 40.0685C13.0728 39.9729 12.6203 39.5531 12.359 39.0743C12.1141 38.6256 12.0347 38.1233 12.0358 37.7743L11.2851 36.8464C11.2339 36.7831 11.2437 36.6903 11.307 36.6391Z" fill="#E5E5E5"/>
<path fill-rule="evenodd" clip-rule="evenodd" d="M7.35129 39.5458C7.35363 39.4644 7.42151 39.4003 7.50291 39.4026L10.2117 39.4804C10.3546 39.4845 10.5144 39.5137 10.6523 39.6072C10.8087 39.7132 10.9819 39.8767 11.0591 40.0917C11.141 40.3197 11.1053 40.5789 10.8905 40.84C10.8388 40.9029 10.7459 40.9119 10.683 40.8602C10.6201 40.8085 10.611 40.7156 10.6628 40.6527C10.8197 40.4619 10.8242 40.3101 10.7815 40.1913C10.7342 40.0595 10.6181 39.9403 10.4868 39.8513C10.413 39.8012 10.3161 39.7784 10.2032 39.7752L7.49444 39.6974C7.41305 39.695 7.34896 39.6272 7.35129 39.5458Z" fill="#E5E5E5"/>
<path fill-rule="evenodd" clip-rule="evenodd" d="M51.7904 31.5515C52.1439 31.962 52.0993 32.5832 51.6908 32.939L51.167 33.3952C51.5271 33.2822 51.9355 33.3851 52.1981 33.6899C52.5516 34.1004 52.507 34.7216 52.0985 35.0774L50.9987 36.0354C51.0788 36.0859 51.1529 36.1491 51.218 36.2247C51.5715 36.6352 51.5269 37.2564 51.1184 37.6122L48.884 39.5583C48.7944 39.6364 48.6947 39.6952 48.5899 39.7351C47.1365 40.9274 44.995 40.7492 43.7598 39.315C42.6884 38.071 42.6445 36.283 43.5531 34.9977L43.7039 32.4766C43.7415 31.8478 44.2693 31.4409 44.8828 31.5679C45.442 31.6836 45.8794 32.203 45.9239 32.7703L48.3052 30.6963C48.72 30.3349 49.3473 30.3799 49.7063 30.7968C50.0026 31.1408 50.0235 31.6306 49.7885 31.9943L50.4106 31.4525C50.8191 31.0967 51.4368 31.141 51.7904 31.5515Z" fill="#FAFAFA"/>
<path fill-rule="evenodd" clip-rule="evenodd" d="M50.3981 36.1194C50.3491 36.0626 50.2635 36.0564 50.2069 36.1057L48.7438 37.3799C48.6331 37.4763 48.5274 37.6022 48.478 37.7626C48.4238 37.9389 48.3974 38.1496 48.4692 38.3481C48.5435 38.5535 48.7135 38.7206 49.0004 38.8213C49.0711 38.8461 49.1484 38.8085 49.1731 38.7375C49.1978 38.6664 49.1606 38.5887 49.0899 38.5639C48.8637 38.4845 48.7651 38.3684 48.724 38.2548C48.6804 38.1343 48.6917 37.9901 48.737 37.843C48.7659 37.7491 48.8318 37.6638 48.9212 37.5859L50.3843 36.3117C50.4409 36.2624 50.4471 36.1763 50.3981 36.1194Z" fill="#E5E5E5"/>
<path fill-rule="evenodd" clip-rule="evenodd" d="M45.7102 33.7981C45.6355 33.7985 45.5751 33.8597 45.5754 33.9349L45.5807 35.1366L45.6135 35.1747C45.7997 35.3909 46.0296 35.7722 46.1099 36.2039C46.1892 36.6295 46.1234 37.1008 45.7262 37.524C45.6749 37.5787 45.6774 37.6649 45.7317 37.7164C45.7861 37.768 45.8718 37.7655 45.9231 37.7108C46.3902 37.2131 46.4683 36.6486 46.3761 36.1536C46.2898 35.6897 46.0544 35.2843 45.851 35.0355L45.8462 33.9335C45.8459 33.8583 45.785 33.7977 45.7102 33.7981Z" fill="#E5E5E5"/>
<path fill-rule="evenodd" clip-rule="evenodd" d="M50.451 33.8338C50.4936 33.8827 50.4884 33.9569 50.4394 33.9995L48.7845 35.4373C48.7355 35.4798 48.6614 35.4746 48.6188 35.4256C48.5763 35.3767 48.5815 35.3025 48.6304 35.26L50.2854 33.8221C50.3343 33.7796 50.4085 33.7848 50.451 33.8338Z" fill="#E5E5E5"/>
<path fill-rule="evenodd" clip-rule="evenodd" d="M49.2831 32.5559C49.3256 32.6049 49.3204 32.6791 49.2714 32.7216L47.2619 34.4675C47.2129 34.5101 47.1388 34.5049 47.0962 34.4559C47.0537 34.407 47.0589 34.3328 47.1078 34.2902L49.1174 32.5443C49.1664 32.5018 49.2405 32.507 49.2831 32.5559Z" fill="#E5E5E5"/>
<path fill-rule="evenodd" clip-rule="evenodd" d="M47.7281 34.8297C47.1438 34.422 46.4987 34.1965 46.0871 34.1144C46.0235 34.1017 45.9822 34.0399 45.9949 33.9763C46.0076 33.9127 46.0694 33.8714 46.1331 33.884C46.5724 33.9716 47.2485 34.2086 47.8625 34.6371C48.4773 35.0661 49.0387 35.6938 49.2265 36.5639C49.2402 36.6273 49.1999 36.6898 49.1365 36.7035C49.0731 36.7172 49.0106 36.6769 48.9969 36.6135C48.8255 35.8192 48.3116 35.237 47.7281 34.8297Z" fill="#E5E5E5"/>
</svg>
