<svg width="54" height="54" viewBox="0 0 54 54" fill="none" xmlns="http://www.w3.org/2000/svg">
<mask id="mask0_989_94560" style="mask-type:alpha" maskUnits="userSpaceOnUse" x="0" y="0" width="54" height="54">
<circle cx="26.8567" cy="26.8567" r="26.8567" fill="#D9D9D9"/>
</mask>
<g mask="url(#mask0_989_94560)">
<circle cx="26.8567" cy="26.8567" r="26.8567" fill="#D9D9D9"/>
<path d="M19.4319 44.2758C19.6485 43.7481 19.539 43.2004 19.1875 43.0524L15.3684 41.4447C15.0169 41.2967 14.5564 41.6045 14.3399 42.1322L11.4389 49.2026C10.5729 51.3134 11.3459 52.6872 12.7521 53.2792C14.1582 53.8711 15.6649 53.457 16.5309 51.3463L19.4319 44.2758Z" fill="#FFAE4E"/>
<path d="M33.7235 43.4468C33.4059 42.8956 33.4149 42.2919 33.7437 42.0985L37.3151 39.9973C37.6438 39.8039 38.1678 40.094 38.4853 40.6452L42.7407 48.0311C44.0111 50.236 43.4832 51.7971 42.1682 52.5707C40.8533 53.3444 39.2492 53.0376 37.9789 50.8327L33.7235 43.4468Z" fill="#FFAE4E"/>
<path d="M19.3778 48.4995C19.0613 48.9302 18.4185 48.99 17.9421 48.6332L12.7667 44.7566C12.2903 44.3997 12.1607 43.7613 12.4772 43.3307L16.7178 37.5604C17.9838 35.8377 20.5548 35.5983 22.4604 37.0257C24.3659 38.453 24.8844 41.0066 23.6184 42.7292L19.3778 48.4995Z" fill="#4C8BFF"/>
<path d="M34.7589 48.3709C35.1186 48.765 35.7688 48.7605 36.2112 48.3609L41.0177 44.0196C41.4601 43.62 41.5272 42.9766 41.1675 42.5825L36.3481 37.3019C34.9094 35.7255 32.3084 35.7433 30.5387 37.3417C28.769 38.9401 28.5007 41.5138 29.9395 43.0903L34.7589 48.3709Z" fill="#4C8BFF"/>
<path d="M17.375 41.6887C17.375 38.1563 19.2306 35.8813 22.3892 35.8813H31.1586C34.3172 35.8813 36.1728 38.1563 36.1728 41.6887L35.4221 52.0573C35.3758 52.6973 34.8167 53.2301 34.0628 53.3525C29.3254 54.1221 24.4388 54.1195 19.7015 53.3499C18.956 53.2288 18.3963 52.7067 18.3377 52.0745L17.375 41.6887Z" fill="#4C8BFF"/>
<path d="M23.1406 33.3792C23.1406 31.8805 24.1313 30.6655 25.3534 30.6655H28.4512C29.6733 30.6655 30.664 31.8805 30.664 33.3792V36.0928C30.664 37.5915 29.6733 38.8065 28.4512 38.8065H25.3534C24.1313 38.8065 23.1406 37.5915 23.1406 36.0928V33.3792Z" fill="#FFAB48"/>
<path d="M22.4982 28.3838C22.4982 30.8492 20.4996 32.8478 18.0342 32.8478C15.5689 32.8478 13.5703 30.8492 13.5703 28.3838C13.5703 25.9185 15.5689 23.9199 18.0342 23.9199C20.4996 23.9199 22.4982 25.9185 22.4982 28.3838Z" fill="#FF9C27"/>
<path d="M40.42 28.4667C40.42 30.932 38.4215 32.9306 35.9561 32.9306C33.4908 32.9306 31.4922 30.932 31.4922 28.4667C31.4922 26.0013 33.4908 24.0027 35.9561 24.0027C38.4215 24.0027 40.42 26.0013 40.42 28.4667Z" fill="#FF9C27"/>
<path d="M38.0768 25.8773C38.0768 31.5655 33.0464 36.1767 26.8411 36.1767C20.6358 36.1767 15.6055 31.5655 15.6055 25.8773C15.6055 20.1891 20.6358 15.5779 26.8411 15.5779C33.0464 15.5779 38.0768 20.1891 38.0768 25.8773Z" fill="#FFBA68"/>
<mask id="mask1_989_94560" style="mask-type:alpha" maskUnits="userSpaceOnUse" x="15" y="15" width="24" height="22">
<path d="M38.0651 25.8753C38.0651 31.5635 33.0347 36.1747 26.8294 36.1747C20.6241 36.1747 15.5938 31.5635 15.5938 25.8753C15.5938 20.1872 20.6241 15.576 26.8294 15.576C33.0347 15.576 38.0651 20.1872 38.0651 25.8753Z" fill="#FFAB49"/>
</mask>
<g mask="url(#mask1_989_94560)">
<path d="M22.9663 31.1664C22.9663 33.5716 21.0029 35.5214 18.5808 35.5214C16.1588 35.5214 14.1953 33.5716 14.1953 31.1664C14.1953 28.7612 16.1588 26.8113 18.5808 26.8113C21.0029 26.8113 22.9663 28.7612 22.9663 31.1664Z" fill="#FF9A24"/>
<path d="M39.314 31.1664C39.314 33.5716 37.3505 35.5214 34.9285 35.5214C32.5064 35.5214 30.543 33.5716 30.543 31.1664C30.543 28.7612 32.5064 26.8113 34.9285 26.8113C37.3505 26.8113 39.314 28.7612 39.314 31.1664Z" fill="#FF9A24"/>
</g>
<path d="M27.3075 29.1526C27.3075 29.4112 27.0979 29.6208 26.8393 29.6208C26.5807 29.6208 26.3711 29.4112 26.3711 29.1526C26.3711 28.894 26.5807 28.6844 26.8393 28.6844C27.0979 28.6844 27.3075 28.894 27.3075 29.1526Z" fill="black"/>
<path d="M25.4243 31.6737C25.3093 31.5697 25.2095 31.4546 25.1262 31.3311C24.8153 30.87 25.2687 30.3759 25.8105 30.3759L27.9096 30.3759C28.4513 30.3759 28.9047 30.87 28.5938 31.3311C28.5106 31.4546 28.4108 31.5697 28.2958 31.6737C27.915 32.0179 27.3985 32.2112 26.86 32.2112C26.3215 32.2112 25.8051 32.0179 25.4243 31.6737Z" fill="#E16037"/>
<path fill-rule="evenodd" clip-rule="evenodd" d="M23.1355 24.8125C22.7993 24.8627 22.5274 25.0372 22.3893 25.1728C22.2601 25.2995 22.0526 25.2975 21.9258 25.1683C21.7991 25.0391 21.801 24.8316 21.9303 24.7048C22.1523 24.4871 22.5466 24.2377 23.0388 24.1642C23.5457 24.0885 24.1354 24.2034 24.7116 24.688C24.8502 24.8044 24.8681 25.0112 24.7516 25.1497C24.6351 25.2883 24.4283 25.3061 24.2898 25.1896C23.8577 24.8263 23.4569 24.7645 23.1355 24.8125Z" fill="#905A09"/>
<path fill-rule="evenodd" clip-rule="evenodd" d="M30.298 27.2748C30.5851 27.2369 30.8192 27.0922 30.9388 26.9788C31.0507 26.8727 31.2274 26.8774 31.3335 26.9893C31.4396 27.1012 31.4349 27.2779 31.323 27.384C31.1307 27.5663 30.7912 27.7729 30.371 27.8283C29.9381 27.8854 29.4375 27.779 28.9538 27.3579C28.8375 27.2566 28.8253 27.0803 28.9265 26.964C29.0277 26.8477 29.2041 26.8355 29.3204 26.9367C29.6831 27.2525 30.0235 27.311 30.298 27.2748Z" fill="black"/>
<path fill-rule="evenodd" clip-rule="evenodd" d="M30.159 24.8125C29.8228 24.8627 29.5509 25.0372 29.4127 25.1728C29.2835 25.2995 29.076 25.2975 28.9492 25.1683C28.8225 25.0391 28.8245 24.8316 28.9537 24.7048C29.1757 24.4871 29.57 24.2377 30.0622 24.1642C30.5691 24.0885 31.1588 24.2034 31.7351 24.688C31.8736 24.8044 31.8915 25.0112 31.775 25.1497C31.6585 25.2883 31.4518 25.3061 31.3132 25.1896C30.8811 24.8263 30.4804 24.7645 30.159 24.8125Z" fill="#905A09"/>
<path fill-rule="evenodd" clip-rule="evenodd" d="M23.7511 27.2523C24.0382 27.2145 24.2723 27.0697 24.392 26.9563C24.5038 26.8503 24.6806 26.855 24.7866 26.9669C24.8927 27.0788 24.888 27.2555 24.7761 27.3616C24.5838 27.5438 24.2443 27.7505 23.8241 27.8059C23.3912 27.863 22.8907 27.7565 22.4069 27.3354C22.2906 27.2342 22.2784 27.0578 22.3796 26.9415C22.4809 26.8252 22.6572 26.813 22.7735 26.9143C23.1363 27.2301 23.4767 27.2885 23.7511 27.2523Z" fill="black"/>
<path d="M22.3399 12.5762C25.7176 13.9203 28.0234 10.03 34.0885 14.6294C35.7359 14.4283 34.0885 8.57778 36.5037 11.9278C38.4358 14.6078 36.7373 15.3252 35.7127 15.1091C39.7753 17.8107 42.081 26.5639 37.1625 25.7601C31.1962 24.785 33.4293 17.0068 31.8921 18.952C30.3549 20.8972 18.06 26.7674 15.532 25.7601C13.7524 25.051 13.7524 22.5655 15.532 21.8698C15.3125 21.6176 14.1038 21.8091 13.7524 20.08C13.401 18.351 17.3623 15.3498 19.0459 14.6294C19.0459 12.7923 18.7679 11.1546 22.3399 12.5762Z" fill="black"/>
<path fill-rule="evenodd" clip-rule="evenodd" d="M31.1385 35.9745C31.5464 36.2869 31.6239 36.8709 31.3114 37.2788L30.9884 37.7007C30.0054 38.9842 28.4809 39.7369 26.8643 39.7369C25.3088 39.7369 23.8352 39.0399 22.8486 37.8374L22.4104 37.3033C22.0844 36.9061 22.1422 36.3198 22.5395 35.9939C22.9367 35.668 23.523 35.7258 23.8489 36.123L24.2871 36.6571C24.9203 37.4288 25.866 37.8761 26.8643 37.8761C27.9018 37.8761 28.8802 37.3931 29.511 36.5694L29.8341 36.1475C30.1465 35.7395 30.7305 35.6621 31.1385 35.9745Z" fill="#337AFF"/>
<path fill-rule="evenodd" clip-rule="evenodd" d="M36.0065 40.3375C35.8808 40.3529 35.7913 40.4673 35.8067 40.5931C36.0501 42.5837 35.6741 44.8657 35.2006 47.1105C35.1744 47.2345 35.2537 47.3562 35.3777 47.3824C35.5016 47.4085 35.6233 47.3292 35.6495 47.2053C36.123 44.9606 36.5157 42.6114 36.2621 40.5374C36.2467 40.4116 36.1323 40.3221 36.0065 40.3375Z" fill="#337AFF"/>
<path d="M20.6798 51.1678C21.0832 50.9921 21.2893 50.565 21.1401 50.214L19.5199 46.4002C19.3707 46.0492 18.9228 45.9071 18.5195 46.0828L13.115 48.4372C11.5016 49.14 11.3019 50.576 11.8984 51.9802C12.495 53.3844 13.662 54.225 15.2754 53.5221L20.6798 51.1678Z" fill="#FFAE4E"/>
<path d="M34.6014 54.0654C34.1355 54.0525 33.7636 53.7329 33.7707 53.3515L33.8481 49.2086C33.8552 48.8272 34.2387 48.5286 34.7046 48.5415L40.9469 48.715C42.8104 48.7668 43.5766 50.0253 43.5481 51.5507C43.5196 53.0761 42.7072 54.2907 40.8437 54.2389L34.6014 54.0654Z" fill="#FFAE4E"/>
<path fill-rule="evenodd" clip-rule="evenodd" d="M26.6948 42.0261C27.0463 42.49 26.9567 43.1531 26.4948 43.5072L25.9025 43.9611C26.2962 43.8641 26.7271 44.0019 26.9882 44.3465C27.3397 44.8104 27.2501 45.4735 26.7881 45.8276L25.5444 46.7808C25.6269 46.8403 25.7021 46.9131 25.7668 46.9985C26.1183 47.4625 26.0287 48.1256 25.5668 48.4796L23.04 50.4161C22.9386 50.4938 22.8277 50.5502 22.7127 50.5859C21.0741 51.7666 18.7898 51.4315 17.5618 49.8107C16.4966 48.4046 16.5698 46.4844 17.6305 45.1674L17.9617 42.4742C18.0443 41.8025 18.6376 41.4017 19.2869 41.5791C19.8788 41.7408 20.3129 42.3272 20.3224 42.9385L23.0153 40.8746C23.4844 40.5151 24.154 40.6055 24.5109 41.0766C24.8055 41.4654 24.795 41.992 24.5186 42.3662L25.222 41.8271C25.6839 41.4731 26.3434 41.5622 26.6948 42.0261Z" fill="#FFBA68"/>
<path fill-rule="evenodd" clip-rule="evenodd" d="M26.5656 47.119C26.3578 47.6627 26.6291 48.2743 27.1716 48.4852L27.8672 48.7555C27.462 48.7725 27.0868 49.0252 26.9324 49.429C26.7246 49.9726 26.9958 50.5843 27.5383 50.7951L28.9989 51.3628C28.9363 51.4431 28.8845 51.5339 28.8462 51.6341C28.6383 52.1777 28.9096 52.7894 29.4521 53.0002L32.4194 54.1536C32.5384 54.1998 32.6606 54.223 32.7811 54.2251C34.6843 54.9009 36.784 53.9408 37.5101 52.0414C38.14 50.3937 37.5332 48.5704 36.1467 47.6023L35.0761 45.1089C34.8091 44.487 34.1274 44.2681 33.5536 44.6198C33.0304 44.9405 32.7775 45.6248 32.9392 46.2144L29.7769 44.9852C29.226 44.7711 28.6083 45.0451 28.3973 45.5971C28.2231 46.0528 28.3803 46.5554 28.7503 46.8375L27.9242 46.5164C27.3818 46.3056 26.7735 46.5754 26.5656 47.119Z" fill="#FFBA68"/>
<path d="M20.6051 28.9414L19.6875 30.012" stroke="#EC7F00" stroke-width="0.458824" stroke-linecap="round"/>
<path d="M32.2301 28.9414L31.3125 30.012" stroke="#EC7F00" stroke-width="0.458824" stroke-linecap="round"/>
<path d="M21.8317 29.0942L20.9141 30.1648" stroke="#EC7F00" stroke-width="0.458824" stroke-linecap="round"/>
<path d="M33.4528 29.0942L32.5352 30.1648" stroke="#EC7F00" stroke-width="0.458824" stroke-linecap="round"/>
<path d="M44.6421 22.6583C45.0492 22.3034 45.6502 22.6715 45.519 23.1955L45.4931 23.2992C45.4344 23.5335 45.5299 23.7749 45.7297 23.8973L45.8181 23.9514C46.2647 24.225 46.0883 24.9299 45.5606 24.9801L45.4561 24.9901C45.2202 25.0125 45.0207 25.1864 44.962 25.4207L44.9361 25.5244C44.8049 26.0483 44.0949 26.1159 43.9 25.623L43.8614 25.5254C43.7742 25.305 43.5554 25.171 43.3194 25.1935L43.2149 25.2034C42.6872 25.2536 42.4249 24.5905 42.8321 24.2356L42.9127 24.1654C43.0948 24.0067 43.159 23.75 43.0718 23.5296L43.0332 23.432C42.8382 22.9392 43.3861 22.4617 43.8327 22.7353L43.9211 22.7895C44.1209 22.9118 44.3794 22.8872 44.5615 22.7285L44.6421 22.6583Z" fill="#FFDA79"/>
<path d="M44.8841 24.5538C44.6873 24.8751 44.2672 24.976 43.9458 24.7792C43.6245 24.5823 43.5236 24.1623 43.7204 23.8409C43.9173 23.5196 44.3373 23.4187 44.6587 23.6155C44.98 23.8124 45.081 24.2324 44.8841 24.5538Z" fill="#FFAD33"/>
<path d="M11.1137 13.2202C11.3191 12.5663 12.2134 12.5663 12.4187 13.2202L12.4594 13.3496C12.5512 13.642 12.8147 13.84 13.1119 13.84H13.2435C13.9081 13.84 14.1845 14.7197 13.6468 15.1238L13.5403 15.2038C13.2998 15.3845 13.1992 15.7049 13.2911 15.9973L13.3317 16.1267C13.5371 16.7806 12.8136 17.3243 12.2759 16.9202L12.1695 16.8402C11.929 16.6595 11.6034 16.6595 11.3629 16.8402L11.2565 16.9202C10.7188 17.3243 9.99533 16.7806 10.2007 16.1267L10.2414 15.9973C10.3332 15.7049 10.2326 15.3845 9.99213 15.2038L9.8857 15.1238C9.34799 14.7197 9.62434 13.84 10.289 13.84H10.4205C10.7178 13.84 10.9812 13.642 11.0731 13.3496L11.1137 13.2202Z" fill="#FE8C8C"/>
<ellipse cx="11.7682" cy="15.1108" rx="0.865865" ry="0.865827" fill="#EF3434"/>
<path d="M39.0956 34.3835C39.1971 34.0601 39.6394 34.0601 39.741 34.3835L39.7611 34.4475C39.8066 34.5921 39.9369 34.69 40.0839 34.69H40.1489C40.4777 34.69 40.6143 35.1251 40.3484 35.325L40.2958 35.3646C40.1768 35.454 40.1271 35.6124 40.1725 35.757L40.1926 35.821C40.2942 36.1444 39.9363 36.4133 39.6704 36.2135L39.6178 36.1739C39.4988 36.0845 39.3378 36.0845 39.2188 36.1739L39.1662 36.2135C38.9002 36.4133 38.5424 36.1444 38.644 35.821L38.6641 35.757C38.7095 35.6124 38.6598 35.454 38.5408 35.3646L38.4882 35.325C38.2222 35.1251 38.3589 34.69 38.6876 34.69H38.7527C38.8997 34.69 39.03 34.5921 39.0755 34.4475L39.0956 34.3835Z" fill="#FE8C8C"/>
<ellipse cx="39.4165" cy="35.3187" rx="0.428254" ry="0.428235" fill="#EF3434"/>
</g>
</svg>
