<svg width="54" height="54" viewBox="0 0 54 54" fill="none" xmlns="http://www.w3.org/2000/svg">
<circle cx="26.8567" cy="26.8567" r="26.8567" fill="#D9D9D9"/>
<path d="M22.1724 45.2849C22.7243 45.0618 23.0577 44.5975 22.9171 44.2479L21.3889 40.4501C21.2482 40.1006 20.6868 39.9981 20.1349 40.2213L12.7399 43.2115C10.5323 44.1042 10.0533 45.6159 10.616 47.0142C11.1786 48.4125 12.5698 49.1679 14.7774 48.2752L22.1724 45.2849Z" fill="#FFAE4E"/>
<path d="M33.0196 41.825C32.8125 41.2669 32.9307 40.7077 33.2838 40.5759L37.1192 39.1449C37.4722 39.0132 37.9263 39.3588 38.1335 39.9169L40.9092 47.3951C41.7379 49.6276 40.944 51.0003 39.5319 51.5272C38.1197 52.0541 36.624 51.5357 35.7953 49.3032L33.0196 41.825Z" fill="#FFAE4E"/>
<path d="M20.4807 46.7281C20.1333 47.1253 19.4933 47.1328 19.0515 46.7448L14.2509 42.5303C13.809 42.1423 13.7324 41.5059 14.0799 41.1087L18.7358 35.7871C20.1257 34.1984 22.6853 34.1685 24.4529 35.7203C26.2204 37.272 26.5265 39.8179 25.1366 41.4065L20.4807 46.7281Z" fill="#4C8BFF"/>
<path d="M32.3848 46.6186C32.6663 47.0649 33.2973 47.1718 33.7941 46.8572L39.1914 43.4399C39.6882 43.1254 39.8627 42.5085 39.5811 42.0622L35.8089 36.0817C34.6827 34.2963 32.1589 33.8689 30.1717 35.1272C28.1844 36.3854 27.4864 38.8527 28.6125 40.6381L32.3848 46.6186Z" fill="#4C8BFF"/>
<path d="M18.082 41.6603C18.082 37.8621 18.9907 34.0557 22.2048 34.0557H31.1282C34.3423 34.0557 35.6697 36.5019 35.6697 40.3002L35.0397 51.4494C34.9926 52.1376 34.4236 52.7105 33.6565 52.8422C28.8359 53.6697 24.5821 53.6697 19.7615 52.8422C19.003 52.7119 18.1417 52.1291 18.082 51.4494V41.6603Z" fill="#4C8BFF"/>
<path d="M22.9453 31.5791C22.9453 30.1204 23.9036 28.938 25.0858 28.938H28.0825C29.2647 28.938 30.223 30.1204 30.223 31.5791V34.2201C30.223 35.6788 29.2647 36.8612 28.0825 36.8612H25.0858C23.9036 36.8612 22.9453 35.6788 22.9453 34.2201V31.5791Z" fill="#FFAB48"/>
<path d="M40.378 26.7943C40.378 29.1897 38.3582 31.1315 35.8667 31.1315C33.3752 31.1315 31.3555 29.1897 31.3555 26.7943C31.3555 24.3989 33.3752 22.457 35.8667 22.457C38.3582 22.457 40.378 24.3989 40.378 26.7943Z" fill="#FF9C27"/>
<path d="M23.9209 25.4375C23.9209 27.8329 21.9012 29.7747 19.4097 29.7747C16.9182 29.7747 14.8984 27.8329 14.8984 25.4375C14.8984 23.0421 16.9182 21.1002 19.4097 21.1002C21.9012 21.1002 23.9209 23.0421 23.9209 25.4375Z" fill="#ED8000"/>
<path d="M38.3267 24.3582C38.3267 29.885 33.2429 34.3653 26.9719 34.3653C20.7008 34.3653 15.0145 29.1235 17.6003 25.1686C15.6022 19.312 20.7008 14.3511 26.9719 14.3511C33.2429 14.3511 38.3267 18.8314 38.3267 24.3582Z" fill="#FFBA68"/>
<path d="M38.4079 24.3777C38.4079 29.932 33.2063 34.4346 26.7899 34.4346C20.3734 34.4346 14.5554 29.1668 17.201 25.1921C15.1567 19.3064 20.3734 14.3208 26.7899 14.3208C33.2063 14.3208 38.4079 18.8234 38.4079 24.3777Z" fill="#FFBA68"/>
<mask id="mask0_989_94922" style="mask-type:alpha" maskUnits="userSpaceOnUse" x="16" y="14" width="23" height="21">
<path d="M38.4079 24.3777C38.4079 29.932 33.2063 34.4346 26.7899 34.4346C20.3734 34.4346 14.5554 29.1668 17.201 25.1921C15.1567 19.3064 20.3734 14.3208 26.7899 14.3208C33.2063 14.3208 38.4079 18.8234 38.4079 24.3777Z" fill="#FFBA68"/>
</mask>
<g mask="url(#mask0_989_94922)">
<path d="M38.1023 29.6265C38.1023 31.9635 36.118 33.858 33.6703 33.858C31.2226 33.858 29.2383 31.9635 29.2383 29.6265C29.2383 27.2895 31.2226 25.395 33.6703 25.395C36.118 25.395 38.1023 27.2895 38.1023 29.6265Z" fill="#FF9A24"/>
<path d="M21.4148 28.9483C21.4148 31.2852 19.4305 33.1797 16.9828 33.1797C14.5351 33.1797 12.5508 31.2852 12.5508 28.9483C12.5508 26.6113 14.5351 24.7168 16.9828 24.7168C19.4305 24.7168 21.4148 26.6113 21.4148 28.9483Z" fill="#FF9A24"/>
</g>
<path d="M25.2471 27.2742C25.2471 27.5255 25.0353 27.7291 24.7739 27.7291C24.5126 27.7291 24.3008 27.5255 24.3008 27.2742C24.3008 27.023 24.5126 26.8193 24.7739 26.8193C25.0353 26.8193 25.2471 27.023 25.2471 27.2742Z" fill="black"/>
<path fill-rule="evenodd" clip-rule="evenodd" d="M22.7055 22.6507C23.0379 22.5652 23.2926 22.3666 23.417 22.2205C23.5334 22.0839 23.7421 22.0629 23.8831 22.1738C24.0241 22.2846 24.0441 22.4852 23.9277 22.6219C23.7278 22.8567 23.358 23.141 22.8714 23.2662C22.3702 23.3952 21.7656 23.3492 21.1354 22.9447C20.9839 22.8474 20.944 22.6497 21.0464 22.5031C21.1487 22.3564 21.3545 22.3164 21.506 22.4136C21.9786 22.717 22.3877 22.7325 22.7055 22.6507Z" fill="#905A09"/>
<path fill-rule="evenodd" clip-rule="evenodd" d="M29.5586 22.963C29.8969 23.0207 30.2105 22.9434 30.3837 22.8608C30.5457 22.7836 30.7448 22.8496 30.8283 23.0084C30.9117 23.1671 30.8481 23.3584 30.686 23.4357C30.4076 23.5684 29.954 23.677 29.4587 23.5926C28.9485 23.5056 28.4154 23.2168 28.0053 22.5903C27.9066 22.4396 27.951 22.2429 28.1043 22.1508C28.2576 22.0587 28.4618 22.1062 28.5604 22.2568C28.868 22.7267 29.2351 22.9079 29.5586 22.963Z" fill="#905A09"/>
<path d="M23.2012 11.5183C26.5557 12.9587 29.0463 9.27449 34.9786 13.9829C36.6504 13.8538 35.2311 8.108 37.53 11.4571C39.3692 14.1363 37.6242 14.7646 36.5986 14.5137C40.588 17.2994 41.7965 26.6149 36.8636 25.6372C30.8799 24.4513 32.6285 16.2645 30.9951 18.0911C29.3618 19.9178 18.2874 25.1234 15.7768 24.0441C14.0095 23.2843 14.1132 20.8714 15.9391 20.2673C15.7281 20.0137 14.4996 20.1511 14.2169 18.4585C13.9343 16.7658 18.0594 14.0112 19.7895 13.3794C19.8661 11.5959 19.6538 9.99494 23.2012 11.5183Z" fill="black"/>
<path fill-rule="evenodd" clip-rule="evenodd" d="M30.8971 34.2463C31.3015 34.556 31.3783 35.1349 31.0686 35.5393L30.7483 35.9576C29.7738 37.23 28.2625 37.9762 26.6599 37.9762C25.1179 37.9762 23.657 37.2851 22.6789 36.0931L22.2445 35.5636C21.9214 35.1698 21.9787 34.5886 22.3725 34.2655C22.7663 33.9424 23.3474 33.9997 23.6706 34.3935L24.105 34.9229C24.7327 35.688 25.6703 36.1315 26.6599 36.1315C27.6884 36.1315 28.6583 35.6526 29.2837 34.836L29.604 34.4178C29.9137 34.0133 30.4926 33.9365 30.8971 34.2463Z" fill="#337AFF"/>
<path fill-rule="evenodd" clip-rule="evenodd" d="M19.0748 38.547C19.1936 38.5876 19.257 38.7169 19.2163 38.8358C18.5728 40.7169 18.4705 43.0074 18.4705 45.2817C18.4705 45.4073 18.3687 45.5092 18.2431 45.5092C18.1174 45.5092 18.0156 45.4073 18.0156 45.2817C18.0156 43.0076 18.1155 40.6485 18.786 38.6885C18.8266 38.5697 18.9559 38.5063 19.0748 38.547Z" fill="#337AFF"/>
<path d="M31.4433 39.5199C31.9218 41.4925 31.9301 43.2791 34.3091 45.4247" stroke="#337AFF" stroke-width="1.5" stroke-linecap="round"/>
<path d="M12.6137 39.5433C12.8033 39.141 13.2336 38.9447 13.5747 39.1048L17.2805 40.8441C17.6216 41.0042 17.7444 41.4601 17.5548 41.8623L15.014 47.252C14.2555 48.861 12.8281 49.0234 11.4637 48.383C10.0992 47.7426 9.31438 46.542 10.0729 44.933L12.6137 39.5433Z" fill="#FFAE4E"/>
<path d="M22.8633 27.6476C22.8051 28.0572 22.422 28.3416 22.0074 28.2828C21.5929 28.2239 21.304 27.8441 21.3621 27.4345C21.4203 27.0248 21.9338 25.8221 22.3483 25.881C22.7629 25.9398 22.9214 27.2379 22.8633 27.6476Z" fill="white"/>
<path d="M29.0007 28.1518C29.0007 28.5656 28.6613 28.901 28.2426 28.901C27.8239 28.901 27.4845 28.5656 27.4845 28.1518C27.4845 27.7381 27.8239 26.4751 28.2426 26.4751C28.6613 26.4751 29.0007 27.7381 29.0007 28.1518Z" fill="white"/>
<circle cx="22.4833" cy="25.4139" r="1.06133" fill="black"/>
<circle cx="22.2361" cy="25.1686" r="0.489843" fill="white"/>
<circle cx="22.8075" cy="25.9036" r="0.244922" fill="white"/>
<circle cx="28.2488" cy="25.7171" r="1.06133" fill="black"/>
<circle cx="28.0055" cy="25.4718" r="0.489843" fill="white"/>
<circle cx="28.577" cy="26.2068" r="0.244922" fill="white"/>
<path d="M26.7956 28.8386C26.9092 28.9421 27.0077 29.0566 27.0899 29.1793C27.3965 29.6375 26.9453 30.1257 26.4082 30.1238L24.3273 30.1166C23.7902 30.1147 23.3424 29.6234 23.6523 29.1673C23.7352 29.0452 23.8346 28.9314 23.9489 28.8287C24.3276 28.4888 24.8402 28.2989 25.3741 28.3008C25.9079 28.3026 26.4193 28.4961 26.7956 28.8386Z" fill="#E16037"/>
<path fill-rule="evenodd" clip-rule="evenodd" d="M12.8995 36.6857L13.3395 34.982C13.4451 34.5733 13.7895 34.2308 14.2164 34.11C14.465 34.0397 14.7202 34.0511 14.9383 34.1424L15.0465 34.1876C15.0569 34.192 15.0672 34.1965 15.0774 34.2011L16.4175 32.8705C16.8292 32.4617 17.4943 32.4641 17.9031 32.8758C18.1511 33.1256 18.2477 33.4688 18.1934 33.7913C18.615 33.5638 19.1524 33.6542 19.4739 34.0347C19.7945 34.4141 19.7949 34.957 19.5028 35.3347C19.8458 35.2477 20.2247 35.3391 20.4921 35.6085C20.8199 35.9386 20.8792 36.4342 20.671 36.8243C20.8809 36.8572 21.0826 36.9549 21.2438 37.1173C21.6463 37.5227 21.6439 38.1777 21.2385 38.5802L19.021 40.7818C18.9321 40.8702 18.831 40.939 18.7233 40.9884C17.2756 42.3431 15.0034 42.3092 13.5971 40.8928C12.4639 39.7514 12.2324 38.0542 12.8995 36.6857Z" fill="#FFBA68"/>
<path fill-rule="evenodd" clip-rule="evenodd" d="M20.7019 37.0952C20.6914 37.0168 20.6193 36.9618 20.5409 36.9723C20.3921 36.9922 20.1536 37.0516 19.9043 37.1652C19.6551 37.2787 19.3856 37.4508 19.1854 37.7013C19.1361 37.7631 19.1461 37.8533 19.2079 37.9026C19.2698 37.952 19.3599 37.9419 19.4093 37.8801C19.5722 37.6761 19.7992 37.5279 20.0231 37.4259C20.247 37.3239 20.4582 37.2724 20.579 37.2562C20.6574 37.2457 20.7124 37.1736 20.7019 37.0952Z" fill="#FF9C27"/>
<path fill-rule="evenodd" clip-rule="evenodd" d="M19.569 35.4981C19.5503 35.4213 19.4728 35.3741 19.3959 35.3929C19.25 35.4284 19.0192 35.5128 18.7833 35.6521C18.5475 35.7914 18.2977 35.9909 18.1251 36.2613C18.0826 36.3279 18.1021 36.4165 18.1688 36.4591C18.2355 36.5016 18.3241 36.4821 18.3666 36.4154C18.5071 36.1953 18.7171 36.0239 18.929 35.8988C19.1408 35.7737 19.3454 35.7001 19.4638 35.6712C19.5406 35.6525 19.5877 35.575 19.569 35.4981Z" fill="#FF9C27"/>
<path fill-rule="evenodd" clip-rule="evenodd" d="M18.0135 34.1826C17.9895 34.1072 17.909 34.0655 17.8336 34.0894C17.6905 34.1349 17.4659 34.2348 17.2401 34.3899C17.0144 34.545 16.7788 34.7612 16.6252 35.0427C16.5873 35.1121 16.6129 35.1991 16.6823 35.237C16.7517 35.2749 16.8388 35.2494 16.8767 35.1799C17.0017 34.9507 17.1995 34.7654 17.4024 34.626C17.6051 34.4868 17.8042 34.3993 17.9203 34.3624C17.9957 34.3385 18.0374 34.258 18.0135 34.1826Z" fill="#FF9C27"/>
<path d="M32.0505 47.2523C31.7098 46.9665 31.6295 46.5005 31.8712 46.2114L34.4966 43.0705C34.7383 42.7814 35.2104 42.7787 35.5511 43.0645L40.1163 46.8938C41.4792 48.0369 41.2728 49.4586 40.3061 50.6151C39.3395 51.7715 37.9786 52.2248 36.6157 51.0816L32.0505 47.2523Z" fill="#FFAE4E"/>
<path fill-rule="evenodd" clip-rule="evenodd" d="M35.8455 42.6136L35.8247 40.8541C35.8197 40.4321 35.567 40.0173 35.1813 39.7982C34.9566 39.6705 34.706 39.6207 34.4725 39.6573L34.3566 39.6754C34.3455 39.6772 34.3344 39.6791 34.3234 39.6811L33.3395 38.0692C33.0372 37.574 32.3908 37.4176 31.8956 37.7199C31.5951 37.9033 31.4194 38.2134 31.3952 38.5396C31.04 38.2181 30.4966 38.1776 30.0935 38.4704C29.6917 38.7624 29.5617 39.2895 29.7554 39.726C29.4429 39.5596 29.0532 39.558 28.7292 39.7558C28.3321 39.9982 28.1563 40.4653 28.2654 40.8938C28.0537 40.8757 27.8345 40.9225 27.6393 41.0417C27.1516 41.3393 26.9976 41.9759 27.2953 42.4636L28.9234 45.1307C28.9887 45.2378 29.0704 45.3287 29.1632 45.4024C30.2458 47.0634 32.4604 47.5727 34.1641 46.5327C35.537 45.6947 36.1668 44.1018 35.8455 42.6136Z" fill="#FFBA68"/>
<path fill-rule="evenodd" clip-rule="evenodd" d="M28.1706 41.1489C28.1995 41.0753 28.2826 41.039 28.3562 41.0679C28.496 41.1228 28.7134 41.2374 28.9284 41.4072C29.1433 41.5769 29.364 41.8083 29.4986 42.0994C29.5318 42.1712 29.5005 42.2563 29.4287 42.2895C29.3569 42.3227 29.2718 42.2914 29.2386 42.2196C29.129 41.9826 28.944 41.7845 28.7508 41.632C28.5578 41.4796 28.365 41.3791 28.2516 41.3346C28.1779 41.3057 28.1417 41.2226 28.1706 41.1489Z" fill="#FF9C27"/>
<path fill-rule="evenodd" clip-rule="evenodd" d="M29.6534 39.869C29.6899 39.7988 29.7764 39.7715 29.8466 39.8081C29.9798 39.8774 30.1839 40.0144 30.3797 40.206C30.5754 40.3975 30.7704 40.6509 30.8735 40.9546C30.8989 41.0295 30.8588 41.1109 30.7838 41.1363C30.7089 41.1617 30.6276 41.1216 30.6022 41.0467C30.5183 40.7994 30.3552 40.5829 30.1793 40.4108C30.0035 40.2387 29.8224 40.1184 29.7143 40.0622C29.6441 40.0257 29.6169 39.9392 29.6534 39.869Z" fill="#FF9C27"/>
<path fill-rule="evenodd" clip-rule="evenodd" d="M31.4734 38.9617C31.5147 38.8942 31.6028 38.8729 31.6703 38.9141C31.7985 38.9924 31.9927 39.143 32.1749 39.3476C32.3571 39.552 32.5343 39.8182 32.6164 40.1282C32.6366 40.2047 32.591 40.2831 32.5145 40.3033C32.438 40.3236 32.3596 40.278 32.3394 40.2015C32.2726 39.949 32.1248 39.7219 31.961 39.5381C31.7974 39.3545 31.6249 39.2221 31.521 39.1586C31.4535 39.1173 31.4322 39.0292 31.4734 38.9617Z" fill="#FF9C27"/>
</svg>
