<svg width="54" height="54" viewBox="0 0 54 54" fill="none" xmlns="http://www.w3.org/2000/svg">
<circle cx="27" cy="27" r="27" fill="#D9D9D9"/>
<path d="M20.4946 31.6624C20.4946 35.1126 17.6976 37.9097 14.2473 37.9097C10.797 37.9097 8 35.1126 8 31.6624C8 28.2121 10.797 25.415 14.2473 25.415C17.6976 25.415 20.4946 28.2121 20.4946 31.6624Z" fill="#FF9C27"/>
<path d="M45.9985 31.6624C45.9985 35.1126 43.2015 37.9097 39.7512 37.9097C36.3009 37.9097 33.5039 35.1126 33.5039 31.6624C33.5039 28.2121 36.3009 25.415 39.7512 25.415C43.2015 25.415 45.9985 28.2121 45.9985 31.6624Z" fill="#FF9C27"/>
<path d="M42.7271 28.0397C42.7271 36.0006 35.6868 42.4541 27.0022 42.4541C18.3176 42.4541 11.2773 36.0006 11.2773 28.0397C11.2773 20.0788 18.3176 13.6252 27.0022 13.6252C35.6868 13.6252 42.7271 20.0788 42.7271 28.0397Z" fill="#FFBA68"/>
<mask id="mask0_989_94329" style="mask-type:alpha" maskUnits="userSpaceOnUse" x="11" y="13" width="32" height="30">
<path d="M42.7153 28.0365C42.7153 35.9974 35.6751 42.451 26.9905 42.451C18.3059 42.451 11.2656 35.9974 11.2656 28.0365C11.2656 20.0756 18.3059 13.6221 26.9905 13.6221C35.6751 13.6221 42.7153 20.0756 42.7153 28.0365Z" fill="#FFAB49"/>
</mask>
<g mask="url(#mask0_989_94329)">
<path d="M21.5681 35.4427C21.5681 38.8088 18.8202 41.5376 15.4305 41.5376C12.0408 41.5376 9.29297 38.8088 9.29297 35.4427C9.29297 32.0765 12.0408 29.3477 15.4305 29.3477C18.8202 29.3477 21.5681 32.0765 21.5681 35.4427Z" fill="#FF9A24"/>
<path d="M44.4353 35.4397C44.4353 38.8058 41.6874 41.5346 38.2977 41.5346C34.908 41.5346 32.1602 38.8058 32.1602 35.4397C32.1602 32.0735 34.908 29.3447 38.2977 29.3447C41.6874 29.3447 44.4353 32.0735 44.4353 35.4397Z" fill="#FF9A24"/>
</g>
<path d="M27.6626 32.6233C27.6626 32.9853 27.3691 33.2788 27.0071 33.2788C26.6451 33.2788 26.3516 32.9853 26.3516 32.6233C26.3516 32.2613 26.6451 31.9678 27.0071 31.9678C27.3691 31.9678 27.6626 32.2613 27.6626 32.6233Z" fill="black"/>
<path d="M23.7224 30.0651C23.7224 30.7538 23.1357 31.3121 22.412 31.3121C21.6883 31.3121 21.1016 30.7538 21.1016 30.0651C21.1016 29.3763 21.6883 28.818 22.412 28.818C23.1357 28.818 23.7224 29.3763 23.7224 30.0651Z" fill="black"/>
<path fill-rule="evenodd" clip-rule="evenodd" d="M23.0821 28.2828C23.2104 28.5104 23.1205 28.7938 22.8814 28.916C22.7514 28.9823 22.5544 29.1182 22.4143 29.2878C22.275 29.4563 22.2367 29.5984 22.2678 29.7223C22.3309 29.9735 22.1681 30.2258 21.9042 30.2859C21.6402 30.346 21.3751 30.191 21.312 29.9398C21.1848 29.4337 21.3999 29.0023 21.6418 28.7096C21.8827 28.4181 22.1944 28.2053 22.4167 28.0918C22.6559 27.9697 22.9538 28.0552 23.0821 28.2828Z" fill="black"/>
<path d="M32.8903 30.0651C32.8903 30.7538 32.3037 31.3121 31.5799 31.3121C30.8562 31.3121 30.2695 30.7538 30.2695 30.0651C30.2695 29.3763 30.8562 28.818 31.5799 28.818C32.3037 28.818 32.8903 29.3763 32.8903 30.0651Z" fill="black"/>
<path fill-rule="evenodd" clip-rule="evenodd" d="M32.25 28.2828C32.3784 28.5104 32.2885 28.7938 32.0494 28.916C31.9194 28.9823 31.7224 29.1182 31.5822 29.2878C31.443 29.4563 31.4047 29.5984 31.4358 29.7223C31.4989 29.9735 31.3361 30.2258 31.0721 30.2859C30.8082 30.346 30.543 30.191 30.4799 29.9398C30.3528 29.4337 30.5679 29.0023 30.8097 28.7096C31.0506 28.4181 31.3624 28.2053 31.5847 28.0918C31.8238 27.9697 32.1217 28.0552 32.25 28.2828Z" fill="black"/>
<path fill-rule="evenodd" clip-rule="evenodd" d="M23.3951 34.7745C25.7437 35.5062 28.2593 35.5062 30.608 34.7745C30.8602 34.6959 30.9935 34.4491 30.9058 34.2233C30.8181 33.9974 30.5425 33.878 30.2904 33.9566C28.1486 34.6238 25.8545 34.6238 23.7127 33.9566C23.4605 33.878 23.185 33.9974 23.0973 34.2233C23.0096 34.4491 23.1429 34.6959 23.3951 34.7745Z" fill="#A75A00"/>
<path fill-rule="evenodd" clip-rule="evenodd" d="M21.8124 26.5493C21.342 26.6196 20.9614 26.8639 20.7681 27.0535C20.5873 27.2309 20.2969 27.2281 20.1195 27.0473C19.9421 26.8665 19.9449 26.5761 20.1257 26.3987C20.4364 26.0939 20.9883 25.7449 21.677 25.6421C22.3864 25.5362 23.2117 25.697 24.0181 26.3751C24.212 26.5381 24.237 26.8274 24.074 27.0213C23.9109 27.2152 23.6216 27.2402 23.4278 27.0772C22.823 26.5687 22.2622 26.4822 21.8124 26.5493Z" fill="#905A09"/>
<path fill-rule="evenodd" clip-rule="evenodd" d="M31.6367 26.5493C31.1662 26.6196 30.7856 26.8639 30.5923 27.0535C30.4115 27.2309 30.1211 27.2281 29.9437 27.0473C29.7664 26.8665 29.7691 26.5761 29.95 26.3987C30.2606 26.0939 30.8125 25.7449 31.5012 25.6421C32.2107 25.5362 33.0359 25.697 33.8423 26.3751C34.0362 26.5381 34.0612 26.8274 33.8982 27.0213C33.7352 27.2152 33.4459 27.2402 33.252 27.0772C32.6472 26.5687 32.0864 26.4822 31.6367 26.5493Z" fill="#905A09"/>
<path d="M20.8874 14.1109C7.97774 12.9533 9.06655 24.5969 11.4149 28.0351L19.7322 25.9119L21.4597 20.5198C22.5905 27.0599 20.5057 26.4728 42.9647 28.0353C49.4581 11.0556 24.2113 7.52078 20.8874 14.1109Z" fill="black"/>
</svg>
