<svg width="24" height="21" viewBox="0 0 24 21" fill="none" xmlns="http://www.w3.org/2000/svg">
<path d="M19.6807 13.0738L19.814 12.9268C20.3803 12.303 20.7533 11.5282 20.8877 10.6966C21.0221 9.86488 20.9123 9.01205 20.5714 8.24161C20.2306 7.47116 19.6734 6.81622 18.9675 6.3563C18.2617 5.89639 17.4376 5.65126 16.5951 5.65065L19.6807 13.0738ZM19.6807 13.0738L19.8584 13.162M19.6807 13.0738L19.8584 13.162M19.8584 13.162C20.7532 13.6062 21.5483 14.2279 22.1952 14.9891C22.8422 15.7503 23.3276 16.6351 23.6218 17.5898L23.622 17.5906M19.8584 13.162L23.622 17.5906M23.622 17.5906C23.6735 17.7545 23.6808 17.9291 23.643 18.0966C23.6053 18.2642 23.5239 18.4188 23.407 18.5447C23.2902 18.6706 23.1422 18.7634 22.9779 18.8136C22.8136 18.8638 22.639 18.8697 22.4718 18.8306L22.4716 18.8306M23.622 17.5906L22.4716 18.8306M22.4716 18.8306C22.3044 18.7916 22.1504 18.7093 22.0251 18.592C21.8997 18.4746 21.8075 18.3264 21.7576 18.1621L21.7574 18.1613M22.4716 18.8306L21.7574 18.1613M21.7574 18.1613C21.4809 17.2669 20.977 16.4594 20.2951 15.818C19.6131 15.1766 18.7763 14.7231 17.8666 14.5019L17.8663 14.5018M21.7574 18.1613L17.8663 14.5018M17.8663 14.5018C17.6534 14.4504 17.464 14.3289 17.3287 14.1567C17.1933 13.9846 17.1198 13.7718 17.1201 13.5528V13.5526M17.8663 14.5018L17.1201 13.5526M17.1201 13.5526V13.0246V13.0246M17.1201 13.5526V13.0246M17.1201 13.0246C17.12 12.843 17.1706 12.6651 17.2661 12.5107M17.1201 13.0246L17.2661 12.5107M17.2661 12.5107C17.3616 12.3565 17.4983 12.2319 17.6607 12.151M17.2661 12.5107L17.6607 12.151M17.6607 12.151C18.1458 11.9107 18.5353 11.5133 18.7661 11.0236C18.9968 10.5339 19.0552 9.98053 18.9318 9.45343C18.8083 8.92632 18.5103 8.45644 18.0861 8.12009C17.6619 7.78373 17.1365 7.60068 16.5951 7.60065C16.3365 7.60065 16.0885 7.49792 15.9057 7.31508C15.7228 7.13223 15.6201 6.88423 15.6201 6.62565C15.6201 6.36706 15.7228 6.11907 15.9057 5.93622C16.0885 5.75339 16.3365 5.65068 16.595 5.65065L17.6607 12.151ZM3.24511 7.7508V7.75063C3.24501 6.9053 3.45503 6.0732 3.85628 5.32918C4.25753 4.58515 4.83744 3.95253 5.54383 3.48821C6.25022 3.0239 7.06095 2.74245 7.9031 2.66919C8.74525 2.59593 9.5924 2.73315 10.3684 3.0685C11.1443 3.40386 11.8248 3.92683 12.3485 4.59039C12.8722 5.25395 13.2227 6.03728 13.3686 6.86993C13.5145 7.70258 13.4511 8.55842 13.1842 9.3605C12.9172 10.1626 12.4551 10.8857 11.8393 11.4649L11.6808 11.6141L11.8766 11.7091C13.0501 12.2786 14.069 13.1226 14.8469 14.1697C15.6247 15.2167 16.1386 16.4358 16.345 17.7237C16.365 17.8502 16.36 17.9794 16.3301 18.1039C16.3002 18.2285 16.2461 18.3459 16.1708 18.4496C16.0955 18.5532 16.0006 18.641 15.8914 18.708C15.7822 18.7749 15.6609 18.8197 15.5344 18.8397C15.4079 18.8598 15.2786 18.8548 15.1541 18.8249L15.1191 18.9707L15.1541 18.8249C15.0295 18.795 14.9121 18.7409 14.8084 18.6656C14.7048 18.5903 14.617 18.4954 14.55 18.3862C14.4831 18.277 14.4383 18.1557 14.4183 18.0292L14.4182 18.029C14.1876 16.5842 13.4495 15.269 12.3364 14.3195C11.2233 13.37 9.80818 12.8484 8.34511 12.8484C6.88205 12.8484 5.4669 13.37 4.35381 14.3195C3.24072 15.269 2.50259 16.5842 2.27199 18.029L2.27198 18.0291C2.25183 18.1556 2.20696 18.2769 2.13994 18.386C2.07291 18.4952 1.98504 18.5901 1.88134 18.6653C1.77763 18.7405 1.66013 18.7946 1.53554 18.8244C1.41095 18.8542 1.28171 18.8592 1.1552 18.839C1.02869 18.8189 0.907385 18.774 0.798214 18.707C0.689042 18.6399 0.594141 18.5521 0.51893 18.4484C0.443718 18.3447 0.389669 18.2272 0.359868 18.1026C0.330073 17.978 0.3251 17.8488 0.345232 17.7223C0.551924 16.4349 1.06597 15.2163 1.8438 14.1698C2.62165 13.1232 3.64036 12.2797 4.81357 11.7106L5.00968 11.6155L4.85079 11.4663C4.34325 10.9897 3.93889 10.4141 3.66271 9.77504C3.38652 9.13595 3.24439 8.44701 3.24511 7.7508ZM8.3485 4.60069C7.92902 4.5912 7.51187 4.66562 7.12154 4.81957C6.73121 4.97352 6.37557 5.2039 6.0755 5.49718C5.77544 5.79047 5.53699 6.14075 5.37416 6.52745C5.21132 6.91416 5.12739 7.3295 5.12729 7.74909C5.12718 8.16868 5.21091 8.58407 5.37355 8.97086C5.53618 9.35765 5.77446 9.70804 6.07438 10.0015C6.3743 10.2949 6.72982 10.5255 7.12007 10.6796C7.51032 10.8338 7.92744 10.9084 8.34693 10.8991C9.16996 10.8809 9.95317 10.5412 10.5289 9.95279C11.1046 9.36435 11.4271 8.5739 11.4273 7.75067C11.4275 6.92743 11.1054 6.13683 10.53 5.5481C9.95456 4.95937 9.17153 4.6193 8.3485 4.60069Z" fill="#666666" stroke="#333333" stroke-width="0.3"/>
</svg>
