<svg width="24" height="21" viewBox="0 0 24 21" fill="none" xmlns="http://www.w3.org/2000/svg">
<g clip-path="url(#clip0_989_91455)">
<path d="M8.61111 10.1091H14.3889M8.61111 12.9964H12.9444M13.3056 16.9664L11.5 18.771L9.33333 16.6055H7.16667C6.59203 16.6055 6.04093 16.3774 5.6346 15.9712C5.22827 15.5651 5 15.0143 5 14.44V8.66546C5 8.09115 5.22827 7.54035 5.6346 7.13425C6.04093 6.72815 6.59203 6.5 7.16667 6.5H15.8333C16.408 6.5 16.9591 6.72815 17.3654 7.13425C17.7717 7.54035 18 8.09115 18 8.66546V11.9137M16.5556 19.4928V19.5M16.5556 17.3273C16.8793 17.3263 17.1934 17.2167 17.4475 17.0162C17.7016 16.8156 17.881 16.5357 17.9571 16.2211C18.0331 15.9066 18.0014 15.5757 17.867 15.2813C17.7326 14.9869 17.5032 14.7461 17.2157 14.5974C16.9283 14.4503 16.5997 14.4047 16.2831 14.468C15.9666 14.5313 15.6808 14.6998 15.4722 14.946" stroke="#666666" stroke-width="1.5" stroke-linecap="round" stroke-linejoin="round"/>
</g>
<defs>
<clipPath id="clip0_989_91455">
<rect width="24" height="20" fill="white" transform="translate(0 0.5)"/>
</clipPath>
</defs>
</svg>
