<svg width="21" height="21" viewBox="0 0 21 21" fill="none" xmlns="http://www.w3.org/2000/svg">
<path d="M4.96942 2.6131H16.6361C17.2991 2.6131 17.935 2.87649 18.4039 3.34533C18.8727 3.81417 19.1361 4.45006 19.1361 5.1131V11.7798C19.1361 12.4428 18.8727 13.0787 18.4039 13.5475C17.935 14.0164 17.2991 14.2798 16.6361 14.2798H10.8378L5.46775 18.2864C5.34383 18.3789 5.19662 18.4351 5.0426 18.4486C4.88858 18.4622 4.73382 18.4327 4.59563 18.3633C4.45743 18.294 4.34126 18.1875 4.26011 18.0559C4.17895 17.9243 4.13601 17.7727 4.13609 17.6181V14.2798C3.69406 14.2798 3.27014 14.1042 2.95758 13.7916C2.64502 13.479 2.46942 13.0551 2.46942 12.6131V5.1131C2.46942 4.45006 2.73281 3.81417 3.20165 3.34533C3.6705 2.87649 4.30638 2.6131 4.96942 2.6131V2.6131ZM10.2844 12.6131H16.6361C16.8571 12.6131 17.0691 12.5253 17.2253 12.369C17.3816 12.2127 17.4694 12.0008 17.4694 11.7798V5.1131C17.4694 4.89208 17.3816 4.68012 17.2253 4.52384C17.0691 4.36756 16.8571 4.27976 16.6361 4.27976H4.96942C4.74841 4.27976 4.53645 4.36756 4.38017 4.52384C4.22389 4.68012 4.13609 4.89208 4.13609 5.1131V11.7798C4.13609 12.0008 4.22389 12.2127 4.38017 12.369C4.53645 12.5253 4.74841 12.6131 4.96942 12.6131C5.19044 12.6131 5.4024 12.7009 5.55868 12.8572C5.71496 13.0135 5.80275 13.2254 5.80275 13.4464V15.9573L10.2844 12.6131ZM13.3028 10.1131C12.8607 10.1131 12.4368 9.9375 12.1242 9.62494C11.8117 9.31238 11.6361 8.88846 11.6361 8.44643C11.6361 8.0044 11.8117 7.58048 12.1242 7.26792C12.4368 6.95536 12.8607 6.77977 13.3028 6.77977C13.7448 6.77977 14.1687 6.95536 14.4813 7.26792C14.7938 7.58048 14.9694 8.0044 14.9694 8.44643C14.9694 8.88846 14.7938 9.31238 14.4813 9.62494C14.1687 9.9375 13.7448 10.1131 13.3028 10.1131ZM8.30275 10.1131C7.86073 10.1131 7.4368 9.9375 7.12424 9.62494C6.81168 9.31238 6.63609 8.88846 6.63609 8.44643C6.63609 8.0044 6.81168 7.58048 7.12424 7.26792C7.4368 6.95536 7.86073 6.77977 8.30275 6.77977C8.74478 6.77977 9.1687 6.95536 9.48127 7.26792C9.79383 7.58048 9.96942 8.0044 9.96942 8.44643C9.96942 8.88846 9.79383 9.31238 9.48127 9.62494C9.1687 9.9375 8.74478 10.1131 8.30275 10.1131Z" fill="#E6E6E6" stroke="#1A1A1A" stroke-width="0.3"/>
</svg>
