<svg width="24" height="24" viewBox="0 0 24 24" fill="none" xmlns="http://www.w3.org/2000/svg">
<g id="Frame 1321318683">
<rect width="24" height="24" fill="#191919"/>
<path id="Union" d="M4.2615 14.1177C5.97069 14.2781 7.01336 16.074 6.30531 17.6379L6.16081 17.957C5.94873 18.4255 6.12648 18.9784 6.5718 19.2355L8.46267 20.3272C8.9096 20.5852 9.47949 20.4608 9.77817 20.0399L9.98451 19.7492C10.978 18.3492 13.0546 18.3441 14.055 19.7393L14.2591 20.024C14.5588 20.4419 15.1265 20.5644 15.5718 20.3073L17.4627 19.2156C17.9096 18.9576 18.0868 18.4018 17.8716 17.9327L17.7398 17.6452C17.022 16.0801 18.0642 14.2749 19.7785 14.1139L20.0935 14.0844C20.6073 14.0361 21 13.6048 21 13.0888V10.9054C21 10.3912 20.61 9.96076 20.0983 9.91021L19.7497 9.87577C18.0413 9.70701 17.0074 7.90612 17.723 6.34569L17.8716 6.02163C18.0868 5.55253 17.9096 4.99677 17.4627 4.73873L15.5718 3.64704C15.1265 3.38993 14.5588 3.51246 14.2591 3.93035L14.055 4.21507C13.0546 5.6102 10.978 5.60514 9.9845 4.20516L9.77817 3.91442C9.47949 3.49355 8.9096 3.3691 8.46266 3.62714L6.5718 4.71883C6.12647 4.97594 5.94873 5.52886 6.16081 5.9973L6.32178 6.35285C7.02771 7.91206 5.99337 9.70359 4.29009 9.87185L3.90169 9.91021C3.38997 9.96076 3 10.3912 3 10.9054V13.0888C3 13.6048 3.39272 14.0361 3.90654 14.0844L4.2615 14.1177Z" stroke="white" stroke-width="2"/>
<circle id="Ellipse 5" cx="12" cy="11.9785" r="3" stroke="white" stroke-width="2"/>
</g>
</svg>
