<svg width="24" height="21" viewBox="0 0 24 21" fill="none" xmlns="http://www.w3.org/2000/svg">
<g clip-path="url(#clip0_989_91460)">
<g clip-path="url(#clip1_989_91460)">
<path d="M20.3346 19.0833V12.4999L20.3305 12.3749C20.2989 11.9556 20.1101 11.5638 19.8018 11.2779C19.4934 10.9919 19.0884 10.8331 18.668 10.8333L20.3346 19.0833ZM20.3346 19.0833C20.3348 19.3092 20.2515 19.5271 20.1007 19.6954C19.95 19.8636 19.7425 19.9703 19.518 19.9949L20.3346 19.0833ZM19.7338 11.3512C20.0231 11.6195 20.2005 11.987 20.2306 12.3804L20.2346 12.5016V19.0833V19.0833C20.2347 19.2846 20.1605 19.4788 20.0263 19.6287C19.8926 19.7778 19.7089 19.8727 19.5099 19.8952L19.4155 19.8999H4.58464H4.58458C4.38334 19.9 4.18915 19.8258 4.03926 19.6916C3.89008 19.5579 3.79523 19.3742 3.77269 19.1752L3.76797 19.0808L3.76797 12.4999L3.76797 12.4999C3.76784 12.1047 3.91712 11.724 4.18587 11.4341C4.45416 11.1448 4.82172 10.9674 5.21509 10.9373L5.33631 10.9333H7.0013H7.1013V10.8333V8.73328C7.10129 8.52231 7.14388 8.31351 7.22653 8.11941C7.30888 7.92601 7.4293 7.75117 7.58062 7.60529L7.69135 7.5083L11.2829 4.63554C11.4716 4.4847 11.7029 4.39708 11.9441 4.38511C12.1846 4.37317 12.4227 4.437 12.6249 4.56757L12.7217 4.63713L16.313 7.51053L16.313 7.51056C16.4778 7.64227 16.6143 7.80592 16.7143 7.99167C16.814 8.17675 16.8754 8.37998 16.8948 8.58926L16.9013 8.73547V10.8333V10.9333H17.0013H18.668H18.668C19.0633 10.9332 19.4439 11.0824 19.7338 11.3512ZM12.0638 5.98852L12.0013 5.93855L11.9388 5.98852L8.6055 8.65519L8.56797 8.68521V8.73328V18.3333V18.4333H8.66797H15.3346H15.4346V18.3333V8.73328V8.68521L15.3971 8.65519L12.0638 5.98852ZM18.768 12.4999V12.3999H18.668H17.0013H16.9013V12.4999V18.3333V18.4333H17.0013H18.668H18.768V18.3333V12.4999ZM7.1013 12.4999V12.3999H7.0013H5.33464H5.23464V12.4999V18.3333V18.4333H5.33464H7.0013H7.1013V18.3333V12.4999ZM12.0013 9.26661C12.3165 9.26661 12.6286 9.32869 12.9197 9.4493C13.2109 9.56991 13.4755 9.74669 13.6984 9.96955C13.9212 10.1924 14.098 10.457 14.2186 10.7482C14.3392 11.0394 14.4013 11.3514 14.4013 11.6666C14.4013 11.9818 14.3392 12.2939 14.2186 12.5851C14.098 12.8762 13.9212 13.1408 13.6984 13.3637C13.4755 13.5865 13.2109 13.7633 12.9197 13.8839C12.6286 14.0045 12.3165 14.0666 12.0013 14.0666C11.3648 14.0666 10.7543 13.8138 10.3042 13.3637C9.85416 12.9136 9.6013 12.3031 9.6013 11.6666C9.6013 11.0301 9.85416 10.4196 10.3042 9.96955C10.7543 9.51947 11.3648 9.26661 12.0013 9.26661ZM12.0013 10.7333C11.7538 10.7333 11.5164 10.8316 11.3413 11.0066C11.1663 11.1817 11.068 11.4191 11.068 11.6666C11.068 11.9141 11.1663 12.1515 11.3413 12.3266C11.5164 12.5016 11.7538 12.5999 12.0013 12.5999C12.2488 12.5999 12.4862 12.5016 12.6613 12.3266C12.8363 12.1515 12.9346 11.9141 12.9346 11.6666C12.9346 11.4191 12.8363 11.1817 12.6613 11.0066C12.4862 10.8316 12.2488 10.7333 12.0013 10.7333Z" fill="#666666" stroke="#333333" stroke-width="0.2"/>
</g>
</g>
<defs>
<clipPath id="clip0_989_91460">
<rect width="24" height="20" fill="white" transform="translate(0 0.5)"/>
</clipPath>
<clipPath id="clip1_989_91460">
<rect width="20" height="20" fill="white" transform="translate(2 2.5)"/>
</clipPath>
</defs>
</svg>
