<svg width="20" height="20" viewBox="0 0 20 20" fill="none" xmlns="http://www.w3.org/2000/svg">
<path d="M15 6.66667C15.4421 6.66667 15.866 6.49108 16.1786 6.17852C16.4911 5.86596 16.6667 5.44203 16.6667 5.00001C16.6667 4.55798 16.4911 4.13406 16.1786 3.82149C15.866 3.50893 15.4421 3.33334 15 3.33334C14.558 3.33334 14.1341 3.50893 13.8215 3.82149C13.509 4.13406 13.3334 4.55798 13.3334 5.00001C13.3334 5.44203 13.509 5.86596 13.8215 6.17852C14.1341 6.49108 14.558 6.66667 15 6.66667ZM8.27338 9.36667C8.36062 9.81995 8.35324 10.2864 8.25171 10.7367L12.4517 12.8508C12.975 12.2308 13.7064 11.823 14.5088 11.7037C15.3113 11.5843 16.1297 11.7618 16.8107 12.2027C17.4917 12.6436 17.9886 13.3178 18.2081 14.0988C18.4276 14.8799 18.3547 15.7141 18.0031 16.4453C17.6515 17.1764 17.0454 17.7543 16.2983 18.0705C15.5511 18.3867 14.7143 18.4195 13.9447 18.1629C13.1751 17.9063 12.5254 17.3778 12.1176 16.6765C11.7097 15.9752 11.5716 15.1492 11.7292 14.3533L7.48754 12.2183C7.03497 12.7259 6.43798 13.0829 5.77668 13.2414C5.11539 13.4 4.42142 13.3525 3.78791 13.1053C3.15439 12.8581 2.61164 12.423 2.23248 11.8585C1.85331 11.294 1.65589 10.627 1.66668 9.94704C1.67747 9.2671 1.89598 8.60671 2.29287 8.05451C2.68976 7.50231 3.24605 7.08471 3.88709 6.85775C4.52813 6.63079 5.22326 6.60533 5.87919 6.78477C6.53512 6.96422 7.12048 7.33999 7.55671 7.86167L11.7534 5.76001C11.5683 4.9701 11.6777 4.13984 12.0611 3.42482C12.4444 2.70981 13.0753 2.15913 13.8356 1.87601C14.5959 1.59289 15.4333 1.59676 16.1909 1.88689C16.9486 2.17702 17.5744 2.7335 17.9511 3.45203C18.3278 4.17055 18.4295 5.0018 18.2372 5.78996C18.0449 6.57811 17.5717 7.26908 16.9064 7.73335C16.2411 8.19761 15.4293 8.40331 14.6232 8.31187C13.8171 8.22044 13.072 7.83815 12.5275 7.23667L8.27338 9.36667ZM5.00004 11.6667C5.44207 11.6667 5.86599 11.4911 6.17856 11.1785C6.49112 10.866 6.66671 10.442 6.66671 10C6.66671 9.55798 6.49112 9.13406 6.17856 8.82149C5.86599 8.50893 5.44207 8.33334 5.00004 8.33334C4.55802 8.33334 4.13409 8.50893 3.82153 8.82149C3.50897 9.13406 3.33338 9.55798 3.33338 10C3.33338 10.442 3.50897 10.866 3.82153 11.1785C4.13409 11.4911 4.55802 11.6667 5.00004 11.6667ZM15 16.6667C15.4421 16.6667 15.866 16.4911 16.1786 16.1785C16.4911 15.866 16.6667 15.442 16.6667 15C16.6667 14.558 16.4911 14.1341 16.1786 13.8215C15.866 13.5089 15.4421 13.3333 15 13.3333C14.558 13.3333 14.1341 13.5089 13.8215 13.8215C13.509 14.1341 13.3334 14.558 13.3334 15C13.3334 15.442 13.509 15.866 13.8215 16.1785C14.1341 16.4911 14.558 16.6667 15 16.6667Z" fill="white"/>
</svg>
