<svg width="23" height="22" viewBox="0 0 23 22" fill="none" xmlns="http://www.w3.org/2000/svg">
<path d="M22.4254 10.0212L17.7977 14.0305L19.1839 19.9998C19.2573 20.3118 19.2363 20.6384 19.1237 20.9387C19.0111 21.239 18.8119 21.4997 18.5508 21.6882C18.2898 21.8767 17.9786 21.9846 17.6561 21.9985C17.3336 22.0123 17.0142 21.9315 16.7377 21.7661L11.4933 18.6083L6.26024 21.7661C5.98378 21.9315 5.66434 22.0123 5.34185 21.9985C5.01937 21.9846 4.70816 21.8767 4.44712 21.6882C4.18608 21.4997 3.9868 21.239 3.8742 20.9387C3.7616 20.6384 3.74067 20.3118 3.81402 19.9998L5.19823 14.0367L0.569506 10.0212C0.324689 9.81157 0.14766 9.53486 0.0606199 9.22577C-0.0264201 8.91668 -0.0195965 8.58895 0.0802348 8.28369C0.180066 7.97843 0.368461 7.70923 0.621794 7.50984C0.875128 7.31045 1.18212 7.18975 1.50428 7.16287L7.60545 6.63827L9.98702 0.999083C10.1114 0.703184 10.3212 0.45043 10.5899 0.272647C10.8587 0.094864 11.1745 0 11.4974 0C11.8204 0 12.1362 0.094864 12.4049 0.272647C12.6737 0.45043 12.8835 0.703184 13.0078 0.999083L15.3966 6.63827L21.4957 7.16287C21.8179 7.18975 22.1249 7.31045 22.3782 7.50984C22.6315 7.70923 22.8199 7.97843 22.9198 8.28369C23.0196 8.58895 23.0264 8.91668 22.9394 9.22577C22.8523 9.53486 22.6753 9.81157 22.4305 10.0212H22.4254Z" fill="#0059FF"/>
</svg>
