<svg width="23" height="22" viewBox="0 0 23 22" fill="none" xmlns="http://www.w3.org/2000/svg">
<path d="M22.4581 9.09024C22.4064 9.27376 22.3087 9.44116 22.1744 9.57702L22.098 9.64328L17.4703 13.6526L17.2424 13.85L17.3106 14.1437L18.6969 20.1129L18.6972 20.1142C18.7479 20.3298 18.7334 20.5555 18.6556 20.7632L19.1237 20.9387L18.6556 20.7632C18.5777 20.9709 18.4396 21.1518 18.2581 21.2829C18.0766 21.414 17.8597 21.4893 17.6346 21.4989C17.4097 21.5086 17.1872 21.4522 16.9949 21.3373C16.9947 21.3372 16.9946 21.3371 16.9944 21.337L11.7512 18.18L11.4931 18.0245L11.235 18.1802L6.00353 21.337C6.00329 21.3372 6.00304 21.3373 6.00279 21.3375C5.81051 21.4523 5.58809 21.5086 5.36331 21.4989C5.13824 21.4893 4.92138 21.414 4.73982 21.2829C4.5583 21.1518 4.42025 20.9709 4.34237 20.7632C4.2645 20.5555 4.25006 20.3298 4.30076 20.1142L4.30107 20.1128L5.68528 14.1497L5.75338 13.8563L5.52588 13.659L0.897154 9.64349L0.897161 9.64349L0.894695 9.64137C0.724596 9.49574 0.60207 9.30391 0.541902 9.09024C0.481741 8.8766 0.486449 8.65015 0.555466 8.43911C0.624494 8.22804 0.754943 8.04134 0.931034 7.90274C1.10716 7.76411 1.32102 7.6799 1.54585 7.66115L1.54711 7.66104L7.64828 7.13644L7.94874 7.1106L8.06606 6.8328L10.4476 1.19361L10.448 1.19282C10.5339 0.988389 10.6791 0.813179 10.8658 0.689671C11.0525 0.566136 11.2723 0.5 11.4974 0.5C11.7225 0.5 11.9423 0.566136 12.1291 0.689671C12.3158 0.813179 12.461 0.988389 12.5469 1.19282L12.5475 1.19411L14.9362 6.8333L15.0537 7.11062L15.3538 7.13644L21.4529 7.66104L21.4542 7.66114C21.679 7.6799 21.8928 7.76411 22.069 7.90274C22.2451 8.04134 22.3755 8.22804 22.4445 8.43911C22.5135 8.65015 22.5183 8.8766 22.4581 9.09024Z" stroke="#0059FF"/>
</svg>
