<svg width="21" height="21" viewBox="0 0 21 21" fill="none" xmlns="http://www.w3.org/2000/svg">
<path d="M10.2891 20.5C4.76606 20.5 0.289062 16.023 0.289062 10.5C0.289062 4.977 4.76606 0.5 10.2891 0.5C15.8121 0.5 20.2891 4.977 20.2891 10.5C20.2891 16.023 15.8121 20.5 10.2891 20.5ZM10.2891 18.5C12.4108 18.5 14.4456 17.6571 15.9459 16.1569C17.4462 14.6566 18.2891 12.6217 18.2891 10.5C18.2891 8.37827 17.4462 6.34344 15.9459 4.84315C14.4456 3.34285 12.4108 2.5 10.2891 2.5C8.16733 2.5 6.1325 3.34285 4.63221 4.84315C3.13192 6.34344 2.28906 8.37827 2.28906 10.5C2.28906 12.6217 3.13192 14.6566 4.63221 16.1569C6.1325 17.6571 8.16733 18.5 10.2891 18.5ZM10.2891 15.5C10.0238 15.5 9.76949 15.3946 9.58196 15.2071C9.39442 15.0196 9.28906 14.7652 9.28906 14.5C9.28906 14.2348 9.39442 13.9804 9.58196 13.7929C9.76949 13.6054 10.0238 13.5 10.2891 13.5C10.5543 13.5 10.8086 13.6054 10.9962 13.7929C11.1837 13.9804 11.2891 14.2348 11.2891 14.5C11.2891 14.7652 11.1837 15.0196 10.9962 15.2071C10.8086 15.3946 10.5543 15.5 10.2891 15.5ZM11.5651 12.282C11.3561 12.4454 11.0907 12.519 10.8274 12.4868C10.5641 12.4545 10.3244 12.319 10.1611 12.11C9.99769 11.901 9.92403 11.6357 9.95628 11.3724C9.98854 11.1091 10.1241 10.8694 10.3331 10.706L10.7271 10.398C10.883 10.277 11.0135 10.1264 11.1111 9.9548C11.2088 9.78323 11.2716 9.59409 11.2959 9.39821C11.3203 9.20232 11.3058 9.00356 11.2532 8.8133C11.2006 8.62304 11.1109 8.44504 10.9894 8.28949C10.8679 8.13395 10.7168 8.00392 10.545 7.90686C10.3731 7.8098 10.1837 7.74762 9.98777 7.72388C9.79181 7.70015 9.59309 7.71532 9.40301 7.76854C9.21292 7.82176 9.03521 7.91197 8.88006 8.034L8.48606 8.342C8.38304 8.42729 8.26396 8.49106 8.13586 8.52951C8.00775 8.56797 7.87324 8.58033 7.74028 8.56588C7.60731 8.55143 7.4786 8.51045 7.36175 8.44537C7.2449 8.38029 7.1423 8.29243 7.06001 8.18699C6.97772 8.08155 6.91742 7.96068 6.88267 7.83152C6.84793 7.70237 6.83944 7.56755 6.85772 7.43506C6.876 7.30257 6.92067 7.17509 6.9891 7.06017C7.05752 6.94524 7.1483 6.84522 7.25606 6.766L7.64906 6.458C8.38053 5.88646 9.30908 5.6289 10.2304 5.74198C11.1518 5.85507 11.9905 6.32953 12.5621 7.061C13.1336 7.79247 13.3912 8.72102 13.2781 9.64239C13.165 10.5638 12.6905 11.4025 11.9591 11.974L11.5651 12.282Z" fill="white"/>
</svg>
