<svg width="21" height="21" viewBox="0 0 21 21" fill="none" xmlns="http://www.w3.org/2000/svg">
<path d="M10.2891 18.5C12.4108 18.5 14.4456 17.6571 15.9459 16.1569C17.4462 14.6566 18.2891 12.6217 18.2891 10.5C18.2891 8.37827 17.4462 6.34344 15.9459 4.84315C14.4456 3.34285 12.4108 2.5 10.2891 2.5C8.16733 2.5 6.1325 3.34285 4.63221 4.84315C3.13192 6.34344 2.28906 8.37827 2.28906 10.5C2.28906 12.6217 3.13192 14.6566 4.63221 16.1569C6.1325 17.6571 8.16733 18.5 10.2891 18.5ZM10.2891 20.5C4.76606 20.5 0.289062 16.023 0.289062 10.5C0.289062 4.977 4.76606 0.5 10.2891 0.5C15.8121 0.5 20.2891 4.977 20.2891 10.5C20.2891 16.023 15.8121 20.5 10.2891 20.5ZM5.28906 9.5H15.2891C15.5543 9.5 15.8086 9.60536 15.9962 9.79289C16.1837 9.98043 16.2891 10.2348 16.2891 10.5C16.2891 10.7652 16.1837 11.0196 15.9962 11.2071C15.8086 11.3946 15.5543 11.5 15.2891 11.5H5.28906C5.02385 11.5 4.76949 11.3946 4.58196 11.2071C4.39442 11.0196 4.28906 10.7652 4.28906 10.5C4.28906 10.2348 4.39442 9.98043 4.58196 9.79289C4.76949 9.60536 5.02385 9.5 5.28906 9.5Z" fill="white"/>
</svg>
