<svg width="89" height="18" viewBox="0 0 89 18" fill="none" xmlns="http://www.w3.org/2000/svg">
<path opacity="0.5" d="M0.430957 9.5C1.43096 9.02 2.32429 8.48667 3.11096 7.9C3.91096 7.31333 4.61096 6.68 5.21096 6C5.79762 5.33333 6.25096 4.62 6.57096 3.86C6.89096 3.1 7.07096 2.3 7.11096 1.46H10.851C10.8243 2.02 10.7643 2.56 10.671 3.08C10.5776 3.6 10.4443 4.1 10.271 4.58C10.871 4.92667 11.451 5.28 12.011 5.64C12.571 5.98667 13.0976 6.34667 13.591 6.72C14.071 7.12 14.571 7.55333 15.091 8.02C15.611 8.48667 16.1443 9 16.691 9.56L14.331 12.24C13.8643 11.72 13.3843 11.2267 12.891 10.76C12.3976 10.2933 11.891 9.84667 11.371 9.42C10.891 9.08667 10.4176 8.76667 9.95096 8.46C9.49762 8.15333 9.03762 7.86667 8.57096 7.6L8.33096 7.9C7.94429 8.36667 7.53096 8.81333 7.09096 9.24C6.65096 9.65333 6.18429 10.04 5.69096 10.4C5.17096 10.7867 4.63762 11.14 4.09096 11.46C3.55762 11.7667 3.01096 12.0467 2.45096 12.3L0.430957 9.5ZM0.270957 17.16V13.96H16.811V17.16H0.270957ZM22.9639 7.64V4.06H21.9439V7.64H22.9639ZM19.2239 4.06H18.4639V1.36H26.4639V4.06H25.6839V7.64H26.4639V10.34H18.4639V7.64H19.2239V4.06ZM31.9439 7.38C31.7706 7.42 31.5906 7.45333 31.4039 7.48C31.2173 7.49333 31.0239 7.5 30.8239 7.5V10.84H27.7239V1.3H30.8239V4.36H31.9439V1.3H35.0439V10.84H31.9439V7.38ZM31.5439 17.42V14.74H19.6439V11.54H35.0439V17.42H31.5439ZM46.6777 4.6V3.5H43.2377V4.6H46.6777ZM39.8377 3.5H37.5377V1.4H52.3977V3.5H50.0777V4.6H52.3977V6.7H46.7377V7.28H53.1977V9.58H36.6577V7.28H43.1177V6.7H37.5377V4.6H39.8377V3.5ZM37.4777 12.74H48.8577V12.22H37.4777V10.14H52.2577V14.82H40.8777V15.3H52.6177V17.44H37.4777V12.74ZM55.0106 7.38H60.6306V4.56H55.1106V1.46H64.0306V10.38H58.4106V13.44H64.5906V16.54H55.0106V7.38ZM66.0106 17.4V1.3H69.7106V17.4H66.0106ZM79.88 9.2C80.4534 9.2 80.9667 9.14667 81.42 9.04C81.8734 8.93333 82.26 8.76667 82.58 8.54C82.8867 8.32667 83.12 8.06667 83.28 7.76C83.44 7.44 83.52 7.08 83.52 6.68C83.52 6.36 83.44 6.05333 83.28 5.76C83.12 5.46667 82.88 5.18667 82.56 4.92C82.24 4.68 81.8534 4.49333 81.4 4.36C80.9467 4.22667 80.44 4.16 79.88 4.16C79.2934 4.16 78.7734 4.22667 78.32 4.36C77.88 4.49333 77.5067 4.68 77.2 4.92C76.88 5.18667 76.64 5.46667 76.48 5.76C76.32 6.05333 76.24 6.36 76.24 6.68C76.24 7.08 76.32 7.44 76.48 7.76C76.64 8.06667 76.88 8.32667 77.2 8.54C77.5067 8.76667 77.88 8.93333 78.32 9.04C78.7734 9.14667 79.2934 9.2 79.88 9.2ZM78.02 12.3C77.7534 12.2733 77.5067 12.24 77.28 12.2C77.0534 12.1467 76.84 12.08 76.64 12C76.1734 11.88 75.7534 11.7267 75.38 11.54C75.0067 11.34 74.68 11.1133 74.4 10.86C74.0934 10.62 73.8334 10.3533 73.62 10.06C73.4067 9.76667 73.24 9.44 73.12 9.08C72.9734 8.74667 72.8667 8.38667 72.8 8C72.7334 7.61333 72.7 7.20667 72.7 6.78C72.7 6.42 72.7334 6.06 72.8 5.7C72.8667 5.34 72.9734 4.98 73.12 4.62C73.2534 4.28667 73.4267 3.96667 73.64 3.66C73.8534 3.34 74.1134 3.04 74.42 2.76C74.7134 2.50667 75.0467 2.27333 75.42 2.06C75.7934 1.83333 76.2134 1.63333 76.68 1.46C77.12 1.3 77.6067 1.18 78.14 1.1C78.6734 1.00667 79.2534 0.96 79.88 0.96C80.48 0.96 81.0467 1.00667 81.58 1.1C82.1134 1.18 82.6134 1.3 83.08 1.46C83.52 1.63333 83.9267 1.83333 84.3 2.06C84.6734 2.27333 85.0134 2.50667 85.32 2.76C85.6 3.04 85.8467 3.34 86.06 3.66C86.2867 3.96667 86.48 4.28667 86.64 4.62C86.7734 4.98 86.8734 5.34 86.94 5.7C87.02 6.06 87.06 6.42 87.06 6.78C87.06 7.20667 87.02 7.61333 86.94 8C86.8734 8.38667 86.7734 8.74667 86.64 9.08C86.4934 9.44 86.3067 9.76667 86.08 10.06C85.8667 10.3533 85.62 10.62 85.34 10.86C85.0334 11.1133 84.6934 11.34 84.32 11.54C83.96 11.7267 83.56 11.88 83.12 12C82.88 12.08 82.6334 12.1467 82.38 12.2C82.14 12.24 81.8934 12.2733 81.64 12.3V13.96H88.1V17.16H71.56V13.96H78.02V12.3Z" fill="white"/>
</svg>
