<svg width="99" height="26" viewBox="0 0 99 26" fill="none" xmlns="http://www.w3.org/2000/svg">
<path d="M0 11.1005L0 5.54932L19.2718 15.4376L19.2718 20.9319L0 11.1005Z" fill="url(#paint0_linear_989_101711)" fill-opacity="0.8"/>
<path d="M19.2718 11.1024L19.2718 5.55116L9.63938 0L0 5.55116L0 11.1024L9.63938 5.55122L19.2718 11.1024Z" fill="white"/>
<path d="M19.2718 15.3557V20.9069L9.63937 25.9999L0 20.9069L0 15.3557L9.63937 20.4487L19.2718 15.3557Z" fill="white"/>
<path d="M26.9856 12.5C27.9856 12.02 28.879 11.4867 29.6656 10.9C30.4656 10.3133 31.1656 9.68 31.7656 9C32.3523 8.33333 32.8056 7.62 33.1256 6.86C33.4456 6.1 33.6256 5.3 33.6656 4.46H37.4056C37.379 5.02 37.319 5.56 37.2256 6.08C37.1323 6.6 36.999 7.1 36.8256 7.58C37.4256 7.92667 38.0056 8.28 38.5656 8.64C39.1256 8.98667 39.6523 9.34667 40.1456 9.72C40.6256 10.12 41.1256 10.5533 41.6456 11.02C42.1656 11.4867 42.699 12 43.2456 12.56L40.8856 15.24C40.419 14.72 39.939 14.2267 39.4456 13.76C38.9523 13.2933 38.4456 12.8467 37.9256 12.42C37.4456 12.0867 36.9723 11.7667 36.5056 11.46C36.0523 11.1533 35.5923 10.8667 35.1256 10.6L34.8856 10.9C34.499 11.3667 34.0856 11.8133 33.6456 12.24C33.2056 12.6533 32.739 13.04 32.2456 13.4C31.7256 13.7867 31.1923 14.14 30.6456 14.46C30.1123 14.7667 29.5656 15.0467 29.0056 15.3L26.9856 12.5ZM26.8256 20.16V16.96H43.3656V20.16H26.8256ZM49.5186 10.64V7.06H48.4986V10.64H49.5186ZM45.7786 7.06H45.0186V4.36H53.0186V7.06H52.2386V10.64H53.0186V13.34H45.0186V10.64H45.7786V7.06ZM58.4986 10.38C58.3253 10.42 58.1453 10.4533 57.9586 10.48C57.7719 10.4933 57.5786 10.5 57.3786 10.5V13.84H54.2786V4.3H57.3786V7.36H58.4986V4.3H61.5986V13.84H58.4986V10.38ZM58.0986 20.42V17.74H46.1986V14.54H61.5986V20.42H58.0986ZM64.0924 8.3H75.3524V7.3H64.1924V4.3H78.7524V11.3H67.4924V12.32H79.0524V15.32H73.2924V17.16H79.7524V20.16H63.2124V17.16H69.6724V15.32H64.0924V8.3ZM92.8853 14.58C92.9253 13.98 92.9587 13.38 92.9853 12.78C93.012 12.18 93.0387 11.5733 93.0653 10.96C93.0653 10.6667 93.0653 10.3733 93.0653 10.08C93.0787 9.78667 93.0853 9.5 93.0853 9.22C93.0853 8.94 93.0853 8.66667 93.0853 8.4C93.0987 8.13333 93.1053 7.86667 93.1053 7.6H81.9853V4.4H96.6053C96.6053 4.96 96.6053 5.5 96.6053 6.02C96.6053 6.52667 96.6053 7 96.6053 7.44C96.592 7.90667 96.5787 8.35333 96.5653 8.78C96.552 9.19333 96.5453 9.6 96.5453 10C96.532 10.4 96.5187 10.7933 96.5053 11.18C96.492 11.5667 96.4853 11.94 96.4853 12.3C96.472 12.5 96.4587 12.6933 96.4453 12.88C96.432 13.0667 96.4187 13.2533 96.4053 13.44C96.392 13.64 96.3787 13.8333 96.3653 14.02C96.352 14.2067 96.3453 14.3933 96.3453 14.58H92.8853ZM81.0053 20.16V16.96H97.5453V20.16H81.0053Z" fill="white"/>
<defs>
<linearGradient id="paint0_linear_989_101711" x1="0.249366" y1="11.3937" x2="19.5211" y2="20.6281" gradientUnits="userSpaceOnUse">
<stop stop-color="white"/>
<stop offset="1" stop-color="white" stop-opacity="0"/>
</linearGradient>
</defs>
</svg>
