<svg width="77" height="20" viewBox="0 0 77 20" fill="none" xmlns="http://www.w3.org/2000/svg">
<path opacity="0.5" d="M6.65618 0.0532227H19.6781V13.3147H6.60293C2.96018 13.3147 0 10.3546 0 6.71182C0 3.03761 2.98197 0.0532227 6.65618 0.0532227Z" fill="#0059FF"/>
<path opacity="0.5" d="M13.0753 19.9443L0.000137329 19.9443V6.68281L13.022 6.68281C16.6963 6.68523 19.6782 9.6672 19.6782 13.3414C19.6782 16.9866 16.718 19.9443 13.0753 19.9443Z" fill="#0059FF"/>
<path opacity="0.5" d="M30.1949 0.0532227H22.5996V19.9443H30.1949V0.0532227Z" fill="#0059FF"/>
<path opacity="0.5" d="M42.2729 0.0532227H22.5996V5.88646H42.2729V0.0532227Z" fill="#0059FF"/>
<path opacity="0.5" d="M37.7926 8.1084H22.5996V13.8448H37.7926V8.1084Z" fill="#0059FF"/>
<path opacity="0.5" d="M39.2617 19.9443H49.1516V0.0532227L39.2617 19.9443Z" fill="#0059FF"/>
<path opacity="0.72" d="M49.1514 19.9443H59.0437L49.1514 0.0532227V19.9443Z" fill="#0059FF"/>
<path opacity="0.5" d="M62.1152 17.1976C63.9136 18.9282 66.351 19.9956 69.0425 19.9956C71.9276 19.9956 74.5199 18.7661 76.3449 16.8104L69.4225 9.88794L62.1128 17.1976H62.1152Z" fill="#0059FF"/>
<path opacity="0.5" d="M69.0425 -0.000976562C66.4067 -0.000976562 64.0153 1.02771 62.229 2.69538L69.4249 9.89131L76.2457 3.07055C74.4255 1.18019 71.8744 -0.000976562 69.0449 -0.000976562L69.0425 -0.000976562Z" fill="#0059FF"/>
<path opacity="0.72" d="M62.2292 2.69529C60.2735 4.52029 59.0439 7.11257 59.0439 9.99773C59.0439 12.8829 60.2251 15.3808 62.1155 17.1985L69.4252 9.88881L62.2292 2.69287V2.69529Z" fill="#0059FF"/>
</svg>
