<svg width="161" height="31" viewBox="0 0 161 31" fill="none" xmlns="http://www.w3.org/2000/svg">
<path d="M0.50708 30.0912V24.1353H31.2924V30.0912H0.50708ZM0.80708 15.8324C4.53061 14.0059 7.46884 11.853 9.7012 9.32062C11.8983 6.82356 13.0894 4.00003 13.2394 0.867676H20.2012C20.1306 2.91473 19.7953 4.84709 19.1247 6.67356C21.3924 7.93532 23.4836 9.24121 25.3012 10.653C27.1277 12.1089 29.06 13.8559 31.0718 15.9383L26.6777 20.9236C24.9659 18.9912 23.1394 17.2353 21.1718 15.6736C19.4247 14.4118 17.713 13.2559 15.9571 12.2853L15.5071 12.8412C14.0953 14.553 12.4541 16.1147 10.5924 17.4912C8.69532 18.903 6.68355 20.0589 4.5659 21.0294L0.80708 15.8324Z" fill="#0059FF"/>
<path d="M35.7977 5.70121H34.386V0.6718H49.2801V5.70121H47.8242V12.363H49.2801V17.3924H34.386V12.363H35.7977V5.70121ZM58.7301 30.5659V25.5806H36.583V19.6247H65.2507V30.5659H58.7389H58.7301ZM42.7595 12.363V5.70121H40.8625V12.363H42.7595ZM59.4713 11.8777C58.836 12.0277 58.1301 12.0983 57.3889 12.0983V18.3189H51.6183V0.565918H57.3889V6.26592H59.4713V0.565918H65.2419V18.3189H59.4713V11.8777Z" fill="#0059FF"/>
<path d="M69.909 8.01298H90.8648V6.15121H70.0943V0.565918H97.1913V13.5983H76.2354V15.4953H97.756V21.0806H87.0354V24.5042H99.0619V30.0894H68.2766V24.5042H80.3031V21.0806H69.9178V8.01298H69.909Z" fill="white"/>
<path d="M101.406 30.0887V24.1328H132.191V30.0887H101.406ZM123.517 19.7034C123.667 17.4711 123.782 15.2387 123.853 12.9623C123.888 10.7299 123.923 8.64755 123.923 6.70637H103.223V0.750488H130.435V6.40637C130.4 8.11814 130.364 9.6799 130.32 11.1711C130.285 12.6623 130.25 14.1093 130.206 15.4505C130.135 16.8623 130.02 18.2828 129.941 19.6946H123.5L123.517 19.7034Z" fill="white"/>
<path d="M136.398 13.7436V6.74658L160.689 16.726V23.7231L136.398 13.7436Z" fill="url(#paint0_linear_504_13999)" fill-opacity="0.43"/>
<path d="M160.689 13.7471V6.74999L148.548 0.626465L136.398 6.74999V13.7471L148.548 7.62352L160.689 13.7471Z" fill="#0059FF"/>
<path d="M160.689 16.731V23.728L148.548 29.8515L136.398 23.728V16.731L148.548 22.8545L160.689 16.731Z" fill="#0059FF"/>
<defs>
<linearGradient id="paint0_linear_504_13999" x1="136.751" y1="13.8606" x2="160.575" y2="23.5664" gradientUnits="userSpaceOnUse">
<stop stop-color="white"/>
<stop offset="1" stop-color="white" stop-opacity="0"/>
</linearGradient>
</defs>
</svg>
