<svg width="13" height="14" viewBox="0 0 13 14" fill="none" xmlns="http://www.w3.org/2000/svg">
<path d="M10.4609 1.10938H2.53906C1.36114 1.10938 0.40625 2.06427 0.40625 3.24219V10.7578C0.40625 11.9357 1.36114 12.8906 2.53906 12.8906H10.4609C11.6389 12.8906 12.5938 11.9357 12.5938 10.7578V3.24219C12.5938 2.06427 11.6389 1.10938 10.4609 1.10938Z" fill="#00005B"/>
<path d="M5.52443 8.42227H3.70697L3.23775 9.77712C3.23233 9.8218 3.20406 9.84415 3.15295 9.84415H2.29982C2.24295 9.84415 2.22314 9.81622 2.24041 9.76036L3.88673 4.87063C3.93323 4.72175 3.95619 4.56652 3.95478 4.41055C3.95386 4.40367 3.95454 4.39666 3.95677 4.39008C3.95899 4.3835 3.96271 4.37752 3.96762 4.37261C3.97253 4.3677 3.97851 4.36399 3.98509 4.36176C3.99167 4.35953 3.99868 4.35885 4.00556 4.35977H5.19994C5.23447 4.35977 5.25427 4.37399 5.25986 4.40141L7.1022 9.76899C7.11947 9.81977 7.10525 9.84415 7.05955 9.84415H6.10435C6.08668 9.8452 6.0691 9.84093 6.05389 9.83187C6.03868 9.82282 6.02654 9.8094 6.01904 9.79337L5.52443 8.42227ZM3.91009 7.50821H5.32587C5.29185 7.43356 4.65505 5.37895 4.60935 5.20579H4.60123L3.91009 7.50821ZM9.82814 8.04091H8.32349C8.32925 8.39265 8.42793 8.67026 8.61955 8.87372C8.81116 9.07718 9.09892 9.17874 9.48283 9.17841C9.80454 9.18414 10.1239 9.12239 10.4202 8.99712C10.4533 8.97528 10.471 8.98595 10.471 9.03013V9.63188C10.4708 9.6512 10.4661 9.6702 10.4573 9.68739C10.4485 9.70458 10.4358 9.71948 10.4202 9.73091C10.1088 9.87411 9.72505 9.94571 9.26904 9.94571C8.59534 9.94571 8.10073 9.7519 7.78521 9.36427C7.46969 8.97664 7.3121 8.49151 7.31244 7.90887C7.31244 7.30322 7.4768 6.79727 7.80552 6.39102C8.13425 5.98477 8.58383 5.78165 9.15427 5.78165C9.69594 5.78165 10.1002 5.94923 10.3669 6.28438C10.6324 6.61938 10.7733 7.03617 10.7656 7.46352C10.7706 7.62368 10.7596 7.78394 10.7326 7.94188C10.7314 7.95892 10.7241 7.97497 10.7121 7.98709C10.7001 7.99921 10.6841 8.0066 10.667 8.0079C10.5245 8.0299 10.2449 8.04091 9.82814 8.04091ZM8.32349 7.40665H9.40919C9.64617 7.40665 9.78041 7.40106 9.81189 7.38989C9.81871 7.35187 9.82143 7.31322 9.82001 7.27462C9.82243 7.07613 9.7651 6.88151 9.65548 6.71602C9.5458 6.55115 9.36772 6.46872 9.12126 6.46872C8.88022 6.46872 8.69403 6.55657 8.56267 6.73227C8.42281 6.93098 8.34009 7.16422 8.32349 7.40665Z" fill="#9999FF"/>
</svg>
