<svg width="13" height="14" viewBox="0 0 13 14" fill="none" xmlns="http://www.w3.org/2000/svg">
<g id="tool" clip-path="url(#clip0_1511_6990)">
<path id="Vector" d="M4.33317 13.4993C5.52917 13.4993 6.49984 12.5287 6.49984 11.3327V9.16602H4.33317C3.13717 9.16602 2.1665 10.1367 2.1665 11.3327C2.1665 12.5287 3.13717 13.4993 4.33317 13.4993Z" fill="#0ACF83"/>
<path id="Vector_2" d="M2.1665 7.00065C2.1665 5.80465 3.13717 4.83398 4.33317 4.83398H6.49984V9.16732H4.33317C3.13717 9.16732 2.1665 8.19665 2.1665 7.00065Z" fill="#A259FF"/>
<path id="Vector_3" d="M2.1665 2.66667C2.1665 1.47067 3.13717 0.5 4.33317 0.5H6.49984V4.83333H4.33317C3.13717 4.83333 2.1665 3.86267 2.1665 2.66667Z" fill="#F24E1E"/>
<path id="Vector_4" d="M6.5 0.5H8.66667C9.86267 0.5 10.8333 1.47067 10.8333 2.66667C10.8333 3.86267 9.86267 4.83333 8.66667 4.83333H6.5V0.5Z" fill="#FF7262"/>
<path id="Vector_5" d="M10.8333 7.00065C10.8333 8.19665 9.86267 9.16732 8.66667 9.16732C7.47067 9.16732 6.5 8.19665 6.5 7.00065C6.5 5.80465 7.47067 4.83398 8.66667 4.83398C9.86267 4.83398 10.8333 5.80465 10.8333 7.00065Z" fill="#1ABCFE"/>
</g>
<defs>
<clipPath id="clip0_1511_6990">
<rect width="13" height="13" fill="white" transform="translate(0 0.5)"/>
</clipPath>
</defs>
</svg>
