<svg width="13" height="14" viewBox="0 0 13 14" fill="none" xmlns="http://www.w3.org/2000/svg">
<g id="tool" clip-path="url(#clip0_1511_4463)">
<path id="Vector" d="M0.541504 1.05664H12.4582V12.9431H0.541504V1.05664Z" fill="url(#paint0_radial_1511_4463)"/>
<path id="Vector_2" d="M0.54166 1.05739H12.4584V12.9439H0.54166V1.05739ZM0 13.4993H13V0.501953H0V13.4993ZM8.76418 5.8342C8.33626 5.8342 8.19003 6.05637 8.19003 6.23967C8.19003 6.43962 8.28751 6.57849 8.86169 6.88398C9.7121 7.30613 9.97753 7.71159 9.97753 8.30593C9.97753 9.19463 9.3167 9.67231 8.42293 9.67231C7.95168 9.67231 7.54542 9.57232 7.31251 9.43348C7.2746 9.41682 7.26918 9.38905 7.26918 9.3446V8.5281C7.26918 8.47256 7.29626 8.45588 7.3342 8.48367C7.67545 8.71141 8.06544 8.81138 8.42293 8.81138C8.85086 8.81138 9.02961 8.62808 9.02961 8.37812C9.02961 8.17817 8.90502 8.00043 8.35792 7.71159C7.58875 7.3339 7.26918 6.95065 7.26918 6.31189C7.26918 5.59535 7.81628 5.00104 8.76418 5.00104C9.23002 5.00104 9.55502 5.07326 9.73377 5.15656C9.7771 5.18433 9.78793 5.22876 9.78793 5.26764V6.02858C9.78793 6.07301 9.76085 6.1008 9.70667 6.08412C9.46834 5.92864 9.11626 5.8342 8.76418 5.8342ZM4.10583 6.49518C4.23042 6.50629 4.32793 6.50629 4.54459 6.50629C5.17837 6.50629 5.77419 6.27856 5.77419 5.39542C5.77419 4.69001 5.34626 4.33451 4.62585 4.33451C4.40919 4.33451 4.20334 4.34561 4.10583 4.35117V6.49518ZM3.14169 3.54577C3.14169 3.5069 3.21753 3.47911 3.26084 3.47911C3.60752 3.46245 4.1221 3.45134 4.65835 3.45134C6.15876 3.45134 6.74375 4.29561 6.74375 5.37318C6.74375 6.78399 5.74708 7.38943 4.52293 7.38943C4.3171 7.38943 4.24669 7.37833 4.10042 7.37833V9.51123C4.10042 9.55566 4.08417 9.57788 4.03543 9.57788H3.20668C3.16335 9.57788 3.14166 9.56122 3.14166 9.51123V3.54577H3.14169Z" fill="#31C5F0"/>
</g>
<defs>
<radialGradient id="paint0_radial_1511_4463" cx="0" cy="0" r="1" gradientUnits="userSpaceOnUse" gradientTransform="translate(4.46628 3.72041) scale(9.05669 8.99151)">
<stop stop-color="#34364E" stop-opacity="0.98"/>
<stop offset="1" stop-color="#0C0824"/>
</radialGradient>
<clipPath id="clip0_1511_4463">
<rect width="13" height="13" fill="white" transform="translate(0 0.5)"/>
</clipPath>
</defs>
</svg>
