<svg width="55" height="55" viewBox="0 0 55 55" fill="none" xmlns="http://www.w3.org/2000/svg">
<ellipse cx="27.5" cy="27.2122" rx="27" ry="26.8567" fill="#E0EAFD"/>
<mask id="mask0_1082_33823" style="mask-type:alpha" maskUnits="userSpaceOnUse" x="0" y="3" width="54" height="52">
<ellipse cx="27.3356" cy="28.8555" rx="26.4997" ry="25.5" fill="#D9D9D9"/>
</mask>
<g mask="url(#mask0_1082_33823)">
<path fill-rule="evenodd" clip-rule="evenodd" d="M73.7508 44.0791H-8.80859C-8.61552 21.5555 9.79207 3.35596 32.4711 3.35596C55.1502 3.35596 73.5578 21.5555 73.7508 44.0791Z" fill="#E0EAFD"/>
<ellipse cx="11.5782" cy="36.5873" rx="4.48157" ry="1.9755" fill="white"/>
<path d="M49.0579 22.1299C49.1014 22.0166 49.2679 22.0166 49.3115 22.1299L50.2587 24.593C50.2724 24.6286 50.3015 24.6567 50.3385 24.6699L52.8983 25.5813C53.016 25.6233 53.016 25.7835 52.8983 25.8254L50.3385 26.7368C50.3015 26.75 50.2724 26.7781 50.2587 26.8137L49.3115 29.2769C49.2679 29.3901 49.1014 29.3901 49.0579 29.2769L48.1107 26.8137C48.097 26.7781 48.0678 26.75 48.0308 26.7368L45.4711 25.8254C45.3534 25.7835 45.3534 25.6233 45.4711 25.5813L48.0308 24.6699C48.0678 24.6567 48.097 24.6286 48.1107 24.593L49.0579 22.1299Z" fill="#FFCC4A"/>
<path d="M34.3295 45.9451C34.7645 46.367 35.5656 46.3749 36.1189 45.9628L42.1289 41.4857C42.6821 41.0736 42.7779 40.3975 42.3428 39.9756L36.5141 34.3225C34.774 32.6349 31.5695 32.6031 29.3567 34.2515C27.1439 35.9 26.7607 38.6044 28.5007 40.292L34.3295 45.9451Z" fill="#4C8BFF"/>
<path d="M19.4233 45.829C19.0709 46.3031 18.281 46.4166 17.659 46.0825L10.902 42.4523C10.2801 42.1182 10.0616 41.4629 10.414 40.9888L15.1366 34.6358C16.5464 32.7392 19.7061 32.2852 22.194 33.6218C24.6818 34.9584 25.5557 37.5794 24.1459 39.476L19.4233 45.829Z" fill="#4C8BFF"/>
<path d="M37.3359 37.9246C37.3359 35.2101 36.1984 32.4897 32.1746 32.4897H21.0031C16.9794 32.4897 15.3175 34.238 15.3175 36.9525L16.1062 44.9206C16.1652 45.4125 16.8775 45.8219 17.8379 45.916C23.8729 46.5074 29.1983 46.5074 35.2333 45.916C36.183 45.8229 37.2613 45.4064 37.3359 44.9206V37.9246Z" fill="#4C8BFF"/>
<path d="M31.7752 31.5523C32.2817 30.0815 31.6882 28.5689 30.4494 28.1738L27.3092 27.1724C26.0705 26.7773 24.6556 27.6493 24.149 29.1201L23.2318 31.7833C22.7252 33.2541 23.3188 34.7667 24.5575 35.1617L27.6977 36.1632C28.9365 36.5583 30.3514 35.6862 30.8579 34.2154L31.7752 31.5523Z" fill="#FFAB48"/>
<path d="M15.17 20.9044C14.3381 23.3198 15.7802 25.9528 18.391 26.7855C21.0018 27.6181 23.7927 26.335 24.6246 23.9196C25.4565 21.5042 24.0144 18.8712 21.4036 18.0385C18.7928 17.2059 16.002 18.489 15.17 20.9044Z" fill="#FF9C27"/>
<path d="M32.8888 25.0364C32.0569 27.4518 33.499 30.0849 36.1098 30.9175C38.7205 31.7502 41.5114 30.4671 42.3433 28.0517C43.1752 25.6363 41.7331 23.0032 39.1224 22.1706C36.5116 21.338 33.7207 22.621 32.8888 25.0364Z" fill="#ED8000"/>
<path d="M18.1662 19.1316C16.2467 24.7045 20.0179 30.9212 26.5892 33.0169C33.1606 35.1127 40.9395 31.7274 39.6035 26.8753C43.7311 21.6375 40.1114 14.9313 33.54 12.8356C26.9687 10.7398 20.0856 13.5586 18.1662 19.1316Z" fill="#FFBA68"/>
<path d="M18.0859 19.1269C16.157 24.7275 20.0439 31.0061 26.7675 33.1504C33.4912 35.2947 41.4173 31.9272 40.0253 27.0352C44.2116 21.7836 40.4766 15.013 33.7529 12.8686C27.0292 10.7243 20.0149 13.5262 18.0859 19.1269Z" fill="#FFBA68"/>
<mask id="mask1_1082_33823" style="mask-type:alpha" maskUnits="userSpaceOnUse" x="17" y="12" width="25" height="22">
<path d="M18.0791 19.1274C16.1501 24.728 20.037 31.0066 26.7607 33.1509C33.4844 35.2952 41.4105 31.9277 40.0185 27.0357C44.2048 21.784 40.4697 15.0134 33.7461 12.8691C27.0224 10.7248 20.0081 13.5267 18.0791 19.1274Z" fill="#FFBA68"/>
</mask>
<g mask="url(#mask1_1082_33823)">
<path d="M16.5721 24.5201C15.7605 26.8766 17.1818 29.45 19.7467 30.268C22.3117 31.0861 25.0489 29.8389 25.8605 27.4824C26.6721 25.1259 25.2508 22.5524 22.6859 21.7344C20.1209 20.9164 17.3837 22.1636 16.5721 24.5201Z" fill="#FF9A24"/>
<path d="M34.2987 29.4156C33.487 31.7721 34.9084 34.3455 37.4733 35.1636C40.0382 35.9816 42.7755 34.7344 43.5871 32.3779C44.3987 30.0214 42.9774 27.448 40.4124 26.6299C37.8475 25.8119 35.1103 27.0591 34.2987 29.4156Z" fill="#FF9A24"/>
</g>
<path d="M30.8609 26.4444C30.7737 26.6975 30.9248 26.9735 31.1985 27.0608C31.4722 27.1481 31.7647 27.0136 31.8519 26.7604C31.9391 26.5072 31.7879 26.2313 31.5143 26.144C31.2406 26.0567 30.9481 26.1912 30.8609 26.4444Z" fill="black"/>
<path d="M35.5184 25.6328C35.3524 26.115 34.7738 26.3643 34.2261 26.1896C33.6784 26.015 33.3691 25.4825 33.5352 25.0003C33.7013 24.5181 34.2798 24.2688 34.8275 24.4435C35.3752 24.6181 35.6845 25.1506 35.5184 25.6328Z" fill="black"/>
<path fill-rule="evenodd" clip-rule="evenodd" d="M35.4637 24.2305C35.5059 24.4208 35.3695 24.5976 35.1591 24.6253C35.0447 24.6404 34.8629 24.688 34.716 24.7729C34.57 24.8573 34.5067 24.9476 34.5004 25.0418C34.4876 25.2329 34.3035 25.3702 34.0893 25.3486C33.8751 25.3269 33.7118 25.1545 33.7246 24.9634C33.7504 24.5784 34.0172 24.3282 34.2708 24.1817C34.5234 24.0357 34.8106 23.962 35.0062 23.9362C35.2166 23.9084 35.4214 24.0402 35.4637 24.2305Z" fill="black"/>
<path d="M28.9403 24.0444C28.7742 24.5266 28.1956 24.7759 27.648 24.6012C27.1003 24.4266 26.791 23.8941 26.9571 23.4119C27.1231 22.9297 27.7017 22.6804 28.2494 22.8551C28.797 23.0298 29.1064 23.5622 28.9403 24.0444Z" fill="black"/>
<path fill-rule="evenodd" clip-rule="evenodd" d="M28.8855 22.6421C28.9278 22.8324 28.7914 23.0092 28.581 23.037C28.4666 23.0521 28.2848 23.0996 28.1379 23.1845C27.9919 23.2689 27.9286 23.3592 27.9223 23.4534C27.9094 23.6445 27.7254 23.7819 27.5112 23.7602C27.2969 23.7386 27.1337 23.5661 27.1465 23.375C27.1723 22.99 27.4391 22.7398 27.6927 22.5933C27.9453 22.4474 28.2325 22.3736 28.4281 22.3478C28.6385 22.32 28.8433 22.4518 28.8855 22.6421Z" fill="black"/>
<path fill-rule="evenodd" clip-rule="evenodd" d="M32.4662 28.9416C30.5136 28.9574 28.5881 28.4188 26.9452 27.3972C26.7688 27.2876 26.719 27.0841 26.834 26.9428C26.949 26.8014 27.1851 26.7758 27.3615 26.8855C28.8597 27.817 30.6156 28.3082 32.3963 28.2938C32.6059 28.2921 32.7916 28.4358 32.8109 28.6147C32.8302 28.7935 32.6759 28.9399 32.4662 28.9416Z" fill="#A75A00"/>
<path fill-rule="evenodd" clip-rule="evenodd" d="M35.4415 22.9917C35.7806 23.1544 36.0097 23.4173 36.1102 23.5967C36.2043 23.7645 36.4247 23.8326 36.6025 23.7489C36.7804 23.6651 36.8483 23.4611 36.7542 23.2933C36.5926 23.0049 36.2591 22.6274 35.7628 22.3892C35.2514 22.1438 34.5882 22.0572 33.8144 22.3374C33.6284 22.4047 33.5397 22.6012 33.6163 22.7763C33.693 22.9514 33.9059 23.0387 34.0919 22.9713C34.6721 22.7613 35.1173 22.8361 35.4415 22.9917Z" fill="#905A09"/>
<path fill-rule="evenodd" clip-rule="evenodd" d="M28.2198 20.9409C28.5589 21.1036 28.788 21.3665 28.8885 21.5459C28.9826 21.7137 29.203 21.7819 29.3808 21.6981C29.5587 21.6143 29.6266 21.4103 29.5325 21.2425C29.3709 20.9541 29.0375 20.5766 28.5411 20.3384C28.0298 20.0931 27.3665 20.0065 26.5928 20.2866C26.4067 20.3539 26.318 20.5504 26.3947 20.7255C26.4713 20.9006 26.6842 20.9879 26.8702 20.9206C27.4504 20.7105 27.8957 20.7853 28.2198 20.9409Z" fill="#905A09"/>
<path fill-rule="evenodd" clip-rule="evenodd" d="M22.0761 32.712C21.6074 33.0109 21.4792 33.6188 21.7898 34.0699L22.111 34.5364C23.0883 35.9556 24.6965 36.856 26.4616 36.9723C28.1599 37.0842 29.8209 36.4578 30.988 35.2654L31.5064 34.7357C31.892 34.3418 31.8727 33.7217 31.4633 33.3507C31.0539 32.9797 30.4095 32.9983 30.024 33.3922L29.5056 33.9218C28.7566 34.6871 27.6906 35.0891 26.6007 35.0173C25.4679 34.9427 24.4358 34.3648 23.8086 33.454L23.4873 32.9875C23.1767 32.5364 22.5449 32.4131 22.0761 32.712Z" fill="#337AFF"/>
<path fill-rule="evenodd" clip-rule="evenodd" d="M36.9294 37.2548C36.7982 37.298 36.7283 37.4353 36.7731 37.5616C37.4836 39.5598 37.5965 41.993 37.5965 44.409C37.5965 44.5425 37.7089 44.6506 37.8476 44.6506C37.9862 44.6506 38.0986 44.5425 38.0986 44.409C38.0986 41.9932 37.9884 39.4871 37.2482 37.4052C37.2034 37.2789 37.0606 37.2116 36.9294 37.2548Z" fill="#337AFF"/>
<path fill-rule="evenodd" clip-rule="evenodd" d="M23.3333 38.0523C23.1986 38.0208 23.0629 38.1004 23.0302 38.2301C22.9424 38.5784 22.87 38.9136 22.7992 39.2415C22.6503 39.9313 22.5083 40.5891 22.2439 41.2699C21.8618 42.2537 21.2265 43.2658 19.9423 44.3803C19.8393 44.4696 19.8312 44.6224 19.924 44.7215C20.0169 44.8205 20.1756 44.8284 20.2786 44.7391C21.6207 43.5743 22.3031 42.4978 22.7143 41.439C22.9922 40.7233 23.1474 40.0057 23.3008 39.2966C23.3699 38.977 23.4387 38.6592 23.5181 38.344C23.5508 38.2144 23.4681 38.0837 23.3333 38.0523Z" fill="#337AFF"/>
<path d="M38.4518 11.224C34.4365 11.5555 33.1062 7.00815 25.2547 9.77333C23.5476 9.08444 27.0304 3.76502 23.4582 6.37377C20.6006 8.46078 22.2109 9.67748 23.3727 9.7672C18.2248 11.2429 13.7232 20.2323 19.2319 20.895C25.914 21.6989 33.7733 19.5231 36.8795 17.6719C39.1792 16.3013 38.8759 26.5849 41.8816 26.3356C43.9974 26.1601 44.7267 23.6924 43.0231 22.4731C43.3324 22.2879 44.572 22.837 45.456 21.2247C46.34 19.6124 42.974 15.4562 41.3806 14.2409C41.9196 12.4169 42.6982 10.8735 38.4518 11.224Z" fill="black"/>
<path d="M29.6962 42.2118C30.5166 41.9625 31.0807 41.4509 30.9561 41.069L29.6029 36.9198C29.4783 36.5379 28.7123 36.4303 27.892 36.6796L16.9001 40.0189C13.6186 41.0158 12.6327 42.6765 13.1309 44.2042C13.6291 45.7319 15.4229 46.548 18.7043 45.5511L29.6962 42.2118Z" fill="#FFAE4E"/>
<path d="M24.639 42.2655C25.3874 42.0381 25.9175 41.6188 25.823 41.329L24.7961 38.1804C24.7016 37.8905 24.0182 37.8399 23.2698 38.0673L13.2414 41.1139C10.2476 42.0234 9.2861 43.3485 9.66419 44.5078C10.0423 45.6671 11.6168 46.2216 14.6106 45.3121L24.639 42.2655Z" fill="#FFAE4E"/>
<path fill-rule="evenodd" clip-rule="evenodd" d="M31.0172 45.7212C31.022 45.6373 30.9551 45.5655 30.8679 45.561C30.7024 45.5523 30.4315 45.5671 30.1378 45.6362C29.8441 45.7054 29.5164 45.8315 29.2477 46.0534C29.1814 46.1081 29.1738 46.2042 29.2307 46.268C29.2876 46.3317 29.3874 46.3391 29.4537 46.2843C29.6724 46.1037 29.9491 45.994 30.213 45.9319C30.4767 45.8697 30.7164 45.8578 30.8507 45.8648C30.9379 45.8694 31.0125 45.8051 31.0172 45.7212Z" fill="#FF9C27"/>
<path fill-rule="evenodd" clip-rule="evenodd" d="M30.1207 43.8303C30.1162 43.7464 30.0418 43.6818 29.9546 43.6862C29.7891 43.6944 29.5214 43.7367 29.2368 43.8354C28.9524 43.934 28.6404 44.0928 28.3976 44.3408C28.3378 44.4019 28.3407 44.4982 28.4043 44.5559C28.4679 44.6135 28.5679 44.6106 28.6278 44.5495C28.8255 44.3476 29.0885 44.2103 29.3441 44.1217C29.5995 44.033 29.8366 43.9968 29.9709 43.9901C30.0581 43.9858 30.1252 43.9142 30.1207 43.8303Z" fill="#FF9C27"/>
<path fill-rule="evenodd" clip-rule="evenodd" d="M28.7045 42.149C28.694 42.0656 28.6153 42.0061 28.5286 42.0161C28.364 42.0352 28.0999 42.095 27.8231 42.2122C27.5464 42.3294 27.2463 42.5083 27.0218 42.7717C26.9664 42.8367 26.9762 42.9326 27.0437 42.9859C27.1112 43.0392 27.2109 43.0297 27.2663 42.9647C27.4491 42.7503 27.7018 42.5961 27.9504 42.4908C28.199 42.3856 28.4329 42.3338 28.5664 42.3183C28.6531 42.3082 28.7149 42.2324 28.7045 42.149Z" fill="#FF9C27"/>
<path d="M-8.81152 42.5391H70.9479C74.2969 42.5391 77.0118 45.254 77.0118 48.603H-8.81152V42.5391Z" fill="#4C8BFF"/>
<rect x="7.08887" y="35.1196" width="8.93118" height="10.0941" rx="2.18389" fill="white"/>
<path fill-rule="evenodd" clip-rule="evenodd" d="M5.83064 38.0819C6.4978 37.6519 7.32577 37.6045 7.96653 37.6045V38.8929C7.33892 38.8929 6.87921 38.9568 6.57577 39.1524C6.33419 39.3081 6.06062 39.6373 6.06062 40.5286C6.06062 40.9157 6.25112 41.1455 6.60217 41.3306C6.99062 41.5354 7.49065 41.6312 7.93075 41.7064L7.6967 42.975C7.27834 42.9035 6.56708 42.7812 5.95886 42.4606C5.31324 42.1202 4.72168 41.5174 4.72168 40.5286C4.72168 39.3625 5.10162 38.5518 5.83064 38.0819Z" fill="white"/>
<path d="M27.7892 45.0539L28.4791 46.5232L22.2693 44.7792L15.9053 42.5498H26.4207L27.7892 44.7383V45.0539Z" fill="black" fill-opacity="0.19"/>
<path d="M10.377 31.6645C11.5567 30.966 11.1035 30.0514 10.5952 29.5378C10.5369 29.4789 10.5857 29.3705 10.6674 29.384C11.6731 29.5507 12.0171 29.8722 12.1627 30.0123C12.1661 30.0155 12.1691 30.019 12.1718 30.0227C12.9578 31.0991 11.8444 32.0843 11.4448 32.4435C11.1092 32.7453 11.2556 33.3227 11.474 33.7373C11.517 33.8191 11.4008 33.9544 11.3208 33.9082C10.3349 33.3401 9.20567 32.3581 10.377 31.6645Z" fill="white"/>
<ellipse cx="11.5511" cy="36.1367" rx="3.38606" ry="0.884771" fill="#706250"/>
<path d="M22.4639 43.9973L39.9167 43.6763L33.8087 46.2224H27.63L22.4643 44.8131L22.4639 43.9973Z" fill="#79777A"/>
<path fill-rule="evenodd" clip-rule="evenodd" d="M32.3599 37.1547L34.0542 38.0688C34.4606 38.288 34.7291 38.7346 34.7377 39.2058C34.7427 39.4803 34.6585 39.7394 34.4997 39.9386L34.4209 40.0374C34.4133 40.0469 34.4056 40.0562 34.3978 40.0655L35.4402 41.8028C35.7604 42.3365 35.5704 43.019 35.0157 43.3271C34.6792 43.5141 34.2857 43.5203 33.9567 43.377C34.0807 43.8718 33.8327 44.3992 33.336 44.6262C32.8406 44.8525 32.2611 44.7057 31.9403 44.3031C31.9365 44.6791 31.7321 45.0434 31.3692 45.245C30.9245 45.4922 30.3787 45.4186 30.0211 45.099C29.9268 45.3056 29.7656 45.4862 29.5469 45.6077C29.0008 45.9112 28.3023 45.7311 27.987 45.2055L26.2622 42.3308C26.193 42.2154 26.148 42.093 26.1257 41.969C25.0878 40.1146 25.7645 37.7901 27.6728 36.7299C29.2105 35.8756 31.0873 36.0983 32.3599 37.1547Z" fill="#FFBA68"/>
<path d="M30.083 33.2513C30.214 32.6173 30.7723 32.1626 31.4197 32.1626L51.8616 32.1628C52.698 32.1628 53.3376 32.9081 53.2107 33.7348L51.4256 45.3626C51.3233 46.0286 50.7503 46.5204 50.0765 46.5204H29.0167C28.1518 46.5204 27.5049 45.7262 27.68 44.8792L30.083 33.2513Z" fill="#BABFC7"/>
<rect x="10.125" y="47.2256" width="36.1652" height="7.12976" fill="#4C8BFF"/>
<ellipse cx="11.547" cy="43.7204" rx="4.48157" ry="2.05443" fill="white"/>
<path d="M38.7944 39.2954L38.8877 38.3892L41.9911 40.3152L41.8988 41.2121L38.7944 39.2954Z" fill="url(#paint0_linear_1082_33823)"/>
<path d="M42.0606 39.6076L42.1539 38.7013L40.6129 37.6393L38.8842 38.3897L38.791 39.296L40.5196 38.5456L42.0606 39.6076Z" fill="white"/>
<path d="M41.9923 40.3029L41.899 41.2092L40.1927 41.7538L38.6294 40.8975L38.7227 39.9912L40.286 40.8475L41.9923 40.3029Z" fill="white"/>
</g>
<defs>
<linearGradient id="paint0_linear_1082_33823" x1="40.5225" y1="38.545" x2="40.2829" y2="41.0581" gradientUnits="userSpaceOnUse">
<stop stop-color="white"/>
<stop offset="1" stop-color="white" stop-opacity="0"/>
</linearGradient>
</defs>
</svg>
