<svg width="55" height="55" viewBox="0 0 55 55" fill="none" xmlns="http://www.w3.org/2000/svg">
<circle cx="27.3567" cy="27.2122" r="26.8567" fill="#D9D9D9"/>
<path d="M22.6726 45.6404C23.2245 45.4172 23.5578 44.9529 23.4172 44.6034L21.889 40.8056C21.7484 40.456 21.1869 40.3536 20.635 40.5767L13.24 43.567C11.0324 44.4597 10.5534 45.9713 11.1161 47.3696C11.6787 48.7679 13.0699 49.5234 15.2776 48.6307L22.6726 45.6404Z" fill="#FFAE4E"/>
<path d="M33.5196 42.1805C33.3125 41.6224 33.4307 41.0631 33.7838 40.9314L37.6192 39.5004C37.9722 39.3686 38.4263 39.7143 38.6335 40.2724L41.4092 47.7506C42.2379 49.9831 41.444 51.3558 40.0319 51.8827C38.6197 52.4096 37.124 51.8911 36.2953 49.6587L33.5196 42.1805Z" fill="#FFAE4E"/>
<path d="M20.9807 47.0836C20.6333 47.4808 19.9933 47.4882 19.5515 47.1003L14.7509 42.8857C14.309 42.4978 14.2324 41.8613 14.5799 41.4642L19.2358 36.1426C20.6257 34.5539 23.1853 34.524 24.9529 36.0757C26.7204 37.6275 27.0265 40.1733 25.6366 41.762L20.9807 47.0836Z" fill="#4C8BFF"/>
<path d="M32.8848 46.974C33.1663 47.4204 33.7973 47.5272 34.2941 47.2127L39.6914 43.7954C40.1882 43.4808 40.3627 42.864 40.0811 42.4177L36.3089 36.4371C35.1827 34.6518 32.6589 34.2244 30.6717 35.4826C28.6844 36.7408 27.9864 39.2082 29.1125 40.9935L32.8848 46.974Z" fill="#4C8BFF"/>
<path d="M18.582 42.0158C18.582 38.2176 19.4907 34.4111 22.7048 34.4111H31.6282C34.8423 34.4111 36.1697 36.8574 36.1697 40.6556L35.5397 51.8049C35.4926 52.4931 34.9236 53.0659 34.1565 53.1976C29.3359 54.0251 25.0821 54.0251 20.2615 53.1976C19.503 53.0674 18.6417 52.4846 18.582 51.8049V42.0158Z" fill="#4C8BFF"/>
<path d="M23.4453 31.9345C23.4453 30.4759 24.4036 29.2935 25.5858 29.2935H28.5825C29.7647 29.2935 30.723 30.4759 30.723 31.9345V34.5756C30.723 36.0342 29.7647 37.2167 28.5825 37.2167H25.5858C24.4036 37.2167 23.4453 36.0342 23.4453 34.5756V31.9345Z" fill="#FFAB48"/>
<path d="M40.878 27.1498C40.878 29.5452 38.8582 31.487 36.3667 31.487C33.8752 31.487 31.8555 29.5452 31.8555 27.1498C31.8555 24.7544 33.8752 22.8125 36.3667 22.8125C38.8582 22.8125 40.878 24.7544 40.878 27.1498Z" fill="#FF9C27"/>
<path d="M24.4209 25.7928C24.4209 28.1882 22.4012 30.1301 19.9097 30.1301C17.4182 30.1301 15.3984 28.1882 15.3984 25.7928C15.3984 23.3974 17.4182 21.4556 19.9097 21.4556C22.4012 21.4556 24.4209 23.3974 24.4209 25.7928Z" fill="#ED8000"/>
<path d="M38.8267 24.7137C38.8267 30.2404 33.7429 34.7208 27.4719 34.7208C21.2008 34.7208 15.5145 29.479 18.1003 25.524C16.1022 19.6674 21.2008 14.7065 27.4719 14.7065C33.7429 14.7065 38.8267 19.1869 38.8267 24.7137Z" fill="#FFBA68"/>
<path d="M38.9079 24.7332C38.9079 30.2875 33.7063 34.7901 27.2899 34.7901C20.8734 34.7901 15.0554 29.5222 17.701 25.5476C15.6567 19.6619 20.8734 14.6763 27.2899 14.6763C33.7063 14.6763 38.9079 19.1789 38.9079 24.7332Z" fill="#FFBA68"/>
<mask id="mask0_1082_34132" style="mask-type:alpha" maskUnits="userSpaceOnUse" x="17" y="14" width="22" height="21">
<path d="M38.9079 24.7332C38.9079 30.2875 33.7063 34.7901 27.2899 34.7901C20.8734 34.7901 15.0554 29.5222 17.701 25.5476C15.6567 19.6619 20.8734 14.6763 27.2899 14.6763C33.7063 14.6763 38.9079 19.1789 38.9079 24.7332Z" fill="#FFBA68"/>
</mask>
<g mask="url(#mask0_1082_34132)">
<path d="M38.6023 29.982C38.6023 32.3189 36.618 34.2134 34.1703 34.2134C31.7226 34.2134 29.7383 32.3189 29.7383 29.982C29.7383 27.645 31.7226 25.7505 34.1703 25.7505C36.618 25.7505 38.6023 27.645 38.6023 29.982Z" fill="#FF9A24"/>
<path d="M21.9148 29.3037C21.9148 31.6407 19.9305 33.5352 17.4828 33.5352C15.0351 33.5352 13.0508 31.6407 13.0508 29.3037C13.0508 26.9668 15.0351 25.0723 17.4828 25.0723C19.9305 25.0723 21.9148 26.9668 21.9148 29.3037Z" fill="#FF9A24"/>
</g>
<path d="M25.7471 27.6297C25.7471 27.8809 25.5353 28.0846 25.2739 28.0846C25.0126 28.0846 24.8008 27.8809 24.8008 27.6297C24.8008 27.3785 25.0126 27.1748 25.2739 27.1748C25.5353 27.1748 25.7471 27.3785 25.7471 27.6297Z" fill="black"/>
<path fill-rule="evenodd" clip-rule="evenodd" d="M23.2055 23.0062C23.5379 22.9207 23.7926 22.7221 23.917 22.576C24.0334 22.4393 24.2421 22.4184 24.3831 22.5292C24.5241 22.64 24.5441 22.8407 24.4277 22.9773C24.2278 23.2122 23.858 23.4965 23.3714 23.6217C22.8702 23.7506 22.2656 23.7046 21.6354 23.3001C21.4839 23.2029 21.444 23.0052 21.5464 22.8585C21.6487 22.7119 21.8545 22.6719 22.006 22.7691C22.4786 23.0724 22.8877 23.088 23.2055 23.0062Z" fill="#905A09"/>
<path fill-rule="evenodd" clip-rule="evenodd" d="M30.0586 23.3185C30.3969 23.3761 30.7105 23.2988 30.8837 23.2163C31.0457 23.139 31.2448 23.2051 31.3283 23.3638C31.4117 23.5226 31.3481 23.7139 31.186 23.7911C30.9076 23.9238 30.454 24.0324 29.9587 23.948C29.4485 23.8611 28.9154 23.5723 28.5053 22.9457C28.4066 22.7951 28.451 22.5983 28.6043 22.5063C28.7576 22.4142 28.9618 22.4617 29.0604 22.6123C29.368 23.0822 29.7351 23.2634 30.0586 23.3185Z" fill="#905A09"/>
<path d="M23.7012 11.8737C27.0557 13.3142 29.5463 9.62996 35.4786 14.3383C37.1504 14.2092 35.7311 8.46347 38.03 11.8125C39.8692 14.4918 38.1242 15.1201 37.0986 14.8692C41.088 17.6549 42.2965 26.9704 37.3636 25.9927C31.3799 24.8067 33.1285 16.6199 31.4951 18.4466C29.8618 20.2733 18.7874 25.4788 16.2768 24.3995C14.5095 23.6398 14.6132 21.2269 16.4391 20.6228C16.2281 20.3692 14.9996 20.5066 14.7169 18.814C14.4343 17.1213 18.5594 14.3667 20.2895 13.7348C20.3661 11.9514 20.1538 10.3504 23.7012 11.8737Z" fill="black"/>
<path fill-rule="evenodd" clip-rule="evenodd" d="M31.3971 34.6017C31.8015 34.9114 31.8783 35.4904 31.5686 35.8948L31.2483 36.313C30.2738 37.5854 28.7625 38.3316 27.1599 38.3316C25.6179 38.3316 24.157 37.6406 23.1789 36.4485L22.7445 35.9191C22.4214 35.5253 22.4787 34.9441 22.8725 34.621C23.2663 34.2979 23.8474 34.3552 24.1706 34.749L24.605 35.2784C25.2327 36.0435 26.1703 36.4869 27.1599 36.4869C28.1884 36.4869 29.1583 36.0081 29.7837 35.1915L30.104 34.7732C30.4137 34.3688 30.9926 34.292 31.3971 34.6017Z" fill="#337AFF"/>
<path fill-rule="evenodd" clip-rule="evenodd" d="M19.5748 38.9024C19.6936 38.9431 19.757 39.0724 19.7163 39.1912C19.0728 41.0723 18.9705 43.3628 18.9705 45.6372C18.9705 45.7628 18.8687 45.8646 18.7431 45.8646C18.6174 45.8646 18.5156 45.7628 18.5156 45.6372C18.5156 43.363 18.6155 41.0039 19.286 39.044C19.3266 38.9252 19.4559 38.8618 19.5748 38.9024Z" fill="#337AFF"/>
<path d="M31.9433 39.8754C32.4218 41.8479 32.4301 43.6345 34.8091 45.7802" stroke="#337AFF" stroke-width="1.5" stroke-linecap="round"/>
<path d="M13.1137 39.8987C13.3033 39.4965 13.7336 39.3002 14.0747 39.4603L17.7805 41.1996C18.1216 41.3597 18.2444 41.8155 18.0548 42.2178L15.514 47.6075C14.7555 49.2165 13.3281 49.3788 11.9637 48.7385C10.5992 48.0981 9.81438 46.8974 10.5729 45.2884L13.1137 39.8987Z" fill="#FFAE4E"/>
<path d="M23.3671 28.003C23.3089 28.4127 22.9257 28.6971 22.5112 28.6382C22.0967 28.5794 21.8078 28.1996 21.8659 27.79C21.9241 27.3803 22.4376 26.1776 22.8521 26.2364C23.2667 26.2953 23.4252 27.5934 23.3671 28.003Z" fill="white"/>
<path d="M29.5045 28.5073C29.5045 28.921 29.1651 29.2565 28.7464 29.2565C28.3277 29.2565 27.9883 28.921 27.9883 28.5073C27.9883 28.0935 28.3277 26.8306 28.7464 26.8306C29.1651 26.8306 29.5045 28.0935 29.5045 28.5073Z" fill="white"/>
<circle cx="22.9871" cy="25.7693" r="1.06133" fill="black"/>
<circle cx="22.7398" cy="25.524" r="0.489843" fill="white"/>
<circle cx="23.3113" cy="26.2591" r="0.244922" fill="white"/>
<circle cx="28.7488" cy="26.0726" r="1.06133" fill="black"/>
<circle cx="28.5055" cy="25.8272" r="0.489843" fill="white"/>
<circle cx="29.077" cy="26.5623" r="0.244922" fill="white"/>
<path d="M27.2956 29.1941C27.4092 29.2975 27.5077 29.412 27.5899 29.5347C27.8965 29.993 27.4453 30.4811 26.9082 30.4793L24.8273 30.472C24.2902 30.4702 23.8424 29.9788 24.1523 29.5228C24.2352 29.4006 24.3346 29.2868 24.4489 29.1842C24.8276 28.8443 25.3402 28.6544 25.8741 28.6562C26.4079 28.6581 26.9193 28.8516 27.2956 29.1941Z" fill="#E16037"/>
<path fill-rule="evenodd" clip-rule="evenodd" d="M13.3995 37.0411L13.8395 35.3374C13.9451 34.9288 14.2895 34.5863 14.7164 34.4655C14.965 34.3951 15.2202 34.4066 15.4383 34.4978L15.5465 34.5431C15.5569 34.5475 15.5672 34.5519 15.5774 34.5565L16.9175 33.226C17.3292 32.8172 17.9943 32.8196 18.4031 33.2313C18.6511 33.4811 18.7477 33.8242 18.6934 34.1468C19.115 33.9193 19.6524 34.0097 19.9739 34.3902C20.2945 34.7696 20.2949 35.3125 20.0028 35.6902C20.3458 35.6031 20.7247 35.6946 20.9921 35.9639C21.3199 36.2941 21.3792 36.7897 21.171 37.1797C21.3809 37.2127 21.5826 37.3104 21.7438 37.4727C22.1463 37.8782 22.1439 38.5331 21.7385 38.9357L19.521 41.1373C19.4321 41.2257 19.331 41.2945 19.2233 41.3439C17.7756 42.6986 15.5034 42.6647 14.0971 41.2483C12.9639 40.1069 12.7324 38.4096 13.3995 37.0411Z" fill="#FFBA68"/>
<path fill-rule="evenodd" clip-rule="evenodd" d="M21.2019 37.4507C21.1914 37.3723 21.1193 37.3172 21.0409 37.3277C20.8921 37.3476 20.6536 37.4071 20.4043 37.5207C20.1551 37.6342 19.8856 37.8062 19.6854 38.0568C19.6361 38.1186 19.6461 38.2087 19.7079 38.2581C19.7698 38.3075 19.8599 38.2974 19.9093 38.2356C20.0722 38.0316 20.2992 37.8834 20.5231 37.7814C20.747 37.6794 20.9582 37.6278 21.079 37.6117C21.1574 37.6012 21.2124 37.5291 21.2019 37.4507Z" fill="#FF9C27"/>
<path fill-rule="evenodd" clip-rule="evenodd" d="M20.069 35.8536C20.0503 35.7767 19.9728 35.7296 19.8959 35.7483C19.75 35.7839 19.5192 35.8682 19.2833 36.0076C19.0475 36.1468 18.7977 36.3464 18.6251 36.6167C18.5826 36.6834 18.6021 36.772 18.6688 36.8145C18.7355 36.8571 18.8241 36.8375 18.8666 36.7709C19.0071 36.5507 19.2171 36.3794 19.429 36.2542C19.6408 36.1291 19.8454 36.0555 19.9638 36.0267C20.0406 36.0079 20.0877 35.9305 20.069 35.8536Z" fill="#FF9C27"/>
<path fill-rule="evenodd" clip-rule="evenodd" d="M18.5135 34.538C18.4895 34.4626 18.409 34.4209 18.3336 34.4449C18.1905 34.4903 17.9659 34.5902 17.7401 34.7454C17.5144 34.9005 17.2788 35.1167 17.1252 35.3982C17.0873 35.4676 17.1129 35.5546 17.1823 35.5925C17.2517 35.6304 17.3388 35.6048 17.3767 35.5354C17.5017 35.3062 17.6995 35.1209 17.9024 34.9815C18.1051 34.8422 18.3042 34.7548 18.4203 34.7179C18.4957 34.694 18.5374 34.6134 18.5135 34.538Z" fill="#FF9C27"/>
<path d="M32.5505 47.6078C32.2098 47.322 32.1295 46.856 32.3712 46.5668L34.9966 43.426C35.2383 43.1368 35.7104 43.1342 36.0511 43.4199L40.6163 47.2492C41.9792 48.3924 41.7728 49.8141 40.8061 50.9705C39.8395 52.127 38.4786 52.5803 37.1157 51.4371L32.5505 47.6078Z" fill="#FFAE4E"/>
<path fill-rule="evenodd" clip-rule="evenodd" d="M36.3455 42.9691L36.3247 41.2096C36.3197 40.7876 36.067 40.3728 35.6813 40.1536C35.4566 40.026 35.206 39.9762 34.9725 40.0128L34.8566 40.0309C34.8455 40.0327 34.8344 40.0345 34.8234 40.0366L33.8395 38.4246C33.5372 37.9295 32.8908 37.7731 32.3956 38.0753C32.0951 38.2588 31.9194 38.5689 31.8952 38.8951C31.54 38.5735 30.9966 38.5331 30.5935 38.8259C30.1917 39.1179 30.0617 39.645 30.2554 40.0815C29.9429 39.9151 29.5532 39.9135 29.2292 40.1112C28.8321 40.3536 28.6563 40.8208 28.7654 41.2492C28.5537 41.2312 28.3345 41.2779 28.1393 41.3971C27.6516 41.6948 27.4976 42.3314 27.7953 42.819L29.4234 45.4862C29.4887 45.5932 29.5704 45.6842 29.6632 45.7578C30.7458 47.4189 32.9604 47.9282 34.6641 46.8882C36.037 46.0502 36.6668 44.4572 36.3455 42.9691Z" fill="#FFBA68"/>
<path fill-rule="evenodd" clip-rule="evenodd" d="M28.6706 41.5044C28.6995 41.4308 28.7826 41.3945 28.8562 41.4234C28.996 41.4783 29.2134 41.5929 29.4284 41.7627C29.6433 41.9324 29.864 42.1638 29.9986 42.4549C30.0318 42.5267 30.0005 42.6118 29.9287 42.645C29.8569 42.6782 29.7718 42.6469 29.7386 42.5751C29.629 42.3381 29.444 42.14 29.2508 41.9875C29.0578 41.835 28.865 41.7346 28.7516 41.6901C28.6779 41.6612 28.6417 41.578 28.6706 41.5044Z" fill="#FF9C27"/>
<path fill-rule="evenodd" clip-rule="evenodd" d="M30.1534 40.2245C30.1899 40.1543 30.2764 40.127 30.3466 40.1636C30.4798 40.2329 30.6839 40.3699 30.8797 40.5615C31.0754 40.753 31.2704 41.0064 31.3735 41.3101C31.3989 41.385 31.3588 41.4663 31.2838 41.4917C31.2089 41.5172 31.1276 41.477 31.1022 41.4021C31.0183 41.1548 30.8552 40.9383 30.6793 40.7662C30.5035 40.5942 30.3224 40.4739 30.2143 40.4177C30.1441 40.3811 30.1169 40.2946 30.1534 40.2245Z" fill="#FF9C27"/>
<path fill-rule="evenodd" clip-rule="evenodd" d="M31.9734 39.3171C32.0147 39.2496 32.1028 39.2283 32.1703 39.2696C32.2985 39.3479 32.4927 39.4985 32.6749 39.703C32.8571 39.9075 33.0343 40.1737 33.1164 40.4837C33.1366 40.5602 33.091 40.6386 33.0145 40.6588C32.938 40.679 32.8596 40.6334 32.8394 40.5569C32.7726 40.3045 32.6248 40.0773 32.461 39.8936C32.2974 39.71 32.1249 39.5776 32.021 39.5141C31.9535 39.4728 31.9322 39.3846 31.9734 39.3171Z" fill="#FF9C27"/>
</svg>
