<svg width="55" height="55" viewBox="0 0 55 55" fill="none" xmlns="http://www.w3.org/2000/svg">
<circle cx="27.5" cy="27.3555" r="27" fill="#D9D9D9"/>
<path d="M21.8164 31.7468C21.8164 34.6862 19.4335 37.0691 16.4941 37.0691C13.5547 37.0691 11.1719 34.6862 11.1719 31.7468C11.1719 28.8074 13.5547 26.4246 16.4941 26.4246C19.4335 26.4246 21.8164 28.8074 21.8164 31.7468Z" fill="#FF9C27"/>
<path d="M43.5469 31.7471C43.5469 34.6865 41.164 37.0693 38.2246 37.0693C35.2852 37.0693 32.9023 34.6865 32.9023 31.7471C32.9023 28.8077 35.2852 26.4248 38.2246 26.4248C41.164 26.4248 43.5469 28.8077 43.5469 31.7471Z" fill="#FF9C27"/>
<path d="M40.7578 28.6595C40.7578 35.4416 34.76 40.9396 27.3613 40.9396C19.9626 40.9396 13.9648 35.4416 13.9648 28.6595C13.9648 21.8774 19.9626 16.3794 27.3613 16.3794C34.76 16.3794 40.7578 21.8774 40.7578 28.6595Z" fill="#FFBA68"/>
<mask id="mask0_1082_33581" style="mask-type:alpha" maskUnits="userSpaceOnUse" x="13" y="16" width="28" height="25">
<path d="M40.7538 28.6595C40.7538 35.4416 34.756 40.9396 27.3574 40.9396C19.9587 40.9396 13.9609 35.4416 13.9609 28.6595C13.9609 21.8774 19.9587 16.3794 27.3574 16.3794C34.756 16.3794 40.7538 21.8774 40.7538 28.6595Z" fill="#FFAB49"/>
</mask>
<g mask="url(#mask0_1082_33581)">
<path d="M22.895 34.9683C22.895 37.836 20.554 40.1608 17.6663 40.1608C14.7785 40.1608 12.4375 37.836 12.4375 34.9683C12.4375 32.1006 14.7785 29.7759 17.6663 29.7759C20.554 29.7759 22.895 32.1006 22.895 34.9683Z" fill="#FF9A24"/>
<path d="M42.2817 34.9683C42.2817 37.836 39.9408 40.1608 37.053 40.1608C34.1652 40.1608 31.8242 37.836 31.8242 34.9683C31.8242 32.1006 34.1652 29.7759 37.053 29.7759C39.9408 29.7759 42.2817 32.1006 42.2817 34.9683Z" fill="#FF9A24"/>
</g>
<path fill-rule="evenodd" clip-rule="evenodd" d="M24.2884 34.9583C26.2893 35.5816 28.4324 35.5816 30.4333 34.9583C30.6481 34.8914 30.7617 34.6811 30.687 34.4887C30.6123 34.2963 30.3775 34.1945 30.1627 34.2615C28.338 34.8299 26.3836 34.8299 24.559 34.2615C24.3441 34.1945 24.1094 34.2963 24.0347 34.4887C23.96 34.6811 24.0735 34.8914 24.2884 34.9583Z" fill="#A75A00"/>
<path d="M21.0035 32.2717C19.9686 31.2276 18.9454 28.5016 19.9627 27.4388C20.9801 26.376 23.6529 27.3789 24.6878 28.423C25.7227 29.4672 25.7369 31.1752 24.7195 32.2379C23.7021 33.3007 22.0384 33.3158 21.0035 32.2717Z" fill="black"/>
<path d="M33.5043 32.2717C34.5392 31.2276 35.5625 28.5016 34.5451 27.4388C33.5277 26.376 30.855 27.3789 29.82 28.423C28.7851 29.4672 28.7709 31.1752 29.7883 32.2379C30.8057 33.3007 32.4694 33.3158 33.5043 32.2717Z" fill="black"/>
<path d="M24.5695 29.776C24.5695 30.0842 24.3196 30.3341 24.0113 30.3341C23.703 30.3341 23.4531 30.0842 23.4531 29.776C23.4531 29.4677 23.703 29.2178 24.0113 29.2178C24.3196 29.2178 24.5695 29.4677 24.5695 29.776Z" fill="white"/>
<path d="M31.2648 29.776C31.2648 30.0842 31.0149 30.3341 30.7066 30.3341C30.3983 30.3341 30.1484 30.0842 30.1484 29.776C30.1484 29.4677 30.3983 29.2178 30.7066 29.2178C31.0149 29.2178 31.2648 29.4677 31.2648 29.776Z" fill="white"/>
<path d="M22.9577 34.2946C24.3728 32.5762 25.7139 32.3512 26.7755 32.7135C28.304 33.2352 28.5632 35.2671 27.648 36.5978C25.3515 39.9366 21.1122 39.4174 18.1435 38.2706C17.6989 38.0989 17.8326 37.4436 18.2981 37.3412C19.6129 37.052 21.3133 36.2912 22.9577 34.2946Z" fill="black"/>
<path d="M32.3197 34.2946C30.9046 32.5762 29.5634 32.3512 28.5018 32.7135C26.9734 33.2352 26.7141 35.2671 27.6294 36.5978C29.9258 39.9366 34.1651 39.4174 37.1338 38.2706C37.5784 38.0989 37.4447 37.4436 36.9793 37.3412C35.6645 37.052 33.964 36.2912 32.3197 34.2946Z" fill="black"/>
<path fill-rule="evenodd" clip-rule="evenodd" d="M30.9016 22.9827C29.8733 19.5316 24.5826 18.0081 20.9217 23.238C20.5613 23.7529 20.2175 24.2564 19.8853 24.7429C18.6864 26.4986 17.6385 28.0334 16.5046 29.0858C16.4903 29.1192 16.4763 29.153 16.4625 29.1871C15.9198 30.5356 16.1225 32.034 16.4104 33.4587C16.5742 34.2696 15.8272 34.8826 15.1958 34.3483C14.3209 33.6081 13.4677 32.3936 13.1961 30.565C12.2133 30.5756 11.0988 30.2657 9.78066 29.5558C9.34545 29.3215 9.46057 28.6438 9.82479 28.3096C10.3954 27.7861 10.6365 26.9471 10.9947 25.7009C11.434 24.1722 12.0495 22.0308 13.6653 19.1071C19.493 8.56173 30.8394 9.88155 33.986 16.4818C34.0147 16.5418 34.0894 16.5649 34.1477 16.533C38.1897 14.3201 46.3464 21.2967 42.7168 28.6813C42.9764 29.0419 43.2974 29.5149 43.6116 29.9885C44.069 30.6777 43.6082 31.5271 42.8218 31.2702C42.3932 31.1302 41.94 30.9209 41.4906 30.6215C41.21 32.4187 40.3653 33.6157 39.4996 34.3483C38.8681 34.8826 38.1211 34.2696 38.2849 33.4587C38.4625 32.5799 38.6563 31.6963 38.7835 31.3144C38.9722 30.7485 38.4566 30.2061 38.1328 29.7052C37.6382 28.9402 37.319 28.0461 37.1836 27.1186C36.2386 20.647 32.2935 21.7094 31.1281 23.03C31.0629 23.1039 30.9298 23.0773 30.9016 22.9827Z" fill="black"/>
</svg>
