<svg width="55" height="55" viewBox="0 0 55 55" fill="none" xmlns="http://www.w3.org/2000/svg">
<circle cx="27.3567" cy="27.2122" r="26.8567" fill="#D9D9D9"/>
<mask id="mask0_1082_33982" style="mask-type:alpha" maskUnits="userSpaceOnUse" x="0" y="0" width="55" height="55">
<circle cx="27.7864" cy="27.2122" r="26.8567" fill="#D9D9D9"/>
</mask>
<g mask="url(#mask0_1082_33982)">
<path d="M48.0274 44.4338C48.5842 45.3836 48.9756 46.4665 48.7794 47.5499C48.0123 51.7863 44.3342 54.2725 39.9124 54.2725C34.9341 54.2725 30.8984 50.51 30.8984 45.8687C30.8984 41.4419 36.2543 31.826 40.4397 30.0958C40.829 29.9349 41.2591 29.8843 41.6763 29.9426C45.5061 30.4779 43.1914 36.1833 48.0274 44.4338Z" fill="#F4723A"/>
<path d="M36.5259 45.6894C36.5676 45.6946 36.6059 45.7237 36.6197 45.7634C37.6934 48.8389 36.4263 51.0196 34.9587 51.5457C33.4807 52.0754 31.484 50.277 30.4989 47.5288C29.5193 44.7957 29.7244 38.6485 30.8474 37.1079C30.86 37.0906 30.8805 37.0772 30.9011 37.0715C32.2793 36.6868 28.6452 44.7163 36.5259 45.6894Z" fill="#F4723A"/>
<path d="M37.1455 50.6077C37.1773 50.6022 37.212 50.6065 37.241 50.6206C39.2379 51.5835 39.9081 52.7491 39.6425 53.3072C39.3749 53.8695 38.1038 54.5284 36.3082 53.6738C34.5346 52.8298 30.5359 50.2468 30.4525 48.5774C30.4505 48.5373 30.4669 48.497 30.4997 48.4738C31.1592 48.0056 31.8894 51.5213 37.1455 50.6077Z" fill="#F4723A"/>
<path d="M43.453 50.3757C43.4304 50.3749 43.4067 50.3812 43.3877 50.3935C41.5193 51.6052 40.9899 52.8358 41.3172 53.3444C41.6462 53.8556 42.9763 54.3247 44.6485 53.2486C46.3054 52.1823 49.9688 49.1077 49.8336 47.4744C49.8312 47.4451 49.8147 47.4175 49.7894 47.4027C49.0745 46.9845 48.7904 50.5599 43.453 50.3757Z" fill="#F4723A"/>
<path d="M32.2384 34.2188C31.6581 34.9969 32.1282 36.8782 31.2178 36.5416C30.6942 36.3481 30.9327 35.4385 31.2095 34.9538C31.4747 34.4896 31.8106 34.1176 32.1396 33.8446C32.6889 33.3888 32.9061 33.5157 32.4059 34.0248C32.3469 34.0848 32.2902 34.1494 32.2384 34.2188Z" fill="#F4723A"/>
<path d="M44.8384 45.3505C43.2441 46.1191 41.2729 47.1554 41.9863 48.7751C42.4554 49.8404 43.3829 50.6209 44.3259 50.9589C45.9989 51.5585 47.9983 50.2503 48.7917 48.0368C49.6139 46.2849 49.9191 43.2878 49.6132 41.1618C49.3738 39.4986 48.4279 39.8282 47.9107 41.4269C47.4419 42.876 46.5469 44.5268 44.8384 45.3505Z" fill="#F4723A"/>
<path d="M45.8062 46.3366C46.2872 47.2516 46.6439 48.2691 46.4361 49.2817C45.7896 52.4316 43.1896 54.2717 40.0804 54.2717C36.485 54.2717 33.5703 51.3339 33.5703 47.7098C33.5703 44.0858 37.2987 35.2422 40.8942 35.2422C44.262 35.2422 42.3201 39.7044 45.8062 46.3366Z" fill="#FFA113"/>
<path d="M43.1785 48.6423C43.6067 49.5727 44.011 50.6004 43.6565 51.5612C43.0989 53.0723 41.7067 53.9388 40.0776 53.9388C37.9572 53.9388 36.2383 52.1864 36.2383 50.0247C36.2383 47.863 38.4371 42.5879 40.5575 42.5879C42.4479 42.5879 41.5016 44.999 43.1785 48.6423Z" fill="#FFE166"/>
<path d="M9.666 48.4052C9.14692 49.3762 8.71041 50.4689 9.04408 51.5182C9.7403 53.7074 11.8242 54.9734 14.2868 54.9734C17.3191 54.9734 19.7773 52.6815 19.7773 49.8544C19.7773 47.2366 16.7026 41.6398 14.1904 40.3512C13.8156 40.1589 13.3769 40.0929 12.9701 40.2021C11.0571 40.7155 12.0899 43.8712 9.666 48.4052Z" fill="#F4723A"/>
<path d="M16.3527 49.7448C16.3273 49.748 16.304 49.7657 16.2955 49.7898C15.6415 51.6632 16.4133 52.9915 17.3073 53.312C18.2076 53.6346 19.4238 52.5392 20.0238 50.8652C20.6205 49.2004 20.4956 45.456 19.8116 44.5176C19.8039 44.5071 19.7914 44.499 19.7789 44.4955C18.9394 44.2611 21.153 49.152 16.3527 49.7448Z" fill="#F4723A"/>
<path d="M15.9949 52.7449C15.9631 52.7395 15.9286 52.7437 15.8995 52.7578C14.6969 53.3428 14.2933 54.0475 14.4543 54.3858C14.6173 54.7283 15.3916 55.1297 16.4853 54.6092C17.557 54.0991 19.9626 52.5467 20.0505 51.5293C20.0539 51.4892 20.0385 51.4472 20.0026 51.4291C19.6064 51.2297 19.1239 53.2799 15.9949 52.7449Z" fill="#F4723A"/>
<path d="M12.1321 52.5997C12.1459 52.5993 12.1603 52.6031 12.1719 52.6106C13.31 53.3486 13.6324 54.0982 13.4331 54.408C13.2327 54.7194 12.4225 55.0052 11.4039 54.3497C10.3946 53.7002 8.16324 51.8273 8.24559 50.8325C8.24706 50.8147 8.25707 50.7978 8.27249 50.7888C8.70797 50.5341 8.88099 52.7119 12.1321 52.5997Z" fill="#F4723A"/>
<path d="M18.965 42.7581C19.3184 43.2321 19.0321 44.378 19.5867 44.173C19.9056 44.0551 19.7603 43.5011 19.5917 43.2058C19.4302 42.923 19.2256 42.6965 19.0252 42.5302C18.6906 42.2526 18.5582 42.3298 18.863 42.64C18.8989 42.6765 18.9334 42.7158 18.965 42.7581Z" fill="#F4723A"/>
<path d="M11.2883 49.5388C12.2594 50.007 13.4601 50.6382 13.0256 51.6248C12.7398 52.2737 12.1749 52.7491 11.6005 52.955C10.5814 53.3202 9.36357 52.5234 8.88031 51.1751C8.37951 50.108 8.19356 48.2824 8.37993 46.9874C8.52573 45.9743 9.10189 46.175 9.41695 47.1489C9.70251 48.0315 10.2477 49.0371 11.2883 49.5388Z" fill="#F4723A"/>
<path d="M10.9748 49.5844C10.537 50.5209 10.1271 51.5574 10.4839 52.5277C11.0555 54.0816 12.4979 54.9731 14.1869 54.9731C16.377 54.9731 18.1523 53.1836 18.1523 50.9761C18.1523 48.7686 15.8813 43.3818 13.6912 43.3818C11.7353 43.3818 12.7196 45.8528 10.9748 49.5844Z" fill="#FFA113"/>
<path d="M12.5374 50.9793C12.1833 51.9403 11.6969 53.0321 12.2992 53.8605C12.7242 54.4451 13.414 54.77 14.1927 54.77C15.4842 54.77 16.5312 53.7026 16.5312 52.3859C16.5312 51.0691 15.1919 47.856 13.9003 47.856C12.8496 47.856 13.2377 49.079 12.5374 50.9793Z" fill="#FFE166"/>
<path d="M16.8665 43.2534C17.3853 43.5069 17.9364 43.4464 18.0974 43.1183L19.8464 39.5536C20.0074 39.2255 19.7173 38.754 19.1985 38.5006L12.2469 35.1044C10.1716 34.0906 8.7706 34.7251 8.12664 36.0376C7.48267 37.35 7.83962 38.8434 9.9149 39.8573L16.8665 43.2534Z" fill="#FFAE4E"/>
<path d="M45.5518 37.4308C46.0561 37.1495 46.3209 36.6624 46.1434 36.3429L44.2147 32.8722C44.0372 32.5528 43.4845 32.5218 42.9803 32.8032L36.2239 36.5728C34.2069 37.6981 33.9283 39.2107 34.6384 40.4886C35.3485 41.7665 36.7785 42.3257 38.7954 41.2004L45.5518 37.4308Z" fill="#FFAE4E"/>
<path d="M41.9531 40.9823C42.4364 40.8135 42.675 40.2405 42.486 39.7024L40.4335 33.8562C40.2445 33.3181 39.6996 33.0186 39.2164 33.1873L32.7416 35.4482C30.8086 36.1231 29.8543 38.4152 30.61 40.5677C31.3658 42.7202 33.5454 43.918 35.4783 43.2431L41.9531 40.9823Z" fill="#4C8BFF"/>
<path d="M14.2636 43.5272C13.7599 43.4364 13.4344 42.9079 13.5365 42.3468L14.6463 36.251C14.7484 35.6899 15.2396 35.3086 15.7433 35.3994L22.4927 36.6162C24.5076 36.9794 25.8098 39.0934 25.4012 41.3378C24.9926 43.5823 23.0279 45.1073 21.013 44.744L14.2636 43.5272Z" fill="#4C8BFF"/>
<path d="M37.1539 43.2118C36.9834 39.5318 35.9321 35.8845 32.818 36.0288L24.1722 36.4295C21.0581 36.5737 19.8818 39.0035 20.0523 42.6836L21.1633 53.4577C21.2399 54.1223 21.8168 54.6519 22.566 54.745C27.2737 55.3303 31.3952 55.1394 36.0287 54.1212C36.7578 53.961 37.5661 53.3576 37.5934 52.6964L37.1539 43.2118Z" fill="#4C8BFF"/>
<path d="M30.7429 33.3778C30.5375 31.978 29.4514 30.9782 28.3169 31.1446L25.4411 31.5664C24.3067 31.7328 23.5534 33.0024 23.7588 34.4022L24.1305 36.9368C24.3359 38.3366 25.422 39.3364 26.5565 39.17L29.4323 38.7482C30.5667 38.5818 31.32 37.3121 31.1146 35.9123L30.7429 33.3778Z" fill="#FFAB48"/>
<path d="M13.6395 31.1648C13.9767 33.4635 16.1883 35.0427 18.5793 34.692C20.9703 34.3413 22.6352 32.1935 22.298 29.8947C21.9608 27.5959 19.7492 26.0167 17.3582 26.3674C14.9672 26.7182 13.3023 28.866 13.6395 31.1648Z" fill="#FF9C27"/>
<path d="M29.2411 27.5476C29.5782 29.8463 31.7899 31.4256 34.1809 31.0748C36.5718 30.7241 38.2368 28.5763 37.8996 26.2775C37.5624 23.9788 35.3508 22.3995 32.9598 22.7503C30.5688 23.101 28.9039 25.2488 29.2411 27.5476Z" fill="#ED8000"/>
<path d="M15.2603 28.5387C16.0383 33.8425 21.5476 37.4265 27.5657 36.5438C33.5838 35.661 38.3028 29.8303 35.2647 26.3988C36.3577 20.4973 30.7665 16.4542 24.7484 17.3369C18.7303 18.2197 14.4823 23.2349 15.2603 28.5387Z" fill="#FFBA68"/>
<path d="M15.1904 28.5688C15.9723 33.899 21.5978 37.4878 27.7554 36.5846C33.913 35.6814 38.7549 29.8071 35.6564 26.3652C36.7898 20.4291 31.0817 16.379 24.9241 17.2822C18.7665 18.1854 14.4086 23.2386 15.1904 28.5688Z" fill="url(#paint0_linear_1082_33982)"/>
<mask id="mask1_1082_33982" style="mask-type:alpha" maskUnits="userSpaceOnUse" x="15" y="17" width="22" height="20">
<path d="M15.1865 28.5502C15.9684 33.8804 21.5939 37.4693 27.7515 36.566C33.9091 35.6628 38.751 29.7885 35.6525 26.3466C36.7859 20.4106 31.0778 16.3604 24.9202 17.2636C18.7626 18.1668 14.4047 23.22 15.1865 28.5502Z" fill="#FFBA68"/>
</mask>
<g mask="url(#mask1_1082_33982)">
<path d="M16.2181 33.5614C16.5471 35.8041 18.718 37.3429 21.067 36.9983C23.416 36.6538 25.0535 34.5564 24.7245 32.3137C24.3956 30.071 22.2247 28.5322 19.8757 28.8768C17.5267 29.2213 15.8892 31.3187 16.2181 33.5614Z" fill="#FF9A24"/>
<path d="M32.1361 30.5619C32.465 32.8046 34.636 34.3434 36.9849 33.9988C39.3339 33.6543 40.9715 31.5569 40.6425 29.3142C40.3136 27.0715 38.1426 25.5327 35.7937 25.8773C33.4447 26.2218 31.8071 28.3192 32.1361 30.5619Z" fill="#FF9A24"/>
</g>
<path d="M28.2262 29.4965C28.2616 29.7376 28.4935 29.9033 28.7443 29.8665C28.9951 29.8297 29.1697 29.6044 29.1343 29.3633C29.099 29.1222 28.867 28.9566 28.6162 28.9934C28.3655 29.0301 28.1908 29.2554 28.2262 29.4965Z" fill="black"/>
<path fill-rule="evenodd" clip-rule="evenodd" d="M30.0087 24.7065C29.677 24.6783 29.4014 24.5294 29.2589 24.4097C29.1255 24.2978 28.9226 24.3114 28.8056 24.4401C28.6885 24.5688 28.7018 24.7639 28.8351 24.8759C29.0642 25.0682 29.4637 25.2806 29.9493 25.3219C30.4494 25.3644 31.0203 25.223 31.5578 24.7345C31.6871 24.6171 31.6933 24.4215 31.5718 24.2978C31.4503 24.174 31.247 24.1689 31.1178 24.2864C30.7146 24.6527 30.3258 24.7334 30.0087 24.7065Z" fill="#905A09"/>
<path fill-rule="evenodd" clip-rule="evenodd" d="M23.7604 26.2827C23.4612 26.4289 23.1483 26.4427 22.9645 26.4132C22.7926 26.3857 22.6255 26.5016 22.5912 26.6721C22.5569 26.8427 22.6685 27.0033 22.8404 27.0309C23.1358 27.0782 23.5876 27.0552 24.0254 26.8412C24.4765 26.6208 24.8936 26.2063 25.1039 25.511C25.1545 25.3439 25.0594 25.1729 24.8916 25.1291C24.7237 25.0854 24.5467 25.1854 24.4961 25.3525C24.3384 25.8739 24.0463 26.1429 23.7604 26.2827Z" fill="#905A09"/>
<path fill-rule="evenodd" clip-rule="evenodd" d="M23.6624 36.8622C23.3011 37.1993 23.2816 37.7654 23.6186 38.1266L23.9672 38.5002C25.0278 39.6367 26.557 40.2146 28.1041 40.0636C29.5927 39.9183 30.9378 39.1136 31.7697 37.8707L32.1392 37.3187C32.414 36.9081 32.3039 36.3524 31.8933 36.0776C31.4827 35.8028 30.9271 35.9129 30.6523 36.3235L30.2828 36.8755C29.7489 37.6732 28.8856 38.1896 27.9303 38.2829C26.9374 38.3798 25.956 38.0089 25.2754 37.2795L24.9268 36.9059C24.5897 36.5447 24.0236 36.5251 23.6624 36.8622Z" fill="#337AFF"/>
<path fill-rule="evenodd" clip-rule="evenodd" d="M35.6563 40.281C35.541 40.3204 35.4796 40.4458 35.519 40.5611C36.1432 42.3856 36.2424 44.6072 36.2424 46.8132C36.2424 46.9351 36.3412 47.0338 36.463 47.0338C36.5848 47.0338 36.6836 46.935 36.6836 46.8132C36.6836 44.6074 36.5868 42.3193 35.9364 40.4183C35.897 40.303 35.7716 40.2415 35.6563 40.281Z" fill="#337AFF"/>
<path fill-rule="evenodd" clip-rule="evenodd" d="M23.703 41.0103C23.5846 40.9816 23.4653 41.0543 23.4366 41.1727C23.3594 41.4907 23.2959 41.7967 23.2337 42.0961C23.1028 42.726 22.978 43.3265 22.7458 43.9481C22.4101 44.8464 21.8518 45.7705 20.7236 46.7881C20.6331 46.8697 20.6259 47.0092 20.7075 47.0997C20.7891 47.1901 20.9286 47.1973 21.019 47.1157C22.1982 46.0522 22.7978 45.0693 23.159 44.1026C23.4032 43.4491 23.5396 42.7939 23.6744 42.1465C23.7351 41.8547 23.7955 41.5644 23.8653 41.2767C23.8941 41.1583 23.8214 41.039 23.703 41.0103Z" fill="#337AFF"/>
<path fill-rule="evenodd" clip-rule="evenodd" d="M30.8962 26.429C30.9613 26.5745 30.867 26.7497 30.6856 26.8203C30.5871 26.8586 30.4338 26.9388 30.3167 27.0415C30.2004 27.1435 30.1579 27.2316 30.1661 27.3099C30.1828 27.4686 30.0408 27.6225 29.8488 27.6536C29.6568 27.6847 29.4876 27.5813 29.4709 27.4225C29.4372 27.1028 29.6357 26.838 29.8377 26.6608C30.0389 26.4843 30.2812 26.3588 30.4499 26.2932C30.6312 26.2226 30.831 26.2834 30.8962 26.429Z" fill="black"/>
<path fill-rule="evenodd" clip-rule="evenodd" d="M31.265 27.4574C31.1893 27.6135 30.9893 27.694 30.8184 27.6371C30.7255 27.6061 30.5645 27.5744 30.4084 27.583C30.2532 27.5916 30.1558 27.635 30.0982 27.7023C29.9814 27.8388 29.7683 27.8725 29.6224 27.7777C29.4764 27.6829 29.4527 27.4954 29.5696 27.359C29.8049 27.0841 30.1424 26.9974 30.4119 26.9825C30.6804 26.9676 30.9338 27.0188 31.0927 27.0717C31.2636 27.1286 31.3408 27.3013 31.265 27.4574Z" fill="black"/>
<path fill-rule="evenodd" clip-rule="evenodd" d="M23.9929 28.162C24.0097 28.3206 24.1791 28.4248 24.3714 28.3948C24.476 28.3784 24.6488 28.3709 24.8016 28.4009C24.9534 28.4308 25.0344 28.4855 25.0665 28.5574C25.1318 28.7031 25.3319 28.7648 25.5136 28.6954C25.6952 28.6259 25.7896 28.4515 25.7244 28.3058C25.593 28.0123 25.2884 27.883 25.0248 27.8312C24.7621 27.7795 24.4895 27.7926 24.3108 27.8205C24.1185 27.8506 23.9762 28.0034 23.9929 28.162Z" fill="black"/>
<path fill-rule="evenodd" clip-rule="evenodd" d="M24.1902 29.2367C24.3341 29.3337 24.5474 29.3028 24.6666 29.1678C24.7315 29.0944 24.8547 28.9862 24.9941 28.9153C25.1326 28.8448 25.2387 28.8334 25.3223 28.8627C25.4918 28.9221 25.693 28.8443 25.7717 28.689C25.8503 28.5338 25.7766 28.3597 25.6071 28.3004C25.2656 28.1808 24.9302 28.2753 24.6896 28.3976C24.45 28.5195 24.2565 28.691 24.1456 28.8166C24.0264 28.9516 24.0463 29.1397 24.1902 29.2367Z" fill="black"/>
<path fill-rule="evenodd" clip-rule="evenodd" d="M31.027 30.9983C30.9911 31.113 30.8706 31.1753 30.7579 31.1373L30.2795 30.9763C29.9566 30.8676 29.6034 30.9414 29.3515 31.1701C29.0075 31.4825 28.5315 31.5967 28.0833 31.4743C27.755 31.3847 27.4068 31.4792 27.1683 31.7225L26.8151 32.083C26.7318 32.168 26.5962 32.1672 26.5122 32.0812C26.4281 31.9952 26.4274 31.8567 26.5107 31.7717L26.8639 31.4112C27.2094 31.0586 27.714 30.9217 28.1897 31.0516C28.499 31.136 28.8275 31.0572 29.0649 30.8416C29.4299 30.5101 29.9417 30.4032 30.4095 30.5607L30.8879 30.7218C31.0006 30.7597 31.0629 30.8835 31.027 30.9983Z" fill="#A75A00"/>
<path d="M20.5034 13.9761L25.347 12.5536L28.3087 18.1449L20.5589 20.421L20.5034 13.9761Z" fill="#F3F3F3"/>
<path d="M27.2519 6.30421C27.3593 6.66914 27.1502 7.05197 26.7848 7.15928C26.4194 7.26659 26.0361 7.05774 25.9287 6.6928C25.8213 6.32786 26.0304 5.94503 26.3958 5.83772C26.7611 5.73042 27.1444 5.93927 27.2519 6.30421Z" fill="white"/>
<path d="M18.7306 16.1058C18.6729 16.1262 18.6142 16.1452 18.5546 16.1627C16.8881 16.6521 15.167 15.7916 14.7105 14.2407C14.3034 12.8582 15.0387 11.3937 16.3837 10.7453C15.9052 8.86568 17.1087 6.89593 19.1234 6.30421C20.4338 5.91938 21.7715 6.21018 22.7162 6.96651C22.9436 6.72144 23.2433 6.53008 23.5949 6.42683C24.5752 6.13893 25.5876 6.6451 25.8562 7.5574C25.8634 7.58199 25.87 7.60664 25.876 7.63131C27.388 7.51307 28.7997 8.38543 29.2164 9.80103C29.667 11.3315 28.7956 12.9568 27.2465 13.5903L27.2519 13.6085L18.7321 16.1107L18.7306 16.1058Z" fill="white"/>
<path d="M28.2431 12.2513C28.141 12.1365 28.1514 11.9607 28.2664 11.8587L28.7554 11.4249C28.8704 11.3229 29.0464 11.3333 29.1485 11.4482L29.5828 11.9366C29.6849 12.0514 29.6745 12.2272 29.5595 12.3292L29.0705 12.763C28.9555 12.865 28.7795 12.8546 28.6774 12.7397L28.2431 12.2513Z" fill="#FF570F"/>
<path d="M14.1201 13.2932C14.193 13.158 14.3619 13.1074 14.4973 13.1802L15.6308 13.7897C15.7662 13.8625 15.8169 14.0311 15.744 14.1664L15.1337 15.2985C15.0608 15.4338 14.892 15.4844 14.7566 15.4116L13.6231 14.8021C13.4877 14.7293 13.437 14.5606 13.5099 14.4253L14.1201 13.2932Z" fill="#FFC266"/>
<path d="M22.1028 7.78619C22.2557 7.80251 22.3664 7.93956 22.3501 8.09229L22.2853 8.69785C22.2689 8.85058 22.1317 8.96117 21.9788 8.94484L21.3725 8.88013C21.2196 8.86381 21.1089 8.72676 21.1252 8.57403L21.19 7.96847C21.2064 7.81574 21.3436 7.70516 21.4965 7.72148L22.1028 7.78619Z" fill="white"/>
<path fill-rule="evenodd" clip-rule="evenodd" d="M18.532 17.6494C19.6042 18.2077 20.8928 18.8786 20.9954 18.6165C21.6572 16.9253 21.8778 16.3248 21.9881 16.0246C22.0858 15.7585 22.0969 15.7282 22.2517 15.3836C22.2875 15.304 22.3844 15.2722 22.4599 15.3159C24.012 16.2145 26.7653 17.7634 26.8778 17.44C27.466 15.7489 27.6621 15.1484 27.7601 14.8481C27.8449 14.5885 27.8564 14.5534 27.9847 14.2315C28.02 14.1432 28.1282 14.1101 28.206 14.1649C29.4213 15.0209 31.5836 16.4891 31.5836 16.2636C31.5836 16.1918 31.6656 15.8905 31.7921 15.4688C33.6977 15.9853 37.5678 17.9111 37.5367 19.4817C37.5121 20.7244 36.8377 21.062 36.4282 21.2671C36.2893 21.3366 36.1809 21.3909 36.1386 21.46C37.9759 21.7827 38.4151 24.0837 36.826 25.0615C35.6548 25.7823 34.0205 23.8386 32.5452 22.0841C31.1769 20.4568 29.9454 18.9922 29.347 19.9669C27.6675 22.7026 22.3895 27.5783 16.8142 29.5587C12.2178 31.1913 12.0663 22.0815 15.5027 18.8466C14.5537 19.2318 12.7907 18.8745 14.1785 16.0444C15.1518 14.0597 15.4049 14.987 15.7261 16.1638C15.9774 17.0845 16.2704 18.1581 16.9826 18.1091C17.2669 17.8066 17.5445 17.5313 17.8156 17.2808C18.0289 17.3875 18.2742 17.5152 18.532 17.6494Z" fill="black"/>
<path d="M41.0542 26.5562C40.6424 26.1514 40.1005 26.0342 39.8439 26.2944L37.0554 29.121C36.7987 29.3812 36.9245 29.9203 37.3362 30.3251L42.8534 35.7491C44.5004 37.3683 46.0303 37.2105 47.057 36.1697C48.0837 35.129 48.2183 33.5994 46.5713 31.9802L41.0542 26.5562Z" fill="#FFAE4E"/>
<path d="M16.7767 31.0308C17.051 30.5227 17.013 29.9696 16.6917 29.7954L13.2011 27.903C12.8797 27.7289 12.3969 27.9995 12.1226 28.5076L8.44676 35.3155C7.34941 37.3479 7.9265 38.7735 9.21171 39.4703C10.4969 40.167 12.0036 39.8711 13.1009 37.8387L16.7767 31.0308Z" fill="#FFAE4E"/>
<path fill-rule="evenodd" clip-rule="evenodd" d="M18.956 21.5337C19.4487 21.7991 19.6352 22.4148 19.3726 22.909L19.0359 23.5427C19.3415 23.3006 19.7735 23.2489 20.1394 23.446C20.6321 23.7114 20.8187 24.3272 20.5561 24.8214L19.849 26.1519C19.9449 26.171 20.0398 26.2046 20.1305 26.2535C20.6232 26.5189 20.8098 27.1346 20.5472 27.6288L19.1107 30.3319C19.0531 30.4404 18.9786 30.5339 18.8923 30.6112C17.9307 32.2983 15.7989 32.9177 14.0774 31.9906C12.5841 31.1863 11.881 29.4776 12.2827 27.902L11.4966 25.4141C11.3005 24.7936 11.6594 24.2061 12.2981 24.1019C12.8804 24.0069 13.4943 24.3463 13.7468 24.8772L15.2777 21.9964C15.5444 21.4946 16.1662 21.3062 16.6665 21.5757C17.0795 21.7981 17.2806 22.2628 17.1884 22.7005L17.5883 21.948C17.8509 21.4538 18.4632 21.2683 18.956 21.5337Z" fill="#FFBA68"/>
<path fill-rule="evenodd" clip-rule="evenodd" d="M32.4547 20.1116C32.058 20.5065 32.0547 21.1498 32.4473 21.5487L32.9507 22.06C32.5887 21.9151 32.16 21.9888 31.8654 22.282C31.4688 22.6768 31.4655 23.3202 31.8581 23.719L32.9151 24.7928C32.8286 24.8385 32.7473 24.8977 32.6742 24.9704C32.2776 25.3653 32.2743 26.0086 32.6669 26.4075L34.8143 28.5889C34.9005 28.6765 34.9985 28.7449 35.1033 28.7943C36.5059 30.1374 38.7258 30.1234 40.1116 28.744C41.3137 27.5474 41.5005 25.7092 40.6664 24.3134L40.7107 21.7047C40.7217 21.054 40.2103 20.5932 39.5683 20.6754C38.9831 20.7504 38.4914 21.2507 38.4008 21.8315L36.1122 19.5066C35.7135 19.1016 35.0638 19.0983 34.6611 19.4992C34.3286 19.8301 34.2683 20.333 34.4815 20.7262L33.8837 20.1189C33.4911 19.7201 32.8513 19.7168 32.4547 20.1116Z" fill="#FFBA68"/>
</g>
<defs>
<linearGradient id="paint0_linear_1082_33982" x1="24.2644" y1="17.379" x2="24.2644" y2="30.3816" gradientUnits="userSpaceOnUse">
<stop stop-color="#FF6868"/>
<stop offset="1" stop-color="#FFBA68"/>
</linearGradient>
</defs>
</svg>
