<svg width="55" height="55" viewBox="0 0 55 55" fill="none" xmlns="http://www.w3.org/2000/svg">
<circle cx="27.3567" cy="27.2122" r="26.8567" fill="#D9D9D9"/>
<path d="M21.4941 34.8892C21.4941 38.3393 18.6972 41.1362 15.2471 41.1362C11.7969 41.1362 9 38.3393 9 34.8892C9 31.439 11.7969 28.6421 15.2471 28.6421C18.6972 28.6421 21.4941 31.439 21.4941 34.8892Z" fill="#FF9C27"/>
<path d="M46.9981 34.8892C46.9981 38.3393 44.2011 41.1362 40.751 41.1362C37.3008 41.1362 34.5039 38.3393 34.5039 34.8892C34.5039 31.439 37.3008 28.6421 40.751 28.6421C44.2011 28.6421 46.9981 31.439 46.9981 34.8892Z" fill="#FF9C27"/>
<path d="M43.722 31.2655C43.722 39.226 36.682 45.6794 27.9977 45.6794C19.3134 45.6794 12.2734 39.226 12.2734 31.2655C12.2734 23.3049 19.3134 16.8516 27.9977 16.8516C36.682 16.8516 43.722 23.3049 43.722 31.2655Z" fill="#FFBA68"/>
<mask id="mask0_1082_34407" style="mask-type:alpha" maskUnits="userSpaceOnUse" x="12" y="16" width="32" height="30">
<path d="M43.7298 31.263C43.7298 39.2236 36.6898 45.6769 28.0055 45.6769C19.3212 45.6769 12.2813 39.2236 12.2813 31.263C12.2813 23.3024 19.3212 16.8491 28.0055 16.8491C36.6898 16.8491 43.7298 23.3024 43.7298 31.263Z" fill="#FFAB49"/>
</mask>
<g mask="url(#mask0_1082_34407)">
<path d="M22.5793 38.6684C22.5793 42.0345 19.8316 44.7631 16.442 44.7631C13.0525 44.7631 10.3047 42.0345 10.3047 38.6684C10.3047 35.3024 13.0525 32.5737 16.442 32.5737C19.8316 32.5737 22.5793 35.3024 22.5793 38.6684Z" fill="#FF9A24"/>
<path d="M45.4543 38.668C45.4543 42.034 42.7066 44.7627 39.317 44.7627C35.9275 44.7627 33.1797 42.034 33.1797 38.668C33.1797 35.3019 35.9275 32.5732 39.317 32.5732C42.7066 32.5732 45.4543 35.3019 45.4543 38.668Z" fill="#FF9A24"/>
<path fill-rule="evenodd" clip-rule="evenodd" d="M29.7166 40.0202C29.9218 39.6463 29.965 39.1996 29.8439 38.7777C29.7228 38.3559 29.4447 37.9848 29.0643 37.7486C28.6828 37.5118 28.2286 37.4301 27.8024 37.5303C27.5559 37.5883 27.4127 37.8327 27.4826 38.0761C27.5525 38.3196 27.809 38.4699 28.0556 38.412C28.229 38.3712 28.4211 38.4024 28.5904 38.5075C28.7607 38.6132 28.8928 38.785 28.951 38.9877C29.0093 39.1905 28.9863 39.3987 28.8944 39.5661C28.803 39.7325 28.6521 39.8444 28.4786 39.8852C28.2321 39.9432 28.0889 40.1876 28.1588 40.431C28.2287 40.6745 28.4852 40.8248 28.7318 40.7668C29.1579 40.6666 29.5107 40.3952 29.7166 40.0202Z" fill="#A75A00"/>
</g>
<path d="M28.6541 35.8495C28.6541 36.2114 28.3608 36.5047 27.9989 36.5047C27.6371 36.5047 27.3438 36.2114 27.3438 35.8495C27.3438 35.4877 27.6371 35.1943 27.9989 35.1943C28.3608 35.1943 28.6541 35.4877 28.6541 35.8495Z" fill="black"/>
<path d="M26.0383 33.2286C26.0383 34.676 24.865 35.8493 23.4176 35.8493C21.9702 35.8493 20.7969 34.676 20.7969 33.2286C20.7969 31.7812 21.9702 30.6079 23.4176 30.6079C24.865 30.6079 26.0383 31.7812 26.0383 33.2286Z" fill="white"/>
<path d="M24.7262 33.2283C24.7262 33.952 24.1395 34.5387 23.4158 34.5387C22.6921 34.5387 22.1055 33.952 22.1055 33.2283C22.1055 32.5046 22.6921 31.918 23.4158 31.918C24.1395 31.918 24.7262 32.5046 24.7262 33.2283Z" fill="black"/>
<path d="M35.2102 33.2286C35.2102 34.676 34.0368 35.8493 32.5895 35.8493C31.1421 35.8493 29.9688 34.676 29.9688 33.2286C29.9687 31.7812 31.1421 30.6079 32.5895 30.6079C34.0368 30.6079 35.2102 31.7812 35.2102 33.2286Z" fill="white"/>
<path d="M33.8981 33.2283C33.8981 33.952 33.3114 34.5387 32.5877 34.5387C31.864 34.5387 31.2773 33.952 31.2773 33.2283C31.2773 32.5046 31.864 31.918 32.5877 31.918C33.3114 31.918 33.8981 32.5046 33.8981 33.2283Z" fill="black"/>
<path fill-rule="evenodd" clip-rule="evenodd" d="M25.0666 29.5287C25.01 29.7756 24.7641 29.9299 24.5172 29.8733L20.6324 28.9837C20.3855 28.9272 20.2312 28.6812 20.2878 28.4343C20.3443 28.1874 20.5903 28.0331 20.8372 28.0896L24.7219 28.9792C24.9688 29.0358 25.1231 29.2818 25.0666 29.5287Z" fill="#905A09"/>
<path fill-rule="evenodd" clip-rule="evenodd" d="M30.6951 29.5287C30.7517 29.7756 30.9977 29.9299 31.2446 29.8733L35.1293 28.9837C35.3762 28.9272 35.5305 28.6812 35.474 28.4343C35.4174 28.1874 35.1714 28.0331 34.9245 28.0896L31.0398 28.9792C30.7929 29.0358 30.6386 29.2818 30.6951 29.5287Z" fill="#905A09"/>
<path fill-rule="evenodd" clip-rule="evenodd" d="M34.3296 12.8689C34.3634 12.6028 34.3808 12.3315 34.3808 12.0561C34.3808 8.55175 31.5603 5.71094 28.081 5.71094C24.6018 5.71094 21.7812 8.55175 21.7812 12.0561C21.7812 12.3138 21.7965 12.5679 21.8261 12.8175C15.8404 14.7771 11.6211 19.5005 11.6211 25.0161C11.6211 27.0153 12.1754 28.9103 13.1672 30.6075C13.6231 29.8273 14.1716 29.0889 14.8011 28.4016L21.9862 28.9518L22.9912 23.66C23.262 23.5902 23.5358 23.5258 23.8125 23.4672V28.9663H32.3172V23.495C32.4556 23.5253 32.5933 23.557 32.7302 23.5902L33.7484 28.9517L41.1821 28.3825C41.8191 29.0753 42.3735 29.8202 42.8337 30.6077C43.8256 28.9106 44.3799 27.0154 44.3799 25.0161C44.3799 19.5482 40.2332 14.8587 34.3296 12.8689Z" fill="#815E05"/>
</svg>
