<svg width="55" height="55" viewBox="0 0 55 55" fill="none" xmlns="http://www.w3.org/2000/svg">
<circle cx="27.3567" cy="27.2122" r="26.8567" fill="#D9D9D9"/>
<mask id="mask0_1082_33887" style="mask-type:alpha" maskUnits="userSpaceOnUse" x="0" y="0" width="55" height="55">
<circle cx="27.3567" cy="27.2122" r="26.8567" fill="#D9D9D9"/>
</mask>
<g mask="url(#mask0_1082_33887)">
<path d="M13.0819 37.8746C13.5177 38.2742 14.078 38.3765 14.3333 38.1031L17.1068 35.1326C17.3621 34.8592 17.2157 34.3136 16.7798 33.9139L10.9394 28.5596C9.19586 26.9612 7.62956 27.1707 6.6084 28.2644C5.58724 29.3581 5.49791 30.9218 7.24145 32.5202L13.0819 37.8746Z" fill="#FFAE4E"/>
<path d="M39.4711 53.9273C39.815 54.4073 40.3422 54.6217 40.6486 54.4061L43.9776 52.0645C44.2841 51.849 44.2537 51.2851 43.9098 50.8052L39.3021 44.3742C37.9265 42.4543 36.3502 42.34 35.1245 43.2022C33.8988 44.0644 33.4877 45.5764 34.8633 47.4963L39.4711 53.9273Z" fill="#FFAE4E"/>
<path d="M11.2241 38.3354C10.8393 37.9795 10.8519 37.3465 11.2521 36.9216L15.601 32.3055C16.0013 31.8806 16.6377 31.8247 17.0225 32.1806L22.1782 36.9498C23.7173 38.3736 23.667 40.9056 22.0658 42.6052C20.4646 44.3048 17.9189 44.5284 16.3797 43.1046L11.2241 38.3354Z" fill="#4C8BFF"/>
<path d="M33.6465 49.4687C33.941 49.9013 34.5729 49.9872 35.0579 49.6607L40.3273 46.1131C40.8123 45.7866 40.9667 45.1712 40.6722 44.7386L36.7263 38.9426C35.5483 37.2123 33.0206 36.8685 31.0805 38.1746C29.1404 39.4808 28.5226 41.9424 29.7005 43.6727L33.6465 49.4687Z" fill="#4C8BFF"/>
<path d="M18.1172 42.3577C18.1172 38.8934 19.9371 36.6621 23.035 36.6621H31.6357C34.7336 36.6621 36.5535 38.8934 36.5535 42.3577L35.8173 52.527C35.7718 53.1547 35.2234 53.6772 34.4841 53.7973C29.8378 54.5521 25.0452 54.5495 20.3989 53.7948C19.6678 53.676 19.1188 53.1639 19.0614 52.5439L18.1172 42.3577Z" fill="#4C8BFF"/>
<path d="M23.6289 34.2069C23.6289 32.737 24.6005 31.5454 25.7991 31.5454H28.8374C30.036 31.5454 31.0076 32.737 31.0076 34.2069V36.8683C31.0076 38.3382 30.036 39.5298 28.8374 39.5298H25.7991C24.6005 39.5298 23.6289 38.3382 23.6289 36.8683V34.2069Z" fill="#FFAB48"/>
<path d="M23.0023 29.3073C23.0023 31.7252 21.0421 33.6854 18.6242 33.6854C16.2062 33.6854 14.2461 31.7252 14.2461 29.3073C14.2461 26.8893 16.2062 24.9292 18.6242 24.9292C21.0421 24.9292 23.0023 26.8893 23.0023 29.3073Z" fill="#FF9C27"/>
<path d="M40.5765 29.3888C40.5765 31.8068 38.6163 33.7669 36.1984 33.7669C33.7804 33.7669 31.8203 31.8068 31.8203 29.3888C31.8203 26.9709 33.7804 25.0107 36.1984 25.0107C38.6163 25.0107 40.5765 26.9709 40.5765 29.3888Z" fill="#FF9C27"/>
<path d="M38.2814 26.8489C38.2814 32.4276 33.3477 36.9501 27.2618 36.9501C21.1758 36.9501 16.2422 32.4276 16.2422 26.8489C16.2422 21.2701 21.1758 16.7476 27.2618 16.7476C33.3477 16.7476 38.2814 21.2701 38.2814 26.8489Z" fill="#FFBA68"/>
<mask id="mask1_1082_33887" style="mask-type:alpha" maskUnits="userSpaceOnUse" x="16" y="16" width="23" height="21">
<path d="M38.2697 26.8469C38.2697 32.4257 33.336 36.9482 27.2501 36.9482C21.1641 36.9482 16.2305 32.4257 16.2305 26.8469C16.2305 21.2681 21.1641 16.7456 27.2501 16.7456C33.336 16.7456 38.2697 21.2681 38.2697 26.8469Z" fill="#FFAB49"/>
</mask>
<g mask="url(#mask1_1082_33887)">
<path d="M23.4617 32.0364C23.4617 34.3954 21.536 36.3077 19.1605 36.3077C16.7851 36.3077 14.8594 34.3954 14.8594 32.0364C14.8594 29.6775 16.7851 27.7651 19.1605 27.7651C21.536 27.7651 23.4617 29.6775 23.4617 32.0364Z" fill="#FF9A24"/>
<path d="M39.4969 32.0364C39.4969 34.3954 37.5712 36.3077 35.1957 36.3077C32.8202 36.3077 30.8945 34.3954 30.8945 32.0364C30.8945 29.6775 32.8202 27.7651 35.1957 27.7651C37.5712 27.7651 39.4969 29.6775 39.4969 32.0364Z" fill="#FF9A24"/>
</g>
<path d="M27.7231 30.0612C27.7231 30.3148 27.5175 30.5204 27.2639 30.5204C27.0103 30.5204 26.8047 30.3148 26.8047 30.0612C26.8047 29.8076 27.0103 29.6021 27.2639 29.6021C27.5175 29.6021 27.7231 29.8076 27.7231 30.0612Z" fill="black"/>
<path d="M24.9618 28.2691C24.9618 28.7518 24.5506 29.1431 24.0434 29.1431C23.5362 29.1431 23.125 28.7518 23.125 28.2691C23.125 27.7864 23.5362 27.3951 24.0434 27.3951C24.5506 27.3951 24.9618 27.7864 24.9618 28.2691Z" fill="black"/>
<path fill-rule="evenodd" clip-rule="evenodd" d="M24.513 27.02C24.6029 27.1795 24.54 27.3782 24.3724 27.4638C24.2813 27.5103 24.1432 27.6055 24.045 27.7244C23.9474 27.8424 23.9206 27.9421 23.9424 28.0289C23.9866 28.205 23.8725 28.3818 23.6875 28.4239C23.5025 28.466 23.3167 28.3574 23.2725 28.1813C23.1834 27.8266 23.3341 27.5243 23.5036 27.3192C23.6724 27.1148 23.8909 26.9657 24.0467 26.8862C24.2143 26.8006 24.4231 26.8605 24.513 27.02Z" fill="black"/>
<path d="M25.8739 32.5338C25.7611 32.4319 25.6632 32.3189 25.5816 32.1978C25.2766 31.7456 25.7213 31.261 26.2526 31.261L28.3114 31.261C28.8427 31.261 29.2874 31.7456 28.9825 32.1978C28.9008 32.3189 28.803 32.4319 28.6902 32.5338C28.3167 32.8714 27.8102 33.061 27.282 33.061C26.7539 33.061 26.2474 32.8714 25.8739 32.5338Z" fill="#E16037"/>
<path fill-rule="evenodd" clip-rule="evenodd" d="M23.6261 25.8049C23.2964 25.8541 23.0297 26.0254 22.8942 26.1583C22.7675 26.2826 22.564 26.2806 22.4396 26.1539C22.3153 26.0272 22.3173 25.8237 22.444 25.6993C22.6617 25.4857 23.0485 25.2411 23.5312 25.1691C24.0284 25.0949 24.6067 25.2075 25.1719 25.6828C25.3078 25.797 25.3253 25.9998 25.211 26.1357C25.0968 26.2715 24.894 26.2891 24.7582 26.1748C24.3343 25.8184 23.9413 25.7578 23.6261 25.8049Z" fill="#905A09"/>
<path fill-rule="evenodd" clip-rule="evenodd" d="M30.5128 25.8052C30.1831 25.8544 29.9164 26.0256 29.7809 26.1585C29.6542 26.2828 29.4507 26.2809 29.3264 26.1541C29.202 26.0274 29.204 25.8239 29.3307 25.6996C29.5485 25.486 29.9352 25.2414 30.4179 25.1693C30.9151 25.0951 31.4934 25.2078 32.0586 25.683C32.1945 25.7973 32.212 26 32.0978 26.1359C31.9835 26.2718 31.7808 26.2893 31.6449 26.1751C31.2211 25.8187 30.828 25.7581 30.5128 25.8052Z" fill="#905A09"/>
<path fill-rule="evenodd" clip-rule="evenodd" d="M31.6111 36.7525C32.0112 37.0589 32.0872 37.6317 31.7807 38.0318L31.4639 38.4456C30.4998 39.7044 29.0047 40.4426 27.4191 40.4426C25.8936 40.4426 24.4483 39.759 23.4806 38.5796L23.0508 38.0558C22.7312 37.6662 22.7879 37.0912 23.1775 36.7716C23.5671 36.4519 24.142 36.5086 24.4617 36.8982L24.8915 37.422C25.5125 38.1789 26.4401 38.6176 27.4191 38.6176C28.4367 38.6176 29.3963 38.1439 30.0149 37.336L30.3318 36.9222C30.6382 36.5221 31.211 36.4461 31.6111 36.7525Z" fill="#337AFF"/>
<path d="M24.582 20.3555H30.582V26.3555H24.582V20.3555Z" fill="black"/>
<path d="M17.3164 19.2124L23.8384 19.7118L22.5858 26.3072L16.0638 25.8078L17.3164 19.2124Z" fill="black"/>
<path d="M36.9414 19.2124L30.4194 19.7118L31.672 26.3072L38.194 25.8078L36.9414 19.2124Z" fill="black"/>
<path fill-rule="evenodd" clip-rule="evenodd" d="M38.402 27.3555C39.159 26.0888 39.582 24.6743 39.582 23.1821C39.582 17.755 33.9856 13.3555 27.082 13.3555C20.1785 13.3555 14.582 17.755 14.582 23.1821C14.582 24.6742 15.005 26.0886 15.7619 27.3553C17.7581 24.0148 22.0764 21.7019 27.0819 21.7019C32.0875 21.7019 36.4059 24.0149 38.402 27.3555Z" fill="black"/>
<path d="M31.582 13.3555C31.582 16.1169 29.5673 18.3555 27.082 18.3555C24.5967 18.3555 22.582 16.1169 22.582 13.3555C22.582 10.594 24.5967 8.35547 27.082 8.35547C29.5673 8.35547 31.582 10.594 31.582 13.3555Z" fill="black"/>
<path fill-rule="evenodd" clip-rule="evenodd" d="M20.0163 39.0574C20.1164 39.1311 20.1379 39.2719 20.0642 39.372C19.4774 40.1695 19.1685 40.7428 18.9778 41.2868C18.7909 41.8197 18.7136 42.3338 18.6087 43.0315C18.6058 43.0511 18.6028 43.0708 18.5998 43.0907C18.5814 43.2136 18.4668 43.2982 18.3439 43.2797C18.221 43.2612 18.1364 43.1466 18.1549 43.0237C18.1588 42.9974 18.1627 42.9713 18.1666 42.9454C18.269 42.2641 18.3519 41.7117 18.5531 41.1379C18.7633 40.5385 19.0984 39.9253 19.7018 39.1053C19.7754 39.0052 19.9162 38.9838 20.0163 39.0574Z" fill="#337AFF"/>
<path fill-rule="evenodd" clip-rule="evenodd" d="M36.3863 41.0319C36.2629 41.047 36.1752 41.1592 36.1903 41.2826C36.429 43.2349 36.0603 45.4731 35.5958 47.6747C35.5702 47.7963 35.6479 47.9157 35.7695 47.9413C35.8911 47.967 36.0105 47.8892 36.0361 47.7676C36.5006 45.5662 36.8857 43.2621 36.6369 41.228C36.6219 41.1046 36.5096 41.0169 36.3863 41.0319Z" fill="#337AFF"/>
<path fill-rule="evenodd" clip-rule="evenodd" d="M4.00599 20.2756C3.53136 20.6831 3.4794 21.3953 3.88993 21.8665L4.67663 22.7693C4.26964 22.5079 3.72215 22.5317 3.33706 22.8623C2.92 23.2204 2.83434 23.8174 3.10793 24.2714C2.83694 24.2629 2.56211 24.3516 2.34087 24.5415C1.96026 24.8683 1.85565 25.3941 2.04823 25.8286C1.81915 25.8469 1.59365 25.9351 1.4065 26.0957C0.939096 26.497 0.887924 27.1985 1.29221 27.6624L3.50348 30.2C3.59221 30.3019 3.69551 30.3838 3.80765 30.4454C5.25804 32.0136 7.71162 32.1622 9.34461 30.7602C10.7613 29.5439 11.1035 27.5529 10.285 25.9691L10.5267 23.1274C10.587 22.4186 10.056 21.8783 9.34072 21.9205C8.6886 21.959 8.10842 22.4684 7.9653 23.0951L5.60873 20.3908C5.19819 19.9197 4.48062 19.8681 4.00599 20.2756Z" fill="#FFBA68"/>
<path fill-rule="evenodd" clip-rule="evenodd" d="M4.71132 22.9433C4.77848 22.8857 4.88002 22.893 4.93811 22.9596L6.67238 24.9499C6.76587 25.0572 6.86203 25.1995 6.88192 25.3752C6.90259 25.5577 6.88303 25.7859 6.76171 25.997C6.63811 26.212 6.41864 26.3919 6.07263 26.4887C5.98716 26.5125 5.89836 26.4631 5.87429 26.3783C5.85022 26.2935 5.9 26.2053 5.98547 26.1814C6.26077 26.1045 6.40581 25.9721 6.48242 25.8388C6.56131 25.7015 6.57764 25.5456 6.56237 25.4108C6.55316 25.3295 6.5061 25.247 6.42917 25.1587L4.6949 23.1685C4.63681 23.1018 4.64416 23.001 4.71132 22.9433Z" fill="#FF9C27"/>
<path fill-rule="evenodd" clip-rule="evenodd" d="M2.34276 26.1156C2.40992 26.0579 2.51145 26.0652 2.56954 26.1319L4.01087 27.7859C4.12427 27.916 4.22778 28.0801 4.25745 28.2753C4.28867 28.4808 4.28242 28.7199 4.16704 28.9296C4.04772 29.1464 3.82701 29.3043 3.48728 29.3699C3.40011 29.3868 3.31571 29.3303 3.29875 29.2438C3.28179 29.1573 3.3387 29.0735 3.42587 29.0566C3.69157 29.0053 3.82032 28.8938 3.88484 28.7766C3.9533 28.6522 3.96527 28.4926 3.93948 28.3229C3.92231 28.2099 3.85967 28.1003 3.76766 27.9947L2.32634 26.3407C2.26825 26.274 2.2756 26.1732 2.34276 26.1156Z" fill="#FF9C27"/>
<path fill-rule="evenodd" clip-rule="evenodd" d="M8.03748 24.2685C8.1253 24.2816 8.18583 24.3628 8.17267 24.45L7.96969 25.7948L7.92469 25.8334C7.67904 26.0443 7.35687 26.4325 7.19561 26.9009C7.03668 27.3624 7.03404 27.898 7.41338 28.4339C7.46443 28.506 7.44692 28.6055 7.37427 28.6562C7.30161 28.7069 7.20133 28.6895 7.15028 28.6174C6.70141 27.9833 6.70544 27.3375 6.89133 26.7976C7.0651 26.2929 7.39772 25.8777 7.66913 25.6319L7.85465 24.4027C7.86781 24.3156 7.94967 24.2555 8.03748 24.2685Z" fill="#FF9C27"/>
<path fill-rule="evenodd" clip-rule="evenodd" d="M3.30804 24.3431C3.3752 24.2854 3.47674 24.2927 3.53483 24.3594L5.39281 26.4916C5.49464 26.6084 5.58953 26.7576 5.61503 26.937C5.64277 27.1322 5.63766 27.3802 5.52427 27.5907C5.4039 27.8143 5.17624 27.9683 4.82237 27.9871C4.7337 27.9918 4.65797 27.9243 4.65322 27.8363C4.64847 27.7482 4.7165 27.6731 4.80517 27.6684C5.06093 27.6548 5.17973 27.5534 5.24068 27.4403C5.30862 27.3141 5.31972 27.1441 5.29662 26.9815C5.28313 26.8866 5.23035 26.793 5.14961 26.7004L3.29162 24.5682C3.23353 24.5015 3.24088 24.4007 3.30804 24.3431Z" fill="#FF9C27"/>
<path fill-rule="evenodd" clip-rule="evenodd" d="M31.1427 27.7487C31.1511 27.9111 30.9969 28.043 30.7983 28.0433C30.6904 28.0434 30.5151 28.0633 30.3659 28.1178C30.2177 28.172 30.1448 28.24 30.1238 28.3175C30.0813 28.4747 29.8894 28.5687 29.6954 28.5276C29.5013 28.4865 29.3785 28.3257 29.4211 28.1686C29.5068 27.852 29.7931 27.6733 30.0506 27.5792C30.307 27.4854 30.5837 27.4554 30.7683 27.4551C30.9668 27.4548 31.1344 27.5862 31.1427 27.7487Z" fill="black"/>
<path fill-rule="evenodd" clip-rule="evenodd" d="M31.1147 28.8628C30.9852 28.9833 30.7653 28.9862 30.6237 28.8691C30.5467 28.8054 30.4054 28.7159 30.2536 28.6666C30.1029 28.6176 29.9942 28.623 29.9146 28.6658C29.7532 28.7526 29.5382 28.7062 29.4343 28.5622C29.3304 28.4183 29.377 28.2312 29.5383 28.1445C29.8635 27.9697 30.2164 28.0116 30.4782 28.0967C30.739 28.1815 30.9612 28.3235 31.0929 28.4324C31.2345 28.5495 31.2443 28.7422 31.1147 28.8628Z" fill="black"/>
<path fill-rule="evenodd" clip-rule="evenodd" d="M50.5074 54.625C50.3088 55.1601 49.713 55.4353 49.1768 55.2397L48.4892 54.9888C48.7769 55.2634 48.8899 55.6925 48.7423 56.09C48.5437 56.6252 47.9479 56.9004 47.4117 56.7047L45.9679 56.1779C45.9621 56.2776 45.9415 56.3781 45.9049 56.4767C45.7063 57.0118 45.1105 57.287 44.5743 57.0914L41.6411 56.0212C41.5235 55.9782 41.4184 55.9162 41.3282 55.8398C39.4883 55.1062 38.5622 53.0399 39.2562 51.1702C39.8582 49.5482 41.4853 48.5972 43.1337 48.7809L45.5362 47.6362C46.1354 47.3507 46.7795 47.6304 46.9748 48.261C47.1528 48.8359 46.8964 49.5039 46.3957 49.8338L49.5217 50.9743C50.0662 51.173 50.3441 51.7746 50.1424 52.3181C49.9759 52.7666 49.5348 53.0353 49.0796 53.0038L49.8961 53.3017C50.4324 53.4973 50.7061 54.0898 50.5074 54.625Z" fill="#FFBA68"/>
<path fill-rule="evenodd" clip-rule="evenodd" d="M45.5845 55.6667C45.612 55.5925 45.5741 55.5104 45.4998 55.4833L43.5793 54.7825C43.434 54.7294 43.2641 54.696 43.091 54.7322C42.9007 54.7719 42.6929 54.8548 42.5463 55.0222C42.3947 55.1953 42.3271 55.4373 42.3804 55.7532C42.3935 55.831 42.4675 55.8832 42.5456 55.8698C42.6237 55.8565 42.6765 55.7825 42.6634 55.7047C42.6214 55.4555 42.6783 55.3055 42.7622 55.2097C42.8511 55.1081 42.9899 55.0452 43.1487 55.012C43.25 54.9909 43.3623 55.0082 43.4797 55.051L45.4002 55.7519C45.4745 55.779 45.557 55.7408 45.5845 55.6667Z" fill="#FF9C27"/>
<path fill-rule="evenodd" clip-rule="evenodd" d="M45.3388 50.16C45.3004 50.0912 45.2131 50.0668 45.1439 50.1054L44.038 50.7222L44.0196 50.7718C43.915 51.0536 43.6803 51.4599 43.323 51.7539C42.9707 52.0437 42.5024 52.223 41.9098 52.0722C41.8332 52.0526 41.7549 52.0988 41.735 52.1752C41.7151 52.2516 41.7611 52.3294 41.8377 52.3489C42.5347 52.5263 43.0952 52.3109 43.5049 51.9738C43.8889 51.6579 44.1431 51.2344 44.269 50.92L45.2831 50.3544C45.3523 50.3158 45.3773 50.2288 45.3388 50.16Z" fill="#FF9C27"/>
<path fill-rule="evenodd" clip-rule="evenodd" d="M47.7192 54.5508C47.6956 54.615 47.6246 54.6479 47.5604 54.6244L45.3913 53.8299C45.3271 53.8064 45.2941 53.7353 45.3176 53.6712C45.3411 53.607 45.4122 53.574 45.4764 53.5975L47.6455 54.392C47.7097 54.4155 47.7427 54.4866 47.7192 54.5508Z" fill="#FF9C27"/>
<path fill-rule="evenodd" clip-rule="evenodd" d="M48.3051 52.8223C48.2816 52.8864 48.2105 52.9194 48.1463 52.8959L45.5124 51.9312C45.4482 51.9076 45.4152 51.8366 45.4388 51.7724C45.4623 51.7082 45.5333 51.6752 45.5975 51.6987L48.2315 52.6635C48.2956 52.687 48.3286 52.7581 48.3051 52.8223Z" fill="#FF9C27"/>
<path fill-rule="evenodd" clip-rule="evenodd" d="M45.4132 52.547C45.4918 51.8004 45.3714 51.0904 45.2375 50.6689C45.2168 50.6038 45.2528 50.5342 45.318 50.5135C45.3831 50.4928 45.4527 50.5288 45.4734 50.594C45.6163 51.0438 45.742 51.7882 45.6593 52.5729C45.5766 53.3585 45.2835 54.196 44.5764 54.8123C44.5249 54.8573 44.4467 54.8519 44.4018 54.8004C44.3569 54.7488 44.3623 54.6707 44.4138 54.6258C45.0592 54.0632 45.3347 53.2926 45.4132 52.547Z" fill="#FF9C27"/>
</g>
</svg>
