<svg width="55" height="55" viewBox="0 0 55 55" fill="none" xmlns="http://www.w3.org/2000/svg">
<mask id="mask0_1082_33770" style="mask-type:alpha" maskUnits="userSpaceOnUse" x="0" y="0" width="55" height="55">
<circle cx="27.3567" cy="27.2122" r="26.8567" fill="#D9D9D9"/>
</mask>
<g mask="url(#mask0_1082_33770)">
<circle cx="27.3567" cy="27.2122" r="26.8567" fill="#D9D9D9"/>
<path d="M19.9322 44.6312C20.1487 44.1036 20.0392 43.5558 19.6877 43.4078L15.8687 41.8001C15.5171 41.6521 15.0567 41.9599 14.8401 42.4876L11.9391 49.558C11.0731 51.6688 11.8462 53.0427 13.2523 53.6346C14.6584 54.2266 16.1652 53.8124 17.0312 51.7017L19.9322 44.6312Z" fill="#FFAE4E"/>
<path d="M34.2235 43.8023C33.9059 43.2511 33.9149 42.6474 34.2437 42.454L37.8151 40.3528C38.1438 40.1594 38.6678 40.4495 38.9853 41.0007L43.2407 48.3866C44.5111 50.5915 43.9832 52.1526 42.6682 52.9262C41.3533 53.6998 39.7492 53.3931 38.4789 51.1882L34.2235 43.8023Z" fill="#FFAE4E"/>
<path d="M19.8778 48.855C19.5613 49.2856 18.9185 49.3455 18.4421 48.9887L13.2667 45.112C12.7903 44.7552 12.6607 44.1168 12.9772 43.6861L17.2178 37.9158C18.4838 36.1932 21.0548 35.9538 22.9604 37.3812C24.8659 38.8085 25.3844 41.362 24.1184 43.0847L19.8778 48.855Z" fill="#4C8BFF"/>
<path d="M35.2589 48.7263C35.6186 49.1205 36.2688 49.116 36.7112 48.7164L41.5177 44.3751C41.9601 43.9755 42.0272 43.3321 41.6675 42.938L36.8481 37.6574C35.4094 36.0809 32.8084 36.0988 31.0387 37.6972C29.269 39.2956 29.0007 41.8693 30.4395 43.4457L35.2589 48.7263Z" fill="#4C8BFF"/>
<path d="M17.875 42.0441C17.875 38.5118 19.7306 36.2368 22.8892 36.2368H31.6586C34.8172 36.2368 36.6728 38.5118 36.6728 42.0441L35.9221 52.4128C35.8758 53.0528 35.3167 53.5855 34.5628 53.708C29.8254 54.4776 24.9388 54.475 20.2015 53.7054C19.456 53.5843 18.8963 53.0621 18.8377 52.43L17.875 42.0441Z" fill="#4C8BFF"/>
<path d="M23.6406 33.7346C23.6406 32.2359 24.6313 31.021 25.8534 31.021H28.9512C30.1733 31.021 31.164 32.2359 31.164 33.7346V36.4483C31.164 37.947 30.1733 39.1619 28.9512 39.1619H25.8534C24.6313 39.1619 23.6406 37.947 23.6406 36.4483V33.7346Z" fill="#FFAB48"/>
<path d="M22.9982 28.7393C22.9982 31.2047 20.9996 33.2032 18.5342 33.2032C16.0689 33.2032 14.0703 31.2047 14.0703 28.7393C14.0703 26.274 16.0689 24.2754 18.5342 24.2754C20.9996 24.2754 22.9982 26.274 22.9982 28.7393Z" fill="#FF9C27"/>
<path d="M40.92 28.8221C40.92 31.2874 38.9215 33.286 36.4561 33.286C33.9908 33.286 31.9922 31.2874 31.9922 28.8221C31.9922 26.3567 33.9908 24.3582 36.4561 24.3582C38.9215 24.3582 40.92 26.3567 40.92 28.8221Z" fill="#FF9C27"/>
<path d="M38.5768 26.2327C38.5768 31.9209 33.5464 36.5321 27.3411 36.5321C21.1358 36.5321 16.1055 31.9209 16.1055 26.2327C16.1055 20.5445 21.1358 15.9333 27.3411 15.9333C33.5464 15.9333 38.5768 20.5445 38.5768 26.2327Z" fill="#FFBA68"/>
<mask id="mask1_1082_33770" style="mask-type:alpha" maskUnits="userSpaceOnUse" x="16" y="15" width="23" height="22">
<path d="M38.5651 26.2308C38.5651 31.9189 33.5347 36.5301 27.3294 36.5301C21.1241 36.5301 16.0938 31.9189 16.0938 26.2308C16.0938 20.5426 21.1241 15.9314 27.3294 15.9314C33.5347 15.9314 38.5651 20.5426 38.5651 26.2308Z" fill="#FFAB49"/>
</mask>
<g mask="url(#mask1_1082_33770)">
<path d="M23.4663 31.5218C23.4663 33.927 21.5029 35.8768 19.0808 35.8768C16.6588 35.8768 14.6953 33.927 14.6953 31.5218C14.6953 29.1166 16.6588 27.1667 19.0808 27.1667C21.5029 27.1667 23.4663 29.1166 23.4663 31.5218Z" fill="#FF9A24"/>
<path d="M39.814 31.5218C39.814 33.927 37.8505 35.8768 35.4285 35.8768C33.0064 35.8768 31.043 33.927 31.043 31.5218C31.043 29.1166 33.0064 27.1667 35.4285 27.1667C37.8505 27.1667 39.814 29.1166 39.814 31.5218Z" fill="#FF9A24"/>
</g>
<path d="M27.8075 29.508C27.8075 29.7666 27.5979 29.9762 27.3393 29.9762C27.0807 29.9762 26.8711 29.7666 26.8711 29.508C26.8711 29.2494 27.0807 29.0398 27.3393 29.0398C27.5979 29.0398 27.8075 29.2494 27.8075 29.508Z" fill="black"/>
<path d="M25.9243 32.0291C25.8093 31.9252 25.7095 31.81 25.6262 31.6865C25.3153 31.2254 25.7687 30.7314 26.3105 30.7314L28.4096 30.7314C28.9513 30.7314 29.4047 31.2254 29.0938 31.6865C29.0106 31.81 28.9108 31.9252 28.7958 32.0291C28.415 32.3733 27.8985 32.5667 27.36 32.5667C26.8215 32.5667 26.3051 32.3733 25.9243 32.0291Z" fill="#E16037"/>
<path fill-rule="evenodd" clip-rule="evenodd" d="M23.6355 25.1679C23.2993 25.2181 23.0274 25.3926 22.8893 25.5282C22.7601 25.6549 22.5526 25.6529 22.4258 25.5237C22.2991 25.3945 22.301 25.187 22.4303 25.0603C22.6523 24.8425 23.0466 24.5931 23.5388 24.5196C24.0457 24.4439 24.6354 24.5588 25.2116 25.0434C25.3502 25.1599 25.3681 25.3666 25.2516 25.5051C25.1351 25.6437 24.9283 25.6615 24.7898 25.545C24.3577 25.1817 23.9569 25.1199 23.6355 25.1679Z" fill="#905A09"/>
<path fill-rule="evenodd" clip-rule="evenodd" d="M30.798 27.6302C31.0851 27.5923 31.3192 27.4476 31.4388 27.3342C31.5507 27.2281 31.7274 27.2328 31.8335 27.3447C31.9396 27.4566 31.9349 27.6333 31.823 27.7394C31.6307 27.9217 31.2912 28.1284 30.871 28.1838C30.4381 28.2408 29.9375 28.1344 29.4538 27.7133C29.3375 27.612 29.3253 27.4357 29.4265 27.3194C29.5277 27.2031 29.7041 27.1909 29.8204 27.2921C30.1831 27.6079 30.5235 27.6664 30.798 27.6302Z" fill="black"/>
<path fill-rule="evenodd" clip-rule="evenodd" d="M30.659 25.1679C30.3228 25.2181 30.0509 25.3926 29.9127 25.5282C29.7835 25.6549 29.576 25.6529 29.4492 25.5237C29.3225 25.3945 29.3245 25.187 29.4537 25.0603C29.6757 24.8425 30.07 24.5931 30.5622 24.5196C31.0691 24.4439 31.6588 24.5588 32.2351 25.0434C32.3736 25.1599 32.3915 25.3666 32.275 25.5051C32.1585 25.6437 31.9518 25.6615 31.8132 25.545C31.3811 25.1817 30.9804 25.1199 30.659 25.1679Z" fill="#905A09"/>
<path fill-rule="evenodd" clip-rule="evenodd" d="M24.2511 27.6077C24.5382 27.5699 24.7723 27.4252 24.892 27.3117C25.0038 27.2057 25.1806 27.2104 25.2866 27.3223C25.3927 27.4342 25.388 27.6109 25.2761 27.717C25.0838 27.8992 24.7443 28.1059 24.3241 28.1613C23.8912 28.2184 23.3907 28.1119 22.9069 27.6908C22.7906 27.5896 22.7784 27.4132 22.8796 27.2969C22.9809 27.1806 23.1572 27.1684 23.2735 27.2697C23.6363 27.5855 23.9767 27.6439 24.2511 27.6077Z" fill="black"/>
<path d="M22.8399 12.9316C26.2176 14.2758 28.5234 10.3855 34.5885 14.9849C36.2359 14.7838 34.5885 8.93325 37.0037 12.2833C38.9358 14.9633 37.2373 15.6807 36.2127 15.4645C40.2753 18.1662 42.581 26.9194 37.6625 26.1156C31.6962 25.1405 33.9293 17.3623 32.3921 19.3075C30.8549 21.2527 18.56 27.1229 16.032 26.1156C14.2524 25.4065 14.2524 22.921 16.032 22.2252C15.8125 21.9731 14.6038 22.1646 14.2524 20.4355C13.901 18.7065 17.8623 15.7053 19.5459 14.9849C19.5459 13.1477 19.2679 11.5101 22.8399 12.9316Z" fill="black"/>
<path fill-rule="evenodd" clip-rule="evenodd" d="M31.6385 36.33C32.0464 36.6424 32.1239 37.2263 31.8114 37.6343L31.4884 38.0562C30.5054 39.3397 28.9809 40.0924 27.3643 40.0924C25.8088 40.0924 24.3352 39.3953 23.3486 38.1929L22.9104 37.6588C22.5844 37.2615 22.6422 36.6753 23.0395 36.3494C23.4367 36.0234 24.023 36.0812 24.3489 36.4785L24.7871 37.0125C25.4203 37.7843 26.366 38.2316 27.3643 38.2316C28.4018 38.2316 29.3802 37.7486 30.011 36.9248L30.3341 36.5029C30.6465 36.095 31.2305 36.0175 31.6385 36.33Z" fill="#337AFF"/>
<path fill-rule="evenodd" clip-rule="evenodd" d="M36.5068 40.693C36.381 40.7083 36.2915 40.8228 36.3069 40.9485C36.5504 42.9392 36.1744 45.2212 35.7008 47.466C35.6746 47.59 35.7539 47.7117 35.8779 47.7378C36.0019 47.764 36.1236 47.6847 36.1497 47.5607C36.6233 45.3161 37.016 42.9669 36.7623 40.8928C36.7469 40.7671 36.6325 40.6776 36.5068 40.693Z" fill="#337AFF"/>
<path d="M21.1798 51.5232C21.5832 51.3475 21.7893 50.9205 21.6401 50.5695L20.0199 46.7557C19.8707 46.4047 19.4228 46.2625 19.0195 46.4382L13.615 48.7926C12.0016 49.4955 11.8019 50.9315 12.3984 52.3357C12.995 53.7399 14.162 54.5805 15.7754 53.8776L21.1798 51.5232Z" fill="#FFAE4E"/>
<path d="M35.1014 54.4209C34.6355 54.408 34.2636 54.0883 34.2707 53.707L34.3481 49.564C34.3552 49.1827 34.7387 48.884 35.2046 48.897L41.4469 49.0705C43.3104 49.1223 44.0766 50.3808 44.0481 51.9061C44.0196 53.4315 43.2072 54.6462 41.3437 54.5944L35.1014 54.4209Z" fill="#FFAE4E"/>
<path fill-rule="evenodd" clip-rule="evenodd" d="M27.1948 42.3816C27.5463 42.8455 27.4567 43.5086 26.9948 43.8626L26.4025 44.3166C26.7962 44.2196 27.2271 44.3574 27.4882 44.7019C27.8397 45.1659 27.7501 45.829 27.2881 46.183L26.0444 47.1362C26.1269 47.1958 26.2021 47.2685 26.2668 47.354C26.6183 47.8179 26.5287 48.481 26.0668 48.8351L23.54 50.7716C23.4386 50.8493 23.3277 50.9057 23.2127 50.9414C21.5741 52.122 19.2898 51.787 18.0618 50.1661C16.9966 48.7601 17.0698 46.8399 18.1305 45.5228L18.4617 42.8296C18.5443 42.1579 19.1376 41.7572 19.7869 41.9346C20.3788 42.0963 20.8129 42.6827 20.8224 43.2939L23.5153 41.2301C23.9844 40.8706 24.654 40.961 25.0109 41.4321C25.3055 41.8209 25.295 42.3475 25.0186 42.7217L25.722 42.1826C26.1839 41.8286 26.8434 41.9176 27.1948 42.3816Z" fill="#FFBA68"/>
<path fill-rule="evenodd" clip-rule="evenodd" d="M27.0656 47.4745C26.8578 48.0181 27.1291 48.6298 27.6716 48.8407L28.3672 49.111C27.962 49.1279 27.5868 49.3806 27.4324 49.7844C27.2246 50.3281 27.4958 50.9397 28.0383 51.1506L29.4989 51.7183C29.4363 51.7985 29.3845 51.8894 29.3462 51.9895C29.1383 52.5332 29.4096 53.1448 29.9521 53.3557L32.9194 54.509C33.0384 54.5553 33.1606 54.5784 33.2811 54.5806C35.1843 55.2563 37.284 54.2963 38.0101 52.3969C38.64 50.7492 38.0332 48.9259 36.6467 47.9577L35.5761 45.4644C35.3091 44.8425 34.6274 44.6235 34.0536 44.9753C33.5304 45.296 33.2775 45.9803 33.4392 46.5698L30.2769 45.3407C29.726 45.1266 29.1083 45.4005 28.8973 45.9526C28.7231 46.4082 28.8803 46.9109 29.2503 47.193L28.4242 46.8719C27.8818 46.661 27.2735 46.9308 27.0656 47.4745Z" fill="#FFBA68"/>
<path d="M21.1051 29.2969L20.1875 30.3675" stroke="#EC7F00" stroke-width="0.458824" stroke-linecap="round"/>
<path d="M32.7301 29.2969L31.8125 30.3675" stroke="#EC7F00" stroke-width="0.458824" stroke-linecap="round"/>
<path d="M22.3317 29.4497L21.4141 30.5203" stroke="#EC7F00" stroke-width="0.458824" stroke-linecap="round"/>
<path d="M33.9528 29.4497L33.0352 30.5203" stroke="#EC7F00" stroke-width="0.458824" stroke-linecap="round"/>
<path d="M45.1418 23.0138C45.549 22.659 46.1499 23.0271 46.0188 23.551L45.9928 23.6547C45.9342 23.889 46.0297 24.1305 46.2294 24.2528L46.3179 24.307C46.7645 24.5805 46.588 25.2855 46.0604 25.3357L45.9559 25.3456C45.7199 25.3681 45.5204 25.5419 45.4618 25.7762L45.4358 25.8799C45.3047 26.4038 44.5947 26.4714 44.3997 25.9785L44.3611 25.881C44.2739 25.6606 44.0551 25.5265 43.8191 25.549L43.7147 25.5589C43.187 25.6092 42.9247 24.946 43.3318 24.5912L43.4124 24.5209C43.5945 24.3622 43.6588 24.1056 43.5716 23.8851L43.533 23.7876C43.338 23.2947 43.8858 22.8173 44.3325 23.0908L44.4209 23.145C44.6206 23.2673 44.8791 23.2427 45.0612 23.084L45.1418 23.0138Z" fill="#FFDA79"/>
<path d="M45.3839 24.9093C45.187 25.2306 44.7669 25.3315 44.4456 25.1347C44.1243 24.9379 44.0233 24.5178 44.2202 24.1965C44.417 23.8751 44.8371 23.7742 45.1584 23.9711C45.4798 24.1679 45.5807 24.5879 45.3839 24.9093Z" fill="#FFAD33"/>
<path d="M11.6137 13.5756C11.8191 12.9217 12.7134 12.9217 12.9187 13.5756L12.9594 13.705C13.0512 13.9974 13.3147 14.1954 13.6119 14.1954H13.7435C14.4081 14.1954 14.6845 15.0751 14.1468 15.4792L14.0403 15.5592C13.7998 15.74 13.6992 16.0603 13.7911 16.3527L13.8317 16.4821C14.0371 17.136 13.3136 17.6797 12.7759 17.2756L12.6695 17.1956C12.429 17.0149 12.1034 17.0149 11.8629 17.1956L11.7565 17.2756C11.2188 17.6797 10.4953 17.136 10.7007 16.4821L10.7414 16.3527C10.8332 16.0603 10.7326 15.74 10.4921 15.5592L10.3857 15.4792C9.84799 15.0751 10.1243 14.1954 10.789 14.1954H10.9205C11.2178 14.1954 11.4812 13.9974 11.5731 13.705L11.6137 13.5756Z" fill="#FE8C8C"/>
<ellipse cx="12.2682" cy="15.4662" rx="0.865865" ry="0.865827" fill="#EF3434"/>
<path d="M39.5956 34.7389C39.6971 34.4155 40.1394 34.4155 40.241 34.7389L40.2611 34.8029C40.3066 34.9475 40.4369 35.0454 40.5839 35.0454H40.6489C40.9777 35.0454 41.1143 35.4806 40.8484 35.6804L40.7958 35.72C40.6768 35.8094 40.6271 35.9678 40.6725 36.1124L40.6926 36.1764C40.7942 36.4998 40.4363 36.7688 40.1704 36.5689L40.1178 36.5293C39.9988 36.4399 39.8378 36.4399 39.7188 36.5293L39.6662 36.5689C39.4002 36.7688 39.0424 36.4998 39.144 36.1764L39.1641 36.1124C39.2095 35.9678 39.1598 35.8094 39.0408 35.72L38.9882 35.6804C38.7222 35.4806 38.8589 35.0454 39.1876 35.0454H39.2527C39.3997 35.0454 39.53 34.9475 39.5755 34.8029L39.5956 34.7389Z" fill="#FE8C8C"/>
<ellipse cx="39.9165" cy="35.6741" rx="0.428254" ry="0.428235" fill="#EF3434"/>
</g>
</svg>
