<svg width="56" height="57" viewBox="0 0 56 57" fill="none" xmlns="http://www.w3.org/2000/svg">
<rect x="0.5" y="0.855469" width="55" height="55" rx="27.5" fill="#2F364D"/>
<path d="M31.7147 45.3408C31.9001 45.2356 32.1117 45.4292 32.0235 45.6232L31.6753 46.3891C31.6359 46.4759 31.6568 46.5782 31.7271 46.6425L32.348 47.2104C32.5052 47.3542 32.3866 47.6152 32.1748 47.5913L31.3387 47.4969C31.244 47.4862 31.1532 47.5377 31.1138 47.6244L30.7656 48.3904C30.6774 48.5844 30.3924 48.5522 30.3497 48.3434L30.1812 47.5191C30.1621 47.4257 30.0851 47.3552 29.9904 47.3445L29.1543 47.2501C28.9425 47.2262 28.8851 46.9452 29.0705 46.8401L29.8024 46.4251C29.8853 46.3781 29.9285 46.283 29.9094 46.1897L29.7409 45.3653C29.6982 45.1565 29.9477 45.0151 30.1049 45.1589L30.7258 45.7267C30.7961 45.7911 30.8999 45.8028 30.9828 45.7558L31.7147 45.3408Z" fill="#FFDA79"/>
<path d="M19.118 4.13461C19.0841 3.98309 19.264 3.87678 19.3804 3.97946L19.8401 4.38485C19.8922 4.43077 19.9679 4.43793 20.0277 4.40259L20.5553 4.09064C20.6889 4.01163 20.8456 4.14979 20.7839 4.29226L20.5405 4.85476C20.5129 4.91848 20.5295 4.99271 20.5815 5.03863L21.0413 5.44401C21.1577 5.5467 21.0747 5.7384 20.9202 5.72377L20.31 5.66603C20.2408 5.65949 20.1754 5.6982 20.1478 5.76192L19.9043 6.32441C19.8426 6.46689 19.6347 6.44721 19.6008 6.29569L19.4672 5.69751C19.452 5.62975 19.395 5.57944 19.3259 5.5729L18.7157 5.51515C18.5611 5.50053 18.5155 5.29666 18.6492 5.21764L19.1768 4.90569C19.2366 4.87036 19.2668 4.80055 19.2516 4.73279L19.118 4.13461Z" fill="#FFDA79"/>
<path d="M51.5025 30.6848C51.6065 30.5781 51.7863 30.6668 51.7648 30.8142L51.6802 31.3963C51.6706 31.4622 51.7046 31.5268 51.7643 31.5563L52.2918 31.8167C52.4254 31.8826 52.3965 32.081 52.2497 32.1062L51.67 32.2056C51.6043 32.2168 51.5533 32.2691 51.5437 32.335L51.4591 32.9171C51.4377 33.0645 51.2401 33.0984 51.1708 32.9665L50.8971 32.4459C50.8661 32.3869 50.8007 32.3546 50.735 32.3658L50.1553 32.4652C50.0085 32.4904 49.9152 32.313 50.0192 32.2063L50.4298 31.7851C50.4763 31.7374 50.4868 31.6652 50.4558 31.6062L50.1821 31.0856C50.1128 30.9537 50.2527 30.8102 50.3863 30.8761L50.9138 31.1365C50.9735 31.166 51.0454 31.1536 51.0919 31.1059L51.5025 30.6848Z" fill="#FFDA79"/>
<path d="M25.7643 13.3044C25.8683 13.1977 26.048 13.2864 26.0266 13.4339L25.9419 14.0159C25.9324 14.0819 25.9663 14.1465 26.0261 14.176L26.5535 14.4363C26.6871 14.5023 26.6582 14.7006 26.5114 14.7258L25.9317 14.8252C25.866 14.8364 25.8151 14.8887 25.8055 14.9546L25.7208 15.5367C25.6994 15.6841 25.5018 15.718 25.4325 15.5861L25.1589 15.0655C25.1279 15.0065 25.0624 14.9742 24.9967 14.9855L24.417 15.0848C24.2702 15.11 24.1769 14.9326 24.2809 14.8259L24.6915 14.4048C24.738 14.357 24.7485 14.2848 24.7175 14.2258L24.4438 13.7052C24.3745 13.5733 24.5145 13.4298 24.6481 13.4957L25.1755 13.7561C25.2352 13.7856 25.3072 13.7732 25.3537 13.7255L25.7643 13.3044Z" fill="#FFDA79"/>
<path d="M37.2057 3.40449C37.3097 3.29781 37.4894 3.38654 37.468 3.53397L37.3834 4.11603C37.3738 4.18196 37.4077 4.24657 37.4675 4.27606L37.9949 4.53641C38.1285 4.60235 38.0996 4.80072 37.9528 4.8259L37.3731 4.92528C37.3074 4.93654 37.2565 4.9888 37.2469 5.05474L37.1623 5.63679C37.1408 5.78423 36.9432 5.8181 36.8739 5.68622L36.6003 5.16559C36.5693 5.10661 36.5038 5.0743 36.4381 5.08556L35.8584 5.18495C35.7116 5.21012 35.6183 5.03268 35.7223 4.92601L36.1329 4.50485C36.1794 4.45714 36.1899 4.38491 36.1589 4.32594L35.8853 3.8053C35.8159 3.67343 35.9559 3.5299 36.0895 3.59584L36.6169 3.85619C36.6766 3.88568 36.7486 3.87335 36.7951 3.82564L37.2057 3.40449Z" fill="#FFDA79"/>
<path d="M49.5919 22.0221C49.6407 21.9721 49.7249 22.0137 49.7149 22.0828L49.6752 22.3557C49.6707 22.3866 49.6866 22.4169 49.7146 22.4307L49.9619 22.5528C50.0245 22.5837 50.011 22.6767 49.9422 22.6885L49.6704 22.735C49.6396 22.7403 49.6157 22.7648 49.6112 22.7957L49.5716 23.0686C49.5615 23.1377 49.4689 23.1536 49.4364 23.0918L49.3081 22.8477C49.2936 22.8201 49.2629 22.8049 49.2321 22.8102L48.9604 22.8568C48.8915 22.8686 48.8478 22.7854 48.8966 22.7354L49.089 22.538C49.1108 22.5156 49.1158 22.4817 49.1012 22.4541L48.9729 22.21C48.9404 22.1482 49.006 22.0809 49.0687 22.1118L49.3159 22.2339C49.3439 22.2477 49.3776 22.2419 49.3994 22.2196L49.5919 22.0221Z" fill="#FFDA79"/>
<path d="M40.3497 48.4225C40.3985 48.3725 40.4827 48.4141 40.4727 48.4832L40.433 48.7561C40.4285 48.787 40.4445 48.8173 40.4725 48.8311L40.7197 48.9531C40.7823 48.9841 40.7688 49.077 40.7 49.0888L40.4282 49.1354C40.3974 49.1407 40.3735 49.1652 40.369 49.1961L40.3294 49.469C40.3193 49.5381 40.2267 49.554 40.1942 49.4922L40.0659 49.2481C40.0514 49.2204 40.0207 49.2053 39.9899 49.2106L39.7182 49.2572C39.6493 49.269 39.6056 49.1858 39.6544 49.1358L39.8468 48.9383C39.8686 48.916 39.8736 48.8821 39.859 48.8545L39.7307 48.6104C39.6982 48.5486 39.7638 48.4813 39.8265 48.5122L40.0737 48.6343C40.1017 48.6481 40.1354 48.6423 40.1573 48.6199L40.3497 48.4225Z" fill="#FFDA79"/>
<path d="M39.0294 13.0021C39.0782 12.9521 39.1624 12.9937 39.1524 13.0628L39.1127 13.3357C39.1082 13.3666 39.1241 13.3969 39.1521 13.4107L39.3994 13.5327C39.462 13.5636 39.4485 13.6566 39.3797 13.6684L39.1079 13.715C39.0771 13.7203 39.0532 13.7448 39.0487 13.7757L39.0091 14.0486C38.999 14.1177 38.9064 14.1336 38.8739 14.0717L38.7456 13.8277C38.7311 13.8 38.7004 13.7849 38.6696 13.7902L38.3979 13.8368C38.329 13.8486 38.2853 13.7654 38.3341 13.7154L38.5265 13.5179C38.5483 13.4956 38.5533 13.4617 38.5387 13.4341L38.4104 13.19C38.3779 13.1282 38.4435 13.0609 38.5062 13.0918L38.7534 13.2139C38.7814 13.2277 38.8151 13.2219 38.8369 13.1995L39.0294 13.0021Z" fill="#FFDA79"/>
<path d="M41.0099 11.4621C41.0586 11.4121 41.1429 11.4537 41.1329 11.5228L41.0932 11.7956C41.0887 11.8265 41.1046 11.8568 41.1326 11.8706L41.3799 11.9927C41.4425 12.0236 41.429 12.1166 41.3601 12.1284L41.0884 12.175C41.0576 12.1803 41.0337 12.2048 41.0292 12.2357L40.9895 12.5085C40.9795 12.5776 40.8869 12.5935 40.8544 12.5317L40.7261 12.2876C40.7116 12.26 40.6809 12.2448 40.6501 12.2501L40.3783 12.2967C40.3095 12.3085 40.2658 12.2253 40.3145 12.1753L40.507 11.9779C40.5288 11.9555 40.5337 11.9217 40.5192 11.894L40.3909 11.65C40.3584 11.5881 40.424 11.5209 40.4866 11.5518L40.7339 11.6738C40.7619 11.6876 40.7956 11.6819 40.8174 11.6595L41.0099 11.4621Z" fill="#FFDA79"/>
<path d="M14.3888 9.92203C14.4375 9.87202 14.5218 9.91361 14.5118 9.98273L14.4721 10.2556C14.4676 10.2865 14.4835 10.3168 14.5115 10.3306L14.7588 10.4527C14.8214 10.4836 14.8079 10.5766 14.739 10.5884L14.4673 10.635C14.4365 10.6402 14.4126 10.6647 14.4081 10.6956L14.3684 10.9685C14.3584 11.0376 14.2658 11.0535 14.2333 10.9917L14.105 10.7476C14.0905 10.72 14.0598 10.7048 14.029 10.7101L13.7572 10.7567C13.6884 10.7685 13.6447 10.6853 13.6934 10.6353L13.8859 10.4379C13.9077 10.4155 13.9126 10.3816 13.8981 10.354L13.7698 10.1099C13.7373 10.0481 13.8029 9.98082 13.8655 10.0117L14.1128 10.1338C14.1408 10.1476 14.1745 10.1418 14.1963 10.1195L14.3888 9.92203Z" fill="#FFDA79"/>
<path d="M52.2959 17.1745C52.3835 17.0847 52.5348 17.1594 52.5168 17.2835L52.4455 17.7737C52.4375 17.8292 52.4661 17.8836 52.5164 17.9084L52.9605 18.1277C53.073 18.1832 53.0487 18.3502 52.9251 18.3714L52.4369 18.4551C52.3816 18.4646 52.3387 18.5086 52.3306 18.5641L52.2594 19.0543C52.2413 19.1784 52.0749 19.207 52.0166 19.0959L51.7861 18.6575C51.76 18.6078 51.7049 18.5806 51.6496 18.5901L51.1614 18.6738C51.0378 18.695 50.9592 18.5456 51.0468 18.4557L51.3926 18.1011C51.4317 18.0609 51.4406 18.0001 51.4145 17.9504L51.184 17.512C51.1256 17.401 51.2435 17.2801 51.356 17.3356L51.8001 17.5549C51.8504 17.5797 51.911 17.5693 51.9502 17.5291L52.2959 17.1745Z" fill="#FFDA79"/>
<path d="M17.9756 46.6545C18.0632 46.5646 18.2145 46.6394 18.1965 46.7635L18.1252 47.2537C18.1172 47.3092 18.1458 47.3636 18.1961 47.3884L18.6402 47.6076C18.7527 47.6632 18.7284 47.8302 18.6048 47.8514L18.1166 47.9351C18.0613 47.9446 18.0184 47.9886 18.0103 48.0441L17.939 48.5343C17.921 48.6584 17.7546 48.6869 17.6962 48.5759L17.4658 48.1375C17.4397 48.0878 17.3846 48.0606 17.3293 48.0701L16.8411 48.1538C16.7175 48.175 16.6389 48.0256 16.7265 47.9357L17.0722 47.5811C17.1114 47.5409 17.1203 47.4801 17.0941 47.4304L16.8637 46.992C16.8053 46.8809 16.9232 46.7601 17.0357 46.8156L17.4798 47.0348C17.5301 47.0597 17.5907 47.0493 17.6298 47.0091L17.9756 46.6545Z" fill="#FFDA79"/>
<path d="M12.8497 47.9821C12.8985 47.9321 12.9827 47.9737 12.9727 48.0428L12.933 48.3156C12.9285 48.3466 12.9445 48.3768 12.9725 48.3907L13.2197 48.5127C13.2823 48.5436 13.2688 48.6366 13.2 48.6484L12.9282 48.695C12.8974 48.7003 12.8735 48.7248 12.869 48.7557L12.8294 49.0286C12.8193 49.0977 12.7267 49.1135 12.6942 49.0517L12.5659 48.8077C12.5514 48.78 12.5207 48.7649 12.4899 48.7701L12.2182 48.8167C12.1493 48.8285 12.1056 48.7454 12.1544 48.6953L12.3468 48.4979C12.3686 48.4756 12.3736 48.4417 12.359 48.414L12.2307 48.17C12.1982 48.1082 12.2638 48.0409 12.3265 48.0718L12.5737 48.1938C12.6017 48.2077 12.6354 48.2019 12.6573 48.1795L12.8497 47.9821Z" fill="#FFDA79"/>
<path d="M6.47082 15.422C6.51958 15.372 6.60384 15.4136 6.59379 15.4827L6.55412 15.7556C6.54963 15.7865 6.56555 15.8168 6.59355 15.8306L6.8408 15.9527C6.90343 15.9836 6.88991 16.0766 6.82107 16.0884L6.54931 16.135C6.51852 16.1402 6.49464 16.1647 6.49014 16.1956L6.45047 16.4685C6.44043 16.5376 6.34781 16.5535 6.31531 16.4917L6.18702 16.2476C6.17249 16.22 6.14181 16.2048 6.11102 16.2101L5.83926 16.2567C5.77043 16.2685 5.7267 16.1853 5.77546 16.1353L5.96793 15.9379C5.98974 15.9155 5.99466 15.8816 5.98013 15.854L5.85184 15.6099C5.81934 15.5481 5.88494 15.4808 5.94757 15.5117L6.19481 15.6338C6.22282 15.6476 6.25654 15.6418 6.27835 15.6195L6.47082 15.422Z" fill="#FFDA79"/>
<path fill-rule="evenodd" clip-rule="evenodd" d="M40.9915 46.7369C40.888 46.728 40.7837 46.7022 40.6826 46.658L34.2734 43.8581C32.3601 43.0223 32.1946 41.185 32.9902 39.3554C33.7858 37.5258 35.2411 36.3966 37.1544 37.2324L41.3542 39.0671L43.8404 35.7318C44.1744 35.2837 44.7325 35.1338 45.0869 35.397L48.9369 38.2567C49.2913 38.5199 49.3077 39.0966 48.9737 39.5447L44.4977 45.5493C43.4528 46.951 42.1763 47.1989 40.9915 46.7369Z" fill="#E8E8E8"/>
<path fill-rule="evenodd" clip-rule="evenodd" d="M9.55991 41.9266C9.27884 42.267 9.3999 42.8321 9.8303 43.1887L15.5972 47.9669C17.0472 49.1684 18.4398 49.0035 19.5148 48.108L24.6826 45.937C26.6076 45.1284 26.794 43.2958 26.0182 41.4577C25.2423 39.6196 23.7981 38.4721 21.8731 39.2807L17.4027 41.1587L13.9016 38.2579C13.4712 37.9012 12.8945 37.8881 12.6134 38.2285L9.55991 41.9266Z" fill="#E8E8E8"/>
<path d="M20.6464 45.4585C20.3938 41.8557 20.9917 38.1854 24.0019 37.9744L32.3595 37.3884C35.3698 37.1773 36.7758 39.4105 37.0284 43.0133L37.1799 53.6301C37.1815 54.286 36.6867 54.8668 35.977 55.0421C31.5171 56.1436 27.533 56.4229 22.9631 55.9546C22.244 55.8809 21.3985 55.3846 21.2975 54.7438L20.6464 45.4585Z" fill="#FAFAFA"/>
<path d="M24.525 35.6064C24.4292 34.2403 25.2491 33.0699 26.3563 32.9922L29.163 32.7954C30.2702 32.7178 31.2454 33.7624 31.3412 35.1285L31.5147 37.6021C31.6104 38.9682 30.7905 40.1386 29.6833 40.2163L26.8767 40.4131C25.7695 40.4907 24.7942 39.4462 24.6984 38.08L24.525 35.6064Z" fill="#FFAB48"/>
<path d="M40.5105 31.7395C40.3425 33.9822 38.3153 35.6587 35.9826 35.4839C33.6499 35.3092 31.8951 33.3495 32.063 31.1067C32.231 28.864 34.2582 27.1875 36.5909 27.3623C38.9236 27.537 40.6785 29.4967 40.5105 31.7395Z" fill="#FF9C27"/>
<path d="M25.198 29.3166C25.03 31.5593 23.0028 33.2358 20.6701 33.0611C18.3374 32.8864 16.5826 30.9266 16.7505 28.6839C16.9185 26.4411 18.9457 24.7647 21.2784 24.9394C23.6111 25.1141 25.366 27.0739 25.198 29.3166Z" fill="#ED8000"/>
<path d="M38.7632 29.3159C38.3756 34.4904 33.3017 38.3287 27.4303 37.889C21.5589 37.4492 16.6026 32.1427 19.3009 28.6212C17.8409 22.9977 22.9624 18.7105 28.8338 19.1503C34.7053 19.59 39.1508 24.1413 38.7632 29.3159Z" fill="#FFBA68"/>
<path d="M38.8328 29.3396C38.4433 34.5399 33.2575 38.3908 27.25 37.9409C21.2425 37.4909 16.1646 32.1508 18.9204 28.615C17.4191 22.961 22.653 18.659 28.6605 19.1089C34.668 19.5589 39.2223 24.1393 38.8328 29.3396Z" fill="#FFBA68"/>
<mask id="mask0_1082_34253" style="mask-type:alpha" maskUnits="userSpaceOnUse" x="18" y="19" width="21" height="19">
<path d="M38.8289 29.3386C38.4394 34.5389 33.2536 38.3898 27.2461 37.9399C21.2386 37.4899 16.1607 32.1498 18.9165 28.614C17.4152 22.96 22.6491 18.658 28.6566 19.108C34.6641 19.5579 39.2184 24.1384 38.8289 29.3386Z" fill="#FFBA68"/>
</mask>
<g mask="url(#mask0_1082_34253)">
<path fill-rule="evenodd" clip-rule="evenodd" d="M29.8042 32.2104C28.3544 33.0206 26.6894 33.3899 25.0303 33.2694C24.8521 33.2565 24.7286 33.1191 24.7543 32.9626C24.78 32.8061 24.9453 32.6897 25.1234 32.7026C26.6365 32.8125 28.1548 32.4757 29.4769 31.7369C29.6326 31.6499 29.832 31.6854 29.9224 31.8161C30.0128 31.9469 29.9598 32.1234 29.8042 32.2104Z" fill="#A75A00"/>
<path d="M38.1781 34.2313C38.0142 36.4194 36.0236 38.054 33.7319 37.8823C31.4401 37.7107 29.7152 35.7978 29.879 33.6097C30.0429 31.4217 32.0336 29.7871 34.3253 29.9587C36.6171 30.1304 38.342 32.0433 38.1781 34.2313Z" fill="#FF9A24"/>
<path d="M22.5961 32.4262C22.4322 34.6142 20.4415 36.2488 18.1498 36.0772C15.8581 35.9055 14.1331 33.9926 14.297 31.8046C14.4609 29.6165 16.4516 27.9819 18.7433 28.1536C21.035 28.3252 22.76 30.2381 22.5961 32.4262Z" fill="#FF9A24"/>
</g>
<path d="M26.3111 31.129C26.2935 31.3642 26.0809 31.5401 25.8362 31.5217C25.5916 31.5034 25.4075 31.2979 25.4251 31.0626C25.4427 30.8274 25.6554 30.6516 25.9 30.6699C26.1447 30.6882 26.3288 30.8938 26.3111 31.129Z" fill="black"/>
<path d="M24.7006 29.0752C24.667 29.5229 24.2432 29.8561 23.7538 29.8195C23.2645 29.7828 22.895 29.3902 22.9286 28.9425C22.9621 28.4947 23.386 28.1615 23.8753 28.1982C24.3646 28.2348 24.7341 28.6275 24.7006 29.0752Z" fill="black"/>
<path fill-rule="evenodd" clip-rule="evenodd" d="M24.3544 27.8842C24.4301 28.0386 24.3555 28.2183 24.1879 28.2856C24.0968 28.3222 23.957 28.4005 23.854 28.5036C23.7516 28.6061 23.7188 28.6966 23.7338 28.7787C23.7642 28.9452 23.6419 29.101 23.4605 29.1266C23.2791 29.1523 23.1074 29.0382 23.0769 28.8717C23.0156 28.5363 23.182 28.2667 23.3598 28.0887C23.5369 27.9114 23.758 27.7889 23.9139 27.7263C24.0815 27.6591 24.2787 27.7297 24.3544 27.8842Z" fill="black"/>
<path d="M30.4037 29.9277C30.3702 30.3754 29.9463 30.7087 29.457 30.672C28.9676 30.6354 28.5981 30.2427 28.6317 29.795C28.6652 29.3473 29.0891 29.014 29.5784 29.0507C30.0677 29.0873 30.4372 29.48 30.4037 29.9277Z" fill="black"/>
<path fill-rule="evenodd" clip-rule="evenodd" d="M30.0575 28.7367C30.1332 28.8911 30.0587 29.0709 29.891 29.1381C29.7999 29.1747 29.6601 29.253 29.5571 29.3562C29.4548 29.4587 29.4219 29.5491 29.4369 29.6313C29.4674 29.7977 29.345 29.9535 29.1636 29.9792C28.9822 30.0049 28.8105 29.8907 28.78 29.7242C28.7187 29.3888 28.8852 29.1192 29.0629 28.9412C29.24 28.7639 29.4611 28.6414 29.617 28.5789C29.7846 28.5116 29.9819 28.5823 30.0575 28.7367Z" fill="black"/>
<path fill-rule="evenodd" clip-rule="evenodd" d="M23.6646 26.7024C23.3428 26.7208 23.0721 26.8575 22.931 26.9695C22.799 27.0742 22.603 27.0556 22.4932 26.9279C22.3834 26.8002 22.4015 26.6118 22.5335 26.507C22.7603 26.327 23.1525 26.1323 23.6235 26.1054C24.1087 26.0776 24.6572 26.2298 25.1643 26.7169C25.2862 26.834 25.287 27.0234 25.1661 27.1398C25.0452 27.2563 24.8483 27.2558 24.7264 27.1387C24.3462 26.7735 23.9721 26.6849 23.6646 26.7024Z" fill="#905A09"/>
<path fill-rule="evenodd" clip-rule="evenodd" d="M30.0094 27.6655C29.6872 27.6675 29.4099 27.7901 29.2632 27.8948C29.126 27.9927 28.9312 27.9641 28.8281 27.8309C28.725 27.6978 28.7526 27.5105 28.8898 27.4127C29.1255 27.2445 29.5271 27.07 29.9989 27.0671C30.4848 27.0642 31.0249 27.2441 31.5065 27.7564C31.6222 27.8796 31.6134 28.0687 31.4867 28.1789C31.36 28.2891 31.1634 28.2785 31.0476 28.1554C30.6865 27.7712 30.3175 27.6636 30.0094 27.6655Z" fill="#905A09"/>
<path d="M25.3041 16.6661C28.2438 18.2104 30.7466 15.0219 35.8 19.7238C37.3222 19.7211 35.4036 16.0337 38.1333 18.5461C40.1372 20.3904 38.1424 20.6187 37.2308 20.3193C40.6548 23.1342 41.1217 31.7128 36.7218 30.4818C31.3847 28.9887 33.5189 21.6429 31.9172 23.1964C30.3156 24.7499 19.9397 28.7355 17.7395 27.5785C16.1907 26.7641 16.4471 24.5707 18.1407 24.1454C17.9667 23.8996 16.8453 23.9404 16.7034 22.3773C16.5615 20.8143 20.4814 18.5859 22.0901 18.1287C22.2796 16.5075 22.1952 15.0328 25.3041 16.6661Z" fill="black"/>
<path d="M21.5788 37.8609C21.5996 37.044 22.3044 36.4136 23.1185 36.4837L28.4446 36.9422L33.9524 36.7573C34.7619 36.7301 35.4273 37.3901 35.4067 38.1999C35.3905 38.834 34.9521 39.379 34.3361 39.5306L29.9148 40.6193C28.7641 40.9027 27.5571 40.8599 26.4293 40.4958L22.561 39.247C21.9626 39.0537 21.5627 38.4895 21.5788 37.8609Z" fill="#D7D7D7"/>
<path d="M23.5339 44.2539C23.5821 43.0399 24.6053 42.0947 25.8194 42.1429L31.9745 42.387C33.1886 42.4352 34.1338 43.4585 34.0856 44.6725L33.9286 48.6294C33.8805 49.8435 32.8572 50.7886 31.6431 50.7405L25.488 50.4963C24.2739 50.4481 23.3288 49.4249 23.3769 48.2108L23.5339 44.2539Z" fill="#D7D7D7"/>
<path d="M24.7733 46.1748C24.7949 45.6284 25.2554 45.2031 25.8017 45.2248L27.5603 45.2946C28.1067 45.3162 28.532 45.7767 28.5103 46.323C28.4886 46.8694 28.0282 47.2947 27.4819 47.273L25.7232 47.2032C25.1769 47.1816 24.7516 46.7211 24.7733 46.1748Z" fill="#BBBBBB"/>
<path d="M24.7733 46.1748C24.7949 45.6284 25.2554 45.2031 25.8017 45.2248C26.3481 45.2465 26.7734 45.7069 26.7517 46.2533C26.73 46.7996 26.2696 47.2249 25.7232 47.2032C25.1769 47.1816 24.7516 46.7211 24.7733 46.1748Z" fill="#7E7E7E"/>
<path fill-rule="evenodd" clip-rule="evenodd" d="M30.5821 42.4534C30.6988 42.4196 30.8208 42.4868 30.8547 42.6035C30.8712 42.6604 30.8772 42.7384 30.8806 42.8098C30.8844 42.8891 30.8856 42.9877 30.885 43.1002C30.8838 43.3258 30.875 43.6165 30.8615 43.9392C30.8345 44.585 30.7887 45.3663 30.7464 46.0252C30.7175 46.4746 30.5158 46.8939 30.1859 47.1987L29.7329 47.617C29.4758 47.8546 29.3235 48.1845 29.3096 48.5344L29.239 50.3151C29.2342 50.4365 29.1319 50.531 29.0104 50.5262C28.889 50.5214 28.7945 50.419 28.7993 50.2976L28.87 48.5169C28.8885 48.0505 29.0915 47.6105 29.4344 47.2938L29.8873 46.8754C30.1351 46.6466 30.2857 46.3325 30.3073 45.997C30.3495 45.3393 30.3951 44.5618 30.4219 43.9209C30.4353 43.6001 30.4438 43.3155 30.445 43.0978C30.4456 42.9888 30.4443 42.8989 30.4411 42.8307C30.4395 42.7965 30.4375 42.7698 30.4353 42.7499C30.4333 42.732 30.4317 42.7249 30.4317 42.7249C30.4317 42.7249 30.4318 42.7252 30.432 42.726C30.3982 42.6093 30.4654 42.4872 30.5821 42.4534Z" fill="#B1B1B1"/>
<ellipse cx="28.1027" cy="28.4624" rx="11.478" ry="8.8478" transform="rotate(2.19926 28.1027 28.4624)" fill="white" fill-opacity="0.4"/>
<path fill-rule="evenodd" clip-rule="evenodd" d="M25.9997 22.873C26.0287 23.1754 25.8071 23.444 25.5047 23.4729C24.6151 23.5582 23.5344 23.9467 22.5915 24.4595C22.1242 24.7137 21.7047 24.991 21.3714 25.2629C21.0306 25.5409 20.811 25.7882 20.7065 25.9749C20.5582 26.24 20.2231 26.3347 19.958 26.1864C19.6929 26.0381 19.5982 25.703 19.7465 25.4379C19.9482 25.0773 20.2882 24.7269 20.6761 24.4105C21.0716 24.0879 21.5501 23.7738 22.0659 23.4932C23.0894 22.9365 24.3154 22.4819 25.3998 22.378C25.7022 22.349 25.9708 22.5706 25.9997 22.873Z" fill="white"/>
<rect x="17.9727" y="32.6294" width="3.56369" height="8.36" rx="1.78185" transform="rotate(177.576 17.9727 32.6294)" fill="#E5E5E5"/>
<path fill-rule="evenodd" clip-rule="evenodd" d="M28.5613 39.024C36.0099 39.3101 42.2597 34.033 42.5207 27.2374C42.7817 20.4418 36.955 14.701 29.5064 14.4149C22.0578 14.1289 15.808 19.4059 15.547 26.2015C15.286 32.9972 21.1127 38.738 28.5613 39.024ZM20.2889 23.8133C23.9142 21.3562 29.8875 19.6809 36.5632 24.5231C38.1588 25.6804 38.9027 27.6417 38.8271 29.6113C38.7465 31.7104 37.7407 33.7143 35.9191 34.7606C32.0225 36.9989 26.5466 38.6629 20.4579 34.3728C18.6463 33.0963 17.8413 30.8704 17.9263 28.6558C17.9993 26.7563 18.7153 24.8799 20.2889 23.8133Z" fill="#FAFAFA"/>
<path d="M18.7063 26.8015C18.765 26.5657 19.0037 26.4221 19.2395 26.4807L19.453 26.5338C19.6888 26.5925 19.8324 26.8312 19.7738 27.067L19.7207 27.2805C19.662 27.5163 19.4233 27.6599 19.1875 27.6013L18.974 27.5482C18.7382 27.4895 18.5945 27.2508 18.6532 27.015L18.7063 26.8015Z" fill="white"/>
<path fill-rule="evenodd" clip-rule="evenodd" d="M42.8727 20.0309C42.4029 19.9046 42.0429 19.4921 42.007 18.9796C41.9617 18.3332 42.449 17.7724 43.0954 17.727C43.7418 17.6817 44.3026 18.169 44.3479 18.8154C44.392 19.4444 43.9318 19.9923 43.3115 20.0632L42.8863 25.7863L42.4475 25.7538L42.8727 20.0309Z" fill="#ACACAC"/>
<rect x="37.7148" y="24.1609" width="5.94" height="9.46" rx="2.97" transform="rotate(2.19926 37.7148 24.1609)" fill="#E5E5E5"/>
<rect x="38.8281" y="24.2017" width="4.84" height="8.36" rx="2.42" transform="rotate(2.19926 38.8281 24.2017)" fill="#FAFAFA"/>
<path d="M4.90036 27.5816C7.32479 27.6262 8.56953 30.6652 6.8996 30.9721C5.22966 31.2789 8.18255 26.6517 9.992 30.8939" stroke="#5991FF" stroke-width="0.88" stroke-linecap="round"/>
<path fill-rule="evenodd" clip-rule="evenodd" d="M10.1043 27.8988C9.89794 27.7705 9.83476 27.4993 9.96321 27.293L10.2233 26.8754C10.4133 26.5703 10.3193 26.1692 10.0137 25.9803C9.36848 25.5814 9.1135 24.7701 9.41451 24.074L9.64993 23.5295C9.74636 23.3065 10.0054 23.2037 10.2286 23.3C10.4517 23.3963 10.5545 23.6551 10.458 23.8781L10.2226 24.4226C10.0948 24.7183 10.2031 25.0628 10.4771 25.2322C11.1968 25.6771 11.418 26.6216 10.9707 27.3399L10.7106 27.7576C10.5822 27.9638 10.3107 28.0271 10.1043 27.8988Z" fill="#F97F7F"/>
<rect x="3.60547" y="21.0605" width="1.11485" height="2.07044" rx="0.557425" transform="rotate(25.979 3.60547 21.0605)" fill="#5991FF"/>
<rect x="11.9766" y="29.23" width="0.671028" height="1.2462" rx="0.335514" transform="rotate(101.402 11.9766 29.23)" fill="#FFC266"/>
<rect x="8.66797" y="21.501" width="0.671028" height="1.2462" rx="0.335514" transform="rotate(10.8393 8.66797 21.501)" fill="#FFC266"/>
<rect x="2.48047" y="25.936" width="0.671028" height="1.2462" rx="0.335514" transform="rotate(-44.5764 2.48047 25.936)" fill="#F97F7F"/>
<path fill-rule="evenodd" clip-rule="evenodd" d="M6.35134 39.2082C6.33627 39.7327 6.70315 40.1795 7.19996 40.2817C7.01974 40.4663 6.90571 40.7165 6.89772 40.9947C6.88397 41.4734 7.18834 41.8874 7.61927 42.0337C7.48485 42.2062 7.4022 42.4216 7.39544 42.6569C7.37856 43.2448 7.8414 43.735 8.42922 43.7519L11.6444 43.8442C11.7734 43.8479 11.8977 43.8285 12.0134 43.7897C14.0542 43.788 15.7367 42.163 15.7957 40.1092C15.8225 39.1752 15.5997 38.3436 15.142 37.6978C14.3979 36.6477 13.3441 35.6812 13.1748 34.4054L13.1391 34.1362L-nan -nanL13.1391 34.1362C12.972 33.4981 12.6892 32.7517 12.0355 32.6637C11.7779 32.629 11.5272 32.7095 11.3273 32.9556C10.8972 33.4847 11.0911 34.6085 11.3273 35.3169C11.5634 36.0253 9.56775 36.1143 9.56775 36.1143L7.72009 36.0613C7.12318 36.0441 6.62539 36.5141 6.60824 37.111C6.59399 37.6073 6.91639 38.035 7.36849 38.175C6.81579 38.199 6.36747 38.6465 6.35134 39.2082Z" fill="#FAFAFA"/>
<path fill-rule="evenodd" clip-rule="evenodd" d="M7.29589 38.2969C7.29823 38.2155 7.36611 38.1514 7.4475 38.1538L9.97593 38.2264C10.1072 38.2301 10.2628 38.2542 10.3949 38.3489C10.5374 38.4512 10.6875 38.6118 10.7599 38.8329C10.8336 39.0582 10.821 39.329 10.6663 39.6356C10.6296 39.7083 10.5409 39.7375 10.4682 39.7008C10.3955 39.6641 10.3663 39.5754 10.403 39.5027C10.5271 39.2568 10.5262 39.0668 10.4796 38.9247C10.4317 38.7784 10.3295 38.665 10.2229 38.5885C10.1609 38.5439 10.075 38.5242 9.96746 38.5211L7.43904 38.4485C7.35764 38.4462 7.29355 38.3783 7.29589 38.2969Z" fill="#E5E5E5"/>
<path fill-rule="evenodd" clip-rule="evenodd" d="M8.17091 36.2709C8.17325 36.1895 8.24113 36.1254 8.32253 36.1278L10.5951 36.1931C10.7371 36.1971 10.9099 36.225 11.0473 36.3407C11.1748 36.448 11.3019 36.6091 11.3601 36.8247C11.4189 37.0426 11.4035 37.3026 11.2671 37.5979C11.233 37.6718 11.1454 37.704 11.0715 37.6699C10.9975 37.6358 10.9653 37.5482 10.9994 37.4742C11.1103 37.234 11.114 37.0449 11.0754 36.9015C11.036 36.7558 10.9491 36.6434 10.8574 36.5663C10.7959 36.5145 10.7045 36.4912 10.5866 36.4878L8.31406 36.4225C8.23266 36.4202 8.16857 36.3523 8.17091 36.2709Z" fill="#E5E5E5"/>
<path fill-rule="evenodd" clip-rule="evenodd" d="M8.01746 42.0127C8.0198 41.9313 8.08768 41.8672 8.16908 41.8696L10.273 41.93C10.4322 41.9346 10.6073 41.9673 10.7586 42.0677C10.9249 42.1781 11.0913 42.3365 11.1667 42.5523C11.2446 42.7756 11.2158 43.0327 11.0431 43.3146C11.0006 43.3841 10.9098 43.4059 10.8403 43.3633C10.7709 43.3208 10.7491 43.23 10.7916 43.1606C10.9279 42.9383 10.9314 42.7731 10.8883 42.6496C10.8426 42.5186 10.7344 42.4056 10.5956 42.3134C10.507 42.2547 10.3931 42.2285 10.2645 42.2248L8.16061 42.1643C8.07922 42.162 8.01513 42.0941 8.01746 42.0127Z" fill="#E5E5E5"/>
<path fill-rule="evenodd" clip-rule="evenodd" d="M11.3392 37.2812C11.4025 37.23 11.4954 37.2398 11.5466 37.3031L12.3652 38.3149L12.3637 38.3694C12.3548 38.6791 12.4221 39.1576 12.65 39.5751C12.8748 39.9868 13.253 40.3369 13.8777 40.4181C13.9584 40.4286 14.0154 40.5026 14.0049 40.5834C13.9944 40.6641 13.9204 40.7211 13.8397 40.7106C13.105 40.615 12.6525 40.1952 12.3912 39.7164C12.1463 39.2677 12.067 38.7653 12.068 38.4164L11.3173 37.4885C11.2661 37.4252 11.2759 37.3324 11.3392 37.2812Z" fill="#E5E5E5"/>
<path fill-rule="evenodd" clip-rule="evenodd" d="M7.38352 40.1879C7.38586 40.1065 7.45374 40.0424 7.53514 40.0447L10.2439 40.1225C10.3868 40.1266 10.5466 40.1558 10.6846 40.2493C10.8409 40.3553 11.0141 40.5188 11.0913 40.7337C11.1732 40.9618 11.1375 41.221 10.9227 41.4821C10.871 41.545 10.7781 41.554 10.7152 41.5023C10.6523 41.4506 10.6433 41.3577 10.695 41.2948C10.8519 41.104 10.8564 40.9522 10.8138 40.8334C10.7664 40.7016 10.6503 40.5824 10.5191 40.4934C10.4452 40.4433 10.3484 40.4205 10.2355 40.4173L7.52667 40.3395C7.44527 40.3371 7.38118 40.2693 7.38352 40.1879Z" fill="#E5E5E5"/>
<path fill-rule="evenodd" clip-rule="evenodd" d="M51.8226 32.1936C52.1761 32.6041 52.1315 33.2253 51.723 33.5811L51.1993 34.0373C51.5594 33.9243 51.9677 34.0272 52.2303 34.332C52.5838 34.7425 52.5392 35.3637 52.1307 35.7195L51.0309 36.6775C51.111 36.728 51.1851 36.7912 51.2502 36.8668C51.6037 37.2773 51.5592 37.8985 51.1507 38.2543L48.9163 40.2004C48.8266 40.2785 48.7269 40.3373 48.6221 40.3772C47.1687 41.5694 45.0272 41.3913 43.7921 39.9571C42.7206 38.7131 42.6767 36.925 43.5853 35.6398L43.7361 33.1186C43.7737 32.4899 44.3015 32.083 44.915 32.21C45.4743 32.3257 45.9117 32.8451 45.9561 33.4124L48.3374 31.3383C48.7522 30.977 49.3795 31.022 49.7385 31.4389C50.0348 31.7829 50.0557 32.2727 49.8208 32.6364L50.4428 32.0946C50.8513 31.7388 51.4691 31.7831 51.8226 32.1936Z" fill="#FAFAFA"/>
<path fill-rule="evenodd" clip-rule="evenodd" d="M50.4303 36.7615C50.3813 36.7047 50.2957 36.6985 50.2391 36.7478L48.776 38.022C48.6653 38.1184 48.5596 38.2443 48.5103 38.4047C48.456 38.581 48.4296 38.7916 48.5014 38.9902C48.5757 39.1955 48.7458 39.3627 49.0327 39.4633C49.1033 39.4881 49.1806 39.4506 49.2054 39.3796C49.2301 39.3085 49.1928 39.2308 49.1222 39.206C48.8959 39.1266 48.7973 39.0105 48.7562 38.8969C48.7126 38.7764 48.724 38.6322 48.7692 38.4851C48.7981 38.3912 48.864 38.3058 48.9534 38.2279L50.4165 36.9538C50.4731 36.9045 50.4793 36.8184 50.4303 36.7615Z" fill="#E5E5E5"/>
<path fill-rule="evenodd" clip-rule="evenodd" d="M45.7425 34.4402C45.6677 34.4405 45.6073 34.5018 45.6077 34.577L45.6129 35.7787L45.6457 35.8168C45.8319 36.033 46.0618 36.4143 46.1422 36.846C46.2214 37.2716 46.1557 37.7429 45.7585 38.1661C45.7071 38.2208 45.7096 38.307 45.7639 38.3585C45.8183 38.4101 45.904 38.4076 45.9553 38.3529C46.4224 37.8552 46.5005 37.2907 46.4083 36.7957C46.322 36.3318 46.0867 35.9264 45.8833 35.6776L45.8784 34.5756C45.8781 34.5004 45.8172 34.4398 45.7425 34.4402Z" fill="#E5E5E5"/>
<path fill-rule="evenodd" clip-rule="evenodd" d="M50.4833 34.4759C50.5258 34.5248 50.5206 34.599 50.4716 34.6415L48.8167 36.0794C48.7678 36.1219 48.6936 36.1167 48.651 36.0677C48.6085 36.0188 48.6137 35.9446 48.6627 35.9021L50.3176 34.4642C50.3666 34.4217 50.4407 34.4269 50.4833 34.4759Z" fill="#E5E5E5"/>
<path fill-rule="evenodd" clip-rule="evenodd" d="M49.3153 33.198C49.3578 33.247 49.3526 33.3212 49.3037 33.3637L47.2941 35.1096C47.2452 35.1522 47.171 35.147 47.1284 35.098C47.0859 35.049 47.0911 34.9749 47.1401 34.9323L49.1496 33.1864C49.1986 33.1439 49.2728 33.1491 49.3153 33.198Z" fill="#E5E5E5"/>
<path fill-rule="evenodd" clip-rule="evenodd" d="M47.7603 35.4718C47.1761 35.0641 46.5309 34.8386 46.1193 34.7565C46.0557 34.7438 46.0145 34.682 46.0271 34.6184C46.0398 34.5547 46.1017 34.5135 46.1653 34.5261C46.6046 34.6137 47.2807 34.8507 47.8947 35.2792C48.5095 35.7082 49.071 36.3359 49.2587 37.206C49.2724 37.2694 49.2321 37.3319 49.1687 37.3456C49.1053 37.3593 49.0428 37.319 49.0291 37.2556C48.8577 36.4613 48.3438 35.879 47.7603 35.4718Z" fill="#E5E5E5"/>
</svg>
