<svg width="55" height="55" viewBox="0 0 55 55" fill="none" xmlns="http://www.w3.org/2000/svg">
<circle cx="27.3567" cy="27.2122" r="26.8567" fill="#D9D9D9"/>
<path d="M22.42 35.0181C22.42 38.1004 19.9212 40.5992 16.8389 40.5992C13.7565 40.5992 11.2578 38.1004 11.2578 35.0181C11.2578 31.9357 13.7565 29.437 16.8389 29.437C19.9212 29.437 22.42 31.9357 22.42 35.0181Z" fill="#FF9C27"/>
<path d="M45.2051 35.0181C45.2051 38.1004 42.7064 40.5992 39.624 40.5992C36.5417 40.5992 34.043 38.1004 34.043 35.0181C34.043 31.9357 36.5417 29.437 39.624 29.437C42.7064 29.437 45.2051 31.9357 45.2051 35.0181Z" fill="#FF9C27"/>
<path d="M42.2794 31.7801C42.2794 38.892 35.9899 44.6573 28.2315 44.6573C20.473 44.6573 14.1836 38.892 14.1836 31.7801C14.1836 24.6682 20.473 18.9028 28.2315 18.9028C35.9899 18.9028 42.2794 24.6682 42.2794 31.7801Z" fill="#FFBA68"/>
<mask id="mask0_1082_33737" style="mask-type:alpha" maskUnits="userSpaceOnUse" x="14" y="18" width="29" height="27">
<path d="M42.2794 31.7801C42.2794 38.892 35.9899 44.6573 28.2315 44.6573C20.473 44.6573 14.1836 38.892 14.1836 31.7801C14.1836 24.6682 20.473 18.9028 28.2315 18.9028C35.9899 18.9028 42.2794 24.6682 42.2794 31.7801Z" fill="#FFAB49"/>
</mask>
<g mask="url(#mask0_1082_33737)">
<path d="M23.5442 38.3954C23.5442 41.4026 21.0893 43.8403 18.0612 43.8403C15.033 43.8403 12.5781 41.4026 12.5781 38.3954C12.5781 35.3882 15.033 32.9504 18.0612 32.9504C21.0893 32.9504 23.5442 35.3882 23.5442 38.3954Z" fill="#FF9A24"/>
<path d="M43.8801 38.3954C43.8801 41.4026 41.4253 43.8403 38.3971 43.8403C35.3689 43.8403 32.9141 41.4026 32.9141 38.3954C32.9141 35.3882 35.3689 32.9504 38.3971 32.9504C41.4253 32.9504 43.8801 35.3882 43.8801 38.3954Z" fill="#FF9A24"/>
</g>
<path d="M28.8191 35.8754C28.8191 36.1986 28.557 36.4607 28.2338 36.4607C27.9105 36.4607 27.6484 36.1986 27.6484 35.8754C27.6484 35.5521 27.9105 35.29 28.2338 35.29C28.557 35.29 28.8191 35.5521 28.8191 35.8754Z" fill="black"/>
<path d="M30.8437 34.2634C30.7001 34.0909 30.5729 33.9024 30.4633 33.7013C29.9351 32.7313 30.882 31.78 31.9866 31.78L33.8398 31.78C34.9444 31.78 35.8913 32.7313 35.3631 33.7013C35.2535 33.9024 35.1263 34.0909 34.9826 34.2634C34.4338 34.922 33.6894 35.292 32.9132 35.292C32.137 35.292 31.3926 34.922 30.8437 34.2634Z" fill="white"/>
<path d="M21.4805 34.2634C21.3368 34.0909 21.2096 33.9024 21.1001 33.7013C20.5718 32.7313 21.5187 31.78 22.6233 31.78L24.4766 31.78C25.5811 31.78 26.5281 32.7313 25.9998 33.7013C25.8903 33.9024 25.7631 34.0909 25.6194 34.2634C25.0705 34.922 24.3261 35.292 23.5499 35.292C22.7737 35.292 22.0293 34.922 21.4805 34.2634Z" fill="white"/>
<path fill-rule="evenodd" clip-rule="evenodd" d="M23.7869 39.0156C23.9051 39.2086 24.1573 39.2692 24.3503 39.1511L25.1694 38.6496C25.7223 38.3111 26.4132 38.2912 26.9846 38.5973C27.7649 39.0153 28.7024 39.0153 29.4827 38.5973C30.0541 38.2912 30.7451 38.3111 31.2979 38.6496L32.117 39.1511C32.31 39.2692 32.5622 39.2086 32.6804 39.0156C32.7986 38.8226 32.7379 38.5704 32.5449 38.4522L31.7258 37.9507C30.9248 37.4603 29.9237 37.4315 29.0957 37.875C28.5572 38.1635 27.9101 38.1635 27.3716 37.875C26.5436 37.4315 25.5426 37.4603 24.7415 37.9507L23.9224 38.4522C23.7294 38.5704 23.6688 38.8226 23.7869 39.0156Z" fill="#A75A00"/>
<path d="M24.7202 32.9514C24.7202 33.598 24.1961 34.1221 23.5496 34.1221C22.903 34.1221 22.3789 33.598 22.3789 32.9514C22.3789 32.3049 22.903 31.7808 23.5496 31.7808C24.1961 31.7808 24.7202 32.3049 24.7202 32.9514Z" fill="black"/>
<path d="M34.0835 32.9514C34.0835 33.598 33.5594 34.1221 32.9128 34.1221C32.2663 34.1221 31.7422 33.598 31.7422 32.9514C31.7422 32.3049 32.2663 31.7808 32.9128 31.7808C33.5594 31.7808 34.0835 32.3049 34.0835 32.9514Z" fill="black"/>
<path fill-rule="evenodd" clip-rule="evenodd" d="M20.918 30.025C20.918 29.5401 21.3111 29.147 21.796 29.147H25.3079C25.7928 29.147 26.1859 29.5401 26.1859 30.025C26.1859 30.5099 25.7928 30.903 25.3079 30.903H21.796C21.3111 30.903 20.918 30.5099 20.918 30.025Z" fill="#905A09"/>
<path fill-rule="evenodd" clip-rule="evenodd" d="M30.2852 30.025C30.2852 29.5401 30.6782 29.147 31.1631 29.147H34.6751C35.16 29.147 35.5531 29.5401 35.5531 30.025C35.5531 30.5099 35.16 30.903 34.6751 30.903H31.1631C30.6782 30.903 30.2852 30.5099 30.2852 30.025Z" fill="#905A09"/>
<path fill-rule="evenodd" clip-rule="evenodd" d="M21.0716 28.0282C21.0955 28.2298 21.1077 28.4348 21.1077 28.6424C21.1077 31.6688 18.5092 34.1221 15.3038 34.1221C12.0985 34.1221 9.5 31.6688 9.5 28.6424C9.5 27.1139 10.1629 25.7315 11.2321 24.7376C10.7997 23.9708 10.5547 23.0955 10.5547 22.1662C10.5547 19.1399 13.1532 16.6865 16.3585 16.6865C16.3895 16.6865 16.4203 16.6868 16.4511 16.6872C16.9473 14.1365 19.3142 12.2037 22.1593 12.2037C22.7145 12.2037 23.2515 12.2773 23.7599 12.4147C24.8173 11.364 26.3116 10.709 27.9679 10.709C29.6879 10.709 31.2332 11.4154 32.296 12.5377C32.9195 12.3216 33.5932 12.2036 34.296 12.2036C37.1693 12.2036 39.5549 14.1749 40.0184 16.7631C42.7609 17.1999 44.8499 19.4527 44.8499 22.1662C44.8499 22.8615 44.7127 23.5266 44.4625 24.1386C45.9714 25.1282 46.9593 26.7763 46.9593 28.6423C46.9593 31.6686 44.3608 34.1219 41.1554 34.1219C37.95 34.1219 35.3516 31.6686 35.3516 28.6423C35.3516 28.4347 35.3638 28.2298 35.3876 28.0282C34.5875 28.421 33.6782 28.6429 32.714 28.6429C30.9077 28.6429 29.2941 27.8638 28.2296 26.6421C27.1652 27.8638 25.5516 28.6429 23.7453 28.6429C22.7811 28.6429 21.8718 28.4209 21.0716 28.0282Z" fill="black"/>
<path fill-rule="evenodd" clip-rule="evenodd" d="M35.8389 13.3428C36.3238 13.3428 36.7169 13.7359 36.7169 14.2208V20.0741C36.7169 20.559 36.3238 20.952 35.8389 20.952C35.354 20.952 34.9609 20.559 34.9609 20.0741V14.2208C34.9609 13.7359 35.354 13.3428 35.8389 13.3428Z" fill="black"/>
<path fill-rule="evenodd" clip-rule="evenodd" d="M35.2748 14.6532C33.4043 15.1208 30.9132 15.3914 28.2267 15.3914C25.5402 15.3914 23.0491 15.1208 21.1786 14.6532C20.2568 14.4228 19.3863 14.1204 18.7039 13.7171C18.1391 13.3833 17.1055 12.6215 17.1055 11.2941C17.1055 9.96669 18.1391 9.20491 18.7039 8.87106C19.3863 8.46774 20.2568 8.16541 21.1786 7.93496C23.0491 7.46732 25.5402 7.19678 28.2267 7.19678C30.9132 7.19678 33.4043 7.46732 35.2748 7.93496C36.1966 8.16541 37.0671 8.46774 37.7495 8.87106C38.3143 9.20491 39.348 9.96669 39.348 11.2941C39.348 12.6215 38.3143 13.3833 37.7495 13.7171C37.0671 14.1204 36.1966 14.4228 35.2748 14.6532ZM28.2267 13.6354C33.399 13.6354 37.592 12.5872 37.592 11.2941C37.592 10.001 33.399 8.95276 28.2267 8.95276C23.0544 8.95276 18.8615 10.001 18.8615 11.2941C18.8615 12.5872 23.0544 13.6354 28.2267 13.6354Z" fill="#FFC266"/>
</svg>
