<svg width="55" height="55" viewBox="0 0 55 55" fill="none" xmlns="http://www.w3.org/2000/svg">
<circle cx="27.5" cy="27.3555" r="27" fill="#D9D9D9"/>
<path d="M14.8637 37.5035C16.7049 36.7663 16.9078 34.7445 16.7479 33.5176C16.7256 33.3468 16.9013 33.2073 17.0575 33.2795L23.2854 36.1565C23.3553 36.1888 23.4017 36.2607 23.4051 36.3377C23.8158 45.711 17.5252 46.8318 14.5533 46.2173C14.3471 46.1747 14.3628 45.8955 14.5622 45.8276C16.7127 45.095 16.795 43.0667 14.8637 42.4224C12.5358 41.6457 12.2772 38.5391 14.8637 37.5035Z" fill="black"/>
<path d="M39.6832 37.5035C37.8419 36.7663 37.6391 34.7445 37.799 33.5176C37.8213 33.3468 37.6456 33.2073 37.4894 33.2795L31.2615 36.1565C31.1916 36.1888 31.1452 36.2607 31.1418 36.3377C30.731 45.711 37.0217 46.8318 39.9936 46.2173C40.1998 46.1747 40.184 45.8955 39.9847 45.8276C37.8342 45.095 37.7519 43.0667 39.6832 42.4224C42.011 41.6457 42.2697 38.5391 39.6832 37.5035Z" fill="black"/>
<path d="M22.3648 29.7551C22.3648 32.4817 20.1565 34.692 17.4324 34.692C14.7083 34.692 12.5 32.4817 12.5 29.7551C12.5 27.0285 14.7083 24.8181 17.4324 24.8181C20.1565 24.8181 22.3648 27.0285 22.3648 29.7551Z" fill="#FF9C27"/>
<path d="M42.5015 29.7551C42.5015 32.4817 40.2932 34.692 37.5691 34.692C34.845 34.692 32.6367 32.4817 32.6367 29.7551C32.6367 27.0285 34.845 24.8181 37.5691 24.8181C40.2932 24.8181 42.5015 27.0285 42.5015 29.7551Z" fill="#FF9C27"/>
<path d="M39.9201 26.8906C39.9201 33.1817 34.3617 38.2816 27.505 38.2816C20.6483 38.2816 15.0898 33.1817 15.0898 26.8906C15.0898 20.5995 20.6483 15.4995 27.505 15.4995C34.3617 15.4995 39.9201 20.5995 39.9201 26.8906Z" fill="#FFBA68"/>
<mask id="mask0_1082_33605" style="mask-type:alpha" maskUnits="userSpaceOnUse" x="15" y="15" width="25" height="24">
<path d="M39.9162 26.8886C39.9162 33.1797 34.3578 38.2797 27.5011 38.2797C20.6444 38.2797 15.0859 33.1797 15.0859 26.8886C15.0859 20.5975 20.6444 15.4976 27.5011 15.4976C34.3578 15.4976 39.9162 20.5975 39.9162 26.8886Z" fill="#FFAB49"/>
</mask>
<g mask="url(#mask0_1082_33605)">
<path d="M23.2188 32.7406C23.2188 35.4007 21.0493 37.5572 18.3731 37.5572C15.6969 37.5572 13.5273 35.4007 13.5273 32.7406C13.5273 30.0805 15.6969 27.9241 18.3731 27.9241C21.0493 27.9241 23.2188 30.0805 23.2188 32.7406Z" fill="#FF9A24"/>
<path d="M41.2813 32.7406C41.2813 35.4007 39.1118 37.5572 36.4356 37.5572C33.7594 37.5572 31.5898 35.4007 31.5898 32.7406C31.5898 30.0805 33.7594 27.9241 36.4356 27.9241C39.1118 27.9241 41.2813 30.0805 41.2813 32.7406Z" fill="#FF9A24"/>
</g>
<path d="M28.0229 30.5129C28.0229 30.7989 27.7913 31.0307 27.5056 31.0307C27.2199 31.0307 26.9883 30.7989 26.9883 30.5129C26.9883 30.2269 27.2199 29.9951 27.5056 29.9951C27.7913 29.9951 28.0229 30.2269 28.0229 30.5129Z" fill="black"/>
<path fill-rule="evenodd" clip-rule="evenodd" d="M23.8563 25.0767C23.9992 25.0767 24.115 25.1926 24.115 25.3355V26.0604C24.115 26.2034 23.9992 26.3193 23.8563 26.3193C23.7135 26.3193 23.5977 26.2034 23.5977 26.0604V25.3355C23.5977 25.1926 23.7135 25.0767 23.8563 25.0767Z" fill="#905A09"/>
<path fill-rule="evenodd" clip-rule="evenodd" d="M25.5162 25.8802C25.6365 25.9573 25.6716 26.1174 25.5946 26.2378L25.1818 26.8836C25.1048 27.004 24.9448 27.0392 24.8245 26.9621C24.7042 26.885 24.6691 26.7249 24.7461 26.6045L25.1589 25.9587C25.2359 25.8383 25.3958 25.8031 25.5162 25.8802Z" fill="#905A09"/>
<path fill-rule="evenodd" clip-rule="evenodd" d="M22.3666 25.8802C22.2463 25.9573 22.2112 26.1174 22.2882 26.2378L22.701 26.8836C22.778 27.004 22.938 27.0392 23.0583 26.9621C23.1786 26.885 23.2137 26.7249 23.1368 26.6045L22.7239 25.9587C22.6469 25.8383 22.487 25.8031 22.3666 25.8802Z" fill="#905A09"/>
<path d="M22.332 27.4068C22.332 26.549 23.0268 25.8535 23.8839 25.8535C24.741 25.8535 25.4358 26.549 25.4358 27.4068V28.9602C25.4358 29.818 24.741 30.5135 23.8839 30.5135C23.0268 30.5135 22.332 29.818 22.332 28.9602V27.4068Z" fill="#B67310"/>
<path fill-rule="evenodd" clip-rule="evenodd" d="M25.2809 26.8223C24.1702 25.9834 22.9592 26.4669 22.4887 26.8223C22.3747 26.9084 22.2125 26.8857 22.1264 26.7716C22.0404 26.6575 22.0631 26.4951 22.1771 26.409C22.7411 25.983 24.2201 25.3724 25.5925 26.409C25.7065 26.4951 25.7292 26.6575 25.6431 26.7716C25.5571 26.8857 25.3949 26.9084 25.2809 26.8223Z" fill="#905A09"/>
<path fill-rule="evenodd" clip-rule="evenodd" d="M31.2157 25.0767C31.3585 25.0767 31.4743 25.1926 31.4743 25.3355V26.0604C31.4743 26.2034 31.3585 26.3193 31.2157 26.3193C31.0728 26.3193 30.957 26.2034 30.957 26.0604V25.3355C30.957 25.1926 31.0728 25.0767 31.2157 25.0767Z" fill="#905A09"/>
<path fill-rule="evenodd" clip-rule="evenodd" d="M32.8755 25.8802C32.9959 25.9573 33.031 26.1174 32.954 26.2378L32.5412 26.8836C32.4642 27.004 32.3042 27.0392 32.1839 26.9621C32.0636 26.885 32.0284 26.7249 32.1054 26.6045L32.5183 25.9587C32.5953 25.8383 32.7552 25.8031 32.8755 25.8802Z" fill="#905A09"/>
<path fill-rule="evenodd" clip-rule="evenodd" d="M29.726 25.8802C29.6057 25.9573 29.5706 26.1174 29.6476 26.2378L30.0604 26.8836C30.1374 27.004 30.2974 27.0392 30.4177 26.9621C30.538 26.885 30.5731 26.7249 30.4961 26.6045L30.0833 25.9587C30.0063 25.8383 29.8463 25.8031 29.726 25.8802Z" fill="#905A09"/>
<path d="M29.6914 27.4068C29.6914 26.549 30.3862 25.8535 31.2433 25.8535C32.1004 25.8535 32.7952 26.549 32.7952 27.4068V28.9602C32.7952 29.818 32.1004 30.5135 31.2433 30.5135C30.3862 30.5135 29.6914 29.818 29.6914 28.9602V27.4068Z" fill="#B67310"/>
<path fill-rule="evenodd" clip-rule="evenodd" d="M32.6402 26.8223C31.5296 25.9834 30.3186 26.4669 29.8481 26.8223C29.734 26.9084 29.5718 26.8857 29.4858 26.7716C29.3998 26.6575 29.4224 26.4951 29.5365 26.409C30.1005 25.983 31.5795 25.3724 32.9518 26.409C33.0659 26.4951 33.0885 26.6575 33.0025 26.7716C32.9165 26.8857 32.7543 26.9084 32.6402 26.8223Z" fill="#905A09"/>
<path fill-rule="evenodd" clip-rule="evenodd" d="M23.4051 23.9221C23.0336 23.8666 22.7332 23.6735 22.5805 23.5237C22.4378 23.3835 22.2085 23.3857 22.0685 23.5286C21.9284 23.6715 21.9306 23.9009 22.0734 24.0411C22.3187 24.282 22.7544 24.5578 23.2981 24.639C23.8582 24.7227 24.5098 24.5957 25.1465 24.0598C25.2995 23.931 25.3193 23.7023 25.1906 23.5491C25.0619 23.3959 24.8335 23.3762 24.6804 23.505C24.2029 23.9068 23.7602 23.9752 23.4051 23.9221Z" fill="#905A09"/>
<path fill-rule="evenodd" clip-rule="evenodd" d="M31.1668 24.1602C30.7953 24.2157 30.4949 24.4087 30.3423 24.5586C30.1995 24.6988 29.9702 24.6966 29.8302 24.5537C29.6901 24.4108 29.6923 24.1813 29.8351 24.0412C30.0804 23.8003 30.5161 23.5245 31.0599 23.4432C31.62 23.3595 32.2715 23.4866 32.9082 24.0225C33.0613 24.1513 33.081 24.3799 32.9523 24.5331C32.8236 24.6864 32.5952 24.7061 32.4421 24.5773C31.9646 24.1754 31.5219 24.1071 31.1668 24.1602Z" fill="#905A09"/>
<ellipse cx="23.5639" cy="27.6056" rx="0.716258" ry="0.71692" fill="white"/>
<ellipse cx="30.8022" cy="27.6056" rx="0.716258" ry="0.71692" fill="white"/>
<ellipse cx="24.3972" cy="28.6815" rx="0.358129" ry="0.35846" fill="white"/>
<ellipse cx="31.6433" cy="28.6815" rx="0.358129" ry="0.35846" fill="white"/>
<path fill-rule="evenodd" clip-rule="evenodd" d="M23.4187 31.7332C23.5272 31.5515 23.7588 31.4944 23.936 31.6056L24.6881 32.0778C25.1957 32.3964 25.8301 32.4152 26.3548 32.127C27.0712 31.7335 27.9321 31.7335 28.6485 32.127C29.1732 32.4152 29.8076 32.3964 30.3153 32.0778L31.0673 31.6056C31.2445 31.4944 31.4761 31.5515 31.5846 31.7332C31.6931 31.9149 31.6374 32.1524 31.4602 32.2636L30.7081 32.7357C29.9726 33.1975 29.0534 33.2246 28.2932 32.807C27.7987 32.5354 27.2046 32.5354 26.7101 32.807C25.9499 33.2246 25.0307 33.1975 24.2952 32.7357L23.5431 32.2636C23.3659 32.1524 23.3102 31.9149 23.4187 31.7332Z" fill="#A75A00"/>
<path fill-rule="evenodd" clip-rule="evenodd" d="M40.1429 25.2795C40.6679 24.1706 40.9543 22.9733 40.9543 21.7244C40.9543 15.9978 34.9326 11.3555 27.5045 11.3555C20.0764 11.3555 14.0547 15.9978 14.0547 21.7244C14.0547 23.0607 14.3826 24.3379 14.9797 25.5109L14.6428 26.1026C14.4069 26.5168 14.8181 26.9953 15.2893 26.8678C26.0359 23.9589 28.9552 21.1718 29.6023 19.8054C29.6582 19.9981 29.7428 20.2249 29.8653 20.4879C32.3679 25.86 39.5974 27.2034 40.1535 26.6662C40.2841 26.5401 40.2614 26.0141 40.1429 25.2795Z" fill="black"/>
</svg>
