<svg width="55" height="55" viewBox="0 0 55 55" fill="none" xmlns="http://www.w3.org/2000/svg">
<circle cx="27.3567" cy="27.2122" r="26.8567" fill="#D9D9D9"/>
<mask id="mask0_1082_34190" style="mask-type:alpha" maskUnits="userSpaceOnUse" x="0" y="0" width="55" height="55">
<circle cx="27.5247" cy="27.2122" r="26.8567" fill="#D9D9D9"/>
</mask>
<g mask="url(#mask0_1082_34190)">
<path d="M22.5022 42.4214C22.8332 41.941 22.8553 41.3812 22.5516 41.1712L19.2517 38.8891C18.948 38.6791 18.4334 38.8983 18.1023 39.3787L13.6667 45.8162C12.3425 47.738 12.7666 49.2331 13.9815 50.0734C15.1965 50.9136 16.7423 50.7807 18.0665 48.8589L22.5022 42.4214Z" fill="#FFAE4E"/>
<path d="M31.7543 41.9631C31.5513 41.4161 31.6672 40.868 32.0132 40.7389L35.7722 39.3364C36.1182 39.2073 36.5632 39.546 36.7663 40.093L39.4866 47.4221C40.2988 49.6101 39.5208 50.9555 38.1368 51.4719C36.7528 51.9882 35.2868 51.4801 34.4747 49.2922L31.7543 41.9631Z" fill="#FFAE4E"/>
<path d="M20.6596 47.9568C20.319 48.3461 19.6919 48.3534 19.2588 47.9732L14.5539 43.8426C14.1208 43.4624 14.0458 42.8387 14.3864 42.4494L18.9494 37.2339C20.3116 35.6769 22.8202 35.6476 24.5525 37.1684C26.2848 38.6892 26.5849 41.1843 25.2226 42.7413L20.6596 47.9568Z" fill="#4C8BFF"/>
<path d="M32.3324 47.849C32.6084 48.2865 33.2267 48.3912 33.7136 48.0829L39.0033 44.7338C39.4902 44.4255 39.6613 43.8209 39.3853 43.3835L35.6883 37.5222C34.5846 35.7724 32.111 35.3536 30.1634 36.5867C28.2158 37.8198 27.5317 40.238 28.6354 41.9877L32.3324 47.849Z" fill="#4C8BFF"/>
<path d="M18.3125 42.9907C18.3125 39.2681 19.203 35.5376 22.353 35.5376H31.0986C34.2486 35.5376 35.5496 37.9351 35.5496 41.6576L34.9321 52.5846C34.8859 53.2591 34.3283 53.8205 33.5765 53.9496C28.852 54.7606 24.683 54.7606 19.9585 53.9496C19.2151 53.822 18.3709 53.2508 18.3125 52.5846V42.9907Z" fill="#4C8BFF"/>
<path d="M23.0742 33.1094C23.0742 31.6799 24.0134 30.521 25.172 30.521H28.109C29.2676 30.521 30.2068 31.6799 30.2068 33.1094V35.6979C30.2068 37.1274 29.2676 38.2863 28.109 38.2863H25.172C24.0134 38.2863 23.0742 37.1274 23.0742 35.6978V33.1094Z" fill="#FFAB48"/>
<path d="M40.1551 28.4185C40.1551 30.7662 38.1757 32.6693 35.7338 32.6693C33.292 32.6693 31.3125 30.7662 31.3125 28.4185C31.3125 26.0709 33.292 24.1677 35.7338 24.1677C38.1757 24.1677 40.1551 26.0709 40.1551 28.4185Z" fill="#FF9C27"/>
<path d="M24.0301 27.0894C24.0301 29.4371 22.0507 31.3402 19.6088 31.3402C17.167 31.3402 15.1875 29.4371 15.1875 27.0894C15.1875 24.7418 17.167 22.8386 19.6088 22.8386C22.0507 22.8386 24.0301 24.7418 24.0301 27.0894Z" fill="#ED8000"/>
<path d="M38.1507 26.0317C38.1507 31.4483 33.1684 35.8394 27.0223 35.8394C20.8762 35.8394 15.3033 30.7021 17.8375 26.826C15.8793 21.0861 20.8762 16.2241 27.0223 16.2241C33.1684 16.2241 38.1507 20.6151 38.1507 26.0317Z" fill="#FFBA68"/>
<path d="M38.226 26.0508C38.226 31.4943 33.1281 35.9072 26.8396 35.9072C20.551 35.9072 14.849 30.7444 17.4419 26.849C15.4383 21.0805 20.551 16.1943 26.8396 16.1943C33.1281 16.1943 38.226 20.6072 38.226 26.0508Z" fill="#FFBA68"/>
<mask id="mask1_1082_34190" style="mask-type:alpha" maskUnits="userSpaceOnUse" x="16" y="16" width="23" height="20">
<path d="M38.2338 26.0503C38.2338 31.4938 33.1359 35.9067 26.8474 35.9067C20.5588 35.9067 14.8568 30.7439 17.4497 26.8485C15.4461 21.08 20.5588 16.1938 26.8474 16.1938C33.1359 16.1938 38.2338 20.6067 38.2338 26.0503Z" fill="#FFBA68"/>
</mask>
<g mask="url(#mask1_1082_34190)">
<path d="M37.9373 31.1935C37.9373 33.4839 35.9926 35.3406 33.5937 35.3406C31.1947 35.3406 29.25 33.4839 29.25 31.1935C29.25 28.9031 31.1947 27.0464 33.5937 27.0464C35.9926 27.0464 37.9373 28.9031 37.9373 31.1935Z" fill="#FF9A24"/>
<path d="M21.5818 30.5294C21.5818 32.8198 19.6371 34.6766 17.2382 34.6766C14.8393 34.6766 12.8945 32.8198 12.8945 30.5294C12.8945 28.2391 14.8393 26.3823 17.2382 26.3823C19.6371 26.3823 21.5818 28.2391 21.5818 30.5294Z" fill="#FF9A24"/>
</g>
<path d="M25.3298 28.8892C25.3298 29.1354 25.1222 29.335 24.8661 29.335C24.61 29.335 24.4023 29.1354 24.4023 28.8892C24.4023 28.643 24.61 28.4434 24.8661 28.4434C25.1222 28.4434 25.3298 28.643 25.3298 28.8892Z" fill="black"/>
<path fill-rule="evenodd" clip-rule="evenodd" d="M22.1709 24.8789C21.8374 24.9232 21.5663 25.0865 21.4281 25.2141C21.2989 25.3334 21.0934 25.3293 20.9692 25.2049C20.8449 25.0806 20.849 24.883 20.9783 24.7637C21.2004 24.5586 21.5935 24.3253 22.0816 24.2606C22.5845 24.1939 23.1673 24.3095 23.7331 24.7771C23.8692 24.8894 23.8848 25.0865 23.768 25.2172C23.6512 25.3478 23.4463 25.3627 23.3102 25.2503C22.8859 24.8997 22.4897 24.8366 22.1709 24.8789Z" fill="#905A09"/>
<path fill-rule="evenodd" clip-rule="evenodd" d="M28.8469 25.3874C28.5116 25.4146 28.2326 25.5639 28.0881 25.6843C27.9529 25.7968 27.7479 25.7823 27.6302 25.6517C27.5124 25.5212 27.5266 25.3241 27.6618 25.2115C27.894 25.0181 28.2985 24.8051 28.7893 24.7653C29.2949 24.7244 29.8711 24.8696 30.4124 25.3653C30.5425 25.4845 30.548 25.6821 30.4247 25.8066C30.3014 25.9312 30.096 25.9356 29.9659 25.8164C29.56 25.4446 29.1675 25.3614 28.8469 25.3874Z" fill="#905A09"/>
<path fill-rule="evenodd" clip-rule="evenodd" d="M30.8688 35.7234C31.2652 36.027 31.3405 36.5944 31.0369 36.9907L30.723 37.4006C29.768 38.6477 28.2868 39.379 26.7161 39.379C25.2049 39.379 23.7731 38.7017 22.8145 37.5334L22.3888 37.0145C22.0721 36.6286 22.1282 36.059 22.5142 35.7423C22.9001 35.4256 23.4697 35.4818 23.7864 35.8677L24.2122 36.3866C24.8274 37.1364 25.7462 37.5711 26.7161 37.5711C27.7242 37.5711 28.6748 37.1017 29.2876 36.3014L29.6016 35.8915C29.9051 35.4951 30.4725 35.4199 30.8688 35.7234Z" fill="#337AFF"/>
<path d="M19.2117 40.1494C18.5678 42.0316 18.4688 44.3101 18.4688 46.539" stroke="#337AFF" stroke-width="1.5" stroke-linecap="round"/>
<path d="M31.4092 40.8925C31.8782 42.8257 31.8863 44.5767 34.2179 46.6796" stroke="#337AFF" stroke-width="1.5" stroke-linecap="round"/>
<path d="M19.366 42.9763C19.7011 42.8068 20.1082 42.9364 20.2755 43.2656L22.0924 46.8427C22.2596 47.172 22.1236 47.5763 21.7886 47.7457L17.2996 50.0162C15.9595 50.694 14.8496 49.9134 14.1806 48.5964C13.5116 47.2793 13.5369 45.9245 14.877 45.2467L19.366 42.9763Z" fill="#FFAE4E"/>
<path d="M24.0602 31.4484C23.9484 31.3474 23.8515 31.2356 23.7706 31.1156C23.4685 30.6675 23.9091 30.1876 24.4354 30.1876L26.4749 30.1876C27.0012 30.1876 27.4418 30.6675 27.1397 31.1156C27.0588 31.2356 26.9618 31.3474 26.8501 31.4484C26.4801 31.7828 25.9783 31.9707 25.4551 31.9707C24.9319 31.9707 24.4301 31.7828 24.0602 31.4484Z" fill="#E16037"/>
<path fill-rule="evenodd" clip-rule="evenodd" d="M18.5309 42.0659L19.266 40.5059C19.4423 40.1317 19.8365 39.8648 20.2696 39.8265C20.5219 39.8042 20.7655 39.8619 20.9588 39.9896L21.0547 40.0529C21.0639 40.059 21.073 40.0652 21.082 40.0715L22.6155 39.0352C23.0866 38.7169 23.7266 38.8407 24.0449 39.3118C24.2381 39.5977 24.2685 39.9457 24.1572 40.2464C24.6048 40.1043 25.1057 40.2896 25.3458 40.7147C25.5851 41.1386 25.4863 41.6615 25.136 41.9717C25.4822 41.9506 25.8303 42.1079 26.0386 42.4161C26.2939 42.7939 26.2604 43.282 25.9887 43.6195C26.1848 43.6896 26.3611 43.8205 26.4866 44.0063C26.8001 44.4702 26.6781 45.1004 26.2142 45.4139L23.6767 47.1286C23.5749 47.1975 23.4651 47.2453 23.3523 47.2731C21.7108 48.313 19.5292 47.8652 18.4339 46.2444C17.5513 44.9382 17.6385 43.2617 18.5309 42.0659Z" fill="#FFBA68"/>
<path fill-rule="evenodd" clip-rule="evenodd" d="M25.9719 43.8862C25.9762 43.8088 25.9168 43.7426 25.8394 43.7384C25.6925 43.7304 25.452 43.744 25.1912 43.8078C24.9305 43.8716 24.6395 43.988 24.401 44.1927C24.3422 44.2432 24.3354 44.3318 24.3859 44.3907C24.4364 44.4495 24.525 44.4563 24.5838 44.4058C24.7781 44.2391 25.0237 44.1379 25.2579 44.0806C25.4921 44.0233 25.7049 44.0122 25.8241 44.0187C25.9015 44.023 25.9677 43.9636 25.9719 43.8862Z" fill="#FF9C27"/>
<path fill-rule="evenodd" clip-rule="evenodd" d="M25.1703 42.1407C25.1663 42.0633 25.1003 42.0038 25.0228 42.0078C24.8759 42.0153 24.6382 42.0543 24.3856 42.1454C24.1331 42.2364 23.8561 42.3829 23.6406 42.6117C23.5874 42.6681 23.59 42.757 23.6465 42.8101C23.7029 42.8633 23.7918 42.8607 23.8449 42.8042C24.0204 42.6179 24.2539 42.4913 24.4808 42.4095C24.7076 42.3278 24.9181 42.2943 25.0373 42.2882C25.1147 42.2842 25.1743 42.2181 25.1703 42.1407Z" fill="#FF9C27"/>
<path fill-rule="evenodd" clip-rule="evenodd" d="M23.9149 40.5907C23.9056 40.5138 23.8357 40.4589 23.7587 40.4682C23.6126 40.4858 23.3781 40.541 23.1324 40.6491C22.8867 40.7572 22.6203 40.9223 22.421 41.1652C22.3718 41.2252 22.3805 41.3136 22.4405 41.3628C22.5004 41.412 22.5889 41.4033 22.638 41.3433C22.8004 41.1455 23.0247 41.0032 23.2454 40.9061C23.4661 40.809 23.6738 40.7612 23.7923 40.7469C23.8693 40.7376 23.9242 40.6677 23.9149 40.5907Z" fill="#FF9C27"/>
<path d="M29.9291 47.6228C29.5907 47.3482 29.5047 46.8927 29.7369 46.6056L32.2601 43.4862C32.4923 43.1991 32.9549 43.189 33.2933 43.4637L37.8275 47.144C39.1811 48.2426 39.0013 49.6391 38.0723 50.7876C37.1433 51.9361 35.8169 52.4018 34.4633 51.3031L29.9291 47.6228Z" fill="#FFAE4E"/>
<path fill-rule="evenodd" clip-rule="evenodd" d="M32.447 42.2985L31.7915 40.7035C31.6342 40.3208 31.254 40.0345 30.8234 39.9744C30.5725 39.9394 30.3263 39.9847 30.1268 40.1025L30.0278 40.161C30.0183 40.1666 30.0089 40.1723 29.9996 40.1782L28.5203 39.0659C28.0658 38.7242 27.4204 38.8157 27.0787 39.2701C26.8714 39.5459 26.8235 39.892 26.9195 40.1978C26.4797 40.0334 25.97 40.1932 25.7089 40.6057C25.4484 41.017 25.5208 41.5442 25.8551 41.8717C25.5103 41.8332 25.1548 41.9727 24.9312 42.27C24.6572 42.6345 24.666 43.1236 24.9204 43.4744C24.7211 43.5345 24.5384 43.6564 24.4036 43.8356C24.0672 44.2831 24.1572 44.9187 24.6047 45.2552L27.0526 47.0956C27.1508 47.1694 27.2581 47.2228 27.3693 47.2562C28.9563 48.3775 31.1578 48.0402 32.3334 46.4766C33.2807 45.2166 33.278 43.5378 32.447 42.2985Z" fill="#FFBA68"/>
<path fill-rule="evenodd" clip-rule="evenodd" d="M25.2237 43.7419C25.2234 43.6643 25.286 43.6012 25.3635 43.6009C25.5106 43.6003 25.7501 43.6261 26.0074 43.703C26.2645 43.7798 26.5493 43.9107 26.7772 44.1271C26.8334 44.1805 26.8357 44.2694 26.7823 44.3256C26.7289 44.3818 26.64 44.3841 26.5838 44.3307C26.3983 44.1545 26.1581 44.041 25.927 43.972C25.696 43.9029 25.484 43.8812 25.3646 43.8817C25.2871 43.882 25.224 43.8194 25.2237 43.7419Z" fill="#FF9C27"/>
<path fill-rule="evenodd" clip-rule="evenodd" d="M26.1111 42.0386C26.1189 41.9614 26.1879 41.9053 26.265 41.9132C26.4114 41.9282 26.6468 41.9791 26.8945 42.0828C27.1421 42.1864 27.4114 42.3467 27.6151 42.586C27.6653 42.6451 27.6582 42.7337 27.5992 42.7839C27.5401 42.8342 27.4515 42.827 27.4013 42.768C27.2354 42.5731 27.0086 42.4349 26.7861 42.3418C26.5637 42.2487 26.3552 42.2047 26.2364 42.1925C26.1593 42.1846 26.1032 42.1157 26.1111 42.0386Z" fill="#FF9C27"/>
<path fill-rule="evenodd" clip-rule="evenodd" d="M27.4444 40.5543C27.4575 40.4779 27.5301 40.4266 27.6065 40.4397C27.7516 40.4647 27.9829 40.5316 28.223 40.652C28.4629 40.7723 28.7206 40.9506 28.9074 41.2033C28.9535 41.2657 28.9404 41.3536 28.878 41.3997C28.8157 41.4458 28.7278 41.4326 28.6817 41.3703C28.5295 41.1645 28.3127 41.0111 28.0971 40.903C27.8816 40.7949 27.6766 40.7367 27.5589 40.7164C27.4825 40.7033 27.4312 40.6307 27.4444 40.5543Z" fill="#FF9C27"/>
<path d="M22.1221 25.474C22.1425 25.4188 22.2206 25.4188 22.2411 25.474L22.6853 26.6746C22.6917 26.6919 22.7054 26.7056 22.7228 26.712L23.9233 27.1563C23.9785 27.1767 23.9785 27.2548 23.9233 27.2752L22.7228 27.7195C22.7054 27.7259 22.6917 27.7396 22.6853 27.757L22.2411 28.9575C22.2206 29.0127 22.1425 29.0127 22.1221 28.9575L21.6779 27.757C21.6714 27.7396 21.6578 27.7259 21.6404 27.7195L20.4398 27.2752C20.3846 27.2548 20.3846 27.1767 20.4398 27.1563L21.6404 26.712C21.6578 26.7056 21.6714 26.6919 21.6779 26.6746L22.1221 25.474Z" fill="#FFED4A"/>
<path d="M28.3643 25.7709C28.3847 25.7157 28.4628 25.7157 28.4832 25.7709L28.9275 26.9715C28.9339 26.9888 28.9476 27.0025 28.965 27.0089L30.1655 27.4532C30.2207 27.4736 30.2207 27.5517 30.1655 27.5721L28.965 28.0164C28.9476 28.0228 28.9339 28.0365 28.9275 28.0538L28.4832 29.2544C28.4628 29.3096 28.3847 29.3096 28.3643 29.2544L27.9201 28.0538C27.9136 28.0365 27.8999 28.0228 27.8826 28.0164L26.682 27.5721C26.6268 27.5517 26.6268 27.4736 26.682 27.4532L27.8826 27.0089C27.8999 27.0025 27.9136 26.9888 27.9201 26.9715L28.3643 25.7709Z" fill="#FFED4A"/>
</g>
<path d="M25.5092 16.2527C25.5483 16.4482 25.7987 16.2514 25.7412 16.1102C25.7121 16.0388 25.5672 16.0151 25.5025 16.0141C25.2991 16.0107 25.2728 16.0258 25.3898 16.193" stroke="black" stroke-width="3" stroke-linecap="round"/>
<path d="M25.6016 16.1333V16.1035" stroke="black" stroke-width="3" stroke-linecap="round"/>
<path d="M26.3167 15.5961C26.2134 15.6994 26.2708 16.1892 26.4526 16.022C26.5354 15.9458 26.6421 15.8145 26.6448 15.6955C26.6477 15.5694 26.5653 15.5961 26.4659 15.5961" stroke="black" stroke-width="3" stroke-linecap="round"/>
<circle cx="17.488" cy="17.8904" r="4.53491" fill="black"/>
<circle cx="37.2341" cy="17.8904" r="4.53491" fill="black"/>
<path fill-rule="evenodd" clip-rule="evenodd" d="M37.5574 26.3389C38.2439 25.1642 38.6276 23.8524 38.6276 22.4686C38.6276 17.4356 33.5518 13.3555 27.2904 13.3555C21.029 13.3555 15.9531 17.4356 15.9531 22.4686C15.9531 23.8523 16.3368 25.164 17.0233 26.3387C18.8338 23.2408 22.7504 21.0959 27.2903 21.0959C31.8302 21.0959 35.7469 23.2409 37.5574 26.3389Z" fill="white"/>
<path d="M23.5574 17.021C23.5056 17.0339 23.5224 17.0696 23.5117 17.1124" stroke="black" stroke-width="2" stroke-linecap="round"/>
<path d="M30.2266 17.1127C30.2266 17.2201 30.2266 16.9117 30.2266 17.204" stroke="black" stroke-width="2" stroke-linecap="round"/>
<path d="M26.7969 17.4673H27.111" stroke="black" stroke-linecap="round"/>
</svg>
