<svg width="55" height="55" viewBox="0 0 55 55" fill="none" xmlns="http://www.w3.org/2000/svg">
<circle cx="27.3567" cy="27.2122" r="26.8567" fill="#D9D9D9"/>
<path d="M21.1483 26.9103C21.1483 30.2801 18.5407 33.0118 15.3241 33.0118C12.1076 33.0118 9.5 30.2801 9.5 26.9103C9.5 23.5406 12.1076 20.8088 15.3241 20.8088C18.5407 20.8088 21.1483 23.5406 21.1483 26.9103Z" fill="#FF9C27"/>
<path d="M44.9295 26.9106C44.9295 30.2803 42.322 33.012 39.1054 33.012C35.8888 33.012 33.2813 30.2803 33.2813 26.9106C33.2813 23.5408 35.8888 20.8091 39.1054 20.8091C42.322 20.8091 44.9295 23.5408 44.9295 26.9106Z" fill="#FF9C27"/>
<path d="M41.8741 23.3714C41.8741 31.1465 35.3107 37.4494 27.2144 37.4494C19.1181 37.4494 12.5547 31.1465 12.5547 23.3714C12.5547 15.5964 19.1181 9.29346 27.2144 9.29346C35.3107 9.29346 41.8741 15.5964 41.8741 23.3714Z" fill="#FFBA68"/>
<mask id="mask0_1082_33676" style="mask-type:alpha" maskUnits="userSpaceOnUse" x="12" y="9" width="30" height="29">
<path d="M41.8702 23.368C41.8702 31.143 35.3068 37.446 27.2105 37.446C19.1142 37.446 12.5508 31.143 12.5508 23.368C12.5508 15.593 19.1142 9.29004 27.2105 9.29004C35.3068 9.29004 41.8702 15.593 41.8702 23.368Z" fill="#FFAB49"/>
</mask>
<g mask="url(#mask0_1082_33676)">
<path d="M22.1429 30.6006C22.1429 33.8882 19.5811 36.5533 16.421 36.5533C13.261 36.5533 10.6992 33.8882 10.6992 30.6006C10.6992 27.313 13.261 24.6479 16.421 24.6479C19.5811 24.6479 22.1429 27.313 22.1429 30.6006Z" fill="#FF9A24"/>
<path d="M43.4749 30.6006C43.4749 33.8882 40.9132 36.5533 37.7531 36.5533C34.593 36.5533 32.0313 33.8882 32.0313 30.6006C32.0313 27.313 34.593 24.6479 37.7531 24.6479C40.9132 24.6479 43.4749 27.313 43.4749 30.6006Z" fill="#FF9A24"/>
</g>
<path d="M27.8272 27.848C27.8272 28.2014 27.5537 28.4879 27.2163 28.4879C26.879 28.4879 26.6055 28.2014 26.6055 27.848C26.6055 27.4945 26.879 27.208 27.2163 27.208C27.5537 27.208 27.8272 27.4945 27.8272 27.848Z" fill="black"/>
<path fill-rule="evenodd" clip-rule="evenodd" d="M22.3872 29.3416C22.5105 29.1306 22.7737 29.0642 22.9752 29.1934L23.8299 29.7417C24.4069 30.1118 25.128 30.1335 25.7244 29.7988C26.5386 29.3418 27.5171 29.3418 28.3314 29.7988C28.9277 30.1335 29.6488 30.1118 30.2258 29.7417L31.0806 29.1934C31.282 29.0642 31.5452 29.1306 31.6685 29.3416C31.7919 29.5526 31.7285 29.8283 31.5271 29.9575L30.6723 30.5058C29.8363 31.042 28.7916 31.0735 27.9275 30.5886C27.3655 30.2732 26.6902 30.2732 26.1282 30.5886C25.2642 31.0735 24.2194 31.042 23.3834 30.5058L22.5286 29.9575C22.3272 29.8283 22.2639 29.5526 22.3872 29.3416Z" fill="#A75A00"/>
<path d="M30.8896 28.7407L28.3544 27.7982C28.0372 27.6803 27.7387 27.9749 27.8322 28.3136L28.5794 31.0209C28.6595 31.3485 28.8194 31.6629 29.0593 31.9297C29.7862 32.7379 30.9727 32.8037 31.7093 32.0766C32.446 31.3495 32.4539 30.1049 31.727 29.2966C31.487 29.0298 31.197 28.8439 30.8896 28.7407Z" fill="white"/>
<path d="M19.8828 25.1592C20.6846 25.3295 22.6622 25.4657 24.1588 24.6484" stroke="#905A09" stroke-width="1.4" stroke-linecap="round"/>
<path d="M34.543 25.1592C33.7412 25.3295 31.7636 25.4657 30.267 24.6484" stroke="#905A09" stroke-width="1.4" stroke-linecap="round"/>
<path d="M12.2908 37.1258C14.465 36.2147 14.7045 33.716 14.5157 32.1997C14.4894 31.9887 14.6968 31.8162 14.8812 31.9054L22.2351 35.4611C22.3177 35.501 22.3725 35.5898 22.3765 35.685C22.8615 47.2692 15.4335 48.6544 11.9243 47.895C11.6809 47.8423 11.6995 47.4973 11.9348 47.4134C14.4742 46.508 14.5713 44.0013 12.2908 43.2049C9.54214 42.245 9.23673 38.4056 12.2908 37.1258Z" fill="black"/>
<path d="M41.5959 37.1258C39.4217 36.2147 39.1822 33.716 39.3711 32.1997C39.3973 31.9887 39.1899 31.8162 39.0055 31.9054L31.6516 35.4611C31.5691 35.501 31.5142 35.5898 31.5102 35.685C31.0252 47.2692 38.4532 48.6544 41.9624 47.895C42.2058 47.8423 42.1873 47.4973 41.9519 47.4134C39.4125 46.508 39.3154 44.0013 41.5959 43.2049C44.3446 42.245 44.65 38.4056 41.5959 37.1258Z" fill="black"/>
<path fill-rule="evenodd" clip-rule="evenodd" d="M42.1338 23.9451C42.7556 22.5728 43.0949 21.0907 43.0949 19.5447C43.0949 12.4673 35.9845 6.72998 27.2135 6.72998C18.4424 6.72998 11.332 12.4673 11.332 19.5447C11.332 21.1947 11.7185 22.7718 12.4223 24.2204L12.0224 24.9557C11.7439 25.4676 12.2294 26.059 12.7858 25.9014C25.4753 22.3064 28.9224 18.8619 29.6865 17.1732C29.7525 17.4114 29.8524 17.6916 29.9971 18.0166C32.952 24.656 41.4886 26.3162 42.1453 25.6523C42.2991 25.4968 42.2728 24.8495 42.1338 23.9451Z" fill="black"/>
</svg>
