<svg width="55" height="55" viewBox="0 0 55 55" fill="none" xmlns="http://www.w3.org/2000/svg">
<circle cx="27.3567" cy="27.2122" r="26.8567" fill="#D9D9D9"/>
<path d="M20.6465 35.7161C20.6465 39.1947 18.1513 42.0147 15.0733 42.0147C11.9952 42.0147 9.5 39.1947 9.5 35.7161C9.5 32.2375 11.9952 29.4175 15.0733 29.4175C18.1513 29.4175 20.6465 32.2375 20.6465 35.7161Z" fill="#FF9C27"/>
<path d="M43.4004 35.7161C43.4004 39.1947 40.9052 42.0147 37.8272 42.0147C34.7491 42.0147 32.2539 39.1947 32.2539 35.7161C32.2539 32.2375 34.7491 29.4175 37.8272 29.4175C40.9052 29.4175 43.4004 32.2375 43.4004 35.7161Z" fill="#FF9C27"/>
<path d="M40.4783 32.0621C40.4783 40.0884 34.1976 46.595 26.4501 46.595C18.7025 46.595 12.4219 40.0884 12.4219 32.0621C12.4219 24.0359 18.7025 17.5293 26.4501 17.5293C34.1976 17.5293 40.4783 24.0359 40.4783 32.0621Z" fill="#FFBA68"/>
<mask id="mask0_1082_33699" style="mask-type:alpha" maskUnits="userSpaceOnUse" x="12" y="17" width="29" height="30">
<path d="M40.4861 32.0621C40.4861 40.0884 34.2055 46.595 26.4579 46.595C18.7103 46.595 12.4297 40.0884 12.4297 32.0621C12.4297 24.0359 18.7103 17.5293 26.4579 17.5293C34.2055 17.5293 40.4861 24.0359 40.4861 32.0621Z" fill="#FFAB49"/>
</mask>
<g mask="url(#mask0_1082_33699)">
<path d="M21.7788 39.5273C21.7788 42.9211 19.3274 45.6723 16.3035 45.6723C13.2795 45.6723 10.8281 42.9211 10.8281 39.5273C10.8281 36.1335 13.2795 33.3823 16.3035 33.3823C19.3274 33.3823 21.7788 36.1335 21.7788 39.5273Z" fill="#FF9A24"/>
<path d="M42.0796 39.5273C42.0796 42.9211 39.6282 45.6723 36.6043 45.6723C33.5803 45.6723 31.1289 42.9211 31.1289 39.5273C31.1289 36.1335 33.5803 33.3823 36.6042 33.3823C39.6282 33.3823 42.0796 36.1335 42.0796 39.5273Z" fill="#FF9A24"/>
<ellipse cx="22.3668" cy="34.0452" rx="1.75353" ry="1.98175" fill="black"/>
<ellipse cx="22.3697" cy="34.0451" rx="0.584509" ry="0.660584" fill="white"/>
<ellipse cx="30.5426" cy="34.0443" rx="1.75353" ry="1.98175" fill="black"/>
<ellipse cx="30.5454" cy="34.0441" rx="0.584509" ry="0.660584" fill="white"/>
</g>
<path d="M27.0323 36.683C27.0323 37.0479 26.7706 37.3436 26.4478 37.3436C26.125 37.3436 25.8633 37.0479 25.8633 36.683C25.8633 36.3182 26.125 36.0225 26.4478 36.0225C26.7706 36.0225 27.0323 36.3182 27.0323 36.683Z" fill="black"/>
<path fill-rule="evenodd" clip-rule="evenodd" d="M23.6467 31.995C22.3917 30.9248 21.0234 31.5416 20.4918 31.995C20.3629 32.1049 20.1796 32.076 20.0824 31.9303C19.9852 31.7847 20.0108 31.5776 20.1397 31.4677C20.777 30.9242 22.4481 30.1453 23.9988 31.4677C24.1276 31.5776 24.1533 31.7847 24.056 31.9303C23.9588 32.076 23.7756 32.1049 23.6467 31.995Z" fill="black"/>
<path fill-rule="evenodd" clip-rule="evenodd" d="M32.4084 31.995C31.1535 30.9248 29.7852 31.5416 29.2535 31.995C29.1246 32.1049 28.9414 32.076 28.8441 31.9303C28.7469 31.7847 28.7725 31.5776 28.9014 31.4677C29.5387 30.9242 31.2098 30.1453 32.7605 31.4677C32.8894 31.5776 32.915 31.7847 32.8178 31.9303C32.7205 32.076 32.5373 32.1049 32.4084 31.995Z" fill="black"/>
<path d="M29.3711 38.6676L28.7993 39.443C28.5995 39.714 28.1943 39.714 27.9945 39.443L27.8252 39.2134C27.6253 38.9423 27.2201 38.9423 27.0203 39.2134L26.851 39.443C26.6511 39.714 26.246 39.714 26.0461 39.443L25.8768 39.2134C25.677 38.9423 25.2718 38.9423 25.0719 39.2134L24.9026 39.443C24.7028 39.714 24.2976 39.714 24.0978 39.443L23.526 38.6676" stroke="#F68600" stroke-width="1.4" stroke-linecap="round"/>
<path d="M40.2874 9.60453C35.5515 5.71507 29.4536 11.2112 30.2176 15.6269C30.2273 15.6827 30.254 15.7331 30.292 15.7703L36.8179 22.1692C36.8453 22.1962 36.8676 22.2321 36.8816 22.27C41.1161 33.7715 48.5085 28.8884 52.3895 24.2285C52.5674 24.0148 52.3293 23.6805 52.0906 23.7959C48.2123 25.671 45.4907 23.6496 44.2148 20.3092C42.826 16.6734 43.122 11.9326 40.2874 9.60453Z" fill="black"/>
<path fill-rule="evenodd" clip-rule="evenodd" d="M41.0731 27.6029C41.0731 29.6186 40.5785 31.5294 39.6936 33.2406C39.283 32.4466 38.7884 31.6956 38.2201 30.997L31.5819 31.5714L30.6731 26.1633C29.3391 25.799 27.9248 25.6033 26.4602 25.6033C24.9012 25.6033 23.3993 25.8251 21.9905 26.2358L21.0939 31.5713L14.6844 31.0166C14.1228 31.7096 13.6337 32.4539 13.227 33.2403C12.3422 31.5292 11.8477 29.6185 11.8477 27.6029C11.8477 20.2714 18.39 14.3281 26.4604 14.3281C34.5307 14.3281 41.0731 20.2714 41.0731 27.6029Z" fill="black"/>
<path fill-rule="evenodd" clip-rule="evenodd" d="M37.0558 24.9787C28.6952 17.8687 19.8489 21.7704 16.6598 24.6586C15.7298 25.5009 14.3922 25.3017 13.6723 24.2137C12.9523 23.1257 13.1226 21.5609 14.0526 20.7186C18.1971 16.9651 29.1771 12.1185 39.56 20.9484C40.5114 21.7574 40.722 23.3155 40.0304 24.4285C39.3389 25.5414 38.0071 25.7878 37.0558 24.9787Z" fill="#FFC266"/>
<path d="M14.3172 19.7248C15.6756 22.4023 17.703 21.6137 19.9489 20.1381C22.1947 18.6626 23.8086 17.0588 22.4502 14.3814C21.0918 11.7039 16.6774 7.78781 14.4316 9.26337C12.1857 10.7389 12.9588 17.0474 14.3172 19.7248Z" fill="#FFC266"/>
<path d="M16.1156 19.1476C16.9146 20.6977 18.1072 20.2412 19.4283 19.3869C20.7494 18.5326 21.6988 17.6041 20.8997 16.054C20.1006 14.5039 17.504 12.2367 16.1829 13.091C14.8618 13.9452 15.3165 17.5975 16.1156 19.1476Z" fill="#FFA113"/>
<path d="M39.175 19.7248C37.8166 22.4023 35.7892 21.6137 33.5433 20.1381C31.2974 18.6626 29.6836 17.0588 31.042 14.3814C32.4004 11.7039 36.8148 7.78781 39.0606 9.26337C41.3065 10.7389 40.5334 17.0474 39.175 19.7248Z" fill="#FFC266"/>
<path d="M37.3766 19.1476C36.5775 20.6977 35.3849 20.2412 34.0638 19.3869C32.7427 18.5326 31.7934 17.6041 32.5925 16.054C33.3915 14.5039 35.9882 12.2367 37.3093 13.091C38.6304 13.9452 38.1757 17.5975 37.3766 19.1476Z" fill="#FFA113"/>
</svg>
