<svg width="54" height="54" viewBox="0 0 54 54" fill="none" xmlns="http://www.w3.org/2000/svg">
<circle cx="27" cy="27" r="27" fill="#D9D9D9"/>
<path d="M20.4946 31.6626C20.4946 35.1129 17.6976 37.9099 14.2473 37.9099C10.797 37.9099 8 35.1129 8 31.6626C8 28.2123 10.797 25.4153 14.2473 25.4153C17.6976 25.4153 20.4946 28.2123 20.4946 31.6626Z" fill="#FF9C27"/>
<path d="M45.9985 31.6626C45.9985 35.1129 43.2015 37.9099 39.7512 37.9099C36.3009 37.9099 33.5039 35.1129 33.5039 31.6626C33.5039 28.2123 36.3009 25.4153 39.7512 25.4153C43.2015 25.4153 45.9985 28.2123 45.9985 31.6626Z" fill="#FF9C27"/>
<path d="M42.728 28.0397C42.728 36.0006 35.6878 42.4541 27.0032 42.4541C18.3186 42.4541 11.2783 36.0006 11.2783 28.0397C11.2783 20.0788 18.3186 13.6252 27.0032 13.6252C35.6878 13.6252 42.728 20.0788 42.728 28.0397Z" fill="#FFBA68"/>
<mask id="mask0_1082_34436" style="mask-type:alpha" maskUnits="userSpaceOnUse" x="11" y="13" width="32" height="30">
<path d="M42.7163 28.0368C42.7163 35.9976 35.6761 42.4512 26.9915 42.4512C18.3069 42.4512 11.2666 35.9976 11.2666 28.0368C11.2666 20.0759 18.3069 13.6223 26.9915 13.6223C35.6761 13.6223 42.7163 20.0759 42.7163 28.0368Z" fill="#FFAB49"/>
</mask>
<g mask="url(#mask0_1082_34436)">
<path d="M21.5691 35.4428C21.5691 38.809 18.8212 41.5378 15.4315 41.5378C12.0418 41.5378 9.29395 38.809 9.29395 35.4428C9.29395 32.0767 12.0418 29.3479 15.4315 29.3479C18.8212 29.3479 21.5691 32.0767 21.5691 35.4428Z" fill="#FF9A24"/>
<path d="M44.4372 35.4399C44.4372 38.8061 41.6894 41.5349 38.2997 41.5349C34.91 41.5349 32.1621 38.8061 32.1621 35.4399C32.1621 32.0738 34.91 29.345 38.2997 29.345C41.6894 29.345 44.4372 32.0738 44.4372 35.4399Z" fill="#FF9A24"/>
</g>
<path d="M27.6626 32.6235C27.6626 32.9856 27.3691 33.2791 27.0071 33.2791C26.6451 33.2791 26.3516 32.9856 26.3516 32.6235C26.3516 32.2615 26.6451 31.968 27.0071 31.968C27.3691 31.968 27.6626 32.2615 27.6626 32.6235Z" fill="black"/>
<path d="M23.7233 30.0653C23.7233 30.7541 23.1367 31.3124 22.4129 31.3124C21.6892 31.3124 21.1025 30.7541 21.1025 30.0653C21.1025 29.3766 21.6892 28.8183 22.4129 28.8183C23.1367 28.8183 23.7233 29.3766 23.7233 30.0653Z" fill="black"/>
<path fill-rule="evenodd" clip-rule="evenodd" d="M23.083 28.283C23.2114 28.5106 23.1215 28.7941 22.8824 28.9162C22.7524 28.9826 22.5554 29.1184 22.4153 29.288C22.276 29.4565 22.2377 29.5987 22.2688 29.7226C22.3319 29.9738 22.1691 30.2261 21.9051 30.2861C21.6412 30.3462 21.3761 30.1912 21.313 29.9401C21.1858 29.434 21.4009 29.0025 21.6427 28.7099C21.8836 28.4183 22.1954 28.2056 22.4177 28.092C22.6568 27.9699 22.9547 28.0554 23.083 28.283Z" fill="black"/>
<path d="M32.8923 30.0653C32.8923 30.7541 32.3056 31.3124 31.5819 31.3124C30.8582 31.3124 30.2715 30.7541 30.2715 30.0653C30.2715 29.3766 30.8582 28.8183 31.5819 28.8183C32.3056 28.8183 32.8923 29.3766 32.8923 30.0653Z" fill="black"/>
<path fill-rule="evenodd" clip-rule="evenodd" d="M32.252 28.283C32.3803 28.5106 32.2905 28.7941 32.0513 28.9162C31.9213 28.9826 31.7243 29.1184 31.5842 29.288C31.445 29.4565 31.4066 29.5987 31.4378 29.7226C31.5009 29.9738 31.338 30.2261 31.0741 30.2861C30.8101 30.3462 30.545 30.1912 30.4819 29.9401C30.3548 29.434 30.5698 29.0025 30.8117 28.7099C31.0526 28.4183 31.3643 28.2056 31.5867 28.092C31.8258 27.9699 32.1237 28.0554 32.252 28.283Z" fill="black"/>
<path fill-rule="evenodd" clip-rule="evenodd" d="M23.3951 34.7742C25.7437 35.5059 28.2593 35.5059 30.608 34.7742C30.8602 34.6957 30.9935 34.4489 30.9058 34.223C30.8181 33.9972 30.5425 33.8777 30.2904 33.9563C28.1486 34.6235 25.8545 34.6235 23.7127 33.9563C23.4605 33.8777 23.185 33.9972 23.0973 34.223C23.0096 34.4489 23.1429 34.6957 23.3951 34.7742Z" fill="#A75A00"/>
<path fill-rule="evenodd" clip-rule="evenodd" d="M21.8115 26.5491C21.341 26.6193 20.9604 26.8637 20.7671 27.0533C20.5863 27.2307 20.2959 27.2279 20.1185 27.0471C19.9412 26.8663 19.9439 26.5759 20.1248 26.3985C20.4355 26.0937 20.9873 25.7447 21.676 25.6419C22.3855 25.536 23.2107 25.6967 24.0171 26.3749C24.211 26.5379 24.236 26.8272 24.073 27.0211C23.91 27.2149 23.6207 27.2399 23.4268 27.0769C22.822 26.5684 22.2612 26.482 21.8115 26.5491Z" fill="#905A09"/>
<path fill-rule="evenodd" clip-rule="evenodd" d="M31.6367 26.5491C31.1662 26.6193 30.7856 26.8637 30.5923 27.0533C30.4115 27.2307 30.1211 27.2279 29.9437 27.0471C29.7664 26.8663 29.7691 26.5759 29.95 26.3985C30.2606 26.0937 30.8125 25.7447 31.5012 25.6419C32.2107 25.536 33.0359 25.6967 33.8423 26.3749C34.0362 26.5379 34.0612 26.8272 33.8982 27.0211C33.7352 27.2149 33.4459 27.2399 33.252 27.0769C32.6472 26.5684 32.0864 26.482 31.6367 26.5491Z" fill="#905A09"/>
<path d="M20.8893 14.1109C7.97969 12.9533 9.0685 24.5969 11.4168 28.0351L19.7342 25.9119L21.4617 20.5198C22.5924 27.0599 20.5076 26.4728 42.9667 28.0353C49.4601 11.0556 24.2132 7.52078 20.8893 14.1109Z" fill="black"/>
</svg>
