<svg width="55" height="55" viewBox="0 0 55 55" fill="none" xmlns="http://www.w3.org/2000/svg">
<mask id="mask0_1082_33935" style="mask-type:alpha" maskUnits="userSpaceOnUse" x="0" y="0" width="55" height="55">
<circle cx="27.3567" cy="27.2122" r="26.8567" fill="#D9D9D9"/>
</mask>
<g mask="url(#mask0_1082_33935)">
<circle cx="27.3567" cy="27.2122" r="26.8567" fill="#D9D9D9"/>
<path d="M12.6931 51.0251C12.5854 51.6539 12.8206 52.2194 13.2184 52.2882L17.5406 53.0363C17.9384 53.1052 18.3483 52.6513 18.456 52.0225L19.8992 43.5982C20.3301 41.0832 19.2225 39.7947 17.6311 39.5193C16.0397 39.2439 14.5672 40.0858 14.1363 42.6008L12.6931 51.0251Z" fill="#FFAE4E"/>
<path d="M33.0455 41.4949C32.8235 40.8969 32.9502 40.2977 33.3285 40.1565L37.4382 38.6232C37.8165 38.482 38.3031 38.8524 38.5251 39.4504L41.4993 47.4634C42.3872 49.8555 41.5366 51.3264 40.0234 51.8909C38.5103 52.4555 36.9076 51.9 36.0197 49.5079L33.0455 41.4949Z" fill="#FFAE4E"/>
<path d="M19.6156 46.7492C19.2432 47.1748 18.5576 47.1828 18.0841 46.7671L12.9402 42.2512C12.4667 41.8355 12.3847 41.1535 12.757 40.7279L17.7458 35.0258C19.2351 33.3235 21.9778 33.2914 23.8717 34.9542C25.7657 36.6169 26.0937 39.3448 24.6044 41.0471L19.6156 46.7492Z" fill="#4C8BFF"/>
<path d="M32.3757 46.6318C32.6773 47.1101 33.3534 47.2246 33.8857 46.8875L39.669 43.2259C40.2013 42.8888 40.3883 42.2279 40.0866 41.7496L36.0446 35.3414C34.838 33.4284 32.1336 32.9705 30.0043 34.3186C27.8749 35.6668 27.127 38.3106 28.3337 40.2236L32.3757 46.6318Z" fill="#4C8BFF"/>
<path d="M17.0508 41.3196C17.0508 37.2498 18.0244 33.1711 21.4683 33.1711H31.0299C34.4738 33.1711 35.8962 35.7923 35.8962 39.8622L35.2211 51.8087C35.1706 52.5461 34.561 53.16 33.739 53.3011C28.5737 54.1878 24.0157 54.1878 18.8504 53.3011C18.0376 53.1616 17.1147 52.5371 17.0508 51.8087V41.3196Z" fill="#4C8BFF"/>
<path d="M22.2451 30.516C22.2451 28.953 23.272 27.686 24.5387 27.686H27.7497C29.0164 27.686 30.0432 28.953 30.0432 30.516V33.3459C30.0432 34.9089 29.0164 36.1759 27.7497 36.1759H24.5387C23.272 36.1759 22.2451 34.9089 22.2451 33.3459V30.516Z" fill="#FFAB48"/>
<path d="M40.9128 25.3886C40.9128 27.9553 38.7486 30.0361 36.079 30.0361C33.4093 30.0361 31.2451 27.9553 31.2451 25.3886C31.2451 22.8219 33.4093 20.7412 36.079 20.7412C38.7486 20.7412 40.9128 22.8219 40.9128 25.3886Z" fill="#FF9C27"/>
<path d="M23.2839 23.936C23.2839 26.5027 21.1197 28.5834 18.4501 28.5834C15.7804 28.5834 13.6162 26.5027 13.6162 23.936C13.6162 21.3693 15.7804 19.2886 18.4501 19.2886C21.1197 19.2886 23.2839 21.3693 23.2839 23.936Z" fill="#ED8000"/>
<path d="M38.7208 22.7791C38.7208 28.7011 33.2735 33.5019 26.554 33.5019C19.8344 33.5019 13.7416 27.8853 16.5122 23.6475C14.3713 17.3721 19.8344 12.0564 26.554 12.0564C33.2735 12.0564 38.7208 16.8571 38.7208 22.7791Z" fill="#FFBA68"/>
<path d="M38.8022 22.8C38.8022 28.7515 33.2287 33.5761 26.3534 33.5761C19.4781 33.5761 13.244 27.9316 16.0788 23.6727C13.8883 17.366 19.4781 12.0239 26.3534 12.0239C33.2287 12.0239 38.8022 16.8485 38.8022 22.8Z" fill="url(#paint0_linear_1082_33935)"/>
<mask id="mask1_1082_33935" style="mask-type:alpha" maskUnits="userSpaceOnUse" x="15" y="12" width="24" height="22">
<path d="M38.8061 22.8269C38.8061 28.7783 33.2326 33.603 26.3573 33.603C19.482 33.603 13.2479 27.9584 16.0827 23.6995C13.8922 17.3929 19.482 12.0508 26.3573 12.0508C33.2326 12.0508 38.8061 16.8754 38.8061 22.8269Z" fill="#FFBA68"/>
</mask>
<g mask="url(#mask1_1082_33935)">
<path d="M38.4813 28.4232C38.4813 30.9273 36.3551 32.9573 33.7323 32.9573C31.1096 32.9573 28.9834 30.9273 28.9834 28.4232C28.9834 25.9191 31.1096 23.8892 33.7323 23.8892C36.3551 23.8892 38.4813 25.9191 38.4813 28.4232Z" fill="#FF9A24"/>
<path d="M20.5985 27.6967C20.5985 30.2008 18.4723 32.2307 15.8495 32.2307C13.2268 32.2307 11.1006 30.2008 11.1006 27.6967C11.1006 25.1926 13.2268 23.1626 15.8495 23.1626C18.4723 23.1626 20.5985 25.1926 20.5985 27.6967Z" fill="#FF9A24"/>
</g>
<path d="M24.7044 25.9039C24.7044 26.1731 24.4774 26.3914 24.1974 26.3914C23.9174 26.3914 23.6904 26.1731 23.6904 25.9039C23.6904 25.6347 23.9174 25.4165 24.1974 25.4165C24.4774 25.4165 24.7044 25.6347 24.7044 25.9039Z" fill="black"/>
<path d="M22.695 23.7038C22.695 24.2162 22.241 24.6315 21.681 24.6315C21.121 24.6315 20.667 24.2162 20.667 23.7038C20.667 23.1914 21.121 22.776 21.681 22.776C22.241 22.776 22.695 23.1914 22.695 23.7038Z" fill="black"/>
<path fill-rule="evenodd" clip-rule="evenodd" d="M22.1995 22.3778C22.2988 22.5471 22.2293 22.758 22.0442 22.8489C21.9436 22.8983 21.7912 22.9993 21.6828 23.1255C21.575 23.2508 21.5454 23.3566 21.5695 23.4488C21.6183 23.6357 21.4923 23.8234 21.288 23.8681C21.0838 23.9127 20.8786 23.7975 20.8298 23.6106C20.7314 23.2341 20.8979 22.9131 21.085 22.6954C21.2714 22.4785 21.5126 22.3202 21.6847 22.2357C21.8697 22.1449 22.1002 22.2085 22.1995 22.3778Z" fill="black"/>
<path d="M29.2575 24.1881C29.2575 24.7005 28.8035 25.1159 28.2435 25.1159C27.6835 25.1159 27.2295 24.7005 27.2295 24.1881C27.2295 23.6758 27.6835 23.2604 28.2435 23.2604C28.8035 23.2604 29.2575 23.6758 29.2575 24.1881Z" fill="black"/>
<path fill-rule="evenodd" clip-rule="evenodd" d="M28.762 22.8622C28.8613 23.0315 28.7918 23.2424 28.6067 23.3333C28.5061 23.3826 28.3537 23.4837 28.2453 23.6099C28.1375 23.7352 28.1079 23.841 28.132 23.9332C28.1808 24.12 28.0548 24.3077 27.8505 24.3524C27.6463 24.3971 27.4411 24.2818 27.3923 24.0949C27.2939 23.7184 27.4604 23.3975 27.6475 23.1797C27.8339 22.9629 28.0751 22.8046 28.2472 22.7201C28.4322 22.6293 28.6627 22.6929 28.762 22.8622Z" fill="black"/>
<path fill-rule="evenodd" clip-rule="evenodd" d="M22.4306 27.7917C24.2246 27.1803 26.1696 27.108 28.0074 27.5845C28.2047 27.6356 28.3152 27.8153 28.2541 27.9857C28.1931 28.1561 27.9836 28.2528 27.7863 28.2016C26.1104 27.7671 24.3366 27.833 22.7006 28.3905C22.508 28.4562 22.2914 28.3753 22.2168 28.21C22.1422 28.0446 22.2379 27.8573 22.4306 27.7917Z" fill="#A75A00"/>
<path fill-rule="evenodd" clip-rule="evenodd" d="M22.017 21.1484C22.3166 21.3618 22.6551 21.4334 22.8608 21.4345C23.0531 21.4356 23.2143 21.5921 23.2208 21.7842C23.2273 21.9763 23.0767 22.1311 22.8844 22.1301C22.5539 22.1283 22.0657 22.0216 21.6272 21.7092C21.1755 21.3874 20.7959 20.8602 20.6923 20.0645C20.6674 19.8732 20.802 19.704 20.9928 19.6867C21.1836 19.6694 21.3585 19.8104 21.3834 20.0017C21.461 20.5984 21.7307 20.9444 22.017 21.1484Z" fill="#905A09"/>
<path fill-rule="evenodd" clip-rule="evenodd" d="M28.9886 21.179C29.3001 20.9836 29.4956 20.698 29.5751 20.5084C29.6494 20.331 29.8556 20.2417 30.0357 20.309C30.2157 20.3763 30.3014 20.5746 30.227 20.752C30.0992 21.0568 29.8142 21.4673 29.3581 21.7534C28.8883 22.0481 28.2561 22.1978 27.4811 21.9898C27.2948 21.9398 27.1898 21.7509 27.2466 21.5679C27.3034 21.3849 27.5005 21.2771 27.6868 21.3271C28.268 21.4831 28.6907 21.3658 28.9886 21.179Z" fill="#905A09"/>
<path d="M22.5224 9.02035C26.1168 10.5638 28.7855 6.61613 35.142 11.6612C36.9333 11.5229 35.4125 5.36622 37.8759 8.95479C39.8465 11.8257 37.9768 12.4989 36.8778 12.23C41.1525 15.2149 42.4475 25.1966 37.1618 24.149C30.7502 22.8782 32.6238 14.106 30.8737 16.0633C29.1235 18.0206 17.2573 23.5984 14.5671 22.4419C12.6734 21.6278 12.7845 19.0423 14.741 18.3951C14.5149 18.1234 13.1985 18.2706 12.8957 16.4569C12.5928 14.6432 17.0129 11.6916 18.8667 11.0146C18.9489 9.10357 18.7213 7.38809 22.5224 9.02035Z" fill="black"/>
<path fill-rule="evenodd" clip-rule="evenodd" d="M30.7691 33.3741C31.2024 33.706 31.2847 34.3263 30.9528 34.7597L30.6096 35.2078C29.5655 36.5712 27.9462 37.3707 26.2289 37.3707C24.5766 37.3707 23.0113 36.6303 21.9632 35.353L21.4977 34.7857C21.1515 34.3637 21.2129 33.741 21.6349 33.3947C22.0568 33.0485 22.6796 33.1099 23.0258 33.5319L23.4913 34.0992C24.1639 34.9189 25.1685 35.3941 26.2289 35.3941C27.331 35.3941 28.3703 34.881 29.0403 34.006L29.3835 33.5579C29.7154 33.1245 30.3357 33.0423 30.7691 33.3741Z" fill="#337AFF"/>
<path fill-rule="evenodd" clip-rule="evenodd" d="M18.1036 37.9824C18.231 38.026 18.2989 38.1645 18.2553 38.2919C17.5658 40.3075 17.4562 42.7618 17.4561 45.1988C17.4561 45.3334 17.347 45.4425 17.2124 45.4425C17.0779 45.4425 16.9687 45.3334 16.9688 45.1988C16.9688 42.762 17.0757 40.2342 17.7942 38.1341C17.8377 38.0068 17.9763 37.9389 18.1036 37.9824Z" fill="#337AFF"/>
<path fill-rule="evenodd" clip-rule="evenodd" d="M31.304 38.7886C31.4348 38.7569 31.5666 38.8372 31.5983 38.968C31.6835 39.3193 31.7538 39.6574 31.8225 39.9881C31.9671 40.6839 32.1049 41.3474 32.3615 42.0341C32.7323 43.0265 33.349 44.0474 34.5955 45.1715C34.6954 45.2617 34.7034 45.4158 34.6132 45.5157C34.5231 45.6157 34.369 45.6236 34.2691 45.5335C32.9664 44.3586 32.304 43.2727 31.905 42.2047C31.6352 41.4829 31.4845 40.759 31.3356 40.0438C31.2685 39.7214 31.2018 39.4008 31.1247 39.0829C31.0929 38.9521 31.1733 38.8203 31.304 38.7886Z" fill="#337AFF"/>
<path d="M31.9406 49.3058C31.5268 49.0695 31.3533 48.5934 31.5529 48.2425L33.7218 44.4298C33.9215 44.0789 34.4188 43.9859 34.8325 44.2223L40.3767 47.3887C42.0318 48.334 42.0854 49.8724 41.2869 51.2762C40.4883 52.6799 39.1399 53.4176 37.4848 52.4723L31.9406 49.3058Z" fill="#FFAE4E"/>
<path fill-rule="evenodd" clip-rule="evenodd" d="M35.2159 43.5079L34.6288 41.7163C34.488 41.2865 34.0963 40.9438 33.6315 40.8438C33.3608 40.7856 33.0887 40.8153 32.8618 40.9278L32.7492 40.9836C32.7384 40.989 32.7276 40.9945 32.717 41.0001L31.193 39.6689C30.7248 39.26 30.0138 39.308 29.6048 39.7762C29.3567 40.0603 29.2768 40.4339 29.357 40.7751C28.8905 40.5606 28.3221 40.694 28.0043 41.1229C27.6874 41.5506 27.7241 42.1312 28.0624 42.515C27.6896 42.4454 27.2907 42.5691 27.0232 42.8754C26.6952 43.2509 26.6657 43.7849 26.915 44.1877C26.6928 44.2374 26.4839 44.3556 26.3227 44.5403C25.92 45.0013 25.9673 45.7015 26.4283 46.1042L28.9501 48.3068C29.0513 48.3952 29.1641 48.4619 29.2826 48.5073C30.9233 49.8569 33.3507 49.6653 34.7577 48.0545C35.8914 46.7564 36.0229 44.9257 35.2159 43.5079Z" fill="#FFBA68"/>
<path fill-rule="evenodd" clip-rule="evenodd" d="M26.8979 44.4798C26.9038 44.3953 26.9771 44.3315 27.0617 44.3373C27.2222 44.3485 27.4812 44.3957 27.7556 44.5001C28.0298 44.6045 28.3298 44.77 28.561 45.0242C28.618 45.0869 28.6134 45.184 28.5507 45.241C28.488 45.2981 28.3909 45.2935 28.3339 45.2307C28.1457 45.0237 27.8928 44.8808 27.6464 44.787C27.4001 44.6933 27.1706 44.6526 27.0404 44.6436C26.9559 44.6377 26.8921 44.5644 26.8979 44.4798Z" fill="#FF9C27"/>
<path fill-rule="evenodd" clip-rule="evenodd" d="M28.0045 42.6941C28.0192 42.6107 28.0989 42.555 28.1824 42.5698C28.3408 42.5978 28.5934 42.6722 28.8552 42.805C29.1168 42.9378 29.3976 43.1341 29.6006 43.4114C29.6507 43.4798 29.6358 43.5758 29.5674 43.6259C29.499 43.676 29.403 43.6611 29.3529 43.5927C29.1877 43.367 28.9514 43.1981 28.7162 43.0788C28.4812 42.9595 28.2574 42.8948 28.1289 42.872C28.0454 42.8572 27.9897 42.7776 28.0045 42.6941Z" fill="#FF9C27"/>
<path fill-rule="evenodd" clip-rule="evenodd" d="M29.5724 41.1813C29.5928 41.099 29.6761 41.0489 29.7583 41.0694C29.9145 41.1082 30.1614 41.1997 30.4135 41.3501C30.6654 41.5005 30.9322 41.7156 31.1157 42.0061C31.161 42.0777 31.1396 42.1725 31.0679 42.2178C30.9963 42.2631 30.9015 42.2417 30.8562 42.17C30.7067 41.9335 30.4826 41.7488 30.2561 41.6137C30.0298 41.4786 29.8109 41.3988 29.6843 41.3673C29.602 41.3468 29.5519 41.2635 29.5724 41.1813Z" fill="#FF9C27"/>
</g>
<defs>
<linearGradient id="paint0_linear_1082_33935" x1="27.0901" y1="12.0239" x2="27.0901" y2="26.8353" gradientUnits="userSpaceOnUse">
<stop stop-color="#F01D00"/>
<stop offset="1" stop-color="#FFBA68"/>
</linearGradient>
</defs>
</svg>
