<svg width="55" height="55" viewBox="0 0 55 55" fill="none" xmlns="http://www.w3.org/2000/svg">
<circle cx="27.5" cy="27.3555" r="27" fill="#D9D9D9"/>
<path d="M22.3897 32.2334C22.3897 35.1629 20.0149 37.5377 17.0855 37.5377C14.156 37.5377 11.7813 35.1629 11.7813 32.2334C11.7813 29.304 14.156 26.9292 17.0855 26.9292C20.0149 26.9292 22.3897 29.304 22.3897 32.2334Z" fill="#FF9C27"/>
<path d="M44.046 32.2334C44.046 35.1629 41.6712 37.5377 38.7417 37.5377C35.8123 37.5377 33.4375 35.1629 33.4375 32.2334C33.4375 29.304 35.8123 26.9292 38.7417 26.9292C41.6712 26.9292 44.046 29.304 44.046 32.2334Z" fill="#FF9C27"/>
<path d="M41.2646 29.1564C41.2646 35.9156 35.2871 41.3949 27.9136 41.3949C20.54 41.3949 14.5625 35.9156 14.5625 29.1564C14.5625 22.3973 20.54 16.918 27.9136 16.918C35.2871 16.918 41.2646 22.3973 41.2646 29.1564Z" fill="#FFBA68"/>
<path d="M28.472 33.049C28.472 33.3562 28.2229 33.6053 27.9157 33.6053C27.6084 33.6053 27.3594 33.3562 27.3594 33.049C27.3594 32.7417 27.6084 32.4927 27.9157 32.4927C28.2229 32.4927 28.472 32.7417 28.472 33.049Z" fill="black"/>
<path fill-rule="evenodd" clip-rule="evenodd" d="M23.8964 28.2829C23.497 28.3425 23.1739 28.55 23.0098 28.711C22.8562 28.8616 22.6097 28.8592 22.4591 28.7057C22.3085 28.5522 22.3108 28.3056 22.4644 28.155C22.7282 27.8962 23.1967 27.5999 23.7815 27.5126C24.3838 27.4227 25.0844 27.5592 25.7691 28.1349C25.9338 28.2734 25.955 28.519 25.8166 28.6836C25.6782 28.8482 25.4325 28.8694 25.2679 28.731C24.7545 28.2993 24.2783 28.2259 23.8964 28.2829Z" fill="#905A09"/>
<path fill-rule="evenodd" clip-rule="evenodd" d="M31.3535 28.2831C30.954 28.3428 30.6309 28.5502 30.4668 28.7112C30.3133 28.8618 30.0667 28.8595 29.9161 28.7059C29.7655 28.5524 29.7679 28.3059 29.9214 28.1553C30.1852 27.8965 30.6537 27.6002 31.2385 27.5129C31.8408 27.4229 32.5415 27.5594 33.2262 28.1352C33.3908 28.2736 33.412 28.5192 33.2736 28.6839C33.1352 28.8485 32.8896 28.8697 32.725 28.7313C32.2115 28.2995 31.7354 28.2261 31.3535 28.2831Z" fill="#905A09"/>
<mask id="mask0_1082_33561" style="mask-type:alpha" maskUnits="userSpaceOnUse" x="14" y="16" width="28" height="26">
<path d="M41.2607 29.1564C41.2607 35.9156 35.2832 41.3949 27.9097 41.3949C20.5361 41.3949 14.5586 35.9156 14.5586 29.1564C14.5586 22.3973 20.5361 16.918 27.9097 16.918C35.2832 16.918 41.2607 22.3973 41.2607 29.1564Z" fill="#FFAB49"/>
</mask>
<g mask="url(#mask0_1082_33561)">
<path d="M23.4572 35.4434C23.4572 38.3014 21.1242 40.6183 18.2462 40.6183C15.3682 40.6183 13.0352 38.3014 13.0352 35.4434C13.0352 32.5854 15.3682 30.2686 18.2462 30.2686C21.1242 30.2686 23.4572 32.5854 23.4572 35.4434Z" fill="#FF9A24"/>
<path d="M42.7815 35.4434C42.7815 38.3014 40.4484 40.6183 37.5704 40.6183C34.6924 40.6183 32.3594 38.3014 32.3594 35.4434C32.3594 32.5854 34.6924 30.2686 37.5704 30.2686C40.4484 30.2686 42.7815 32.5854 42.7815 35.4434Z" fill="#FF9A24"/>
<path d="M23.9439 29.2084C23.9694 29.1395 24.0669 29.1395 24.0924 29.2084L24.6467 30.7066C24.6547 30.7282 24.6718 30.7453 24.6935 30.7533L26.1916 31.3077C26.2605 31.3332 26.2605 31.4306 26.1916 31.4561L24.6935 32.0105C24.6718 32.0185 24.6547 32.0356 24.6467 32.0573L24.0924 33.5554C24.0669 33.6243 23.9694 33.6243 23.9439 33.5554L23.3896 32.0573C23.3815 32.0356 23.3645 32.0185 23.3428 32.0105L21.8446 31.4561C21.7757 31.4306 21.7757 31.3332 21.8446 31.3077L23.3428 30.7533C23.3645 30.7453 23.3815 30.7282 23.3896 30.7066L23.9439 29.2084Z" fill="#FFED4A"/>
<path d="M31.7291 29.2084C31.7546 29.1395 31.852 29.1395 31.8775 29.2084L32.4319 30.7066C32.4399 30.7282 32.457 30.7453 32.4786 30.7533L33.9768 31.3077C34.0457 31.3332 34.0457 31.4306 33.9768 31.4561L32.4786 32.0105C32.457 32.0185 32.4399 32.0356 32.4319 32.0573L31.8775 33.5554C31.852 33.6243 31.7546 33.6243 31.7291 33.5554L31.1747 32.0573C31.1667 32.0356 31.1496 32.0185 31.128 32.0105L29.6298 31.4561C29.5609 31.4306 29.5609 31.3332 29.6298 31.3077L31.128 30.7533C31.1496 30.7453 31.1667 30.7282 31.1747 30.7066L31.7291 29.2084Z" fill="#FFED4A"/>
<path d="M25.5521 36.9166C25.3408 36.6701 25.1607 36.3939 25.0149 36.0964C24.5287 35.1046 25.4699 34.1631 26.5745 34.1631L29.25 34.1631C30.3546 34.1631 31.2958 35.1046 30.8096 36.0964C30.6637 36.3939 30.4837 36.6701 30.2724 36.9166C29.6464 37.6469 28.7975 38.0571 27.9122 38.0571C27.027 38.0571 26.178 37.6469 25.5521 36.9166Z" fill="#E16037"/>
</g>
<path d="M23.9553 16.1966C16.8454 9.17635 6.37232 23.4616 13.7168 29.3595C13.7168 29.3595 15.7075 31.407 20.258 29.3595C24.8085 27.312 26.2304 21.1692 26.2304 21.1692C26.2304 21.1692 29.4616 28.9236 37.4236 28.8456C39.9058 28.8213 41.986 26.8949 42.2767 24.4297C43.7053 12.3145 27.8343 6.57874 23.9553 16.1966Z" fill="black"/>
</svg>
