<svg width="55" height="55" viewBox="0 0 55 55" fill="none" xmlns="http://www.w3.org/2000/svg">
<circle cx="27.4387" cy="27.2122" r="26.8567" fill="#D9D9D9"/>
<mask id="mask0_1082_34044" style="mask-type:alpha" maskUnits="userSpaceOnUse" x="0" y="0" width="55" height="55">
<circle cx="27.3567" cy="27.2122" r="26.8567" fill="#D9D9D9"/>
</mask>
<g mask="url(#mask0_1082_34044)">
<path d="M0.695312 45.9922C0.695312 44.9151 1.56843 44.042 2.64547 44.042H25.0406C26.1176 44.042 26.9907 44.9151 26.9907 45.9922V46.4744C26.9907 47.5514 26.1176 48.4246 25.0406 48.4246H2.64547C1.56843 48.4246 0.695312 47.5514 0.695312 46.4744V45.9922Z" fill="#ABABAB"/>
<path d="M1.66797 23.5324C1.66797 22.4554 2.54108 21.5823 3.61813 21.5823H24.0654C25.1424 21.5823 26.0156 22.4554 26.0156 23.5324V35.8638C26.0156 36.9409 25.1424 37.814 24.0654 37.814H3.61812C2.54108 37.814 1.66797 36.9409 1.66797 35.8638V23.5324Z" fill="#BEBEBE"/>
<path d="M1.39869 39.4438C1.55541 38.5034 2.369 37.8142 3.32231 37.8142H24.3658C25.3192 37.8142 26.1327 38.5034 26.2895 39.4438L27.1611 44.6738C27.3592 45.8625 26.4426 46.9446 25.2375 46.9446H2.45064C1.24556 46.9446 0.328903 45.8625 0.527017 44.6738L1.39869 39.4438Z" fill="#BEBEBE"/>
<path d="M2.28768 38.9856C2.33684 38.6063 2.65983 38.3225 3.04223 38.3225H4.86121C5.24361 38.3225 5.56659 38.6063 5.61575 38.9856C5.67477 39.4408 5.32025 39.8442 4.8612 39.8442H3.04223C2.58318 39.8442 2.22867 39.4408 2.28768 38.9856Z" fill="#444444"/>
<path d="M1.84107 40.9751C1.90786 40.6145 2.22243 40.3528 2.58921 40.3528H5.83223C6.19901 40.3528 6.51359 40.6145 6.58037 40.9751C6.667 41.4429 6.30794 41.8745 5.83223 41.8745H2.58921C2.1135 41.8745 1.75445 41.4429 1.84107 40.9751Z" fill="#444444"/>
<path d="M18.9787 43.0848C19.0081 42.6875 19.3391 42.3801 19.7375 42.3801H20.1278C20.5262 42.3801 20.8572 42.6875 20.8866 43.0848C20.9193 43.5259 20.5702 43.9019 20.1278 43.9019H19.7375C19.2951 43.9019 18.946 43.5259 18.9787 43.0848Z" fill="#444444"/>
<path d="M7.31071 41.0574C7.34015 40.6601 7.67109 40.3528 8.0695 40.3528H8.45985C8.85826 40.3528 9.1892 40.6601 9.21863 41.0574C9.25131 41.4986 8.9022 41.8745 8.45985 41.8745H8.0695C7.62714 41.8745 7.27804 41.4986 7.31071 41.0574Z" fill="#444444"/>
<path d="M1.73259 43.0848C1.76202 42.6875 2.09297 42.3801 2.49137 42.3801H2.88173C3.28013 42.3801 3.61108 42.6875 3.64051 43.0848C3.67319 43.5259 3.32408 43.9019 2.88172 43.9019H2.49137C2.04902 43.9019 1.69991 43.5259 1.73259 43.0848Z" fill="#444444"/>
<path d="M6.299 39.0272C6.32843 38.6298 6.65937 38.3225 7.05778 38.3225H7.44813C7.84654 38.3225 8.17748 38.6298 8.20691 39.0272C8.23959 39.4683 7.89049 39.8442 7.44813 39.8442H7.05778C6.61542 39.8442 6.26632 39.4683 6.299 39.0272Z" fill="#444444"/>
<path d="M14.9201 41.0574C14.9495 40.6601 15.2805 40.3528 15.6789 40.3528H16.0692C16.4676 40.3528 16.7986 40.6601 16.828 41.0574C16.8607 41.4986 16.5116 41.8745 16.0692 41.8745H15.6789C15.2365 41.8745 14.8874 41.4986 14.9201 41.0574Z" fill="#444444"/>
<path d="M13.9045 39.0272C13.9339 38.6298 14.2648 38.3225 14.6632 38.3225H15.0536C15.452 38.3225 15.783 38.6298 15.8124 39.0272C15.8451 39.4683 15.496 39.8442 15.0536 39.8442H14.6632C14.2209 39.8442 13.8718 39.4683 13.9045 39.0272Z" fill="#444444"/>
<path d="M18.9787 39.0272C19.0081 38.6298 19.3391 38.3225 19.7375 38.3225H20.1278C20.5262 38.3225 20.8572 38.6298 20.8866 39.0272C20.9193 39.4683 20.5702 39.8442 20.1278 39.8442H19.7375C19.2951 39.8442 18.946 39.4683 18.9787 39.0272Z" fill="#444444"/>
<path d="M21.5138 43.0848C21.5433 42.6875 21.8742 42.3801 22.2726 42.3801H22.663C23.0614 42.3801 23.3923 42.6875 23.4218 43.0848C23.4544 43.5259 23.1053 43.9019 22.663 43.9019H22.2726C21.8303 43.9019 21.4812 43.5259 21.5138 43.0848Z" fill="#444444"/>
<path d="M9.84587 41.0572C9.8753 40.6599 10.2062 40.3525 10.6047 40.3525H10.995C11.3934 40.3525 11.7244 40.6599 11.7538 41.0572C11.7865 41.4983 11.4374 41.8743 10.995 41.8743H10.6047C10.1623 41.8743 9.81319 41.4983 9.84587 41.0572Z" fill="#444444"/>
<path d="M4.26775 43.0848C4.29718 42.6875 4.62812 42.3801 5.02653 42.3801H5.41688C5.81529 42.3801 6.14623 42.6875 6.17566 43.0848C6.20834 43.5259 5.85924 43.9019 5.41688 43.9019H5.02653C4.58417 43.9019 4.23507 43.5259 4.26775 43.0848Z" fill="#444444"/>
<path d="M8.83025 39.0272C8.85968 38.6298 9.19062 38.3225 9.58903 38.3225H9.97938C10.3778 38.3225 10.7087 38.6298 10.7382 39.0272C10.7708 39.4683 10.4217 39.8442 9.97938 39.8442H9.58903C9.14667 39.8442 8.79757 39.4683 8.83025 39.0272Z" fill="#444444"/>
<path d="M17.4552 41.0574C17.4847 40.6601 17.8156 40.3528 18.214 40.3528H18.6044C19.0028 40.3528 19.3337 40.6601 19.3632 41.0574C19.3958 41.4986 19.0467 41.8745 18.6044 41.8745H18.214C17.7717 41.8745 17.4226 41.4986 17.4552 41.0574Z" fill="#444444"/>
<path d="M16.4396 39.0272C16.4691 38.6298 16.8 38.3225 17.1984 38.3225H17.5888C17.9872 38.3225 18.3181 38.6298 18.3475 39.0272C18.3802 39.4683 18.0311 39.8442 17.5888 39.8442H17.1984C16.756 39.8442 16.4069 39.4683 16.4396 39.0272Z" fill="#444444"/>
<path d="M21.5138 39.0272C21.5433 38.6298 21.8742 38.3225 22.2726 38.3225H22.663C23.0614 38.3225 23.3923 38.6298 23.4218 39.0272C23.4544 39.4683 23.1053 39.8442 22.663 39.8442H22.2726C21.8303 39.8442 21.4812 39.4683 21.5138 39.0272Z" fill="#444444"/>
<path d="M24.049 43.085C24.0784 42.6877 24.4094 42.3804 24.8078 42.3804H25.1981C25.5965 42.3804 25.9275 42.6877 25.9569 43.085C25.9896 43.5262 25.6405 43.9021 25.1981 43.9021H24.8078C24.3654 43.9021 24.0163 43.5262 24.049 43.085Z" fill="#444444"/>
<path d="M12.381 41.0574C12.4105 40.6601 12.7414 40.3528 13.1398 40.3528H13.5302C13.9286 40.3528 14.2595 40.6601 14.2889 41.0574C14.3216 41.4986 13.9725 41.8745 13.5302 41.8745H13.1398C12.6975 41.8745 12.3483 41.4986 12.381 41.0574Z" fill="#444444"/>
<path d="M6.8029 43.0848C6.83233 42.6875 7.16328 42.3801 7.56169 42.3801H7.95204C8.35044 42.3801 8.68139 42.6875 8.71082 43.0848C8.7435 43.5259 8.39439 43.9019 7.95204 43.9019H7.56169C7.11933 43.9019 6.77022 43.5259 6.8029 43.0848Z" fill="#444444"/>
<path d="M11.3693 39.0272C11.3987 38.6298 11.7297 38.3225 12.1281 38.3225H12.5184C12.9169 38.3225 13.2478 38.6298 13.2772 39.0272C13.3099 39.4683 12.9608 39.8442 12.5184 39.8442H12.1281C11.6857 39.8442 11.3366 39.4683 11.3693 39.0272Z" fill="#444444"/>
<path d="M20.1171 40.9618C20.1893 40.6074 20.501 40.3528 20.8627 40.3528H24.5794C24.9411 40.3528 25.2528 40.6074 25.3249 40.9618C25.421 41.4333 25.0606 41.8745 24.5794 41.8745H20.8627C20.3814 41.8745 20.0211 41.4333 20.1171 40.9618Z" fill="#444444"/>
<path d="M9.63751 42.8885C9.74467 42.5839 10.0324 42.3801 10.3552 42.3801H17.8442C18.1671 42.3801 18.4548 42.5839 18.562 42.8885C18.7361 43.3834 18.3689 43.9019 17.8442 43.9019H10.3552C9.83059 43.9019 9.46338 43.3834 9.63751 42.8885Z" fill="#444444"/>
<path d="M9.61616 45.1641C9.73368 44.7187 10.1365 44.4084 10.5971 44.4084H17.6008C18.0614 44.4084 18.4642 44.7187 18.5817 45.1641C18.7515 45.8075 18.2663 46.4374 17.6008 46.4374H10.5971C9.9316 46.4374 9.44636 45.8075 9.61616 45.1641Z" fill="#969696"/>
<path d="M3.19141 24.5669C3.19141 23.7591 3.84624 23.1042 4.65403 23.1042H23.0329C23.8407 23.1042 24.4955 23.7591 24.4955 24.5669V34.8299C24.4955 35.6377 23.8407 36.2925 23.0329 36.2925H4.65403C3.84624 36.2925 3.19141 35.6377 3.19141 34.8299V24.5669Z" fill="#2B2B2B"/>
<path fill-rule="evenodd" clip-rule="evenodd" d="M3.8125 37.8146C3.8125 37.5965 3.98931 37.4197 4.20741 37.4197H23.4826C23.7007 37.4197 23.8775 37.5965 23.8775 37.8146C23.8775 38.0327 23.7007 38.2095 23.4826 38.2095H4.20741C3.98931 38.2095 3.8125 38.0327 3.8125 37.8146Z" fill="#A0A0A0"/>
<mask id="mask1_1082_34044" style="mask-type:alpha" maskUnits="userSpaceOnUse" x="40" y="30" width="10" height="12">
<rect x="40.1211" y="30.2637" width="8.90461" height="11.4488" fill="#D9D9D9"/>
</mask>
<g mask="url(#mask1_1082_34044)">
<path d="M41.2758 35.4587C40.7546 35.115 40.5079 34.5687 40.7249 34.2384L43.0821 30.65C43.299 30.3198 43.8975 30.3306 44.4187 30.6743L51.4029 35.2792C53.4878 36.654 53.6674 38.3073 52.7995 39.6285C51.9316 40.9496 50.3449 41.4384 48.26 40.0637L41.2758 35.4587Z" fill="#FFAE4E"/>
</g>
<mask id="mask2_1082_34044" style="mask-type:alpha" maskUnits="userSpaceOnUse" x="25" y="27" width="25" height="22">
<rect x="25.1641" y="27.083" width="23.8516" height="20.9894" fill="#D9D9D9"/>
</mask>
<g mask="url(#mask2_1082_34044)">
<mask id="mask3_1082_34044" style="mask-type:alpha" maskUnits="userSpaceOnUse" x="26" y="28" width="24" height="33">
<rect x="26.1211" y="28.0371" width="22.8976" height="32.4382" fill="#D9D9D9"/>
</mask>
<g mask="url(#mask3_1082_34044)">
<path d="M31.6603 48.1229C28.0996 43.7448 25.2111 38.8043 27.616 36.8484L34.2927 31.4184C36.6976 29.4626 39.9841 31.4746 43.5447 35.8527L53.5252 49.0876C54.1351 49.9096 54.2464 50.9161 53.7959 51.5347C50.9648 55.422 47.782 58.0105 43.3993 59.99C42.7097 60.3015 41.5189 60.1539 40.8371 59.4066L31.6603 48.1229Z" fill="#4C8BFF"/>
</g>
</g>
<path d="M24.2104 37.161C24.9097 36.8644 25.6021 36.9187 25.7571 37.2823L27.44 41.232C27.595 41.5955 27.1537 42.1307 26.4544 42.4272L17.0852 46.4007C14.2882 47.5869 12.6011 46.9104 11.9815 45.4562C11.3618 44.0019 12.0442 42.3206 14.8412 41.1344L24.2104 37.161Z" fill="#FFAE4E"/>
<path d="M22.8195 46.0388C22.3173 46.2714 21.7008 46.006 21.4426 45.446L18.6373 39.3619C18.3791 38.8019 18.5769 38.1594 19.0791 37.9268L25.8079 34.8102C27.8167 33.8798 30.2825 34.9415 31.3153 37.1815C32.3482 39.4216 31.5571 41.9918 29.5483 42.9222L22.8195 46.0388Z" fill="#4C8BFF"/>
<path d="M44.4857 39.3355C45.0006 39.5385 45.6006 39.2377 45.8258 38.6637L48.2728 32.4269C48.498 31.8528 48.2632 31.2229 47.7484 31.0198L40.8497 28.2996C38.7903 27.4875 36.3904 28.6907 35.4894 30.987C34.5885 33.2833 35.5277 35.8031 37.5871 36.6152L44.4857 39.3355Z" fill="#4C8BFF"/>
<path d="M27.1647 32.4724C26.2604 31.2385 26.338 29.6442 27.338 28.9113L29.8729 27.0534C30.8729 26.3206 32.4166 26.7267 33.3209 27.9605L34.9582 30.1946C35.8625 31.4284 35.7849 33.0228 34.785 33.7557L32.2501 35.6135C31.2501 36.3464 29.7063 35.9403 28.8021 34.7064L27.1647 32.4724Z" fill="#FFAB48"/>
<path fill-rule="evenodd" clip-rule="evenodd" d="M35.5477 29.7986C36.0819 29.8099 36.5057 30.252 36.4945 30.7861L36.4828 31.3385C36.4474 33.0189 35.6316 34.587 34.2759 35.5806C32.9715 36.5366 31.3074 36.8577 29.741 36.4558L29.0452 36.2772C28.5278 36.1444 28.2159 35.6173 28.3487 35.0998C28.4815 34.5823 29.0087 34.2705 29.5261 34.4033L30.2218 34.5818C31.2271 34.8398 32.2951 34.6337 33.1323 34.0202C34.0023 33.3826 34.5259 32.3762 34.5486 31.2977L34.5602 30.7453C34.5715 30.2112 35.0136 29.7874 35.5477 29.7986Z" fill="#337AFF"/>
<path fill-rule="evenodd" clip-rule="evenodd" d="M27.2997 41.1899C27.4226 41.1423 27.5607 41.2032 27.6083 41.3261C28.3618 43.2702 29.826 45.1776 31.3615 47.0029C31.4463 47.1037 31.4333 47.2542 31.3325 47.339C31.2317 47.4238 31.0812 47.4108 30.9964 47.31C29.4611 45.4848 27.9486 43.5241 27.1635 41.4985C27.1159 41.3756 27.1769 41.2375 27.2997 41.1899Z" fill="#337AFF"/>
<path fill-rule="evenodd" clip-rule="evenodd" d="M39.1013 33.7635C39.1862 33.6628 39.3366 33.65 39.4374 33.7349C39.7079 33.9629 39.9589 34.1891 40.2046 34.4105C40.7213 34.8762 41.214 35.3202 41.8139 35.7138C42.6808 36.2827 43.7583 36.7318 45.3927 36.8981C45.5238 36.9114 45.6192 37.0285 45.6059 37.1595C45.5925 37.2906 45.4755 37.386 45.3444 37.3727C43.6362 37.1989 42.4851 36.7249 41.5521 36.1127C40.9215 35.6989 40.3838 35.2146 39.8524 34.7361C39.6129 34.5204 39.3747 34.3059 39.1299 34.0996C39.0292 34.0147 39.0164 33.8642 39.1013 33.7635Z" fill="#337AFF"/>
<path d="M39.9634 19.2982C41.1406 21.5175 40.2237 24.3092 37.9153 25.5336C35.607 26.7581 32.7814 25.9516 31.6042 23.7323C30.427 21.513 31.3439 18.7213 33.6523 17.4968C35.9606 16.2724 38.7862 17.0789 39.9634 19.2982Z" fill="#FF9C27"/>
<path d="M24.0493 26.1278C25.2266 28.3471 24.3096 31.1388 22.0013 32.3632C19.6929 33.5877 16.8673 32.7812 15.6901 30.5619C14.5129 28.3426 15.4299 25.5509 17.7382 24.3264C20.0465 23.102 22.8721 23.9085 24.0493 26.1278Z" fill="#ED8000"/>
<path d="M36.8692 18.0472C39.5853 23.1677 37.0772 29.817 31.2671 32.8989C25.4571 35.9808 17.6128 33.9189 18.0648 28.9839C13.3354 24.5398 15.6212 17.4379 21.4312 14.356C27.2413 11.2741 34.1531 12.9267 36.8692 18.0472Z" fill="#FFBA68"/>
<path d="M36.9502 18.0277C39.6798 23.1736 37.0735 29.9016 31.1287 33.0549C25.184 36.2082 17.2048 34.1869 17.7026 29.2043C12.9161 24.7559 15.2991 17.5731 21.2439 14.4197C27.1886 11.2664 34.2206 12.8817 36.9502 18.0277Z" fill="#FFBA68"/>
<mask id="mask4_1082_34044" style="mask-type:alpha" maskUnits="userSpaceOnUse" x="15" y="12" width="24" height="23">
<path d="M36.9502 18.0277C39.6798 23.1736 37.0735 29.9016 31.1287 33.0549C25.184 36.2082 17.2048 34.1869 17.7026 29.2043C12.9161 24.7559 15.2991 17.5731 21.2439 14.4197C27.1886 11.2664 34.2206 12.8817 36.9502 18.0277Z" fill="#FFBA68"/>
</mask>
<g mask="url(#mask4_1082_34044)">
<path fill-rule="evenodd" clip-rule="evenodd" d="M29.917 27.7408C28.564 29.0099 26.8587 29.8591 25.0277 30.1758C24.8311 30.2099 24.6601 30.0943 24.6458 29.9176C24.6315 29.741 24.7793 29.5703 24.9759 29.5363C26.6456 29.2475 28.2007 28.473 29.4346 27.3157C29.5799 27.1794 29.8057 27.1641 29.9389 27.2815C30.0721 27.3989 30.0623 27.6045 29.917 27.7408Z" fill="#A75A00"/>
<path d="M39.2489 23.0393C40.3974 25.2045 39.4901 27.9349 37.2223 29.1378C34.9545 30.3407 32.1851 29.5607 31.0366 27.3955C29.8881 25.2303 30.7954 22.4999 33.0632 21.297C35.331 20.0941 38.1004 20.8741 39.2489 23.0393Z" fill="#FF9A24"/>
<path d="M23.456 30.6135C24.6045 32.7787 23.6971 35.5091 21.4293 36.712C19.1615 37.9149 16.3921 37.1349 15.2436 34.9697C14.0951 32.8045 15.0025 30.0742 17.2702 28.8712C19.538 27.6683 22.3075 28.4484 23.456 30.6135Z" fill="#FF9A24"/>
</g>
<path d="M26.1823 27.1781C26.3058 27.4109 26.2096 27.7037 25.9675 27.8321C25.7254 27.9605 25.4291 27.8759 25.3056 27.6431C25.1821 27.4104 25.2783 27.1176 25.5204 26.9891C25.7625 26.8607 26.0589 26.9453 26.1823 27.1781Z" fill="black"/>
<path d="M23.7544 26.1963C23.9894 26.6393 23.7874 27.2067 23.3031 27.4635C22.8189 27.7204 22.2359 27.5695 22.0009 27.1264C21.7659 26.6834 21.9679 26.116 22.4521 25.8592C22.9363 25.6023 23.5194 25.7533 23.7544 26.1963Z" fill="black"/>
<path fill-rule="evenodd" clip-rule="evenodd" d="M22.7178 25.2771C22.8813 25.3779 22.918 25.5922 22.7996 25.7556C22.7353 25.8444 22.6499 26.0017 22.614 26.1605C22.5783 26.3183 22.6012 26.4234 22.6643 26.492C22.7922 26.6312 22.7693 26.8513 22.6132 26.9836C22.4571 27.1159 22.2269 27.1104 22.0989 26.9712C21.8412 26.6907 21.8379 26.3369 21.8998 26.0628C21.9615 25.7898 22.0975 25.5423 22.2075 25.3903C22.3259 25.2269 22.5543 25.1762 22.7178 25.2771Z" fill="black"/>
<path d="M29.645 23.606C29.88 24.049 29.678 24.6164 29.1938 24.8732C28.7096 25.1301 28.1265 24.9791 27.8915 24.5361C27.6565 24.0931 27.8585 23.5257 28.3427 23.2688C28.827 23.012 29.41 23.1629 29.645 23.606Z" fill="black"/>
<path fill-rule="evenodd" clip-rule="evenodd" d="M28.6085 22.6867C28.772 22.7876 28.8086 23.0018 28.6902 23.1652C28.6259 23.2541 28.5405 23.4114 28.5046 23.5702C28.4689 23.728 28.4918 23.8331 28.5549 23.9017C28.6828 24.0409 28.66 24.261 28.5039 24.3933C28.3477 24.5256 28.1175 24.52 27.9896 24.3808C27.7318 24.1004 27.7285 23.7465 27.7904 23.4725C27.8522 23.1994 27.9881 22.9519 28.0981 22.8C28.2165 22.6366 28.445 22.5859 28.6085 22.6867Z" fill="black"/>
<path fill-rule="evenodd" clip-rule="evenodd" d="M21.0484 24.571C20.7553 24.78 20.581 25.0703 20.5143 25.2602C20.452 25.4379 20.2557 25.537 20.0759 25.4818C19.8961 25.4265 19.8009 25.2377 19.8632 25.06C19.9704 24.7548 20.225 24.3372 20.654 24.0312C21.0959 23.716 21.7049 23.533 22.4742 23.6913C22.6591 23.7293 22.7727 23.9078 22.7278 24.0899C22.6829 24.272 22.4966 24.3887 22.3117 24.3507C21.7348 24.232 21.3286 24.3711 21.0484 24.571Z" fill="#905A09"/>
<path fill-rule="evenodd" clip-rule="evenodd" d="M27.6143 21.7033C27.3109 21.8971 27.122 22.1782 27.0457 22.3644C26.9744 22.5386 26.7733 22.6277 26.5965 22.5633C26.4198 22.4989 26.3343 22.3055 26.4057 22.1313C26.5282 21.8319 26.8038 21.4278 27.2479 21.1441C27.7053 20.8518 28.3228 20.7002 29.083 20.8974C29.2658 20.9448 29.3701 21.1289 29.316 21.3084C29.2619 21.488 29.0699 21.5951 28.8871 21.5477C28.317 21.3998 27.9042 21.518 27.6143 21.7033Z" fill="#905A09"/>
<path d="M16.5487 13.5828C20.3645 13.2688 20.8614 8.63144 28.6714 10.0783C30.1569 9.13707 26.0182 4.51122 29.794 6.48428C32.8147 8.06273 31.5068 9.5024 30.4332 9.77395C35.4984 10.3943 41.1961 18.431 36.1453 19.9495C30.0187 21.7914 27.6154 13.3471 26.9998 15.8422C26.3843 18.3373 18.6823 28.6026 15.8258 28.8365C13.8151 29.0011 12.7254 26.7146 14.1202 25.2576C13.8 25.1264 12.7293 25.8574 11.6356 24.4281C10.5419 22.9988 13.0101 18.4194 14.3024 16.9838C13.497 15.2938 12.5134 13.9148 16.5487 13.5828Z" fill="black"/>
<path d="M10.1929 36.3428C10.0993 35.7813 10.3393 35.2729 10.729 35.2073L14.9627 34.494C15.3524 34.4283 15.7442 34.8303 15.8378 35.3917L17.0921 42.9145C17.4665 45.1603 16.3615 46.3244 14.8027 46.5871C13.2439 46.8497 11.8217 46.1114 11.4472 43.8656L10.1929 36.3428Z" fill="#FFAE4E"/>
<mask id="mask5_1082_34044" style="mask-type:alpha" maskUnits="userSpaceOnUse" x="39" y="35" width="11" height="8">
<rect x="49.0195" y="35.3516" width="6.67845" height="9.22263" transform="rotate(90 49.0195 35.3516)" fill="#D9D9D9"/>
</mask>
<g mask="url(#mask5_1082_34044)">
<path d="M41.5975 41.6165C41.0237 41.6282 40.5515 41.3174 40.5427 40.9223L40.4477 36.6301C40.4389 36.235 40.897 35.9052 41.4708 35.8935L49.1587 35.7363C51.4539 35.6894 52.4543 36.9507 52.4893 38.531C52.5243 40.1114 51.5806 41.4124 49.2855 41.4593L41.5975 41.6165Z" fill="#FFAE4E"/>
</g>
<path fill-rule="evenodd" clip-rule="evenodd" d="M41.0733 35.1573L39.6599 33.9709C39.3208 33.6863 38.8182 33.6037 38.3802 33.7606C38.125 33.852 37.9141 34.0172 37.7835 34.228L37.7188 34.3325C37.7125 34.3425 37.7065 34.3526 37.7006 34.3628L35.7459 34.0432C35.1455 33.945 34.5791 34.3522 34.4809 34.9526C34.4214 35.317 34.5479 35.6688 34.7907 35.9111C34.2922 35.9737 33.8885 36.3782 33.8458 36.8989C33.8032 37.4181 34.1336 37.8818 34.613 38.0263C34.2671 38.161 33.9994 38.4698 33.9351 38.8627C33.8564 39.3442 34.1077 39.8034 34.523 40.0096C34.3639 40.1656 34.2513 40.3718 34.2125 40.6086C34.1159 41.1999 34.5168 41.7577 35.1081 41.8543L38.3424 42.3832C38.4722 42.4044 38.6003 42.4017 38.7224 42.3782C40.7835 42.6529 42.7027 41.2399 43.0405 39.174C43.3127 37.5092 42.4765 35.9193 41.0733 35.1573Z" fill="#FFBA68"/>
<path fill-rule="evenodd" clip-rule="evenodd" d="M34.6612 40.2612C34.6224 40.1878 34.6504 40.0969 34.7237 40.0581C34.8629 39.9845 35.1027 39.89 35.3847 39.8351C35.6666 39.7802 36.0015 39.7629 36.325 39.8549C36.4048 39.8776 36.4511 39.9607 36.4284 40.0405C36.4057 40.1203 36.3226 40.1666 36.2428 40.1439C35.9794 40.069 35.6954 40.0807 35.4421 40.13C35.1889 40.1793 34.9771 40.264 34.8642 40.3237C34.7909 40.3625 34.7 40.3345 34.6612 40.2612Z" fill="#FF9C27"/>
<path fill-rule="evenodd" clip-rule="evenodd" d="M34.6559 38.2058C34.6251 38.1287 34.6625 38.0413 34.7396 38.0105C34.8858 37.952 35.1342 37.8833 35.4205 37.8586C35.7066 37.8339 36.0415 37.8521 36.3534 37.9778C36.4304 38.0088 36.4676 38.0963 36.4366 38.1732C36.4056 38.2502 36.3181 38.2874 36.2411 38.2564C35.9871 38.1541 35.7034 38.1357 35.4463 38.1579C35.1893 38.1801 34.9698 38.242 34.8512 38.2894C34.7742 38.3202 34.6867 38.2828 34.6559 38.2058Z" fill="#FF9C27"/>
<path fill-rule="evenodd" clip-rule="evenodd" d="M35.1821 36.1372C35.1566 36.0582 35.2 35.9735 35.2789 35.9481C35.4288 35.8997 35.6813 35.8482 35.9686 35.8431C36.2558 35.838 36.5886 35.8791 36.8912 36.0258C36.9659 36.062 36.9971 36.1519 36.9609 36.2265C36.9247 36.3012 36.8348 36.3324 36.7601 36.2962C36.5137 36.1767 36.232 36.139 35.9739 36.1435C35.716 36.1481 35.4928 36.1948 35.3712 36.234C35.2923 36.2595 35.2076 36.2161 35.1821 36.1372Z" fill="#FF9C27"/>
<path fill-rule="evenodd" clip-rule="evenodd" d="M6.76282 32.166C6.74715 32.7118 7.12896 33.1768 7.64599 33.2831C7.45843 33.4753 7.33977 33.7357 7.33145 34.0252C7.31714 34.5234 7.6339 34.9542 8.08237 35.1065C7.94248 35.286 7.85647 35.5101 7.84943 35.7551C7.83186 36.3668 8.31354 36.877 8.9253 36.8946L12.2713 36.9907C12.4056 36.9945 12.535 36.9743 12.6554 36.934C14.7793 36.9322 16.5303 35.241 16.5917 33.1037C16.6196 32.1316 16.3877 31.2662 15.9114 30.594C15.1369 29.5012 14.0403 28.4954 13.8641 27.1676L13.8269 26.8875L-nan -nanL13.8269 26.8875C13.653 26.2234 13.3587 25.4467 12.6783 25.3551C12.4103 25.319 12.1494 25.4027 11.9413 25.6588C11.4938 26.2095 11.6956 27.379 11.9413 28.1162C12.1871 28.8535 10.1102 28.9462 10.1102 28.9462L8.18729 28.8909C7.56608 28.8731 7.04803 29.3622 7.03019 29.9834C7.01536 30.4998 7.35088 30.945 7.82138 31.0907C7.24618 31.1156 6.77961 31.5814 6.76282 32.166Z" fill="#FFBA68"/>
<path fill-rule="evenodd" clip-rule="evenodd" d="M7.74666 31.2171C7.74909 31.1324 7.81973 31.0657 7.90444 31.0681L10.5358 31.1437C10.6724 31.1476 10.8344 31.1726 10.9718 31.2712C11.1202 31.3777 11.2763 31.5448 11.3517 31.7749C11.4284 32.0094 11.4153 32.2911 11.2543 32.6102C11.2161 32.6859 11.1238 32.7163 11.0481 32.6781C10.9725 32.6399 10.9421 32.5476 10.9803 32.472C11.1094 32.2161 11.1084 32.0183 11.06 31.8704C11.0102 31.7182 10.9038 31.6001 10.7928 31.5205C10.7283 31.4742 10.6389 31.4536 10.527 31.4504L7.89563 31.3749C7.81092 31.3724 7.74422 31.3018 7.74666 31.2171Z" fill="#FF9C27"/>
<path fill-rule="evenodd" clip-rule="evenodd" d="M8.65684 29.109C8.65927 29.0243 8.72991 28.9576 8.81462 28.96L11.1797 29.028C11.3275 29.0322 11.5073 29.0612 11.6503 29.1816C11.783 29.2933 11.9153 29.461 11.9758 29.6853C12.037 29.9121 12.021 30.1827 11.8791 30.49C11.8436 30.5669 11.7524 30.6005 11.6755 30.565C11.5985 30.5294 11.5649 30.4383 11.6005 30.3613C11.7159 30.1113 11.7198 29.9145 11.6795 29.7653C11.6386 29.6136 11.5481 29.4967 11.4527 29.4164C11.3887 29.3625 11.2936 29.3383 11.1709 29.3347L8.80581 29.2668C8.7211 29.2644 8.6544 29.1937 8.65684 29.109Z" fill="#FF9C27"/>
<path fill-rule="evenodd" clip-rule="evenodd" d="M8.49944 35.0848C8.50187 35.0001 8.57252 34.9334 8.65723 34.9358L10.8468 34.9987C11.0124 35.0035 11.1947 35.0375 11.3522 35.1421C11.5252 35.2569 11.6984 35.4218 11.7769 35.6464C11.858 35.8787 11.828 36.1463 11.6482 36.4397C11.604 36.512 11.5095 36.5347 11.4372 36.4904C11.365 36.4461 11.3423 36.3516 11.3866 36.2794C11.5283 36.048 11.532 35.8762 11.4871 35.7476C11.4395 35.6112 11.3269 35.4936 11.1825 35.3978C11.0903 35.3366 10.9718 35.3093 10.838 35.3055L8.64842 35.2426C8.5637 35.2401 8.49701 35.1695 8.49944 35.0848Z" fill="#FF9C27"/>
<path fill-rule="evenodd" clip-rule="evenodd" d="M11.9585 30.1603C12.0244 30.107 12.121 30.1172 12.1743 30.183L13.0263 31.236L13.0247 31.2928C13.0154 31.6151 13.0855 32.1131 13.3227 32.5476C13.5566 32.9761 13.9502 33.3404 14.6003 33.4249C14.6844 33.4358 14.7436 33.5128 14.7327 33.5969C14.7218 33.6809 14.6448 33.7402 14.5607 33.7292C13.7962 33.6298 13.3253 33.1929 13.0533 32.6946C12.7984 32.2277 12.7159 31.7048 12.717 31.3417L11.9357 30.3761C11.8824 30.3102 11.8926 30.2136 11.9585 30.1603Z" fill="#FF9C27"/>
<path fill-rule="evenodd" clip-rule="evenodd" d="M7.8381 33.1854C7.84054 33.1007 7.91118 33.034 7.99589 33.0364L10.815 33.1174C10.9637 33.1216 11.1299 33.152 11.2735 33.2493C11.4362 33.3597 11.6165 33.5297 11.6968 33.7535C11.782 33.9908 11.7449 34.2606 11.5214 34.5323C11.4676 34.5977 11.3709 34.6071 11.3054 34.5533C11.24 34.4995 11.2306 34.4028 11.2844 34.3373C11.4477 34.1388 11.4524 33.9808 11.408 33.8572C11.3587 33.72 11.2379 33.5959 11.1013 33.5033C11.0245 33.4512 10.9236 33.4275 10.8061 33.4241L7.98708 33.3432C7.90237 33.3407 7.83567 33.2701 7.8381 33.1854Z" fill="#FF9C27"/>
</g>
</svg>
