<svg width="55" height="55" viewBox="0 0 55 55" fill="none" xmlns="http://www.w3.org/2000/svg">
<circle cx="27.3567" cy="27.2122" r="26.8567" fill="#D9D9D9"/>
<mask id="mask0_1082_34337" style="mask-type:alpha" maskUnits="userSpaceOnUse" x="0" y="0" width="55" height="55">
<circle cx="27.3567" cy="27.2122" r="26.8567" fill="#D9D9D9"/>
</mask>
<g mask="url(#mask0_1082_34337)">
<path fill-rule="evenodd" clip-rule="evenodd" d="M9.43864 26.6268C9.22521 26.4748 9.1755 26.1789 9.3276 25.9658C10.0136 25.0045 10.1012 24.3795 10.0159 24.0111C9.98774 23.8893 9.93673 23.7795 9.86616 23.6818C9.6337 23.9186 9.36238 24.1035 9.06281 24.1989C8.53145 24.3682 7.97812 24.2313 7.55236 23.7551C7.34912 23.5277 7.18526 23.2063 7.30148 22.8539C7.40938 22.5267 7.70082 22.3627 7.92424 22.285C8.38857 22.1237 9.04 22.1549 9.60363 22.3681C9.60716 22.3694 9.61069 22.3707 9.61423 22.3721C9.91983 21.6837 9.97552 20.759 9.49391 19.9359C9.36167 19.7099 9.43791 19.4196 9.66419 19.2876C9.89046 19.1556 10.1811 19.2317 10.3133 19.4577C11.0011 20.6332 10.8842 21.9402 10.4237 22.8803C10.663 23.1149 10.8525 23.4173 10.9406 23.7976C11.1141 24.5469 10.8582 25.4542 10.1005 26.516C9.94839 26.7291 9.65207 26.7787 9.43864 26.6268ZM9.00453 23.1764C8.72827 23.1154 8.46754 23.1205 8.2968 23.1625C8.46649 23.3318 8.62151 23.3445 8.77432 23.2959C8.84602 23.273 8.92401 23.2334 9.00453 23.1764ZM8.20684 23.0507C8.20703 23.0507 8.20796 23.0525 8.20908 23.056C8.20721 23.0524 8.20665 23.0507 8.20684 23.0507ZM8.169 23.2107C8.16692 23.2127 8.16564 23.2136 8.16553 23.2135C8.16541 23.2135 8.16645 23.2125 8.169 23.2107Z" fill="#5991FF"/>
<path fill-rule="evenodd" clip-rule="evenodd" d="M12.5331 24.6621C12.5353 24.4001 12.7494 24.1898 13.0113 24.1922L13.5416 24.197C13.9288 24.2006 14.2452 23.889 14.2474 23.5017C14.2523 22.6842 14.8556 21.9942 15.6651 21.8804L16.2982 21.7914C16.5575 21.7549 16.7975 21.9356 16.8342 22.195C16.8709 22.4543 16.6904 22.6942 16.431 22.7306L15.7979 22.8196C15.4542 22.868 15.198 23.161 15.1959 23.5082C15.1905 24.4201 14.4456 25.1538 13.5337 25.1455L13.0034 25.1406C12.7415 25.1382 12.5309 24.924 12.5331 24.6621Z" fill="#F97F7F"/>
<path d="M14.8882 15.7256C15.0422 16.0195 14.9287 16.3826 14.6348 16.5366C14.3409 16.6906 13.9778 16.5772 13.8238 16.2833L13.3458 15.371C13.1919 15.077 13.3053 14.7139 13.5992 14.56C13.8931 14.406 14.2562 14.5194 14.4102 14.8133L14.8882 15.7256Z" fill="#5991FF"/>
<path d="M12.2308 26.7904C12.2991 26.9781 12.2023 27.1857 12.0145 27.254C11.8267 27.3223 11.6191 27.2254 11.5508 27.0377L11.3388 26.4548C11.2705 26.267 11.3674 26.0594 11.5552 25.9911C11.743 25.9228 11.9506 26.0197 12.0189 26.2075L12.2308 26.7904Z" fill="#FFC266"/>
<path d="M17.2696 19.8741C17.4567 19.8039 17.6653 19.8988 17.7354 20.0859C17.8055 20.273 17.7107 20.4815 17.5236 20.5516L16.9428 20.7693C16.7557 20.8394 16.5472 20.7446 16.477 20.5575C16.4069 20.3704 16.5017 20.1619 16.6888 20.0917L17.2696 19.8741Z" fill="#FFC266"/>
<path d="M9.96986 16.8954C10.0183 16.7016 10.2148 16.5837 10.4086 16.6322C10.6025 16.6807 10.7203 16.8771 10.6719 17.071L10.5214 17.6727C10.473 17.8665 10.2765 17.9844 10.0827 17.9359C9.88881 17.8874 9.77095 17.691 9.81942 17.4971L9.96986 16.8954Z" fill="#F97F7F"/>
<path d="M21.6866 42.597C21.9222 42.2255 22.3687 42.0858 22.6839 42.2849L26.1075 44.4486C26.4226 44.6477 26.4871 45.1103 26.2514 45.4819L23.0936 50.4597C22.1509 51.9458 20.7297 51.9294 19.4692 51.1328C18.2087 50.3361 17.5861 49.0609 18.5288 47.5749L21.6866 42.597Z" fill="#FFAE4E"/>
<path d="M38.2109 43.3111C38.006 42.7589 38.123 42.2056 38.4723 42.0753L42.2667 40.6595C42.616 40.5292 43.0653 40.8712 43.2702 41.4233L46.0163 48.8217C46.8361 51.0304 46.0508 52.3884 44.6537 52.9097C43.2566 53.431 41.7768 52.9181 40.957 50.7094L38.2109 43.3111Z" fill="#FFAE4E"/>
<path d="M26.7123 48.1616C26.3685 48.5545 25.7354 48.5619 25.2983 48.1781L20.5489 44.0085C20.1117 43.6247 20.036 42.9951 20.3798 42.6021L24.986 37.3373C26.3611 35.7656 28.8934 35.736 30.642 37.2712C32.3907 38.8064 32.6936 41.3251 31.3185 42.8968L26.7123 48.1616Z" fill="#4C8BFF"/>
<path d="M38.4957 48.0535C38.7742 48.4951 39.3984 48.6008 39.8899 48.2896L45.2296 44.9087C45.7211 44.5975 45.8938 43.9873 45.6152 43.5457L41.8833 37.629C40.7691 35.8627 38.2722 35.4399 36.3062 36.6847C34.3402 37.9295 33.6496 40.3705 34.7637 42.1368L38.4957 48.0535Z" fill="#4C8BFF"/>
<path d="M24.3438 43.148C24.3438 39.3903 25.2427 35.6245 28.4225 35.6245H37.2507C40.4305 35.6245 41.7438 38.0447 41.7438 41.8024L41.1204 52.8326C41.0738 53.5135 40.5109 54.0802 39.752 54.2105C34.9829 55.0292 30.7745 55.0292 26.0053 54.2105C25.2549 54.0817 24.4027 53.5051 24.3438 52.8326V43.148Z" fill="#4C8BFF"/>
<path d="M29.1445 33.1734C29.1445 31.7304 30.0926 30.5605 31.2622 30.5605H34.2269C35.3964 30.5605 36.3445 31.7304 36.3445 33.1734V35.7863C36.3445 37.2294 35.3964 38.3992 34.2269 38.3992H31.2622C30.0926 38.3992 29.1445 37.2294 29.1445 35.7863V33.1734Z" fill="#FFAB48"/>
<path fill-rule="evenodd" clip-rule="evenodd" d="M37.0095 35.8126C37.4096 36.119 37.4856 36.6918 37.1792 37.0919L36.8623 37.5056C35.8983 38.7645 34.4031 39.5027 32.8176 39.5027C31.292 39.5027 29.8468 38.819 28.8791 37.6397L28.4493 37.1159C28.1296 36.7263 28.1863 36.1513 28.5759 35.8316C28.9655 35.512 29.5405 35.5686 29.8601 35.9582L30.2899 36.4821C30.911 37.2389 31.8385 37.6777 32.8176 37.6777C33.8351 37.6777 34.7947 37.2039 35.4134 36.396L35.7302 35.9823C36.0367 35.5821 36.6094 35.5062 37.0095 35.8126Z" fill="#337AFF"/>
<path fill-rule="evenodd" clip-rule="evenodd" d="M25.3135 40.0678C25.431 40.1081 25.4937 40.236 25.4535 40.3536C24.8169 42.2146 24.7156 44.4806 24.7156 46.7307C24.7156 46.855 24.6149 46.9557 24.4906 46.9557C24.3664 46.9557 24.2656 46.855 24.2656 46.7307C24.2656 44.4808 24.3644 42.1469 25.0277 40.2079C25.068 40.0903 25.1959 40.0276 25.3135 40.0678Z" fill="#337AFF"/>
<path fill-rule="evenodd" clip-rule="evenodd" d="M37.5036 40.8114C37.6244 40.7821 37.746 40.8562 37.7753 40.977C37.854 41.3014 37.9188 41.6135 37.9823 41.9189C38.1158 42.5613 38.243 43.1739 38.4799 43.808C38.8223 44.7242 39.3917 45.6668 40.5426 46.7047C40.6349 46.788 40.6422 46.9302 40.559 47.0225C40.4758 47.1148 40.3335 47.1221 40.2412 47.0389C39.0384 45.9541 38.4269 44.9515 38.0584 43.9655C37.8094 43.299 37.6702 42.6306 37.5328 41.9703C37.4708 41.6726 37.4092 41.3766 37.338 41.0831C37.3087 40.9623 37.3828 40.8407 37.5036 40.8114Z" fill="#337AFF"/>
<path d="M37.0546 49.3219C36.6857 49.0821 36.551 48.634 36.7537 48.3211L38.9553 44.9219C39.158 44.609 39.6213 44.5497 39.9902 44.7895L44.9325 48.0026C46.408 48.9618 46.3758 50.3827 45.5651 51.6342C44.7545 52.8858 43.4724 53.4942 41.997 52.535L37.0546 49.3219Z" fill="#FFAE4E"/>
<path d="M46.0612 26.2275C46.4677 28.5622 44.8286 30.7976 42.4003 31.2204C39.9719 31.6432 37.6738 30.0933 37.2673 27.7586C36.8608 25.4239 38.4998 23.1885 40.9282 22.7657C43.3566 22.3429 45.6547 23.8928 46.0612 26.2275Z" fill="#FF9C27"/>
<path d="M29.7995 27.6987C30.206 30.0334 28.5669 32.2688 26.1385 32.6916C23.7102 33.1144 21.4121 31.5645 21.0056 29.2298C20.5991 26.8951 22.2381 24.6597 24.6665 24.2369C27.0949 23.8141 29.393 25.364 29.7995 27.6987Z" fill="#ED8000"/>
<path d="M43.6554 24.2006C44.5933 29.5873 40.3987 34.8169 34.2865 35.8811C28.1743 36.9453 21.7426 32.8012 23.5917 28.5077C20.6504 23.1385 24.7779 17.4381 30.8901 16.3739C37.0023 15.3097 42.7175 18.8138 43.6554 24.2006Z" fill="#FFBA68"/>
<path d="M43.7325 24.2066C44.6751 29.6201 40.3694 34.8914 34.1155 35.9803C27.8616 37.0691 21.297 32.9221 23.2012 28.5992C20.2098 23.2094 24.4483 17.4649 30.7022 16.376C36.9561 15.2872 42.79 18.793 43.7325 24.2066Z" fill="#FFBA68"/>
<mask id="mask1_1082_34337" style="mask-type:alpha" maskUnits="userSpaceOnUse" x="22" y="16" width="22" height="21">
<path d="M43.7364 24.2071C44.679 29.6206 40.3733 34.8919 34.1194 35.9807C27.8655 37.0696 21.3009 32.9226 23.2051 28.5996C20.2137 23.2099 24.4522 17.4654 30.7061 16.3765C36.96 15.2877 42.7939 18.7935 43.7364 24.2071Z" fill="#FFBA68"/>
</mask>
<g mask="url(#mask1_1082_34337)">
<path d="M44.3302 29.374C44.7267 31.6517 43.1142 33.835 40.7285 34.2503C38.3428 34.6657 36.0873 33.1559 35.6907 30.8782C35.2941 28.6004 36.9067 26.4172 39.2924 26.0018C41.6781 25.5864 43.9336 27.0962 44.3302 29.374Z" fill="#FF9A24"/>
<path d="M27.9513 31.5453C28.3478 33.8231 26.7353 36.0063 24.3496 36.4217C21.9639 36.8371 19.7084 35.3273 19.3118 33.0496C18.9152 30.7718 20.5278 28.5886 22.9135 28.1732C25.2992 27.7578 27.5547 29.2676 27.9513 31.5453Z" fill="#FF9A24"/>
</g>
<path d="M31.3985 29.2629C31.4411 29.5079 31.2691 29.7425 31.0143 29.7869C30.7595 29.8312 30.5183 29.6686 30.4757 29.4236C30.433 29.1786 30.605 28.944 30.8598 28.8996C31.1147 28.8553 31.3558 29.0179 31.3985 29.2629Z" fill="black"/>
<path d="M29.2283 27.5801C29.3094 28.0462 28.9622 28.4959 28.4529 28.5846C27.9435 28.6733 27.4647 28.3674 27.3836 27.9013C27.3024 27.4353 27.6496 26.9855 28.159 26.8968C28.6684 26.8081 29.1471 27.1141 29.2283 27.5801Z" fill="black"/>
<path fill-rule="evenodd" clip-rule="evenodd" d="M28.5676 26.4525C28.6847 26.5908 28.6549 26.7936 28.5009 26.9056C28.4173 26.9664 28.2946 27.0825 28.216 27.2145C28.1378 27.3455 28.1276 27.4464 28.1641 27.5265C28.2381 27.6887 28.1532 27.8794 27.9745 27.9524C27.7958 28.0254 27.5909 27.953 27.5169 27.7908C27.3678 27.4639 27.4684 27.1455 27.6041 26.9179C27.7393 26.6911 27.9337 26.5089 28.0768 26.4048C28.2307 26.2929 28.4505 26.3142 28.5676 26.4525Z" fill="black"/>
<path d="M35.2712 26.9815C35.3524 27.4476 35.0052 27.8973 34.4958 27.986C33.9864 28.0747 33.5077 27.7688 33.4266 27.3027C33.3454 26.8366 33.6926 26.3869 34.202 26.2982C34.7114 26.2095 35.1901 26.5154 35.2712 26.9815Z" fill="black"/>
<path fill-rule="evenodd" clip-rule="evenodd" d="M34.6106 25.8539C34.7277 25.9922 34.6978 26.195 34.5439 26.307C34.4602 26.3678 34.3376 26.4839 34.2589 26.6158C34.1808 26.7469 34.1706 26.8478 34.2071 26.9278C34.2811 27.0901 34.1962 27.2808 34.0175 27.3538C33.8388 27.4268 33.6339 27.3544 33.5599 27.1921C33.4108 26.8652 33.5113 26.5469 33.6471 26.3192C33.7823 26.0924 33.9766 25.9103 34.1197 25.8062C34.2737 25.6942 34.4934 25.7156 34.6106 25.8539Z" fill="black"/>
<path fill-rule="evenodd" clip-rule="evenodd" d="M34.7252 30.5607C33.16 31.3434 31.3895 31.6516 29.6489 31.4446C29.462 31.4223 29.3386 31.2718 29.3733 31.1082C29.4079 30.9447 29.5875 30.8302 29.7744 30.8524C31.3617 31.0413 32.9762 30.7602 34.4036 30.0464C34.5717 29.9624 34.7799 30.0094 34.8687 30.1514C34.9575 30.2934 34.8933 30.4767 34.7252 30.5607Z" fill="#A75A00"/>
<path fill-rule="evenodd" clip-rule="evenodd" d="M27.5461 25.4225C27.2222 25.5242 26.9808 25.7336 26.8655 25.8844C26.7576 26.0255 26.5525 26.057 26.4075 25.9548C26.2624 25.8526 26.2323 25.6555 26.3401 25.5144C26.5255 25.272 26.876 24.972 27.3503 24.8231C27.8388 24.6697 28.4385 24.6837 29.0821 25.0507C29.2369 25.1389 29.2865 25.3322 29.193 25.4824C29.0995 25.6325 28.8982 25.6828 28.7435 25.5945C28.2608 25.3194 27.8559 25.3253 27.5461 25.4225Z" fill="#905A09"/>
<path fill-rule="evenodd" clip-rule="evenodd" d="M34.2765 24.7726C33.9478 24.8577 33.6961 25.0545 33.5732 25.1992C33.4583 25.3346 33.2519 25.3556 33.1122 25.2462C32.9725 25.1367 32.9525 24.9383 33.0674 24.8029C33.2649 24.5703 33.6303 24.2885 34.1115 24.1639C34.6073 24.0357 35.2054 24.0803 35.8295 24.4796C35.9795 24.5756 36.0192 24.7711 35.9182 24.9164C35.8171 25.0616 35.6136 25.1015 35.4636 25.0055C34.9956 24.706 34.5908 24.6913 34.2765 24.7726Z" fill="#905A09"/>
<path d="M26.7286 14.2527C30.2425 15.0874 32.0448 11.0738 38.6257 14.6562C40.2333 14.2467 37.8749 8.88736 40.6839 11.7615C42.9312 14.0607 41.337 14.9692 40.2948 14.8987C44.6559 16.9368 47.4146 25.8112 42.4407 25.6954C36.4074 25.5549 36.7224 17.2788 35.4404 19.3364C34.1584 21.394 24.248 28.347 21.6179 27.721C19.7664 27.2804 19.458 24.9111 21.1352 24.0124C20.8864 23.8011 19.7124 24.1435 19.1497 22.5417C18.5869 20.9399 22.1401 17.555 23.7191 16.6456C23.4912 14.8943 23.0125 13.3699 26.7286 14.2527Z" fill="black"/>
<path d="M14.8594 42.4119C14.6544 41.8597 14.7714 41.3065 15.1207 41.1761L18.9152 39.7604C19.2644 39.63 19.7137 39.972 19.9187 40.5242L22.6648 47.9225C23.4846 50.1312 22.6992 51.4893 21.3021 52.0105C19.905 52.5318 18.4253 52.0189 17.6055 49.8102L14.8594 42.4119Z" fill="#FFAE4E"/>
<path fill-rule="evenodd" clip-rule="evenodd" d="M9.19667 35.9638C9.05121 36.5158 9.38012 37.0837 9.9313 37.2322L10.638 37.4226C10.2447 37.4817 9.90538 37.7676 9.79734 38.1776C9.65189 38.7296 9.98079 39.2975 10.532 39.446L12.0159 39.8459C11.9633 39.9307 11.9223 40.0248 11.8955 40.1265C11.7501 40.6785 12.079 41.2463 12.6302 41.3949L15.6449 42.2073C15.7659 42.2398 15.8875 42.2495 16.0052 42.239C17.9321 42.6976 19.8785 41.5406 20.3867 39.612C20.8275 37.939 20.0439 36.225 18.5901 35.4268L17.2838 33.1082C16.958 32.5299 16.2702 32.3881 15.7477 32.7915C15.2713 33.1592 15.0967 33.8531 15.3164 34.411L12.1034 33.5452C11.5437 33.3944 10.9703 33.7265 10.8226 34.287C10.7007 34.7497 10.9069 35.2233 11.2973 35.4594L10.458 35.2332C9.90686 35.0847 9.34212 35.4118 9.19667 35.9638Z" fill="#FFBA68"/>
<path fill-rule="evenodd" clip-rule="evenodd" d="M12.6236 39.6484C12.6438 39.5719 12.7221 39.5265 12.7984 39.5471L14.7724 40.0789C14.9218 40.1192 15.08 40.1896 15.2008 40.3188C15.3335 40.4608 15.4558 40.6481 15.4793 40.8694C15.5037 41.0982 15.4198 41.335 15.1945 41.5627C15.139 41.6188 15.0484 41.619 14.9922 41.5631C14.936 41.5072 14.9354 41.4164 14.9909 41.3603C15.1686 41.1806 15.2084 41.0252 15.1949 40.8985C15.1806 40.7643 15.1033 40.633 14.9925 40.5145C14.9219 40.4389 14.8201 40.3884 14.6994 40.3559L12.7254 39.8241C12.649 39.8035 12.6035 39.7249 12.6236 39.6484Z" fill="#FF9C27"/>
<path fill-rule="evenodd" clip-rule="evenodd" d="M15.993 35.2859C16.0641 35.2518 16.1495 35.282 16.1839 35.3534L16.7335 36.4942L16.72 36.5454C16.6434 36.836 16.6016 37.3034 16.7247 37.7494C16.8461 38.1892 17.1258 38.6053 17.6974 38.8228C17.7713 38.851 17.8087 38.9337 17.781 39.0077C17.7533 39.0816 17.671 39.1188 17.5971 39.0906C16.9249 38.8347 16.5905 38.336 16.4493 37.8246C16.3171 37.3453 16.3529 36.8527 16.4307 36.5231L15.9267 35.477C15.8923 35.4056 15.922 35.3201 15.993 35.2859Z" fill="#FF9C27"/>
<path fill-rule="evenodd" clip-rule="evenodd" d="M11.5187 37.5077C11.501 37.5737 11.5402 37.6416 11.6062 37.6593L13.8374 38.2576C13.9035 38.2753 13.9713 38.2361 13.989 38.1701C14.0067 38.1041 13.9676 38.0362 13.9015 38.0185L11.6703 37.4202C11.6043 37.4025 11.5364 37.4417 11.5187 37.5077Z" fill="#FF9C27"/>
<path fill-rule="evenodd" clip-rule="evenodd" d="M12.0383 35.7572C12.0206 35.8232 12.0597 35.8911 12.1257 35.9088L14.8351 36.6353C14.9011 36.653 14.969 36.6138 14.9867 36.5478C15.0044 36.4818 14.9652 36.4139 14.8992 36.3962L12.1898 35.6697C12.1238 35.652 12.056 35.6912 12.0383 35.7572Z" fill="#FF9C27"/>
<path fill-rule="evenodd" clip-rule="evenodd" d="M14.5575 37.1946C14.9228 36.5388 15.4298 36.0274 15.7818 35.7597C15.8362 35.7184 15.8468 35.6407 15.8054 35.5863C15.764 35.5319 15.6864 35.5213 15.632 35.5627C15.2563 35.8484 14.7252 36.3849 14.3413 37.0742C13.9569 37.7643 13.7147 38.618 13.9384 39.5289C13.9547 39.5953 14.0217 39.6359 14.0881 39.6196C14.1545 39.6033 14.1951 39.5363 14.1788 39.4699C13.9746 38.6384 14.1927 37.8497 14.5575 37.1946Z" fill="#FF9C27"/>
<path fill-rule="evenodd" clip-rule="evenodd" d="M42.5344 45.1008C42.5482 45.5815 42.212 45.9909 41.7567 46.0845C41.9219 46.2537 42.0264 46.483 42.0337 46.738C42.0463 47.1766 41.7674 47.556 41.3725 47.6901C41.4957 47.8482 41.5714 48.0455 41.5776 48.2612C41.5931 48.7999 41.1689 49.2491 40.6302 49.2646L37.6838 49.3492C37.5656 49.3526 37.4517 49.3349 37.3457 49.2993C35.4755 49.2977 33.9336 47.8085 33.8795 45.9265C33.855 45.0706 34.0592 44.3085 34.4786 43.7166C35.1605 42.7543 36.1262 41.8687 36.2813 40.6995L36.314 40.4528L-nan -nanL36.314 40.4528C36.4672 39.868 36.7264 39.184 37.3255 39.1034C37.5615 39.0716 37.7912 39.1454 37.9744 39.3708C38.3685 39.8558 38.1908 40.8856 37.9744 41.5347C37.758 42.1839 39.5869 42.2656 39.5869 42.2656L41.2801 42.2169C41.8271 42.2012 42.2833 42.6319 42.299 43.1789C42.3121 43.6337 42.0166 44.0256 41.6023 44.154C42.1088 44.1759 42.5196 44.5861 42.5344 45.1008Z" fill="#FFBA68"/>
<path fill-rule="evenodd" clip-rule="evenodd" d="M41.6643 44.2651C41.6622 44.1906 41.6 44.1318 41.5254 44.134L39.2083 44.2005C39.088 44.204 38.9454 44.226 38.8244 44.3128C38.6937 44.4066 38.5562 44.5537 38.4899 44.7564C38.4223 44.9628 38.4339 45.2109 38.5757 45.4919C38.6093 45.5585 38.6905 45.5853 38.7572 45.5517C38.8238 45.518 38.8505 45.4368 38.8169 45.3702C38.7032 45.1448 38.7041 44.9707 38.7467 44.8404C38.7906 44.7064 38.8843 44.6025 38.982 44.5323C39.0389 44.4915 39.1175 44.4735 39.2161 44.4706L41.5331 44.4041C41.6077 44.4019 41.6665 44.3397 41.6643 44.2651Z" fill="#FF9C27"/>
<path fill-rule="evenodd" clip-rule="evenodd" d="M40.8674 42.4089C40.8653 42.3343 40.8031 42.2756 40.7285 42.2777L38.6459 42.3375C38.5158 42.3413 38.3574 42.3668 38.2315 42.4728C38.1147 42.5712 37.9982 42.7188 37.9449 42.9164C37.891 43.1161 37.9051 43.3543 38.03 43.6249C38.0613 43.6927 38.1416 43.7222 38.2093 43.691C38.2771 43.6597 38.3067 43.5794 38.2754 43.5116C38.1737 43.2914 38.1703 43.1182 38.2058 42.9868C38.2418 42.8532 38.3215 42.7503 38.4055 42.6796C38.4618 42.6322 38.5456 42.6108 38.6536 42.6077L40.7362 42.5479C40.8108 42.5457 40.8696 42.4835 40.8674 42.4089Z" fill="#FF9C27"/>
<path fill-rule="evenodd" clip-rule="evenodd" d="M41.0052 47.6712C41.003 47.5966 40.9408 47.5378 40.8662 47.54L38.9382 47.5954C38.7923 47.5996 38.6318 47.6295 38.4931 47.7216C38.3407 47.8227 38.1883 47.9679 38.1192 48.1657C38.0478 48.3703 38.0742 48.6059 38.2324 48.8643C38.2714 48.9279 38.3546 48.9479 38.4183 48.9089C38.4819 48.8699 38.5019 48.7867 38.4629 48.7231C38.3381 48.5193 38.3348 48.368 38.3743 48.2548C38.4162 48.1347 38.5154 48.0312 38.6426 47.9467C38.7237 47.8929 38.8281 47.8689 38.946 47.8655L40.874 47.8101C40.9486 47.808 41.0073 47.7458 41.0052 47.6712Z" fill="#FF9C27"/>
<path fill-rule="evenodd" clip-rule="evenodd" d="M37.9622 43.3345C37.9042 43.2876 37.8191 43.2965 37.7722 43.3546L37.022 44.2818L37.0234 44.3318C37.0315 44.6156 36.9698 45.0541 36.761 45.4367C36.555 45.814 36.2084 46.1348 35.6359 46.2092C35.5619 46.2189 35.5097 46.2866 35.5194 46.3606C35.529 46.4346 35.5968 46.4868 35.6708 46.4772C36.344 46.3897 36.7587 46.0049 36.9982 45.5662C37.2226 45.155 37.2953 44.6946 37.2943 44.3748L37.9823 43.5245C38.0292 43.4665 38.0202 43.3814 37.9622 43.3345Z" fill="#FF9C27"/>
<path fill-rule="evenodd" clip-rule="evenodd" d="M41.5882 45.9988C41.5861 45.9242 41.5239 45.8655 41.4493 45.8676L38.9669 45.9389C38.836 45.9427 38.6896 45.9694 38.5631 46.0551C38.4199 46.1523 38.2611 46.302 38.1904 46.499C38.1153 46.708 38.1481 46.9456 38.3449 47.1848C38.3923 47.2425 38.4774 47.2507 38.535 47.2033C38.5927 47.1559 38.601 47.0708 38.5536 47.0132C38.4098 46.8383 38.4056 46.6992 38.4447 46.5904C38.4881 46.4695 38.5945 46.3603 38.7148 46.2788C38.7825 46.2329 38.8712 46.212 38.9747 46.209L41.457 46.1377C41.5316 46.1356 41.5904 46.0734 41.5882 45.9988Z" fill="#FF9C27"/>
<path d="M8.29344 32.5102C8.24788 32.3921 8.1152 32.3333 7.9971 32.3789C7.879 32.4245 7.82021 32.5571 7.86577 32.6752L8.36081 33.9582C8.40638 34.0763 8.53906 34.1351 8.65716 34.0896C8.77525 34.044 8.83405 33.9113 8.78848 33.7932L8.29344 32.5102Z" fill="#C4C4C4"/>
<path d="M9.03567 34.4346C8.99008 34.3165 8.85734 34.2577 8.73918 34.3033C8.62102 34.3488 8.56219 34.4816 8.60778 34.5997L8.85543 35.2416C8.90102 35.3597 9.03377 35.4186 9.15193 35.373C9.27009 35.3274 9.32891 35.1946 9.28332 35.0765L9.03567 34.4346Z" fill="#C4C4C4"/>
<path d="M14.8388 29.7391C14.5654 29.0305 13.7693 28.6777 13.0607 28.9511L8.78403 30.6012C8.07544 30.8746 7.72265 31.6707 7.99606 32.3793L11.4613 41.3604C11.7347 42.069 12.5308 42.4217 13.2394 42.1483L17.5161 40.4982C18.2247 40.2248 18.5775 39.4287 18.3041 38.7202L14.8388 29.7391Z" fill="#EAEAEA"/>
<path d="M14.6085 30.5219C14.3781 29.9249 13.7378 29.6159 13.1783 29.8318L9.80148 31.1347C9.24199 31.3506 8.97516 32.0096 9.20551 32.6066L12.1251 40.1734C12.3555 40.7704 12.9957 41.0794 13.5552 40.8635L16.9321 39.5606C17.4916 39.3447 17.7584 38.6857 17.5281 38.0887L14.6085 30.5219Z" fill="#595959"/>
<path d="M13.6443 35.4812C13.6788 35.6019 13.609 35.7278 13.4882 35.7624C13.3675 35.7969 13.2416 35.727 13.2071 35.6063C13.1725 35.4856 13.2424 35.3597 13.3631 35.3251C13.4839 35.2906 13.6097 35.3605 13.6443 35.4812Z" fill="white"/>
<path fill-rule="evenodd" clip-rule="evenodd" d="M11.8767 35.2037C11.7553 35.259 11.6715 35.3542 11.634 35.4203C11.5989 35.4821 11.5204 35.5037 11.4586 35.4687C11.3968 35.4336 11.3752 35.3551 11.4103 35.2933C11.4705 35.1871 11.5924 35.0504 11.7702 34.9695C11.9533 34.8862 12.1883 34.8659 12.4581 34.9865C12.5229 35.0155 12.552 35.0916 12.523 35.1565C12.494 35.2214 12.4179 35.2504 12.3531 35.2214C12.1507 35.131 11.9928 35.1509 11.8767 35.2037Z" fill="white"/>
<path fill-rule="evenodd" clip-rule="evenodd" d="M14.3259 34.3873C14.2045 34.4426 14.1207 34.5378 14.0832 34.6039C14.0482 34.6657 13.9696 34.6873 13.9078 34.6522C13.8461 34.6172 13.8244 34.5386 13.8595 34.4769C13.9197 34.3707 14.0416 34.234 14.2194 34.1531C14.4026 34.0698 14.6375 34.0495 14.9073 34.1701C14.9722 34.1991 15.0012 34.2752 14.9722 34.3401C14.9432 34.4049 14.8671 34.434 14.8023 34.405C14.6 34.3145 14.4421 34.3345 14.3259 34.3873Z" fill="white"/>
<path fill-rule="evenodd" clip-rule="evenodd" d="M13.8552 36.4149C13.9992 36.3341 14.0926 36.208 14.1319 36.1226C14.1688 36.0428 14.2633 36.0079 14.3431 36.0447C14.423 36.0816 14.4578 36.1761 14.421 36.2559C14.3578 36.3931 14.2217 36.5743 14.0109 36.6925C13.7938 36.8143 13.5063 36.8638 13.1611 36.7431C13.0781 36.7141 13.0344 36.6233 13.0634 36.5403C13.0924 36.4574 13.1832 36.4136 13.2662 36.4426C13.525 36.5331 13.7176 36.492 13.8552 36.4149Z" fill="white"/>
</g>
</svg>
