<svg width="55" height="55" viewBox="0 0 55 55" fill="none" xmlns="http://www.w3.org/2000/svg">
<circle cx="27.3567" cy="27.2122" r="26.8567" fill="#D9D9D9"/>
<path d="M21.4692 34.5859C21.4692 37.5168 19.0932 39.8928 16.1623 39.8928C13.2314 39.8928 10.8555 37.5168 10.8555 34.5859C10.8555 31.655 13.2314 29.2791 16.1623 29.2791C19.0932 29.2791 21.4692 31.655 21.4692 34.5859Z" fill="#FF9C27"/>
<path d="M43.1372 34.5862C43.1372 37.5171 40.7612 39.893 37.8303 39.893C34.8994 39.893 32.5234 37.5171 32.5234 34.5862C32.5234 31.6553 34.8994 29.2793 37.8303 29.2793C40.7612 29.2793 43.1372 31.6553 43.1372 34.5862Z" fill="#FF9C27"/>
<path d="M40.356 31.5078C40.356 38.2702 34.3756 43.7523 26.9983 43.7523C19.6211 43.7523 13.6406 38.2702 13.6406 31.5078C13.6406 24.7453 19.6211 19.2632 26.9983 19.2632C34.3756 19.2632 40.356 24.7453 40.356 31.5078Z" fill="#FFBA68"/>
<mask id="mask0_1082_33641" style="mask-type:alpha" maskUnits="userSpaceOnUse" x="13" y="19" width="28" height="25">
<path d="M40.3521 31.5053C40.3521 38.2678 34.3717 43.7499 26.9944 43.7499C19.6172 43.7499 13.6367 38.2678 13.6367 31.5053C13.6367 24.7428 19.6172 19.2607 26.9944 19.2607C34.3717 19.2607 40.3521 24.7428 40.3521 31.5053Z" fill="#FFAB49"/>
</mask>
<g mask="url(#mask0_1082_33641)">
<path d="M22.3843 37.7956C22.3843 40.655 20.0501 42.973 17.1707 42.973C14.2913 42.973 11.957 40.655 11.957 37.7956C11.957 34.9362 14.2913 32.6182 17.1707 32.6182C20.0501 32.6182 22.3843 34.9362 22.3843 37.7956Z" fill="#FF9A24"/>
<path d="M41.8179 37.7956C41.8179 40.655 39.4837 42.973 36.6043 42.973C33.7249 42.973 31.3906 40.655 31.3906 37.7956C31.3906 34.9362 33.7249 32.6182 36.6043 32.6182C39.4837 32.6182 41.8179 34.9362 41.8179 37.7956Z" fill="#FF9A24"/>
</g>
<path d="M27.5545 35.4013C27.5545 35.7087 27.3054 35.9579 26.998 35.9579C26.6906 35.9579 26.4414 35.7087 26.4414 35.4013C26.4414 35.0939 26.6906 34.8447 26.998 34.8447C27.3054 34.8447 27.5545 35.0939 27.5545 35.4013Z" fill="black"/>
<path fill-rule="evenodd" clip-rule="evenodd" d="M21.4406 32.3341C21.5003 32.1366 21.7236 32.0209 21.9392 32.0756L24.4172 32.7039C24.8711 32.819 24.8846 33.4038 24.4365 33.5363L21.9556 34.2702C21.7427 34.3332 21.5143 34.2262 21.4455 34.0312C21.3767 33.8363 21.4936 33.6271 21.7065 33.5641L23.1219 33.1454L21.7229 32.7907C21.5073 32.736 21.3809 32.5316 21.4406 32.3341Z" fill="black"/>
<path fill-rule="evenodd" clip-rule="evenodd" d="M32.7469 32.3341C32.6872 32.1366 32.4639 32.0209 32.2483 32.0756L29.7703 32.7039C29.3164 32.819 29.3029 33.4038 29.751 33.5363L32.2319 34.2702C32.4448 34.3332 32.6732 34.2262 32.742 34.0312C32.8108 33.8363 32.6939 33.6271 32.481 33.5641L31.0656 33.1454L32.4646 32.7907C32.6802 32.736 32.8066 32.5316 32.7469 32.3341Z" fill="black"/>
<rect x="22.5469" y="37.0708" width="8.90514" height="2.78286" rx="1.39143" fill="white"/>
<path d="M22.5469 38.4622L31.452 38.4622" stroke="#FF9A24"/>
<path d="M24.625 37.0708L24.625 39.8537" stroke="#FF9A24"/>
<path d="M27 37.0708L27 39.8537" stroke="#FF9A24"/>
<path d="M29.375 37.0708L29.375 39.8537" stroke="#FF9A24"/>
<path fill-rule="evenodd" clip-rule="evenodd" d="M23.1003 30.3856C23.5022 30.4275 23.8671 30.3072 24.0663 30.1921C24.2526 30.0845 24.4909 30.1484 24.5985 30.3347C24.7061 30.521 24.6423 30.7593 24.4559 30.8669C24.1358 31.0518 23.6078 31.222 23.0195 31.1606C22.4135 31.0974 21.7687 30.7902 21.249 30.0615C21.1241 29.8863 21.1648 29.643 21.34 29.5181C21.5152 29.3932 21.7585 29.4339 21.8834 29.6091C22.2731 30.1556 22.7161 30.3455 23.1003 30.3856Z" fill="#905A09"/>
<path fill-rule="evenodd" clip-rule="evenodd" d="M30.9934 30.3856C30.5915 30.4275 30.2267 30.3072 30.0275 30.1921C29.8411 30.0845 29.6029 30.1484 29.4953 30.3347C29.3877 30.521 29.4515 30.7593 29.6378 30.8669C29.958 31.0518 30.4859 31.222 31.0742 31.1606C31.6803 31.0974 32.325 30.7902 32.8447 30.0615C32.9697 29.8863 32.9289 29.643 32.7537 29.5181C32.5786 29.3932 32.3353 29.4339 32.2103 29.6091C31.8206 30.1556 31.3776 30.3455 30.9934 30.3856Z" fill="#905A09"/>
<path d="M8.8981 22.5104C7.19625 24.8978 4.39042 32.9286 6.77786 34.6305C9.16529 36.3323 15.8419 31.0607 17.5438 28.6733C19.2456 26.2859 18.6898 22.9709 16.3024 21.269C13.915 19.5672 10.5999 20.1229 8.8981 22.5104Z" fill="black"/>
<path d="M45.9093 22.4706C47.6112 24.858 50.417 32.8889 48.0295 34.5907C45.6421 36.2926 38.9655 31.021 37.2636 28.6335C35.5618 26.2461 36.1176 22.9311 38.505 21.2292C40.8924 19.5274 44.2075 20.0831 45.9093 22.4706Z" fill="black"/>
<path fill-rule="evenodd" clip-rule="evenodd" d="M14.0187 30.0165L13.6519 30.6602C13.3981 31.1054 13.8405 31.6198 14.3475 31.4827C25.91 28.3559 29.0509 25.36 29.7472 23.8912C29.8073 24.0983 29.8984 24.3421 30.0302 24.6248C32.7227 30.3995 40.5011 31.8435 41.0994 31.266C41.2392 31.1312 41.2157 30.5712 41.0901 29.7883C41.6588 28.5928 41.9692 27.3013 41.9692 25.954C41.9692 19.7983 35.4903 14.8081 27.4983 14.8081C19.5062 14.8081 13.0273 19.7983 13.0273 25.954C13.0273 27.3875 13.3787 28.7578 14.0187 30.0165Z" fill="black"/>
<path d="M16.7995 11.1912C20.8379 15.4654 23.6648 16.6324 23.6648 16.6324C23.1264 18.187 21.161 20.9076 17.6072 19.353C13.165 17.4097 13.2572 7.44197 16.7995 11.1912Z" fill="#9D1515"/>
<path d="M37.763 11.1912C33.7246 15.4654 30.8977 16.6324 30.8977 16.6324C31.4361 18.187 33.4015 20.9076 36.9553 19.353C41.3975 17.4097 41.3053 7.44197 37.763 11.1912Z" fill="#9D1515"/>
<path fill-rule="evenodd" clip-rule="evenodd" d="M37.1043 23.3111C29.1433 17.3205 20.7199 20.6079 17.6832 23.0414C16.7976 23.751 15.524 23.5832 14.8385 22.6665C14.1529 21.7498 14.3151 20.4314 15.2006 19.7217C19.147 16.5593 29.6023 12.4758 39.4889 19.9153C40.3948 20.597 40.5953 21.9097 39.9368 22.8474C39.2783 23.7851 38.0102 23.9927 37.1043 23.3111Z" fill="#4E0303"/>
</svg>
