<svg width="40" height="40" viewBox="0 0 40 40" fill="none" xmlns="http://www.w3.org/2000/svg">
<g id="Group 1171277221">
<circle id="Ellipse 384" cx="20" cy="20" r="19.4444" fill="white" stroke="#E6E6E6" stroke-width="1.11111"/>
<g id="&#240;&#159;&#166;&#134; icon &#34;google&#34;">
<path id="Vector" d="M30.8935 17.8233H29.9986V17.7772H19.9993V22.2213H26.2783C25.3622 24.8084 22.9007 26.6655 19.9993 26.6655C16.3179 26.6655 13.3331 23.6807 13.3331 19.9993C13.3331 16.3179 16.3179 13.3331 19.9993 13.3331C21.6986 13.3331 23.2446 13.9741 24.4218 15.0213L27.5643 11.8787C25.58 10.0294 22.9257 8.88892 19.9993 8.88892C13.8636 8.88892 8.88892 13.8636 8.88892 19.9993C8.88892 26.135 13.8636 31.1096 19.9993 31.1096C26.135 31.1096 31.1096 26.135 31.1096 19.9993C31.1096 19.2543 31.033 18.5272 30.8935 17.8233Z" fill="#FFC107"/>
<path id="Vector_2" d="M10.1699 14.828L13.8202 17.505C14.8079 15.0596 17.2 13.3331 19.9993 13.3331C21.6986 13.3331 23.2446 13.9741 24.4217 15.0213L27.5643 11.8787C25.58 10.0294 22.9257 8.88892 19.9993 8.88892C15.7318 8.88892 12.0309 11.2982 10.1699 14.828Z" fill="#FF3D00"/>
<path id="Vector_3" d="M19.9994 31.1109C22.8692 31.1109 25.4768 30.0127 27.4483 28.2267L24.0097 25.3169C22.8942 26.1618 21.5076 26.6668 19.9994 26.6668C17.1096 26.6668 14.6559 24.8241 13.7315 22.2526L10.1084 25.0441C11.9472 28.6422 15.6814 31.1109 19.9994 31.1109Z" fill="#4CAF50"/>
<path id="Vector_4" d="M30.8935 17.8217H29.9986V17.7756H19.9993V22.2198H26.2783C25.8383 23.4625 25.0389 24.5341 24.0079 25.3146C24.0084 25.314 24.009 25.314 24.0096 25.3135L27.4482 28.2233C27.2049 28.4444 31.1096 25.5529 31.1096 19.9977C31.1096 19.2528 31.033 18.5256 30.8935 17.8217Z" fill="#1976D2"/>
</g>
</g>
</svg>
