<svg width="40" height="40" viewBox="0 0 40 40" fill="none" xmlns="http://www.w3.org/2000/svg">
<g id="Group 1171277223">
<circle id="Ellipse 386" cx="20" cy="20" r="19.4444" fill="white" stroke="#E6E6E6" stroke-width="1.11111"/>
<g id="&#240;&#159;&#166;&#134; icon &#34;Apple&#34;">
<path id="Vector" d="M27.4684 19.5309C27.4566 17.3642 28.4367 15.7288 30.4204 14.5244C29.3105 12.9363 27.6338 12.0625 25.4198 11.8913C23.3239 11.726 21.0332 13.1134 20.1949 13.1134C19.3093 13.1134 17.2783 11.9503 15.6843 11.9503C12.3899 12.0034 8.88892 14.5775 8.88892 19.8143C8.88892 21.3611 9.1723 22.9591 9.73908 24.6082C10.4948 26.775 13.2224 32.0885 16.068 31.9999C17.5558 31.9645 18.6067 30.9431 20.5432 30.9431C22.4206 30.9431 23.3948 31.9999 25.0538 31.9999C27.923 31.9586 30.3909 27.1292 31.1111 24.9566C27.2618 23.1441 27.4684 19.6431 27.4684 19.5309ZM24.1268 9.83671C25.7386 7.92385 25.591 6.18221 25.5438 5.5564C24.1209 5.63905 22.4738 6.52463 21.535 7.61685C20.5019 8.78582 19.8938 10.2323 20.0236 11.8617C21.5646 11.9798 22.9697 11.1887 24.1268 9.83671Z" fill="#999999"/>
</g>
</g>
</svg>
