<svg width="40" height="40" viewBox="0 0 40 40" fill="none" xmlns="http://www.w3.org/2000/svg">
<g id="Group 1171277220">
<circle id="Ellipse 383" cx="20" cy="20" r="20" fill="#FFDA00"/>
<g id="&#240;&#159;&#166;&#134; icon &#34;kakao talk fill&#34;">
<path id="Vector" d="M20.0002 10.0006C26.4435 10.0006 31.6668 14.0717 31.6668 19.0951C31.6668 24.1173 26.4435 28.1884 20.0002 28.1884C19.3586 28.1887 18.7176 28.1479 18.0813 28.0662L13.1835 31.2695C12.6268 31.5639 12.4302 31.5317 12.6591 30.8106L13.6502 26.7239C10.4502 25.1017 8.3335 22.2906 8.3335 19.0951C8.3335 14.0728 13.5568 10.0006 20.0002 10.0006ZM26.5635 18.9562L28.1968 17.3739C28.2911 17.2761 28.3437 17.1454 28.3435 17.0095C28.3433 16.8737 28.2904 16.7432 28.196 16.6455C28.1015 16.5479 27.9728 16.4907 27.837 16.486C27.7012 16.4814 27.5689 16.5296 27.4679 16.6206L25.3257 18.6939V16.9806C25.3257 16.8415 25.2705 16.7081 25.1721 16.6098C25.0738 16.5114 24.9404 16.4562 24.8013 16.4562C24.6622 16.4562 24.5288 16.5114 24.4304 16.6098C24.3321 16.7081 24.2768 16.8415 24.2768 16.9806V19.8217C24.2572 19.9028 24.2572 19.9873 24.2768 20.0684V21.6673C24.2768 21.8064 24.3321 21.9398 24.4304 22.0381C24.5288 22.1365 24.6622 22.1917 24.8013 22.1917C24.9404 22.1917 25.0738 22.1365 25.1721 22.0381C25.2705 21.9398 25.3257 21.8064 25.3257 21.6673V20.1528L25.8002 19.6939L27.3868 21.9528C27.4264 22.0092 27.4768 22.0573 27.535 22.0942C27.5931 22.1312 27.658 22.1563 27.7259 22.1681C27.7938 22.18 27.8634 22.1784 27.9306 22.1634C27.9979 22.1483 28.0615 22.1202 28.1179 22.0806C28.1743 22.041 28.2224 21.9907 28.2593 21.9325C28.2963 21.8743 28.3214 21.8094 28.3332 21.7415C28.3451 21.6736 28.3435 21.6041 28.3285 21.5368C28.3135 21.4695 28.2853 21.4059 28.2457 21.3495L26.5635 18.9551V18.9562ZM23.2768 21.0939H21.6546V16.9973C21.6484 16.8625 21.5905 16.7353 21.4929 16.6421C21.3954 16.549 21.2656 16.497 21.1307 16.497C20.9958 16.497 20.8661 16.549 20.7685 16.6421C20.6709 16.7353 20.613 16.8625 20.6068 16.9973V21.6184C20.6068 21.9073 20.8402 22.1428 21.1302 22.1428H23.2768C23.4159 22.1428 23.5493 22.0876 23.6477 21.9892C23.746 21.8909 23.8013 21.7575 23.8013 21.6184C23.8013 21.4793 23.746 21.3459 23.6477 21.2476C23.5493 21.1492 23.4159 21.0939 23.2768 21.0939ZM16.7691 19.8806L17.5424 17.9839L18.2513 19.8806H16.7691ZM19.5724 20.4228L19.5746 20.4051C19.5743 20.2729 19.5239 20.1458 19.4335 20.0495L18.2713 16.9384C18.2226 16.7901 18.1298 16.6603 18.0053 16.5662C17.8808 16.472 17.7305 16.4182 17.5746 16.4117C17.4175 16.411 17.264 16.4582 17.1344 16.5469C17.0048 16.6356 16.9052 16.7617 16.8491 16.9084L15.0035 21.4362C14.9775 21.4999 14.9642 21.5682 14.9646 21.6371C14.9649 21.706 14.9788 21.7741 15.0055 21.8376C15.0321 21.9011 15.0711 21.9587 15.12 22.0072C15.1689 22.0557 15.227 22.094 15.2907 22.1201C15.3545 22.1461 15.4228 22.1593 15.4916 22.159C15.5605 22.1587 15.6286 22.1448 15.6921 22.1181C15.7557 22.0914 15.8133 22.0525 15.8617 22.0035C15.9102 21.9546 15.9486 21.8966 15.9746 21.8328L16.3413 20.9295H18.6413L18.9735 21.8184C18.9961 21.8848 19.0318 21.9461 19.0785 21.9985C19.1251 22.0509 19.1819 22.0934 19.2453 22.1234C19.3087 22.1535 19.3775 22.1706 19.4476 22.1736C19.5177 22.1766 19.5877 22.1655 19.6534 22.1409C19.7192 22.1164 19.7793 22.0789 19.8303 22.0307C19.8813 21.9825 19.9221 21.9245 19.9503 21.8602C19.9785 21.796 19.9935 21.7267 19.9944 21.6565C19.9954 21.5864 19.9822 21.5167 19.9557 21.4517L19.5724 20.4228ZM15.8813 17.0028C15.8813 16.8639 15.8262 16.7307 15.7281 16.6324C15.6299 16.5341 15.4968 16.4787 15.3579 16.4784H11.7524C11.6133 16.4784 11.4799 16.5336 11.3815 16.632C11.2832 16.7303 11.2279 16.8637 11.2279 17.0028C11.2279 17.1419 11.2832 17.2753 11.3815 17.3737C11.4799 17.472 11.6133 17.5273 11.7524 17.5273H13.0413V21.6784C13.0413 21.8175 13.0965 21.9509 13.1949 22.0492C13.2932 22.1476 13.4266 22.2028 13.5657 22.2028C13.7048 22.2028 13.8382 22.1476 13.9366 22.0492C14.0349 21.9509 14.0902 21.8175 14.0902 21.6784V17.5273H15.3568C15.6468 17.5273 15.8813 17.2917 15.8813 17.0028Z" fill="black"/>
</g>
</g>
</svg>
