<svg width="14" height="13" viewBox="0 0 14 13" fill="none" xmlns="http://www.w3.org/2000/svg">
<g clip-path="url(#clip0_667_43868)">
<path d="M11.1609 0.609375H3.23901C2.06109 0.609375 1.1062 1.56427 1.1062 2.74219V10.2578C1.1062 11.4357 2.06109 12.3906 3.23901 12.3906H11.1609C12.3388 12.3906 13.2937 11.4357 13.2937 10.2578V2.74219C13.2937 1.56427 12.3388 0.609375 11.1609 0.609375Z" fill="#00005B"/>
<path d="M6.22444 7.92227H4.40698L3.93776 9.27712C3.93235 9.3218 3.90408 9.34415 3.85296 9.34415H2.99983C2.94296 9.34415 2.92315 9.31622 2.94042 9.26036L4.58675 4.37063C4.63324 4.22175 4.6562 4.06652 4.65479 3.91055C4.65387 3.90367 4.65455 3.89666 4.65678 3.89008C4.65901 3.8835 4.66272 3.87752 4.66763 3.87261C4.67254 3.8677 4.67852 3.86399 4.6851 3.86176C4.69168 3.85953 4.69869 3.85885 4.70557 3.85977H5.89995C5.93448 3.85977 5.95429 3.87399 5.95987 3.90141L7.80221 9.26899C7.81948 9.31977 7.80526 9.34415 7.75956 9.34415H6.80436C6.78669 9.3452 6.76911 9.34093 6.7539 9.33187C6.73869 9.32282 6.72655 9.3094 6.71905 9.29337L6.22444 7.92227ZM4.61011 7.00821H6.02589C5.99186 6.93356 5.35507 4.87895 5.30936 4.70579H5.30124L4.61011 7.00821ZM10.5282 7.54091H9.0235C9.02926 7.89265 9.12794 8.17026 9.31956 8.37372C9.51117 8.57718 9.79893 8.67874 10.1828 8.67841C10.5045 8.68414 10.8239 8.62239 11.1203 8.49712C11.1533 8.47528 11.171 8.48595 11.171 8.53013V9.13188C11.1708 9.1512 11.1662 9.1702 11.1573 9.18739C11.1485 9.20458 11.1358 9.21948 11.1203 9.23091C10.8088 9.37411 10.4251 9.44571 9.96905 9.44571C9.29535 9.44571 8.80074 9.2519 8.48522 8.86427C8.1697 8.47664 8.01211 7.99151 8.01245 7.40887C8.01245 6.80322 8.17681 6.29727 8.50554 5.89102C8.83426 5.48477 9.28384 5.28165 9.85428 5.28165C10.396 5.28165 10.8002 5.44923 11.0669 5.78438C11.3324 6.11938 11.4733 6.53617 11.4656 6.96352C11.4707 7.12368 11.4596 7.28394 11.4326 7.44188C11.4314 7.45892 11.4241 7.47497 11.4121 7.48709C11.4001 7.49921 11.3841 7.5066 11.3671 7.5079C11.2245 7.5299 10.9449 7.54091 10.5282 7.54091ZM9.0235 6.90665H10.1092C10.3462 6.90665 10.4804 6.90106 10.5119 6.88989C10.5187 6.85187 10.5214 6.81322 10.52 6.77462C10.5224 6.57613 10.4651 6.38151 10.3555 6.21602C10.2458 6.05115 10.0677 5.96872 9.82128 5.96872C9.58023 5.96872 9.39404 6.05657 9.26268 6.23227C9.12282 6.43098 9.0401 6.66422 9.0235 6.90665Z" fill="#9999FF"/>
</g>
<defs>
<clipPath id="clip0_667_43868">
<rect width="13" height="13" fill="white" transform="translate(0.699951)"/>
</clipPath>
</defs>
</svg>
