<svg width="13" height="14" viewBox="0 0 13 14" fill="none" xmlns="http://www.w3.org/2000/svg">
<g id="tool" clip-path="url(#clip0_1539_19562)">
<path id="Vector" d="M13 7C13 3.41015 10.0899 0.5 6.5 0.5C2.91015 0.5 0 3.41015 0 7C0 10.5899 2.91015 13.5 6.5 13.5C10.0899 13.5 13 10.5899 13 7Z" fill="#7289DA"/>
<path id="Vector_2" d="M9.76002 4.77391C9.1637 4.29684 8.4481 4.05831 7.69275 4.01855L7.57347 4.13783C8.24931 4.29684 8.84566 4.61488 9.40222 5.05219C8.72638 4.69439 7.97103 4.45587 7.17592 4.37635C6.93739 4.33659 6.7386 4.33659 6.50008 4.33659C6.26156 4.33659 6.06277 4.33659 5.82424 4.37635C5.02913 4.45587 4.27378 4.69439 3.59794 5.05219C4.1545 4.61488 4.75085 4.29684 5.42669 4.13783L5.30741 4.01855C4.55206 4.05831 3.83646 4.29684 3.24014 4.77391C2.5643 6.04609 2.2065 7.47729 2.16675 8.94821C2.76307 9.58432 3.59794 9.98187 4.47257 9.98187C4.47257 9.98187 4.75085 9.66383 4.94961 9.38552C4.43281 9.26628 3.95574 8.98797 3.6377 8.55068C3.91598 8.70969 4.19426 8.86872 4.47257 8.98797C4.83037 9.147 5.18816 9.22652 5.54596 9.30604C5.864 9.34577 6.18204 9.38552 6.50008 9.38552C6.81812 9.38552 7.13616 9.34577 7.4542 9.30604C7.812 9.22652 8.16979 9.147 8.52759 8.98797C8.8059 8.86872 9.08418 8.70969 9.36246 8.55068C9.04442 8.98797 8.56735 9.26628 8.05055 9.38552C8.24931 9.66383 8.52759 9.98187 8.52759 9.98187C9.40222 9.98187 10.2371 9.58432 10.8334 8.94821C10.7937 7.47729 10.4359 6.04609 9.76002 4.77391ZM5.18816 8.23261C4.79061 8.23261 4.43281 7.87482 4.43281 7.43753C4.43281 7.00021 4.79061 6.64242 5.18816 6.64242C5.58572 6.64242 5.94352 7.00021 5.94352 7.43753C5.94352 7.87482 5.58572 8.23261 5.18816 8.23261ZM7.812 8.23261C7.41444 8.23261 7.05664 7.87482 7.05664 7.43753C7.05664 7.00021 7.41444 6.64242 7.812 6.64242C8.20955 6.64242 8.56735 7.00021 8.56735 7.43753C8.56735 7.87482 8.20955 8.23261 7.812 8.23261Z" fill="white"/>
</g>
<defs>
<clipPath id="clip0_1539_19562">
<rect width="13" height="13" fill="white" transform="translate(0 0.5)"/>
</clipPath>
</defs>
</svg>
