<svg width="13" height="14" viewBox="0 0 13 14" fill="none" xmlns="http://www.w3.org/2000/svg">
<g id="tool" clip-path="url(#clip0_1539_20973)">
<path id="Vector" d="M3.25005 9.00146L1.24805 6.99946L7.74859 0.5H11.752L3.25005 9.00146ZM11.7515 6.49788H7.74805L6.24871 7.99721L8.25071 9.99921L11.7515 6.49788Z" fill="#42A5F5" fill-opacity="0.8"/>
<path id="Vector_2" d="M6.24878 12.0005L7.74865 13.4998H11.7521L8.25132 9.99902L6.24878 12.0005Z" fill="#0D47A1"/>
<path id="Vector_3" d="M4.25146 10.0003L6.25022 8.00098L8.24897 9.99973L6.25022 11.999L4.25146 10.0003Z" fill="#42A5F5"/>
<path id="Vector_4" d="M6.25024 11.9988L8.24899 10L8.52795 10.279L6.5292 12.2777L6.25024 11.9988Z" fill="url(#paint0_linear_1539_20973)"/>
<path id="Vector_5" d="M6.24878 12.0005L9.21874 10.9746L8.25024 9.99902L6.24878 12.0005Z" fill="url(#paint1_linear_1539_20973)"/>
</g>
<defs>
<linearGradient id="paint0_linear_1539_20973" x1="7.22591" y1="10.989" x2="7.51356" y2="11.2766" gradientUnits="userSpaceOnUse">
<stop offset="0.2" stop-opacity="0.15"/>
<stop offset="0.85" stop-color="#616161" stop-opacity="0.01"/>
</linearGradient>
<linearGradient id="paint1_linear_1539_20973" x1="6.40602" y1="11.0876" x2="9.16181" y2="11.0876" gradientUnits="userSpaceOnUse">
<stop offset="0.2" stop-opacity="0.55"/>
<stop offset="0.85" stop-color="#616161" stop-opacity="0.01"/>
</linearGradient>
<clipPath id="clip0_1539_20973">
<rect width="13" height="13" fill="white" transform="translate(0 0.5)"/>
</clipPath>
</defs>
</svg>
