<svg width="24" height="24" viewBox="0 0 24 24" fill="none" xmlns="http://www.w3.org/2000/svg">
<g id="icon-person-disabled">
<mask id="mask0_1594_20926" style="mask-type:alpha" maskUnits="userSpaceOnUse" x="0" y="0" width="24" height="24">
<rect id="Bounding box" width="24" height="24" fill="#D9D9D9"/>
</mask>
<g mask="url(#mask0_1594_20926)">
<g id="person_add_disabled">
<path d="M18.9557 21.519L16.3749 18.9536V19.3075H2.8942C2.47242 19.3075 2.11377 19.1597 1.81825 18.8642C1.52275 18.5687 1.375 18.2101 1.375 17.7883V17.0844C1.375 16.5947 1.50802 16.1412 1.77405 15.7239C2.04007 15.3066 2.39551 14.9858 2.84038 14.7614C3.82884 14.2768 4.82595 13.9133 5.8317 13.671C6.83747 13.4287 7.85189 13.3076 8.87498 13.3076C9.22626 13.3076 9.57498 13.3261 9.92115 13.3633C10.2673 13.4005 10.6141 13.4595 10.9616 13.5403L9.10383 11.6825C9.07049 11.6889 9.03395 11.6921 8.9942 11.6921H8.87498C7.91248 11.6921 7.08853 11.3494 6.40313 10.664C5.71771 9.9786 5.375 9.15465 5.375 8.19216V8.07294C5.375 8.03319 5.37821 7.99665 5.38463 7.96331L2.34038 4.91906C2.19166 4.77035 2.11827 4.59376 2.1202 4.38929C2.12212 4.18481 2.20063 4.005 2.35575 3.84986C2.51088 3.69475 2.68909 3.61719 2.89038 3.61719C3.09164 3.61719 3.26984 3.69475 3.42498 3.84986L20.025 20.4652C20.1737 20.6139 20.2496 20.788 20.2528 20.9873C20.256 21.1867 20.1801 21.3639 20.025 21.5191C19.8698 21.6742 19.6916 21.7517 19.4903 21.7517C19.2891 21.7517 19.1109 21.6742 18.9557 21.519ZM18.125 10.7498H15.875C15.6625 10.7498 15.4844 10.6779 15.3406 10.5341C15.1969 10.3903 15.125 10.2121 15.125 9.99951C15.125 9.78691 15.1969 9.60882 15.3406 9.46524C15.4844 9.32166 15.6625 9.24986 15.875 9.24986H18.125V6.99984C18.125 6.78734 18.1969 6.60921 18.3407 6.46546C18.4845 6.32173 18.6627 6.24986 18.8753 6.24986C19.0879 6.24986 19.266 6.32173 19.4096 6.46546C19.5532 6.60921 19.625 6.78734 19.625 6.99984V9.24986H21.875C22.0875 9.24986 22.2656 9.32176 22.4093 9.46556C22.5531 9.60938 22.625 9.78758 22.625 10.0002C22.625 10.2128 22.5531 10.3909 22.4093 10.5344C22.2656 10.678 22.0875 10.7498 21.875 10.7498H19.625V12.9998C19.625 13.2123 19.553 13.3905 19.4092 13.5342C19.2654 13.6779 19.0872 13.7498 18.8746 13.7498C18.662 13.7498 18.484 13.6779 18.3404 13.5342C18.1968 13.3905 18.125 13.2123 18.125 12.9998V10.7498ZM12.0519 9.64216L10.8557 8.44604C10.8621 8.40374 10.867 8.36143 10.8702 8.31911C10.8734 8.2768 10.875 8.23449 10.875 8.19219C10.875 7.64219 10.6791 7.17135 10.2875 6.77969C9.89581 6.38802 9.42498 6.19219 8.87498 6.19219C8.83266 6.19219 8.79034 6.19379 8.74803 6.19699C8.70573 6.2002 8.66342 6.20501 8.6211 6.21141L7.42498 5.01526C7.64293 4.90758 7.87551 4.82681 8.12273 4.77296C8.36994 4.71911 8.62069 4.69219 8.87498 4.69219C9.83746 4.69219 10.6614 5.0349 11.3468 5.72031C12.0322 6.40571 12.3749 7.22966 12.3749 8.19216C12.3749 8.44645 12.348 8.69719 12.2942 8.94439C12.2403 9.1916 12.1596 9.42421 12.0519 9.64216ZM2.87498 17.8075H14.875L12.9942 15.5729C12.3288 15.3178 11.6487 15.1264 10.9538 14.9989C10.2589 14.8713 9.56599 14.8075 8.87498 14.8075C7.96326 14.8075 7.05969 14.9168 6.16428 15.1354C5.26884 15.354 4.39036 15.6755 3.52883 16.0998C3.32754 16.2088 3.16824 16.3495 3.05093 16.5219C2.93363 16.6944 2.87498 16.8819 2.87498 17.0844V17.8075Z" fill="#030303"/>
<path d="M18.9557 21.519L16.3749 18.9536V19.3075H2.8942C2.47242 19.3075 2.11377 19.1597 1.81825 18.8642C1.52275 18.5687 1.375 18.2101 1.375 17.7883V17.0844C1.375 16.5947 1.50802 16.1412 1.77405 15.7239C2.04007 15.3066 2.39551 14.9858 2.84038 14.7614C3.82884 14.2768 4.82595 13.9133 5.8317 13.671C6.83747 13.4287 7.85189 13.3076 8.87498 13.3076C9.22626 13.3076 9.57498 13.3261 9.92115 13.3633C10.2673 13.4005 10.6141 13.4595 10.9616 13.5403L9.10383 11.6825C9.07049 11.6889 9.03395 11.6921 8.9942 11.6921H8.87498C7.91248 11.6921 7.08853 11.3494 6.40313 10.664C5.71771 9.9786 5.375 9.15465 5.375 8.19216V8.07294C5.375 8.03319 5.37821 7.99665 5.38463 7.96331L2.34038 4.91906C2.19166 4.77035 2.11827 4.59376 2.1202 4.38929C2.12212 4.18481 2.20063 4.005 2.35575 3.84986C2.51088 3.69475 2.68909 3.61719 2.89038 3.61719C3.09164 3.61719 3.26984 3.69475 3.42498 3.84986L20.025 20.4652C20.1737 20.6139 20.2496 20.788 20.2528 20.9873C20.256 21.1867 20.1801 21.3639 20.025 21.5191C19.8698 21.6742 19.6916 21.7517 19.4903 21.7517C19.2891 21.7517 19.1109 21.6742 18.9557 21.519ZM18.125 10.7498H15.875C15.6625 10.7498 15.4844 10.6779 15.3406 10.5341C15.1969 10.3903 15.125 10.2121 15.125 9.99951C15.125 9.78691 15.1969 9.60882 15.3406 9.46524C15.4844 9.32166 15.6625 9.24986 15.875 9.24986H18.125V6.99984C18.125 6.78734 18.1969 6.60921 18.3407 6.46546C18.4845 6.32173 18.6627 6.24986 18.8753 6.24986C19.0879 6.24986 19.266 6.32173 19.4096 6.46546C19.5532 6.60921 19.625 6.78734 19.625 6.99984V9.24986H21.875C22.0875 9.24986 22.2656 9.32176 22.4093 9.46556C22.5531 9.60938 22.625 9.78758 22.625 10.0002C22.625 10.2128 22.5531 10.3909 22.4093 10.5344C22.2656 10.678 22.0875 10.7498 21.875 10.7498H19.625V12.9998C19.625 13.2123 19.553 13.3905 19.4092 13.5342C19.2654 13.6779 19.0872 13.7498 18.8746 13.7498C18.662 13.7498 18.484 13.6779 18.3404 13.5342C18.1968 13.3905 18.125 13.2123 18.125 12.9998V10.7498ZM12.0519 9.64216L10.8557 8.44604C10.8621 8.40374 10.867 8.36143 10.8702 8.31911C10.8734 8.2768 10.875 8.23449 10.875 8.19219C10.875 7.64219 10.6791 7.17135 10.2875 6.77969C9.89581 6.38802 9.42498 6.19219 8.87498 6.19219C8.83266 6.19219 8.79034 6.19379 8.74803 6.19699C8.70573 6.2002 8.66342 6.20501 8.6211 6.21141L7.42498 5.01526C7.64293 4.90758 7.87551 4.82681 8.12273 4.77296C8.36994 4.71911 8.62069 4.69219 8.87498 4.69219C9.83746 4.69219 10.6614 5.0349 11.3468 5.72031C12.0322 6.40571 12.3749 7.22966 12.3749 8.19216C12.3749 8.44645 12.348 8.69719 12.2942 8.94439C12.2403 9.1916 12.1596 9.42421 12.0519 9.64216ZM2.87498 17.8075H14.875L12.9942 15.5729C12.3288 15.3178 11.6487 15.1264 10.9538 14.9989C10.2589 14.8713 9.56599 14.8075 8.87498 14.8075C7.96326 14.8075 7.05969 14.9168 6.16428 15.1354C5.26884 15.354 4.39036 15.6755 3.52883 16.0998C3.32754 16.2088 3.16824 16.3495 3.05093 16.5219C2.93363 16.6944 2.87498 16.8819 2.87498 17.0844V17.8075Z" fill="black" fill-opacity="0.2"/>
<path d="M18.9557 21.519L16.3749 18.9536V19.3075H2.8942C2.47242 19.3075 2.11377 19.1597 1.81825 18.8642C1.52275 18.5687 1.375 18.2101 1.375 17.7883V17.0844C1.375 16.5947 1.50802 16.1412 1.77405 15.7239C2.04007 15.3066 2.39551 14.9858 2.84038 14.7614C3.82884 14.2768 4.82595 13.9133 5.8317 13.671C6.83747 13.4287 7.85189 13.3076 8.87498 13.3076C9.22626 13.3076 9.57498 13.3261 9.92115 13.3633C10.2673 13.4005 10.6141 13.4595 10.9616 13.5403L9.10383 11.6825C9.07049 11.6889 9.03395 11.6921 8.9942 11.6921H8.87498C7.91248 11.6921 7.08853 11.3494 6.40313 10.664C5.71771 9.9786 5.375 9.15465 5.375 8.19216V8.07294C5.375 8.03319 5.37821 7.99665 5.38463 7.96331L2.34038 4.91906C2.19166 4.77035 2.11827 4.59376 2.1202 4.38929C2.12212 4.18481 2.20063 4.005 2.35575 3.84986C2.51088 3.69475 2.68909 3.61719 2.89038 3.61719C3.09164 3.61719 3.26984 3.69475 3.42498 3.84986L20.025 20.4652C20.1737 20.6139 20.2496 20.788 20.2528 20.9873C20.256 21.1867 20.1801 21.3639 20.025 21.5191C19.8698 21.6742 19.6916 21.7517 19.4903 21.7517C19.2891 21.7517 19.1109 21.6742 18.9557 21.519ZM18.125 10.7498H15.875C15.6625 10.7498 15.4844 10.6779 15.3406 10.5341C15.1969 10.3903 15.125 10.2121 15.125 9.99951C15.125 9.78691 15.1969 9.60882 15.3406 9.46524C15.4844 9.32166 15.6625 9.24986 15.875 9.24986H18.125V6.99984C18.125 6.78734 18.1969 6.60921 18.3407 6.46546C18.4845 6.32173 18.6627 6.24986 18.8753 6.24986C19.0879 6.24986 19.266 6.32173 19.4096 6.46546C19.5532 6.60921 19.625 6.78734 19.625 6.99984V9.24986H21.875C22.0875 9.24986 22.2656 9.32176 22.4093 9.46556C22.5531 9.60938 22.625 9.78758 22.625 10.0002C22.625 10.2128 22.5531 10.3909 22.4093 10.5344C22.2656 10.678 22.0875 10.7498 21.875 10.7498H19.625V12.9998C19.625 13.2123 19.553 13.3905 19.4092 13.5342C19.2654 13.6779 19.0872 13.7498 18.8746 13.7498C18.662 13.7498 18.484 13.6779 18.3404 13.5342C18.1968 13.3905 18.125 13.2123 18.125 12.9998V10.7498ZM12.0519 9.64216L10.8557 8.44604C10.8621 8.40374 10.867 8.36143 10.8702 8.31911C10.8734 8.2768 10.875 8.23449 10.875 8.19219C10.875 7.64219 10.6791 7.17135 10.2875 6.77969C9.89581 6.38802 9.42498 6.19219 8.87498 6.19219C8.83266 6.19219 8.79034 6.19379 8.74803 6.19699C8.70573 6.2002 8.66342 6.20501 8.6211 6.21141L7.42498 5.01526C7.64293 4.90758 7.87551 4.82681 8.12273 4.77296C8.36994 4.71911 8.62069 4.69219 8.87498 4.69219C9.83746 4.69219 10.6614 5.0349 11.3468 5.72031C12.0322 6.40571 12.3749 7.22966 12.3749 8.19216C12.3749 8.44645 12.348 8.69719 12.2942 8.94439C12.2403 9.1916 12.1596 9.42421 12.0519 9.64216ZM2.87498 17.8075H14.875L12.9942 15.5729C12.3288 15.3178 11.6487 15.1264 10.9538 14.9989C10.2589 14.8713 9.56599 14.8075 8.87498 14.8075C7.96326 14.8075 7.05969 14.9168 6.16428 15.1354C5.26884 15.354 4.39036 15.6755 3.52883 16.0998C3.32754 16.2088 3.16824 16.3495 3.05093 16.5219C2.93363 16.6944 2.87498 16.8819 2.87498 17.0844V17.8075Z" fill="black" fill-opacity="0.2"/>
<path d="M18.9557 21.519L16.3749 18.9536V19.3075H2.8942C2.47242 19.3075 2.11377 19.1597 1.81825 18.8642C1.52275 18.5687 1.375 18.2101 1.375 17.7883V17.0844C1.375 16.5947 1.50802 16.1412 1.77405 15.7239C2.04007 15.3066 2.39551 14.9858 2.84038 14.7614C3.82884 14.2768 4.82595 13.9133 5.8317 13.671C6.83747 13.4287 7.85189 13.3076 8.87498 13.3076C9.22626 13.3076 9.57498 13.3261 9.92115 13.3633C10.2673 13.4005 10.6141 13.4595 10.9616 13.5403L9.10383 11.6825C9.07049 11.6889 9.03395 11.6921 8.9942 11.6921H8.87498C7.91248 11.6921 7.08853 11.3494 6.40313 10.664C5.71771 9.9786 5.375 9.15465 5.375 8.19216V8.07294C5.375 8.03319 5.37821 7.99665 5.38463 7.96331L2.34038 4.91906C2.19166 4.77035 2.11827 4.59376 2.1202 4.38929C2.12212 4.18481 2.20063 4.005 2.35575 3.84986C2.51088 3.69475 2.68909 3.61719 2.89038 3.61719C3.09164 3.61719 3.26984 3.69475 3.42498 3.84986L20.025 20.4652C20.1737 20.6139 20.2496 20.788 20.2528 20.9873C20.256 21.1867 20.1801 21.3639 20.025 21.5191C19.8698 21.6742 19.6916 21.7517 19.4903 21.7517C19.2891 21.7517 19.1109 21.6742 18.9557 21.519ZM18.125 10.7498H15.875C15.6625 10.7498 15.4844 10.6779 15.3406 10.5341C15.1969 10.3903 15.125 10.2121 15.125 9.99951C15.125 9.78691 15.1969 9.60882 15.3406 9.46524C15.4844 9.32166 15.6625 9.24986 15.875 9.24986H18.125V6.99984C18.125 6.78734 18.1969 6.60921 18.3407 6.46546C18.4845 6.32173 18.6627 6.24986 18.8753 6.24986C19.0879 6.24986 19.266 6.32173 19.4096 6.46546C19.5532 6.60921 19.625 6.78734 19.625 6.99984V9.24986H21.875C22.0875 9.24986 22.2656 9.32176 22.4093 9.46556C22.5531 9.60938 22.625 9.78758 22.625 10.0002C22.625 10.2128 22.5531 10.3909 22.4093 10.5344C22.2656 10.678 22.0875 10.7498 21.875 10.7498H19.625V12.9998C19.625 13.2123 19.553 13.3905 19.4092 13.5342C19.2654 13.6779 19.0872 13.7498 18.8746 13.7498C18.662 13.7498 18.484 13.6779 18.3404 13.5342C18.1968 13.3905 18.125 13.2123 18.125 12.9998V10.7498ZM12.0519 9.64216L10.8557 8.44604C10.8621 8.40374 10.867 8.36143 10.8702 8.31911C10.8734 8.2768 10.875 8.23449 10.875 8.19219C10.875 7.64219 10.6791 7.17135 10.2875 6.77969C9.89581 6.38802 9.42498 6.19219 8.87498 6.19219C8.83266 6.19219 8.79034 6.19379 8.74803 6.19699C8.70573 6.2002 8.66342 6.20501 8.6211 6.21141L7.42498 5.01526C7.64293 4.90758 7.87551 4.82681 8.12273 4.77296C8.36994 4.71911 8.62069 4.69219 8.87498 4.69219C9.83746 4.69219 10.6614 5.0349 11.3468 5.72031C12.0322 6.40571 12.3749 7.22966 12.3749 8.19216C12.3749 8.44645 12.348 8.69719 12.2942 8.94439C12.2403 9.1916 12.1596 9.42421 12.0519 9.64216ZM2.87498 17.8075H14.875L12.9942 15.5729C12.3288 15.3178 11.6487 15.1264 10.9538 14.9989C10.2589 14.8713 9.56599 14.8075 8.87498 14.8075C7.96326 14.8075 7.05969 14.9168 6.16428 15.1354C5.26884 15.354 4.39036 15.6755 3.52883 16.0998C3.32754 16.2088 3.16824 16.3495 3.05093 16.5219C2.93363 16.6944 2.87498 16.8819 2.87498 17.0844V17.8075Z" fill="black" fill-opacity="0.2"/>
</g>
</g>
</g>
</svg>
