<svg width="13" height="14" viewBox="0 0 13 14" fill="none" xmlns="http://www.w3.org/2000/svg">
<g id="Group">
<path id="Vector" d="M5.91482 0.665434C6.26828 0.481729 6.72867 0.480899 7.08182 0.665434C8.85853 1.577 10.6358 2.48714 12.4122 3.39926C12.7463 3.57015 12.9698 3.90778 12.9664 4.25735V9.74169C12.9689 10.1057 12.7233 10.4514 12.3708 10.6185C10.5999 11.525 8.82999 12.4326 7.05943 13.3392C6.69866 13.5265 6.22904 13.5121 5.87954 13.3094C5.34863 13.03 4.81682 12.7519 4.28586 12.4727C4.17737 12.414 4.05506 12.3672 3.97845 12.2717C4.04618 12.1888 4.16726 12.1785 4.26566 12.1423C4.48727 12.0783 4.6908 11.9756 4.89439 11.876C4.94587 11.844 5.00873 11.8562 5.05807 11.8848C5.51206 12.1212 5.96204 12.3644 6.41755 12.5985C6.51472 12.6495 6.61311 12.5818 6.69617 12.5398C8.43394 11.648 10.1738 10.7596 11.9113 9.8675C11.9757 9.83938 12.0113 9.77733 12.006 9.7133C12.0072 7.90413 12.0063 6.09464 12.0066 4.28547C12.014 4.21282 11.9677 4.14602 11.8953 4.11629C10.1306 3.2139 8.36682 2.31012 6.6024 1.40749C6.57183 1.38841 6.53562 1.37817 6.49852 1.37812C6.46143 1.37807 6.42518 1.38822 6.39455 1.40722C4.63013 2.31012 2.86663 3.21473 1.10222 4.11707C1.03012 4.14685 0.98174 4.21254 0.99032 4.28547C0.990625 6.09464 0.99032 7.90413 0.99032 9.71357C0.987261 9.74481 0.994818 9.77616 1.01197 9.80338C1.02913 9.83061 1.05506 9.8524 1.08628 9.86584C1.55712 10.1083 2.02857 10.349 2.49972 10.5906C2.76514 10.7203 3.09104 10.7974 3.38347 10.698C3.64154 10.614 3.82243 10.3749 3.81751 10.1261C3.81994 8.32746 3.81629 6.52857 3.81933 4.73024C3.81289 4.6504 3.8963 4.58443 3.9818 4.59194C4.20803 4.59056 4.43457 4.58918 4.6608 4.59249C4.75523 4.59056 4.82022 4.67653 4.80854 4.75698C4.80763 6.56697 4.81098 8.37702 4.80702 10.187C4.80763 10.6694 4.58937 11.1943 4.09796 11.4303C3.49258 11.7151 2.74433 11.6547 2.14626 11.3816C1.6285 11.147 1.13441 10.8701 0.625841 10.6187C0.27243 10.4526 0.0280735 10.1055 0.0305613 9.74174V4.25735C0.0268551 3.90054 0.25923 3.55678 0.603756 3.38838C2.37431 2.4811 4.14457 1.57313 5.91482 0.665434Z" fill="#8CC84B"/>
<path id="Vector_2" d="M7.4595 4.46417C8.23171 4.41903 9.0584 4.43743 9.75329 4.78285C10.2913 5.04755 10.5896 5.60309 10.5991 6.14582C10.584 6.21903 10.4998 6.25941 10.4228 6.25439C10.1988 6.25411 9.97465 6.25715 9.7506 6.253C9.65556 6.25632 9.60032 6.17675 9.58839 6.10046C9.52401 5.84078 9.36805 5.58359 9.09887 5.45834C8.68565 5.27049 8.20653 5.27994 7.75594 5.28386C7.427 5.29972 7.07329 5.32558 6.79461 5.50122C6.58067 5.63426 6.51568 5.90283 6.59204 6.11913C6.66403 6.27444 6.86148 6.32455 7.02303 6.37074C7.95364 6.59174 8.9398 6.56975 9.85265 6.86059C10.2306 6.97916 10.6003 7.20965 10.7297 7.56895C10.8989 8.05051 10.8247 8.6261 10.4474 9.01269C10.1414 9.33082 9.69572 9.50397 9.25123 9.59801C8.65991 9.71773 8.04625 9.72078 7.44574 9.66762C6.88107 9.60917 6.29346 9.47447 5.85755 9.12513C5.48479 8.83124 5.30273 8.37334 5.32081 7.93139C5.32512 7.85675 5.40696 7.8047 5.48571 7.81084C5.71133 7.80918 5.93695 7.80862 6.16257 7.81111C6.25269 7.80526 6.3195 7.87597 6.32412 7.9531C6.36576 8.20051 6.46816 8.46019 6.70576 8.60688C7.16432 8.8755 7.7397 8.85711 8.26476 8.86462C8.69976 8.8471 9.18807 8.8418 9.54305 8.58074C9.73034 8.43184 9.78584 8.18272 9.73522 7.9684C9.68039 7.78746 9.47192 7.70315 9.29291 7.64801C8.37422 7.38414 7.37705 7.47989 6.46725 7.18149C6.09789 7.06297 5.74072 6.83888 5.59882 6.49433C5.40082 6.00669 5.49155 5.40353 5.90842 5.02999C6.31488 4.65843 6.90163 4.51538 7.4595 4.46417Z" fill="#8CC84B"/>
</g>
</svg>
