<svg width="13" height="14" viewBox="0 0 13 14" fill="none" xmlns="http://www.w3.org/2000/svg">
<g id="tool" clip-path="url(#clip0_1539_10195)">
<path id="Vector" d="M0.541748 1.05664H12.4584V12.9431H0.541748V1.05664Z" fill="url(#paint0_radial_1539_10195)"/>
<path id="Vector_2" d="M0.54166 1.05836H12.4584V12.9449H0.54166V1.05836ZM0 13.5003H13V0.50293H0V13.5003ZM8.76418 5.83518C8.33626 5.83518 8.19003 6.05735 8.19003 6.24064C8.19003 6.4406 8.28751 6.57946 8.86169 6.88496C9.7121 7.30711 9.97753 7.71257 9.97753 8.3069C9.97753 9.1956 9.3167 9.67329 8.42293 9.67329C7.95168 9.67329 7.54542 9.5733 7.31251 9.43446C7.2746 9.4178 7.26918 9.39003 7.26918 9.34558V8.52907C7.26918 8.47354 7.29626 8.45685 7.3342 8.48464C7.67545 8.71239 8.06544 8.81235 8.42293 8.81235C8.85086 8.81235 9.02961 8.62906 9.02961 8.3791C9.02961 8.17915 8.90502 8.00141 8.35792 7.71257C7.58875 7.33487 7.26918 6.95163 7.26918 6.31286C7.26918 5.59633 7.81628 5.00202 8.76418 5.00202C9.23002 5.00202 9.55502 5.07423 9.73377 5.15754C9.7771 5.18531 9.78793 5.22974 9.78793 5.26861V6.02956C9.78793 6.07399 9.76085 6.10178 9.70667 6.08509C9.46834 5.92961 9.11626 5.83518 8.76418 5.83518ZM4.10583 6.49616C4.23042 6.50726 4.32793 6.50726 4.54459 6.50726C5.17837 6.50726 5.77419 6.27954 5.77419 5.39639C5.77419 4.69099 5.34626 4.33548 4.62585 4.33548C4.40919 4.33548 4.20334 4.34659 4.10583 4.35214V6.49616ZM3.14169 3.54675C3.14169 3.50787 3.21753 3.48008 3.26084 3.48008C3.60752 3.46342 4.1221 3.45231 4.65835 3.45231C6.15876 3.45231 6.74375 4.29659 6.74375 5.37416C6.74375 6.78497 5.74708 7.39041 4.52293 7.39041C4.3171 7.39041 4.24669 7.3793 4.10042 7.3793V9.51221C4.10042 9.55664 4.08417 9.57885 4.03543 9.57885H3.20668C3.16335 9.57885 3.14166 9.56219 3.14166 9.51221V3.54675H3.14169Z" fill="#31C5F0"/>
</g>
<defs>
<radialGradient id="paint0_radial_1539_10195" cx="0" cy="0" r="1" gradientUnits="userSpaceOnUse" gradientTransform="translate(4.46653 3.72041) scale(9.05669 8.99151)">
<stop stop-color="#34364E" stop-opacity="0.98"/>
<stop offset="1" stop-color="#0C0824"/>
</radialGradient>
<clipPath id="clip0_1539_10195">
<rect width="13" height="13" fill="white" transform="translate(0 0.5)"/>
</clipPath>
</defs>
</svg>
