<svg width="13" height="14" viewBox="0 0 13 14" fill="none" xmlns="http://www.w3.org/2000/svg">
<g id="tool" clip-path="url(#clip0_1539_12999)">
<path id="Vector" d="M4.33341 13.5003C5.52941 13.5003 6.50008 12.5297 6.50008 11.3337V9.16699H4.33341C3.13741 9.16699 2.16675 10.1377 2.16675 11.3337C2.16675 12.5297 3.13741 13.5003 4.33341 13.5003Z" fill="#0ACF83"/>
<path id="Vector_2" d="M2.16675 6.99967C2.16675 5.80367 3.13741 4.83301 4.33341 4.83301H6.50008V9.16634H4.33341C3.13741 9.16634 2.16675 8.19567 2.16675 6.99967Z" fill="#A259FF"/>
<path id="Vector_3" d="M2.16675 2.66667C2.16675 1.47067 3.13741 0.5 4.33341 0.5H6.50008V4.83333H4.33341C3.13741 4.83333 2.16675 3.86267 2.16675 2.66667Z" fill="#F24E1E"/>
<path id="Vector_4" d="M6.5 0.5H8.66667C9.86267 0.5 10.8333 1.47067 10.8333 2.66667C10.8333 3.86267 9.86267 4.83333 8.66667 4.83333H6.5V0.5Z" fill="#FF7262"/>
<path id="Vector_5" d="M10.8333 6.99967C10.8333 8.19567 9.86267 9.16634 8.66667 9.16634C7.47067 9.16634 6.5 8.19567 6.5 6.99967C6.5 5.80367 7.47067 4.83301 8.66667 4.83301C9.86267 4.83301 10.8333 5.80367 10.8333 6.99967Z" fill="#1ABCFE"/>
</g>
<defs>
<clipPath id="clip0_1539_12999">
<rect width="13" height="13" fill="white" transform="translate(0 0.5)"/>
</clipPath>
</defs>
</svg>
